<?xml version="1.0" encoding="utf-8"?>
<!-- Generator: Adobe Illustrator 25.0.1, SVG Export Plug-In . SVG Version: 6.00 Build 0)  -->
<svg version="1.1" id="分離模式" xmlns="http://www.w3.org/2000/svg" xmlns:xlink="http://www.w3.org/1999/xlink" x="0px"
	 y="0px" viewBox="0 0 107.24 95.42" style="enable-background:new 0 0 107.24 95.42;" xml:space="preserve">
<style type="text/css">
	.st0{fill:#44150D;}
	.st1{fill:#F3CFB4;}
	.st2{fill:#FECB00;}
</style>
<g>
	<path class="st0" d="M17.35,79.25l15.36,4.83c3,0.94,6.22,0.47,8.74-1.25l1.87,0.9c3.99,1.92,8.28,2.94,12.73,3.02
		c3.58,0.06,7.1-0.48,10.52-1.62c-0.2,1.14,0.37,2.33,1.47,2.86l12.22,5.89c1.33,0.64,2.92,0.08,3.56-1.25l20.48-42.49
		c0.64-1.33,0.08-2.92-1.25-3.56l-12.22-5.89c-1.02-0.49-2.21-0.27-2.99,0.46c-2.22-6.09-6.21-11.35-11.41-14.97
		c-0.06-0.06-0.13-0.11-0.19-0.16c-1.24-0.95-2.51-1.73-3.76-2.34l-13.75-6.63c-0.6-0.29-1.24-0.52-1.89-0.69
		c-0.16-0.07-0.33-0.12-0.5-0.15c-5.8-1.11-12.64-2.61-13.58-3.06l-0.03-0.02L19.92,2.49c-2.91-1.4-6.19-1.57-9.23-0.5
		C7.64,3.07,5.2,5.27,3.82,8.2C1,14.15,3.59,21.35,9.58,24.24c0.03,0.02,0.07,0.03,0.1,0.05l13.65,5.9
		c-0.1,0.05-0.19,0.11-0.29,0.17c-2.39,1.43-4.19,3.74-5.06,6.52c-0.87,2.77-0.72,5.7,0.42,8.24c0.12,0.26,0.24,0.52,0.38,0.76
		c-0.21,0.09-0.42,0.19-0.63,0.3c-2.48,1.29-4.3,3.47-5.14,6.14c-0.84,2.66-0.59,5.5,0.71,7.97c0.3,0.57,0.64,1.11,1.04,1.61
		c-1.94,1.19-3.38,3.02-4.06,5.17c-0.78,2.48-0.5,5.11,0.79,7.43C12.74,76.77,14.83,78.45,17.35,79.25z"/>
	<g id="XMLID_13_">
		<g>
			<path class="st1" d="M14.77,68.35c-0.88,2.81,0.85,5.87,3.86,6.82L33.99,80c2.76,0.87,5.66-0.34,6.8-2.71
				c0.1-0.22,0.19-0.44,0.27-0.67c0.42-1.35,0.26-2.79-0.45-4.07c-0.54-0.96-1.33-1.74-2.31-2.27c-0.03-0.01-0.06-0.02-0.09-0.03
				c-0.18-0.06-0.34-0.14-0.48-0.25c-0.17-0.07-0.35-0.14-0.53-0.2l-14.34-4.51c-0.02-0.01-0.05-0.01-0.07-0.02l-0.18-0.06
				l-0.77-0.24c-1.47-0.46-3.03-0.36-4.37,0.3c-1.09,0.53-1.93,1.37-2.43,2.4C14.93,67.89,14.84,68.12,14.77,68.35z"/>
		</g>
	</g>
	<g id="XMLID_12_">
		<g>
			<path class="st1" d="M17.5,58.31c0.76,1.46,2.05,2.54,3.63,3.04c0.01,0,0.02,0.01,0.02,0.01l2.43,0.8l14.56,4.58
				c0.46,0.14,0.9,0.32,1.33,0.53c1.22,0.3,2.5,0.15,3.63-0.43c1.22-0.64,2.12-1.71,2.54-3.03c0.41-1.32,0.28-2.72-0.34-3.93
				c-1.97,0.38-4.07,0.17-6.01-0.75c-2.38-1.13-4.18-3.11-5.06-5.6c-0.13-0.37-0.24-0.74-0.32-1.12l-9.06-2.87
				c-1.58-0.5-3.25-0.35-4.72,0.42c-1.46,0.76-2.54,2.05-3.04,3.63C16.59,55.18,16.74,56.85,17.5,58.31z"/>
		</g>
	</g>
	<g id="XMLID_11_">
		<g>
			<path class="st1" d="M22.29,43.37c0.69,1.52,1.87,2.62,3.35,3.08c0.01,0,0.02,0.01,0.03,0.01c0.05,0.01,0.09,0.03,0.14,0.04
				l7.94,2.52c0.13-1.03,0.43-2.04,0.89-3l4.73-9.81l-9.59-2.78c-0.01,0-0.02-0.01-0.03-0.01c-1.47-0.46-3.07-0.25-4.51,0.61
				c-1.49,0.89-2.62,2.36-3.18,4.13C21.49,39.93,21.58,41.78,22.29,43.37z"/>
		</g>
	</g>
	<g id="XMLID_10_">
		<g>
			<path class="st1" d="M11.41,20.38l29.45,12.73l5.23-10.86c0.63-1.31,1.54-2.41,2.63-3.24c-3.31-0.71-6.74-1.52-7.79-2.02
				L18.1,6.35c-0.01,0-0.01-0.01-0.02-0.01c-1.88-0.91-4-1.02-5.97-0.33c-1.97,0.7-3.54,2.11-4.44,4.01
				C5.86,13.86,7.54,18.5,11.41,20.38z"/>
		</g>
	</g>
	<g id="XMLID_9_">
		<g>
			<path class="st1" d="M43.48,79.06l1.69,0.82c8.09,3.9,17.65,3.38,25.66-1.38l14.46-30c-1.08-7.82-5.26-14.73-11.53-18.99
				c-0.1-0.06-0.18-0.14-0.26-0.22c-0.96-0.72-1.93-1.31-2.87-1.77l-13.75-6.63c-2.94-1.42-6.48-0.18-7.9,2.76l-5.9,12.24
				c0,0,0,0,0,0.01c0,0,0,0,0,0l-5.55,11.51c-0.77,1.6-0.87,3.4-0.28,5.07c0.59,1.67,1.8,3.01,3.4,3.77
				c3.27,1.55,7.22,0.11,8.82-3.2l6.29-13.04c0.21-0.44,0.62-0.76,1.1-0.87c0.48-0.11,0.98,0.01,1.36,0.32
				c0.22,0.18,0.89,0.84,0.46,2c-0.06,0.16-0.14,0.34-0.24,0.56c-1.02,2.29-3.74,8.36,6.08,13.07c0.8,0.38,1.13,1.34,0.75,2.14
				c0,0,0,0,0,0c-0.38,0.8-1.34,1.13-2.13,0.75c-4.53-2.18-7.38-4.95-8.5-8.26l-2.28,4.72c-0.91,1.89-2.34,3.36-4.04,4.33
				c0.86,1.86,1.01,4,0.38,6c-0.12,0.39-0.27,0.77-0.45,1.13c-1.06,2.2-3.01,3.77-5.26,4.41c0.15,0.22,0.29,0.44,0.42,0.68
				c1.14,2.05,1.39,4.39,0.7,6.59c-0.12,0.39-0.27,0.75-0.44,1.11C43.61,78.81,43.54,78.94,43.48,79.06z"/>
		</g>
	</g>
	<g id="XMLID_2_">
		<g>
			<path class="st2" d="M71.34,84.82l9.33,4.5l19.09-39.6l-9.33-4.5l-2.03,4.22c0,0,0,0.01-0.01,0.01c0,0.01-0.01,0.01-0.01,0.02
				L73.51,80.31c0,0,0,0,0,0.01c0,0,0,0,0,0.01L71.34,84.82z"/>
		</g>
	</g>
</g>
</svg>
