<?xml version="1.0" encoding="utf-8"?>
<!-- Generator: Adobe Illustrator 25.0.1, SVG Export Plug-In . SVG Version: 6.00 Build 0)  -->
<svg version="1.1" id="圖層_1" xmlns="http://www.w3.org/2000/svg" xmlns:xlink="http://www.w3.org/1999/xlink" x="0px" y="0px"
	 viewBox="0 0 68.04 66.7" style="enable-background:new 0 0 68.04 66.7;" xml:space="preserve">
<style type="text/css">
	.st0{fill:#EAEAEA;}
</style>
<path class="st0" d="M60.74,11.77h-2.45c-0.01-2.09-0.2-5.13-1.06-6.77c-1.94-3.66-5.52-4.9-9.36-3.22
	c-1.19,0.52-3.78,2.08-7.69,4.63c-1.52-1.89-3.85-3.11-6.46-3.11c-2.57,0-4.87,1.18-6.4,3.02c-2.08-1.39-5.55-3.63-7.63-4.54
	C15.87,0.11,12.28,1.34,10.34,5c-0.86,1.63-1.05,4.67-1.06,6.77H7.31c-3.72,0-6.74,3.02-6.74,6.74v5.72c0,3.03,2.01,5.6,4.77,6.44
	v28.24c0,3.71,3.02,6.74,6.74,6.74h17.15h9.58h17.15c3.71,0,6.74-3.02,6.74-6.74V30.67c2.76-0.84,4.77-3.41,4.77-6.44V18.5
	C67.47,14.79,64.45,11.77,60.74,11.77z M49.45,5.39c1.93-0.84,3.34-0.37,4.3,1.46c0.39,0.73,0.58,2.84,0.6,4.92H42
	c0-0.06,0.01-0.12,0.01-0.18c0-0.54-0.06-1.06-0.15-1.57C47.06,6.61,48.84,5.65,49.45,5.39z M36.84,27.03H31.2V15.7h5.65V27.03z
	 M33.72,7.23c2.4,0,4.35,1.95,4.35,4.35c0,0.06-0.01,0.12-0.02,0.18h-8.68c0-0.06-0.02-0.12-0.02-0.18
	C29.36,9.19,31.31,7.23,33.72,7.23z M13.81,6.84c0.97-1.82,2.38-2.3,4.3-1.46c1.83,0.8,5.35,3.08,7.48,4.52
	c-0.11,0.54-0.17,1.11-0.17,1.68c0,0.06,0.01,0.12,0.01,0.18H13.21C13.23,9.68,13.43,7.57,13.81,6.84z M4.5,24.23V18.5
	c0-1.55,1.26-2.8,2.8-2.8h19.96v11.33H7.31C5.76,27.03,4.5,25.77,4.5,24.23z M9.27,58.92V30.97h17.99v30.75H12.08
	C10.53,61.72,9.27,60.46,9.27,58.92z M31.2,61.72V30.97h5.65v30.75H31.2z M58.77,58.92c0,1.55-1.26,2.8-2.8,2.8H40.78V30.97h17.99
	V58.92z M63.54,24.23c0,1.55-1.26,2.8-2.8,2.8H40.78V15.7h19.96c1.54,0,2.8,1.26,2.8,2.8V24.23z"/>
</svg>
