<?xml version="1.0" encoding="utf-8"?>
<!-- Generator: Adobe Illustrator 25.0.1, SVG Export Plug-In . SVG Version: 6.00 Build 0)  -->
<svg version="1.1" id="Layer_2" xmlns="http://www.w3.org/2000/svg" xmlns:xlink="http://www.w3.org/1999/xlink" x="0px" y="0px"
	 viewBox="0 0 40.83 36.29" style="enable-background:new 0 0 40.83 36.29;" xml:space="preserve">
<style type="text/css">
	.st0{fill:#FFFFFF;}
</style>
<g>
	<path class="st0" d="M39.05,16.81c-0.28,0-0.55-0.09-0.77-0.25L20.37,3.77L2.46,16.56c-0.63,0.38-1.45,0.17-1.83-0.47
		c-0.33-0.56-0.21-1.27,0.28-1.69L19.6,1.05c0.46-0.33,1.08-0.33,1.55,0L39.83,14.4c0.6,0.43,0.73,1.27,0.3,1.86
		C39.87,16.6,39.48,16.81,39.05,16.81z"/>
	<path class="st0" d="M5.69,8.8c-0.74,0-1.33-0.6-1.33-1.33V2.13c0-0.74,0.6-1.33,1.33-1.33h5.34c0.74,0,1.33,0.6,1.33,1.33
		s-0.6,1.33-1.33,1.33h-4v4C7.03,8.21,6.43,8.8,5.69,8.8z"/>
	<path class="st0" d="M32.38,35.49h-6.67c-0.74,0-1.33-0.6-1.33-1.33v-9.34h-8.01v9.34c0,0.74-0.6,1.33-1.33,1.33H8.36
		c-2.21,0-4-1.79-4-4V18.15c0-0.74,0.6-1.33,1.33-1.33s1.33,0.6,1.33,1.33v13.34c0,0.74,0.6,1.33,1.33,1.33h5.34v-9.34
		c0-0.74,0.6-1.33,1.33-1.33h10.68c0.74,0,1.33,0.6,1.33,1.33v9.34h5.34c0.74,0,1.33-0.6,1.33-1.33V18.15c0-0.74,0.6-1.33,1.33-1.33
		c0.74,0,1.33,0.6,1.33,1.33v13.34C36.38,33.7,34.59,35.49,32.38,35.49z"/>
</g>
</svg>
