<?xml version="1.0" encoding="utf-8"?>
<!-- Generator: Adobe Illustrator 25.0.1, SVG Export Plug-In . SVG Version: 6.00 Build 0)  -->
<svg version="1.1" id="圖層_1" xmlns="http://www.w3.org/2000/svg" xmlns:xlink="http://www.w3.org/1999/xlink" x="0px" y="0px"
	 viewBox="0 0 39.44 35.57" style="enable-background:new 0 0 39.44 35.57;" xml:space="preserve">
<style type="text/css">
	.st0{fill:#CF2B28;}
</style>
<path class="st0" d="M25.76,3.73c-1.27-2.14-3.53-3.45-6.04-3.45c-2.5,0-4.76,1.27-6.03,3.45L1.25,24.6
	c-1.35,2.22-1.35,4.85-0.08,7.11c1.27,2.22,3.57,3.57,6.12,3.57h24.88c2.59,0,4.85-1.31,6.12-3.57c1.27-2.22,1.23-4.89-0.08-7.11
	L25.76,3.73z M19.73,29.82c-1.56,0-2.83-1.27-2.83-2.83c0-1.56,1.27-2.84,2.83-2.84c1.56,0,2.83,1.27,2.83,2.84
	C22.56,28.55,21.29,29.82,19.73,29.82z M22.68,10.6l-0.82,9.37c-0.04,0.57-0.33,1.11-0.78,1.48c-0.37,0.33-0.86,0.49-1.4,0.49
	c-0.08,0-0.12,0-0.21,0c-1.03-0.08-1.89-0.9-1.97-1.97l-0.82-9.37c-0.08-0.78,0.16-1.56,0.7-2.18c0.53-0.62,1.23-0.99,2.01-1.07
	c0.82-0.08,1.56,0.16,2.18,0.7c0.62,0.49,0.98,1.23,1.07,2.01C22.72,10.27,22.72,10.43,22.68,10.6z"/>
</svg>
