<?xml version="1.0" encoding="utf-8"?>
<!-- Generator: Adobe Illustrator 25.1.0, SVG Export Plug-In . SVG Version: 6.00 Build 0)  -->
<svg version="1.1" id="圖層_1" xmlns="http://www.w3.org/2000/svg" xmlns:xlink="http://www.w3.org/1999/xlink" x="0px" y="0px"
	 viewBox="0 0 602.5 97.9" style="enable-background:new 0 0 602.5 97.9;" xml:space="preserve">
<style type="text/css">
	.st0{fill:#44150D;}
	.st1{fill:#FFFFFF;}
	.st2{fill:#FFEC9E;}
</style>
<g>
	<g>
		<g>
			<path class="st0" d="M45.6,28.7c0,2.2-1.2,3.4-3.4,3.4H19c-2.2,0-3.4-1.2-3.4-3.4c0-2.2,1.2-3.4,3.4-3.4h5.9v-7.2
				c0-3.1,2-5,5.7-5s5.7,1.9,5.7,5v7.2h5.9C44.4,25.3,45.6,26.5,45.6,28.7z M17.8,40.6c0-2.2,1.3-3.3,3.4-3.3H40
				c2.2,0,3.4,1.1,3.4,3.3S42.2,44,40,44H21.2C19.1,44,17.8,42.7,17.8,40.6z M17.8,51.4c0-2.2,1.3-3.3,3.4-3.3H40
				c2.2,0,3.4,1.1,3.4,3.3s-1.3,3.4-3.4,3.4H21.2C19.1,54.9,17.8,53.6,17.8,51.4z M43.7,64.6v18.9c0,3.1-1.9,4.9-5.4,4.9
				S33,86.6,33,83.5v-1.4h-3.9v1.4c0,3.1-1.9,4.9-5.4,4.9c-3.4,0-5.4-1.8-5.4-4.9V64.6c0-3.4,1.8-5.2,5.2-5.2h15
				C41.9,59.4,43.7,61.3,43.7,64.6z M33,67c0-0.6-0.4-1-1-1h-2c-0.6,0-1,0.4-1,1v8.6H33V67z M86.3,42.5c0,2.1-1.2,3.3-3.3,3.3H48.4
				c-2.1,0-3.3-1.2-3.3-3.3c0-2.1,1.2-3.3,3.3-3.3h11.1v-3.3h-8.2c-2.1,0-3.2-1.1-3.2-3.2c0-2.1,1.1-3.2,3.2-3.2h8.2v-3.1H49.5
				c-2.1,0-3.2-1.1-3.2-3.2s1.1-3.2,3.2-3.2h10.1v-2.1c0-3.3,2.1-5,5.8-5s5.8,1.8,5.8,5V20h10.8c2.1,0,3.2,1.1,3.2,3.2
				s-1.1,3.2-3.2,3.2H71.2v3.1h8.2c2.1,0,3.2,1.1,3.2,3.2c0,2.1-1.1,3.2-3.2,3.2h-8.2v3.3H83C85.1,39.2,86.3,40.4,86.3,42.5z
				 M83.6,54.4V80c0,8.1-8.6,10.2-18.4,6.2c-1.8-0.7-2.4-1.9-2.1-3.4c0.3-1.5,1.5-2.2,3.5-2.1c5,0.4,5.8-0.4,5.8-3.4v-2.1H58.3v8.7
				c0,3-2,4.7-5.5,4.7s-5.5-1.7-5.5-4.7V54.4c0-3.4,1.8-5.2,5.2-5.2h25.9C81.7,49.2,83.6,51,83.6,54.4z M58.3,56.7V59h14.2v-2.3
				c0-0.6-0.4-1-1-1H59.2C58.7,55.8,58.3,56.2,58.3,56.7z M72.4,68.8v-3.4H58.3v3.4H72.4z"/>
			<path class="st0" d="M52.8,94.6c-3,0-5.5-0.8-7.5-2.2c-1.9,1.3-4.2,2-6.9,2c-2.9,0-5.4-0.8-7.3-2.3c-1.9,1.5-4.4,2.3-7.3,2.3
				c-6.7,0-11.4-4.5-11.4-10.9V64.6c0-2.6,0.7-4.9,1.9-6.7c-1.5-1.7-2.4-3.9-2.4-6.5c0-2.1,0.6-3.9,1.6-5.4c-1-1.5-1.6-3.4-1.6-5.4
				c0-1.7,0.4-3.2,1-4.5c-2-1.7-3.3-4.3-3.3-7.4c0-5.5,3.8-9.4,9.4-9.4v-1.2c0-6.5,4.8-11,11.7-11c6.6,0,11.3,4.1,11.7,10.2
				c1.6-2,4.2-3.2,7.2-3.2h4.7c1.5-4.4,5.6-7.1,11.2-7.1s9.7,2.7,11.2,7.1h5.4c5.4,0,9.2,3.8,9.2,9.2c0,2.9-1.1,5.3-2.9,7
				c0.2,0.8,0.3,1.6,0.3,2.5c0,0.7-0.1,1.4-0.2,2.1c2.4,1.6,3.9,4.4,3.9,7.7c0,3.1-1.3,5.8-3.5,7.4c0.5,1.3,0.8,2.9,0.8,4.5V80
				c0,4.9-2.1,8.9-5.8,11.5c-5.1,3.5-12.7,3.6-20.8,0.3c-0.5-0.2-0.9-0.4-1.3-0.6C59.6,93.4,56.5,94.6,52.8,94.6z M77.5,72
				C77.5,72,77.6,72,77.5,72L77.5,72C77.6,71.9,77.5,72,77.5,72z M77.5,62.2C77.5,62.3,77.6,62.3,77.5,62.2L77.5,62.2
				C77.6,62.2,77.5,62.2,77.5,62.2z M78.7,55.2L78.7,55.2L78.7,55.2z M52.1,55.2L52.1,55.2L52.1,55.2z M64.6,32.7
				c0.3,0.6,0.6,1.2,0.8,1.8c0.2-0.7,0.4-1.3,0.8-1.8c-0.3-0.6-0.6-1.2-0.8-1.8C65.3,31.5,65,32.2,64.6,32.7z M64.6,23.2
				c0.3,0.6,0.6,1.2,0.8,1.8c0.2-0.7,0.4-1.3,0.8-1.8c-0.3-0.6-0.6-1.2-0.8-1.8C65.3,22,65,22.6,64.6,23.2z"/>
		</g>
		<g>
			<path class="st0" d="M171.5,36.5c-1.3,3.4-4.4,4.2-7,3c-1.9-0.9-3.6-2-5.2-3.2c-0.1,2-1.3,3.1-3.3,3.1h-15.7
				c-1.8,0-3.1-0.9-3.3-2.5c-2.2,1.6-4.5,2.8-6.6,3.7c-1,0.4-1.9,0.5-2.6,0.2v16.8c0,3.4-1.8,5.2-5.2,5.2H120v4.2h5.5
				c2.1,0,3.3,1.2,3.3,3.3s-1.2,3.3-3.3,3.3H120v10.4c0,2.8-1.8,4.3-5.1,4.3c-3.3,0-5.1-1.5-5.1-4.3V73.4h-7.3
				c-2.1,0-3.3-1.2-3.3-3.3s1.2-3.3,3.3-3.3h7.3v-4.2h-2.6c-3.4,0-5.2-1.8-5.2-5.2V38.9c0-3.4,1.8-5.2,5.2-5.2h2.6v-4.2h-6.8
				c-2.2,0-3.3-1.1-3.3-3.3s1.1-3.3,3.3-3.3h6.8v-5.5c0-2.8,1.8-4.3,5.1-4.3c3.3,0,5.1,1.5,5.1,4.3V23h7c2.2,0,3.3,1.1,3.3,3.3
				s-1.1,3.3-3.3,3.3h-7v4.1h2.6c2.2,0,3.8,0.8,4.6,2.3c0.2-0.2,0.3-0.3,0.6-0.5c6.4-5,11-11.5,14.5-19.7c1.3-3.1,4.6-4.3,7.9-2.6
				c2.9,1.4,3.7,3.7,2.8,6.2c4,4.4,8.2,7.3,15.3,10C171.6,30.7,172.7,33.2,171.5,36.5z M111.1,40.1h-1c-0.6,0-1,0.4-1,1v4h2V40.1z
				 M111.1,51.3h-2v4.1c0,0.6,0.4,1,1,1h1V51.3z M120.8,41c0-0.6-0.4-1-1-1h-1.2v5h2.2V41z M120.8,51.3h-2.2v5h1.2c0.6,0,1-0.4,1-1
				V51.3z M149.7,48.4v33.8c0,4.1-3.9,6.5-9.8,4.6c-1.4-0.5-1.9-1.5-1.8-2.9c0.1-1.1,0.8-2.1,1.8-2.2c0.8-0.1,1.4-0.4,1.4-1.8v-8.4
				h-3.8v13.1c0,2.4-1.5,3.8-4.2,3.8c-2.6,0-4.2-1.4-4.2-3.8V48.4c0-3.3,1.8-5,5-5h10.4C148,43.4,149.7,45.1,149.7,48.4z
				 M137.6,50.9v3.5h3.8v-3.5c0-0.6-0.4-1-1-1h-2C138,49.9,137.6,50.3,137.6,50.9z M141.4,65.3v-4.6h-3.8v4.6H141.4z M142.2,32.8
				h13.3c-2.3-2.5-4.2-5.3-5.7-8.2C147.6,27.5,145,30.3,142.2,32.8z M168.3,46.2v33.4c0,8.2-7.1,10.7-15.8,7c-1.5-0.6-2-1-1.6-3.3
				c0.2-1.4,1.3-2.2,3.2-1.9c4.7,0.6,5.6-0.4,5.6-3.8V46.2c0-2.6,1.5-4,4.3-4C166.8,42.2,168.3,43.6,168.3,46.2z M151.2,73.3V48.8
				c0-2.2,1.3-3.4,3.6-3.4c2.2,0,3.4,1.2,3.4,3.4v24.5c0,2.2-1.2,3.4-3.4,3.4C152.4,76.7,151.2,75.4,151.2,73.3z"/>
			<path class="st0" d="M133.4,94.4c-4,0-7.3-1.9-9-4.9c-1.8,2.9-5.3,4.7-9.6,4.7c-6.7,0-11.1-4.1-11.1-10.3v-4.4h-1.3
				c-5.4,0-9.3-3.9-9.3-9.3c0-3.2,1.4-5.9,3.7-7.6c-0.7-1.5-1-3.2-1-5.1V38.9c0-2,0.4-3.7,1.1-5.3c-2.1-1.6-3.3-4.2-3.3-7.4
				c0-5.5,3.8-9.3,9.3-9.3h0.8c0.2-5.9,4.6-9.8,11.1-9.8c6.5,0,10.9,4,11.1,9.9h1c2.7,0,5.1,1,6.7,2.6c1.1-1.9,2.1-3.9,3.1-6.1
				c1.2-3,3.5-5.3,6.5-6.4c3.1-1.1,6.5-0.9,9.7,0.7c4.1,2,6.4,5.5,6.4,9.5c2.9,2.7,6.2,4.6,11.1,6.5c6.4,2.4,9.1,8.3,6.8,14.7
				c0,0,0,0,0,0c-0.7,1.9-1.8,3.5-3.2,4.8c0.2,0.9,0.4,1.8,0.4,2.8v33.4c0,5.3-2.2,9.7-6.1,12.3c-4.6,3.1-11.2,3.2-18.1,0.3
				c-0.1,0-0.2-0.1-0.3-0.1c-2.9,1.5-6.6,1.8-10.5,0.8C137.7,93.8,135.7,94.4,133.4,94.4z M114.8,70.2c0,0,0.1,0.1,0.1,0.2
				c0-0.1,0.1-0.1,0.1-0.2c0,0-0.1-0.1-0.1-0.2C114.8,70.1,114.8,70.1,114.8,70.2z M137.6,54.6h3.8c0.1,0,0.3,0,0.4,0
				c0.1-0.1,0.2-0.2,0.3-0.3h-5.2c0.1,0.1,0.2,0.2,0.3,0.3C137.3,54.6,137.4,54.6,137.6,54.6z M117.1,51.3h1.5V51
				c-0.4,0-0.8,0-1.2-0.1c-0.1,0.1-0.2,0.1-0.4,0.2C117.1,51.2,117.1,51.2,117.1,51.3z M111.1,51.3h1.5c0-0.1,0-0.2,0-0.2
				c-0.1,0-0.2-0.1-0.2-0.1c-0.4,0.1-0.8,0.1-1.3,0.1V51.3z M111.1,45.3c0.5,0,0.9,0.1,1.4,0.2c0.1,0,0.1-0.1,0.1-0.1
				c0-0.1,0-0.2,0-0.3h-1.5V45.3z M117.1,45.2c0.1,0.1,0.2,0.1,0.3,0.2c0.4-0.1,0.8-0.1,1.3-0.1V45h-1.5
				C117.1,45.1,117.1,45.2,117.1,45.2z M171.5,36.5L171.5,36.5L171.5,36.5z M114.8,26.2c0,0.1,0.1,0.1,0.1,0.2c0,0,0-0.1,0.1-0.1
				c0-0.1-0.1-0.1-0.1-0.2C114.8,26.2,114.8,26.2,114.8,26.2z"/>
		</g>
		<g>
			<path class="st0" d="M184.7,81.1c15.7-12.5,25-30.8,28.1-55.3c0.1-0.6-0.3-1-1-1h-14.4c-2.6,0-4-1.4-4-4s1.4-4,4-4h21.8
				c5.5,0,7.5,2.8,7.8,7.6c1.2,17.8,11,36.4,24.5,48.2c4.5,3.9,5.1,8,2,11.8c-3.4,4.1-8.4,3.9-12.4-0.6c-9-10.2-16.5-29.8-17.8-43.6
				c-3.9,16.5-16.2,38.8-35.3,47c-2.1,0.9-3.8,0.5-4.7-1.2C182.4,84.1,182.9,82.6,184.7,81.1z"/>
			<path class="st0" d="M186.1,93.5c-3.4,0-6.4-1.7-8-4.9c0,0,0-0.1-0.1-0.1c-2.1-4.3-1-8.8,2.9-12c0,0,0,0,0.1-0.1
				c13.3-10.6,21.5-25.6,25-45.6h-8.6c-5.9,0-10-4.1-10-10s4.1-10,10-10h21.8c8.2,0,13.3,4.8,13.8,13.2c1.1,15.8,9.9,33.1,22.4,44
				c8.3,7.2,6.8,15.1,2.7,20.1c-2.7,3.2-6.2,5-10.1,5.1c-0.1,0-0.1,0-0.2,0c-4.1,0-8.1-2-11.3-5.6c-6.1-6.9-11.2-17-14.6-27
				c-6.9,13.4-17.7,26-31.6,31.9C188.9,93.2,187.5,93.5,186.1,93.5z M236.8,65.6c2.6,5.6,5.6,10.6,8.7,14.1c1.1,1.2,1.9,1.5,2.3,1.5
				c0.3,0,0.6-0.3,1-0.7c0.7-0.8,1.1-1.3-1.3-3.4C243.6,73.7,240,69.8,236.8,65.6z M218.2,22.8c0.5,1.2,0.7,2.5,0.6,3.8
				c-1.3,10.2-3.6,19.5-7,27.8c2.7-5.3,4.6-10.7,5.8-15.7c0.6-2.4,2.5-4.1,4.8-4.5c-0.7-3.1-1.1-6.3-1.3-9.4
				c-0.1-1.1-0.2-1.6-0.3-1.8c-0.2-0.1-0.6-0.2-1.5-0.2H218.2z"/>
		</g>
		<g>
			<path class="st0" d="M337.6,53.3c0,2.1-1.1,3.3-3.3,3.3H327V78c0,9.6-8.5,13.4-22.5,7.6c-1.8-0.7-2.6-1.8-2.2-3.5
				c0.3-1.7,1.4-2.5,3.4-2.2c7.8,1,8.6,0.1,8.6-4.5V56.6H272c-2.2,0-3.3-1.2-3.3-3.3c0-2,1.1-3.1,3.3-3.1h7.4c-0.7-0.3-1-1-1.1-1.8
				c-0.1-1.4,0.3-2.2,2.1-2.6c6.8-1.8,11-4.5,13.6-7.8h-9c-1.9,0-3-1.1-3-3c0-1.9,1.1-3,3-3h12.2c0.3-0.9,0.6-1.8,0.8-2.6
				c0.2-0.6,0.3-1.1,0.6-1.6h-16.7c-0.6,0-1,0.4-1,1v4.8c0,3.3-2.1,5-5.8,5c-3.8,0-5.8-1.8-5.8-5v-7.1c0-3.4,1.8-5.2,5.2-5.2h22v-3
				c0-3.6,2.4-5.8,6.8-5.8c4.3,0,6.8,2.2,6.8,5.8v3h22c3.4,0,5.2,1.8,5.2,5.2v6.6c0,3.3-2.1,5-5.8,5c-3.8,0-5.8-1.8-5.8-5v-4.3
				c0-0.6-0.4-1-1-1h-15.4c0.5,1,0.6,2.2,0.2,3.8c-0.1,0.2-0.1,0.3-0.2,0.5h12.2c1.9,0,3,1.1,3,3c0,1.9-1.1,3-3,3h-14.7
				c-0.2,0.3-0.4,0.7-0.6,1c6.2,0.9,12.2,2.3,17.6,4.4c3.1,1.2,4.1,3.4,2.9,6c-0.2,0.3-0.2,0.6-0.4,0.8h8.3
				C336.5,50.2,337.6,51.3,337.6,53.3z M304.8,77.6h-22.2c-3.4,0-5.2-1.8-5.2-5.2v-8.1c0-3.4,1.8-5.2,5.2-5.2h22.2
				c3.4,0,5.2,1.8,5.2,5.2v8.1C310,75.8,308.2,77.6,304.8,77.6z M284.1,50.2h33.6c-4.6-2.3-10-4.7-15.7-6.8
				C297.9,47,292,49.4,284.1,50.2z M298.5,66.2c0-0.6-0.4-1-1-1h-7.4c-0.6,0-1,0.4-1,1v4.4c0,0.6,0.4,1,1,1h7.4c0.6,0,1-0.4,1-1
				V66.2z"/>
			<path class="st0" d="M316.3,94.3c-3.7,0-8.4-0.9-14-3.2c-3.5-1.5-5.7-4.2-6-7.5h-13.6c-6.7,0-11.2-4.5-11.2-11.2v-8.1
				c0-0.6,0-1.2,0.1-1.8c-5.3-0.2-8.9-3.9-8.9-9.3c0-5.4,3.8-9.1,9.3-9.1h0.3c-5.5-1-9.1-5.1-9.1-10.8v-7.1
				c0-6.7,4.5-11.2,11.2-11.2h16.3c1.2-5.4,5.9-8.9,12.5-8.9c6.4,0,11.2,3.5,12.5,8.9H332c6.7,0,11.2,4.5,11.2,11.2v6.6
				c0,6.3-4.3,10.6-10.8,11c0,0.1,0.1,0.2,0.1,0.3h1.9c5.5,0,9.3,3.8,9.3,9.1c0,5.5-3.8,9.3-9.3,9.3H333V78c0,5.9-2.4,10.7-6.6,13.5
				C324.2,93,320.9,94.3,316.3,94.3z M320.2,55.6c0,0.3,0.1,0.6,0.1,0.9v18.8c0,1.6,0,4.2-1.4,6.6c0.3-0.1,0.6-0.2,0.8-0.4
				c0.3-0.2,1.3-0.9,1.3-3.6V56.6c0-0.5,0.1-1,0.2-1.5C320.9,55.3,320.6,55.5,320.2,55.6z M293,68.3c0.2,0.4,0.5,0.8,0.8,1.2
				c0.3-0.3,0.6-0.7,0.8-1.2c-0.2-0.4-0.5-0.8-0.8-1.2C293.5,67.5,293.3,67.9,293,68.3z M334.4,56.2L334.4,56.2L334.4,56.2z
				 M299.9,37.2c0,0.2,0,0.4,0,0.6c0,0,0.1,0,0.1,0c0.1-0.2,0.1-0.5,0.2-0.7C300.2,37,300.1,37.1,299.9,37.2z M274.8,33.5
				L274.8,33.5L274.8,33.5z M303.2,32.8c0,0.1-0.1,0.2-0.1,0.2c0,0,0.1,0,0.1-0.1C303.2,32.9,303.2,32.9,303.2,32.8z M274.2,32.3
				C274.2,32.3,274.2,32.3,274.2,32.3S274.2,32.3,274.2,32.3z M275.8,32.3L275.8,32.3z M330.5,31.8L330.5,31.8L330.5,31.8z
				 M332.1,31.8L332.1,31.8z M302.1,22.8c0.6,0.4,1.1,1,1.5,1.7c0.1,0.1,0.1,0.2,0.2,0.3c0.1-0.1,0.1-0.2,0.2-0.3
				c0.2-0.3,0.4-0.5,0.6-0.8c-0.4-0.8-0.6-1.7-0.6-2.6v-2.8c-0.4-0.1-1.2-0.1-1.6,0V21C302.4,21.6,302.3,22.2,302.1,22.8z
				 M302.4,17.8L302.4,17.8L302.4,17.8z"/>
		</g>
		<g>
			<path class="st0" d="M417.2,86.6c-8.2,0.5-15.5,0.2-25.1-0.2c-10.7-0.4-20.4-3.8-23.5-10.1c-0.2-0.5-0.6-0.6-0.9,0
				c-1.2,3-3.4,6.2-6.2,9.3c-2.9,3.2-6.7,4.4-9.6,1.4s-2.2-6.6,1.2-9.1c2.1-1.6,4.9-4.2,6.5-6.1V56.3c0-0.6-0.4-1-1-1h-4.8
				c-2.1,0-3.3-1.4-3.3-3.4s1.2-3.3,3.3-3.3h13.2c3.4,0,5.2,1.8,5.2,5.2V70c1.9,4.4,7.8,5.7,17.8,5.7c8.9,0,17.1-0.2,26.6-1.4
				c4.4-0.6,7.1,1.2,7.3,5.4S422.6,86.2,417.2,86.6z M352.8,31c0.8-1.4,2.4-1.5,4-0.9c3.4,1.1,7.5,3.3,10.8,5.5
				c3.4,2.2,3.9,5.3,1.4,8c-2.4,2.7-5.7,2.6-8.2-0.6c-2.2-2.9-4.9-5.6-7.3-7.8C352.3,33.9,352,32.4,352.8,31z M357.5,18.7
				c-1.3-1.3-1.6-2.7-0.6-4.1c1-1.4,2.2-1.4,3.8-0.9c3.4,1.2,7.4,3.1,10.6,5.6c3,2.4,3.4,5.1,1,7.8c-2.4,2.6-5.1,2.2-7.8-0.8
				C362.3,23.6,359.7,21,357.5,18.7z M389.7,44.4c0.2-2.6,0.2-5.4,0.2-8.6h-10.2c-2.2,0-3.4-1.3-3.4-3.5c0-2.2,1.3-3.4,3.4-3.4h5.7
				c-0.3-0.4-0.6-0.9-0.9-1.4c-1.7-3.1-3.8-6.3-5.4-8.9c-1.1-1.7-1-3.1,0.2-4.3c1.3-1.2,2.7-0.9,4.3,0.1c2.8,1.8,6.4,4.6,8.9,7.8
				c2,2.6,2.2,4.9,0.3,6.7h5.8c1.4-3.4,2.7-7.6,3.7-11.4c1.1-4.3,3.9-5.3,7.6-3.9c3.4,1.3,4.4,4.2,2.1,8.3c-1.4,2.5-3.2,4.9-5.2,7
				h7.4c2.2,0,3.4,1.1,3.4,3.4c0,2.2-1.2,3.5-3.4,3.5h-11.4c0,3-0.2,5.9-0.6,8.6h15.5c2.2,0,3.4,1.1,3.4,3.4c0,2.2-1.3,3.5-3.4,3.5
				h-16.9c-0.2,0.7-0.4,1.4-0.6,2c5.7,1.8,12.1,5.1,17,8.9c3.2,2.5,3.5,5.5,1,8.4c-2.5,2.9-5.5,2.8-8.3-0.4
				c-3.7-4.2-7.8-8.2-12.1-11.5c-3.8,6.5-9.7,11-18.5,14.2c-1.9,0.7-3.2,0.2-3.9-1.3s-0.4-2.8,1.3-4c6.9-5,10.3-9.3,12-16.3h-11.8
				c-2.2,0-3.4-1.3-3.4-3.5c0-2.2,1.3-3.4,3.4-3.4H389.7z"/>
			<path class="st0" d="M355.8,94.7c-3,0-5.9-1.3-8.2-3.6c-2.5-2.6-3.7-5.8-3.4-9c0.3-3.4,2.2-6.6,5.3-9c1.3-1,2.9-2.4,4.1-3.6v-8.1
				c-5.3-0.1-9-4-9-9.4c0-5,3.4-8.7,8.2-9.2c-1-1-2.1-2.1-3.2-3.1c-3.5-3.1-4.2-7.8-1.9-11.7c1.4-2.4,3.7-3.8,6.3-4.1
				c-0.3-0.3-0.6-0.6-0.8-0.8c-3.4-3.4-3.9-8-1.3-11.8c2.4-3.4,6.4-4.6,10.7-3.1c2.3,0.8,6.4,2.4,10.3,5.1c0.5-1.1,1.2-2.2,2.2-3.1
				c1.5-1.4,5.6-4.2,11.5-0.7c0,0,0.1,0,0.1,0.1c1.8,1.1,6,4,9.4,7.9c0.1-0.4,0.2-0.8,0.3-1.2c1.2-4.6,3.8-6.8,5.7-7.8
				c2-1,5.2-1.9,9.8-0.2c3.2,1.2,5.6,3.5,6.7,6.4c0.7,2,1.1,5.2-0.8,9.2c3.4,1.3,5.6,4.5,5.6,8.7c0,2.7-0.9,5-2.4,6.6
				c3.7,1.2,6,4.5,6,8.8c0,4.6-2.8,8.2-6.9,9.2c0.2,0.1,0.4,0.3,0.6,0.4c3.7,2.9,4.7,6.1,5,8.3c0.1,1.2,0.1,2.8-0.5,4.6
				c0.3,0.2,0.6,0.4,0.8,0.6c1.7,1.4,3.7,4.1,3.9,8.6c0.3,7.8-4.2,12.6-12.4,13.1c0,0,0,0,0,0c-7.8,0.5-14.6,0.2-23.2-0.1l-2.4-0.1
				c-9.4-0.4-17.4-2.7-22.7-6.6c-0.9,1.3-2,2.5-3.1,3.8c-2.9,3.2-6.5,5.1-10.1,5.1C355.9,94.7,355.8,94.7,355.8,94.7z M417.2,86.6
				L417.2,86.6L417.2,86.6z M418,80.2c-0.2,0-0.3,0-0.5,0c-1.5,0.2-2.9,0.3-4.4,0.5c1.3,0,2.5-0.1,3.8-0.2c0.5,0,0.8-0.1,1.1-0.1
				C418,80.4,418,80.3,418,80.2z M365.5,54.6c0.1,0.5,0.2,1.1,0.2,1.7v14.1c0.2-0.1,0.4-0.2,0.6-0.2c0-0.1,0-0.1,0-0.2V54.6H365.5z
				 M398.8,67.4c-0.7,0.8-1.4,1.5-2.2,2.3c1.5,0,2.9-0.1,4.4-0.1C400.3,68.8,399.6,68.1,398.8,67.4z M378.3,57.3v1.2
				c0.4-0.4,0.7-0.8,1-1.2H378.3z M367.4,54.7L367.4,54.7L367.4,54.7z M394.2,53.8C394.2,53.8,394.2,53.8,394.2,53.8
				C394.2,53.8,394.2,53.8,394.2,53.8C394.2,53.8,394.2,53.8,394.2,53.8z M366.3,53.5L366.3,53.5L366.3,53.5z M394,48.6
				c0.4,0.7,0.6,1.5,0.6,2.4c0.1-0.4,0.3-0.7,0.3-1c0.3-1.2,0.9-2.3,1.8-3.1c-0.5-1.1-0.7-2.2-0.5-3.4c0.3-2.2,0.5-4.7,0.5-7.7
				c0-0.3,0-0.6,0.1-0.9h-0.9c0,0.3,0.1,0.6,0.1,0.9c0,3.3-0.1,6.2-0.3,8.9C395.6,46.2,395,47.6,394,48.6z M366,39.7L366,39.7
				L366,39.7z M352.8,31L352.8,31L352.8,31z M361.7,14.5l-4.2,4.2L361.7,14.5C361.7,14.5,361.7,14.5,361.7,14.5z"/>
		</g>
		<g>
			<path class="st0" d="M435.8,43.2c-1.6-3.1-0.8-5.5,2.9-7.2c4.4-2,7.9-4,10.9-5.8c1.4-0.9,2.9-1,4,0.2c1,1.1,1,2.5,0,3.9
				c-2.4,3.6-5.6,7-9.9,10.2C440.7,46.8,437.3,46.2,435.8,43.2z M504.6,84.8c-1.4,3.6-4.6,4.3-8.3,2.4c-5.1-2.6-11.6-5.4-17.9-7.8
				c-1.8-0.6-2.6-1.9-2.2-3.6c0.1-0.4,0.2-0.7,0.4-1h-11.8c0.2,0.2,0.3,0.5,0.4,0.7c1.4,3.4,0.5,6-3.6,7.5c-7,2.6-15.1,4.1-22.7,4.5
				c-1.8,0.1-3.2-0.6-3.4-2.3c-0.2-1.8,0.2-3,2.2-3.4c6.2-1.7,12.9-4.1,18.1-7h-5.6c-3.4,0-5.2-1.8-5.2-5.2V48.4
				c0-3.4,1.8-5.2,5.2-5.2h41.9c3.4,0,5.2,1.8,5.2,5.2v21.3c0,3.4-1.8,5.2-5.2,5.2h-3.6c4,0.6,7.9,1.4,11.4,2.4
				C504.1,78.5,506,81.2,504.6,84.8z M438.4,14.2c1-1.4,2.2-1.2,3.8-0.8c3.2,0.9,7,2.4,10.6,4.6c3.3,1.9,3.9,4.4,1.8,7
				c-2.2,2.7-4.7,2.6-7.4,0.2s-5.4-4.8-8-6.8C437.8,17.3,437.5,15.7,438.4,14.2z M456.2,29.4c2.1-3.2,4.2-8.7,5.5-13.3
				c0.9-3.2,3.1-4.2,6.4-3.4c2.6,0.7,3.6,2.5,3.2,4.8H493c2-1.8,5.6-2.1,7.8-0.5c2.6,1.8,3.1,5,1,7.8c-2.6,3.4-5.6,5.7-7.8,7
				c-1.1,0.6-2.3,0.8-3.4-0.2c-1-1-1.1-2-0.3-3.2c0.8-1.2,1.4-2.2,1.8-3.3c0.2-0.6-0.2-1-0.8-1h-6.6c-0.5,1.7-1.1,3.2-1.8,4.6
				c4.2,3.6,8.9,5,17.2,5.9c4,0.5,5.1,2.6,4.3,5.7c-0.8,3-3.1,4.3-6.4,3.6c-8.6-1.8-14.2-5.4-18.2-10.9c-4.7,5.4-12.2,8.7-21.5,9.6
				c-1.8,0.2-3-0.7-3.2-2.2c-0.2-1.5,0.4-2.6,2.2-3.1c10.4-2.9,14.4-6.5,16.4-13.3h-5c-2.2,3.8-5.3,7.3-8.3,9.3
				c-1.3,0.9-2.9,1-4-0.2C455.4,32,455.3,30.9,456.2,29.4z M457.7,51.7h26.7v-1.6c0-0.6-0.4-1-1-1h-24.8c-0.6,0-1,0.4-1,1V51.7z
				 M457.7,59.8h26.7v-2.6h-26.7V59.8z M457.7,68c0,0.6,0.4,1,1,1h24.8c0.6,0,1-0.4,1-1v-2.6h-26.7V68z"/>
			<path class="st0" d="M500,94.2c-2.1,0-4.3-0.6-6.5-1.7c-4.8-2.5-11.1-5.2-17.2-7.4c-2.2-0.8-3.9-2.1-5-3.8
				c-0.1,0.4-0.3,0.8-0.4,1.1c-1.2,2.9-3.7,5-7.3,6.3c-7.4,2.7-16.1,4.4-24.5,4.8c-5.2,0.2-9.1-2.9-9.6-7.6c-0.6-5,2-8.8,6.7-9.9
				c1.3-0.4,2.6-0.7,3.8-1.1c-0.7-1.5-1.1-3.3-1.1-5.3V51.8c-0.4,0-0.9-0.1-1.3-0.2c-3.1-0.7-5.7-2.7-7.2-5.7c0,0,0,0,0,0
				c-1.9-3.8-1.6-6.8-0.9-8.7c1-2.9,3.2-5.1,6.6-6.7c1.8-0.8,3.5-1.7,5.2-2.6c-1.7-1.5-3.7-3.1-5.8-4.8c-3.9-2.9-4.9-8-2.4-12.1
				c0.1-0.1,0.1-0.2,0.2-0.3c2.3-3.2,5.7-4.3,10.2-3.2c0,0,0.1,0,0.1,0c2.8,0.8,7.2,2.3,12.1,5.2c0.2,0.1,0.4,0.2,0.5,0.3
				c2.1-5.2,7.1-7.7,13.1-6.2c0.1,0,0.1,0,0.2,0c2.9,0.8,5.1,2.4,6.4,4.6h15.1c4.1-2.2,9.4-2,13.1,0.6c2.6,1.9,4.3,4.5,4.7,7.5
				c0.4,3-0.4,6.2-2.5,8.8c-0.4,0.5-0.8,1-1.2,1.5c1.9,0.9,3,2.1,3.7,3.2c1.1,1.7,2.3,4.5,1.2,8.7c-1,3.9-3.6,6.6-7,7.7v20
				c0,0.8-0.1,1.6-0.2,2.4c4,1.5,5.9,3.9,6.9,5.8c1,1.9,1.8,5.1,0.3,9.1l0,0c-1.2,3.2-3.4,5.5-6.3,6.6C502.7,94,501.4,94.2,500,94.2
				z M490.4,68.9h0.9V49.2h-0.9c0,0.3,0.1,0.6,0.1,0.9v1.6c0,1-0.2,2-0.7,2.8c0.4,0.8,0.7,1.8,0.7,2.8v2.6c0,1-0.2,2-0.7,2.8
				c0.4,0.8,0.7,1.8,0.7,2.8V68C490.4,68.3,490.4,68.6,490.4,68.9z M450.9,68.9h0.9c0-0.3-0.1-0.6-0.1-0.9v-2.6c0-1,0.2-2,0.7-2.8
				c-0.4-0.8-0.7-1.8-0.7-2.8v-2.6c0-1,0.2-2,0.7-2.8c-0.4-0.8-0.7-1.8-0.7-2.8v-1.6c0-0.3,0-0.6,0.1-0.9h-0.9V68.9z M439.8,39.9
				L439.8,39.9L439.8,39.9z M497.2,21C497.2,21,497.2,21,497.2,21L497.2,21z M442.9,13.6C442.9,13.6,442.9,13.6,442.9,13.6
				C442.9,13.6,442.9,13.6,442.9,13.6z"/>
		</g>
		<g>
			<path class="st0" d="M546.6,61.4l-2.3-3.4v24.6c0,3.9-2.2,5.8-6.1,5.8c-3.9,0-6.1-1.8-6.1-5.8V64.3c-2.3,4.4-5.3,8.6-8,11.8
				c-1.2,1.4-2.8,1.5-4,0.5s-1.3-2.3-0.2-3.8c4.4-6.7,8.8-16.7,11-25.8h-6.4c-2.1,0-3.2-1.1-3.2-3.3c0-2.2,1.1-3.4,3.2-3.4h7.7V37
				c-0.5,0.6-1.3,1.2-2.6,1.5c-3,0.8-5-0.4-5.4-3.8c-0.5-3.6-1.2-8.2-1.8-11.5c-0.3-1.6,0.3-2.7,1.7-3.2c1.4-0.5,2.6,0.1,3.4,1.4
				c1.8,2.6,3.6,6.5,4.7,10.3V19.6c0-3.8,2.2-5.7,6.1-5.7c3.9,0,6.1,1.9,6.1,5.7v13.3c0.6-2.6,1.3-6,1.8-9.4
				c0.6-3.4,2.6-4.5,5.6-3.6c2.9,0.9,3.9,2.6,2.7,6c-1.4,3.8-3.5,8.1-5.6,10.9c-1,1.4-2.3,1.8-3.7,1.2c-0.4-0.2-0.6-0.4-0.9-0.6v2.9
				h6.2c2.2,0,3.2,1.4,3.2,3.4s-1,3.3-3.2,3.3h-6.2v2.4c3.3,1.7,7,4.2,9.1,6.3c2.5,2.6,2.5,4.9,0.2,7
				C551.2,64.7,548.8,64.7,546.6,61.4z M589.6,62.9l-4.9,1.4v18.2c0,4.1-2.1,5.8-6.1,5.8s-6.1-1.8-6.1-5.8V67.7
				c-6.1,1.7-12.2,3.2-18.3,4.6c-2.5,0.6-3.9-0.6-4.4-2.7c-0.5-2,0.4-3.7,3-4.3c6.6-1.6,13.2-3.3,19.8-5V19.6c0-3.9,2.1-5.8,6.1-5.8
				s6.1,1.8,6.1,5.8V57l2.6-0.7c2.3-0.6,3.8,0.1,4.5,2.3C592.4,60.6,591.4,62.3,589.6,62.9z M569.2,56.6c-2.6,2.4-5.6,2.2-7.9-1.6
				c-1.8-3-4.1-6.3-6-9c-1-1.4-0.8-2.7,0.3-3.8c1-1,2.2-1.2,3.7-0.5c3,1.5,6.9,4.2,9.8,7.1C571.8,51.4,571.8,54.2,569.2,56.6z
				 M556.1,25.7c-1-1.4-0.7-2.8,0.4-3.9s2.3-1.1,3.8-0.3c3,1.6,6.7,4.5,9.5,7.5c2.6,2.7,2.6,5.6-0.2,7.8c-2.8,2.2-5.6,1.9-7.8-1.9
				C560,31.8,558,28.5,556.1,25.7z"/>
			<path class="st0" d="M578.6,94.3c-7.5,0-12.1-4.5-12.1-11.8v-7c-3.5,0.9-7.1,1.8-11,2.7c-2.1,0.5-3.9,0.3-5.3-0.1v4.5
				c0,7.1-4.7,11.8-12.1,11.8c-7.3,0-12.1-4.6-12.1-11.8v-0.5c-3.2,1.8-7,1.5-9.9-1c-3.5-3-4-7.7-1.3-11.7c3-4.6,5.9-10.6,8-16.6
				c-4.6-0.7-7.6-4.3-7.6-9.2c0-3,1.2-5.5,3.1-7.2c-0.1-0.3-0.1-0.5-0.1-0.8c-0.5-3.9-1.2-8.3-1.8-11.2c-0.9-4.5,1.3-8.5,5.6-10
				c0,0,0.1,0,0.1,0c1.8-0.6,3.6-0.6,5.2-0.1c1.9-3.9,5.8-6.2,10.9-6.2c4.9,0,8.7,2.1,10.6,5.7c1.3-0.1,2.8,0,4.6,0.5
				c1,0.3,1.9,0.7,2.7,1.1c2.2-0.7,4.7-0.3,7.1,1c1.1,0.6,2.2,1.3,3.4,2.1c0.5-6.4,5.1-10.5,12-10.5c7.3,0,12.1,4.6,12.1,11.8v30.6
				c3.3,0.6,5.8,3,6.9,6.7c1.4,5.2-1.3,10.2-6.3,11.7c0,0,0,0,0,0l-0.6,0.2v13.7C590.7,89.8,586.1,94.3,578.6,94.3z M578.6,83.1
				L578.6,83.1L578.6,83.1z M578.5,82.3c0.1,0,0.1,0,0.2,0v-18c0-1.4,0.5-2.7,1.3-3.7c-0.8-1-1.3-2.3-1.3-3.7V19.8
				c-0.1,0-0.1,0-0.2,0v40.5c0,1.4-0.5,2.7-1.3,3.7c0.8,1,1.3,2.3,1.3,3.7V82.3z M538.1,82.3c0.1,0,0.1,0,0.2,0V57.9
				c0-1.7,0.7-3.2,1.8-4.3c-1.2-1.1-1.8-2.7-1.8-4.3v-2.4c0-1.2,0.4-2.4,1-3.4c-0.6-1-1-2.1-1-3.4v-2.9c0-0.8,0.1-1.5,0.4-2.2
				c-0.3-0.7-0.4-1.4-0.4-2.2v-13c-0.1,0-0.1,0-0.2,0v11.8c0,0.9-0.2,1.8-0.6,2.6c0.4,0.8,0.6,1.7,0.6,2.6v3.2
				c0,1.7-0.7,3.2-1.8,4.3c0.5,1.2,0.7,2.5,0.4,3.8c-0.8,3.3-1.9,6.8-3.1,10.2c0,0,0,0,0,0c2.7,0.7,4.6,3.1,4.6,5.8V82.3z
				 M589.6,62.9L589.6,62.9L589.6,62.9z M552,58.5L552,58.5L552,58.5z M522.4,24.8C522.4,24.8,522.4,24.8,522.4,24.8
				C522.4,24.8,522.4,24.8,522.4,24.8z M538.3,19.2L538.3,19.2z"/>
		</g>
	</g>
	<g>
		<g>
			<path class="st1" d="M40.6,25.7c0,2.2-1.2,3.4-3.4,3.4H14c-2.2,0-3.4-1.2-3.4-3.4c0-2.2,1.2-3.4,3.4-3.4h5.9v-7.2
				c0-3.1,2-5,5.7-5s5.7,1.9,5.7,5v7.2h5.9C39.4,22.3,40.6,23.5,40.6,25.7z M12.8,37.6c0-2.2,1.3-3.3,3.4-3.3H35
				c2.2,0,3.4,1.1,3.4,3.3S37.2,41,35,41H16.2C14.1,41,12.8,39.7,12.8,37.6z M12.8,48.4c0-2.2,1.3-3.3,3.4-3.3H35
				c2.2,0,3.4,1.1,3.4,3.3s-1.3,3.4-3.4,3.4H16.2C14.1,51.9,12.8,50.6,12.8,48.4z M38.7,61.6v18.9c0,3.1-1.9,4.9-5.4,4.9
				S28,83.6,28,80.5v-1.4h-3.9v1.4c0,3.1-1.9,4.9-5.4,4.9c-3.4,0-5.4-1.8-5.4-4.9V61.6c0-3.4,1.8-5.2,5.2-5.2h15
				C36.9,56.4,38.7,58.3,38.7,61.6z M28,64c0-0.6-0.4-1-1-1h-2c-0.6,0-1,0.4-1,1v8.6H28V64z M81.3,39.5c0,2.1-1.2,3.3-3.3,3.3H43.4
				c-2.1,0-3.3-1.2-3.3-3.3c0-2.1,1.2-3.3,3.3-3.3h11.1v-3.3h-8.2c-2.1,0-3.2-1.1-3.2-3.2c0-2.1,1.1-3.2,3.2-3.2h8.2v-3.1H44.5
				c-2.1,0-3.2-1.1-3.2-3.2s1.1-3.2,3.2-3.2h10.1v-2.1c0-3.3,2.1-5,5.8-5s5.8,1.8,5.8,5V17h10.8c2.1,0,3.2,1.1,3.2,3.2
				s-1.1,3.2-3.2,3.2H66.2v3.1h8.2c2.1,0,3.2,1.1,3.2,3.2c0,2.1-1.1,3.2-3.2,3.2h-8.2v3.3H78C80.1,36.2,81.3,37.4,81.3,39.5z
				 M78.6,51.4V77c0,8.1-8.6,10.2-18.4,6.2c-1.8-0.7-2.4-1.9-2.1-3.4c0.3-1.5,1.5-2.2,3.5-2.1c5,0.4,5.8-0.4,5.8-3.4v-2.1H53.3v8.7
				c0,3-2,4.7-5.5,4.7s-5.5-1.7-5.5-4.7V51.4c0-3.4,1.8-5.2,5.2-5.2h25.9C76.7,46.2,78.6,48,78.6,51.4z M53.3,53.7V56h14.2v-2.3
				c0-0.6-0.4-1-1-1H54.2C53.7,52.8,53.3,53.2,53.3,53.7z M67.4,65.8v-3.4H53.3v3.4H67.4z"/>
			<path class="st0" d="M47.8,91.6c-3,0-5.5-0.8-7.5-2.2c-1.9,1.3-4.2,2-6.9,2c-2.9,0-5.4-0.8-7.3-2.3c-1.9,1.5-4.4,2.3-7.3,2.3
				c-6.7,0-11.4-4.5-11.4-10.9V61.6C7.4,59,8,56.8,9.3,55c-1.5-1.7-2.4-3.9-2.4-6.5c0-2.1,0.6-3.9,1.6-5.4c-1-1.5-1.6-3.4-1.6-5.4
				c0-1.7,0.4-3.2,1-4.5c-2-1.7-3.3-4.3-3.3-7.4c0-5.5,3.8-9.4,9.4-9.4v-1.2c0-6.5,4.8-11,11.7-11c6.6,0,11.3,4.1,11.7,10.2
				c1.6-2,4.2-3.2,7.2-3.2h4.7c1.5-4.4,5.6-7.1,11.2-7.1s9.7,2.7,11.2,7.1h5.4c5.4,0,9.2,3.8,9.2,9.2c0,2.9-1.1,5.3-2.9,7
				c0.2,0.8,0.3,1.6,0.3,2.5c0,0.7-0.1,1.4-0.2,2.1c2.4,1.6,3.9,4.4,3.9,7.7c0,3.1-1.3,5.8-3.5,7.4c0.5,1.3,0.8,2.9,0.8,4.5V77
				c0,4.9-2.1,8.9-5.8,11.5c-5.1,3.5-12.7,3.6-20.8,0.3c-0.5-0.2-0.9-0.4-1.3-0.6C54.6,90.4,51.5,91.6,47.8,91.6z M72.5,69
				C72.5,69,72.6,69,72.5,69L72.5,69C72.6,68.9,72.5,69,72.5,69z M72.5,59.2C72.5,59.3,72.6,59.3,72.5,59.2L72.5,59.2
				C72.6,59.2,72.5,59.2,72.5,59.2z M73.7,52.2L73.7,52.2L73.7,52.2z M47.1,52.2L47.1,52.2L47.1,52.2z M59.6,29.7
				c0.3,0.6,0.6,1.2,0.8,1.8c0.2-0.7,0.4-1.3,0.8-1.8c-0.3-0.6-0.6-1.2-0.8-1.8C60.3,28.5,60,29.2,59.6,29.7z M59.6,20.2
				c0.3,0.6,0.6,1.2,0.8,1.8c0.2-0.7,0.4-1.3,0.8-1.8c-0.3-0.6-0.6-1.2-0.8-1.8C60.3,19,60,19.6,59.6,20.2z"/>
		</g>
		<g>
			<path class="st1" d="M166.5,33.5c-1.3,3.4-4.4,4.2-7,3c-1.9-0.9-3.6-2-5.2-3.2c-0.1,2-1.3,3.1-3.3,3.1h-15.7
				c-1.8,0-3.1-0.9-3.3-2.5c-2.2,1.6-4.5,2.8-6.6,3.7c-1,0.4-1.9,0.5-2.6,0.2v16.8c0,3.4-1.8,5.2-5.2,5.2H115v4.2h5.5
				c2.1,0,3.3,1.2,3.3,3.3s-1.2,3.3-3.3,3.3H115v10.4c0,2.8-1.8,4.3-5.1,4.3c-3.3,0-5.1-1.5-5.1-4.3V70.4h-7.3
				c-2.1,0-3.3-1.2-3.3-3.3s1.2-3.3,3.3-3.3h7.3v-4.2h-2.6c-3.4,0-5.2-1.8-5.2-5.2V35.9c0-3.4,1.8-5.2,5.2-5.2h2.6v-4.2h-6.8
				c-2.2,0-3.3-1.1-3.3-3.3s1.1-3.3,3.3-3.3h6.8v-5.5c0-2.8,1.8-4.3,5.1-4.3c3.3,0,5.1,1.5,5.1,4.3V20h7c2.2,0,3.3,1.1,3.3,3.3
				s-1.1,3.3-3.3,3.3h-7v4.1h2.6c2.2,0,3.8,0.8,4.6,2.3c0.2-0.2,0.3-0.3,0.6-0.5c6.4-5,11-11.5,14.5-19.7c1.3-3.1,4.6-4.3,7.9-2.6
				c2.9,1.4,3.7,3.7,2.8,6.2c4,4.4,8.2,7.3,15.3,10C166.6,27.7,167.7,30.2,166.5,33.5z M106.1,37.1h-1c-0.6,0-1,0.4-1,1v4h2V37.1z
				 M106.1,48.3h-2v4.1c0,0.6,0.4,1,1,1h1V48.3z M115.8,38c0-0.6-0.4-1-1-1h-1.2v5h2.2V38z M115.8,48.3h-2.2v5h1.2c0.6,0,1-0.4,1-1
				V48.3z M144.7,45.4v33.8c0,4.1-3.9,6.5-9.8,4.6c-1.4-0.5-1.9-1.5-1.8-2.9c0.1-1.1,0.8-2.1,1.8-2.2c0.8-0.1,1.4-0.4,1.4-1.8v-8.4
				h-3.8v13.1c0,2.4-1.5,3.8-4.2,3.8c-2.6,0-4.2-1.4-4.2-3.8V45.4c0-3.3,1.8-5,5-5h10.4C143,40.4,144.7,42.1,144.7,45.4z
				 M132.6,47.9v3.5h3.8v-3.5c0-0.6-0.4-1-1-1h-2C133,46.9,132.6,47.3,132.6,47.9z M136.4,62.3v-4.6h-3.8v4.6H136.4z M137.2,29.8
				h13.3c-2.3-2.5-4.2-5.3-5.7-8.2C142.6,24.5,140,27.3,137.2,29.8z M163.3,43.2v33.4c0,8.2-7.1,10.7-15.8,7c-1.5-0.6-2-1-1.6-3.3
				c0.2-1.4,1.3-2.2,3.2-1.9c4.7,0.6,5.6-0.4,5.6-3.8V43.2c0-2.6,1.5-4,4.3-4C161.8,39.2,163.3,40.6,163.3,43.2z M146.2,70.3V45.8
				c0-2.2,1.3-3.4,3.6-3.4c2.2,0,3.4,1.2,3.4,3.4v24.5c0,2.2-1.2,3.4-3.4,3.4C147.4,73.7,146.2,72.4,146.2,70.3z"/>
			<path class="st0" d="M128.4,91.4c-4,0-7.3-1.9-9-4.9c-1.8,2.9-5.3,4.7-9.6,4.7c-6.7,0-11.1-4.1-11.1-10.3v-4.4h-1.3
				c-5.4,0-9.3-3.9-9.3-9.3c0-3.2,1.4-5.9,3.7-7.6c-0.7-1.5-1-3.2-1-5.1V35.9c0-2,0.4-3.7,1.1-5.3c-2.1-1.6-3.3-4.2-3.3-7.4
				c0-5.5,3.8-9.3,9.3-9.3h0.8c0.2-5.9,4.6-9.8,11.1-9.8c6.5,0,10.9,4,11.1,9.9h1c2.7,0,5.1,1,6.7,2.6c1.1-1.9,2.1-3.9,3.1-6.1
				c1.2-3,3.5-5.3,6.5-6.4c3.1-1.1,6.5-0.9,9.7,0.7c4.1,2,6.4,5.5,6.4,9.5c2.9,2.7,6.2,4.6,11.1,6.5c6.4,2.4,9.1,8.3,6.8,14.7
				c0,0,0,0,0,0c-0.7,1.9-1.8,3.5-3.2,4.8c0.2,0.9,0.4,1.8,0.4,2.8v33.4c0,5.3-2.2,9.7-6.1,12.3c-4.6,3.1-11.2,3.2-18.1,0.3
				c-0.1,0-0.2-0.1-0.3-0.1c-2.9,1.5-6.6,1.8-10.5,0.8C132.7,90.8,130.7,91.4,128.4,91.4z M109.8,67.2c0,0,0.1,0.1,0.1,0.2
				c0-0.1,0.1-0.1,0.1-0.2c0,0-0.1-0.1-0.1-0.2C109.8,67.1,109.8,67.1,109.8,67.2z M132.6,51.6h3.8c0.1,0,0.3,0,0.4,0
				c0.1-0.1,0.2-0.2,0.3-0.3h-5.2c0.1,0.1,0.2,0.2,0.3,0.3C132.3,51.6,132.4,51.6,132.6,51.6z M112.1,48.3h1.5V48
				c-0.4,0-0.8,0-1.2-0.1c-0.1,0.1-0.2,0.1-0.4,0.2C112.1,48.2,112.1,48.2,112.1,48.3z M106.1,48.3h1.5c0-0.1,0-0.2,0-0.2
				c-0.1,0-0.2-0.1-0.2-0.1c-0.4,0.1-0.8,0.1-1.3,0.1V48.3z M106.1,42.3c0.5,0,0.9,0.1,1.4,0.2c0.1,0,0.1-0.1,0.1-0.1
				c0-0.1,0-0.2,0-0.3h-1.5V42.3z M112.1,42.2c0.1,0.1,0.2,0.1,0.3,0.2c0.4-0.1,0.8-0.1,1.3-0.1V42h-1.5
				C112.1,42.1,112.1,42.2,112.1,42.2z M166.5,33.5L166.5,33.5L166.5,33.5z M109.8,23.2c0,0.1,0.1,0.1,0.1,0.2c0,0,0-0.1,0.1-0.1
				c0-0.1-0.1-0.1-0.1-0.2C109.8,23.2,109.8,23.2,109.8,23.2z"/>
		</g>
		<g>
			<path class="st1" d="M179.7,78.1c15.7-12.5,25-30.8,28.1-55.3c0.1-0.6-0.3-1-1-1h-14.4c-2.6,0-4-1.4-4-4s1.4-4,4-4h21.8
				c5.5,0,7.5,2.8,7.8,7.6c1.2,17.8,11,36.4,24.5,48.2c4.5,3.9,5.1,8,2,11.8c-3.4,4.1-8.4,3.9-12.4-0.6c-9-10.2-16.5-29.8-17.8-43.6
				c-3.9,16.5-16.2,38.8-35.3,47c-2.1,0.9-3.8,0.5-4.7-1.2C177.4,81.1,177.9,79.6,179.7,78.1z"/>
			<path class="st0" d="M181.1,90.5c-3.4,0-6.4-1.7-8-4.9c0,0,0-0.1-0.1-0.1c-2.1-4.3-1-8.8,2.9-12c0,0,0,0,0.1-0.1
				c13.3-10.6,21.5-25.6,25-45.6h-8.6c-5.9,0-10-4.1-10-10s4.1-10,10-10h21.8c8.2,0,13.3,4.8,13.8,13.2c1.1,15.8,9.9,33.1,22.4,44
				c8.3,7.2,6.8,15.1,2.7,20.1c-2.7,3.2-6.2,5-10.1,5.1c-0.1,0-0.1,0-0.2,0c-4.1,0-8.1-2-11.3-5.6c-6.1-6.9-11.2-17-14.6-27
				c-6.9,13.4-17.7,26-31.6,31.9C183.9,90.2,182.5,90.5,181.1,90.5z M231.8,62.6c2.6,5.6,5.6,10.6,8.7,14.1c1.1,1.2,1.9,1.5,2.3,1.5
				c0.3,0,0.6-0.3,1-0.7c0.7-0.8,1.1-1.3-1.3-3.4C238.6,70.7,235,66.8,231.8,62.6z M213.2,19.8c0.5,1.2,0.7,2.5,0.6,3.8
				c-1.3,10.2-3.6,19.5-7,27.8c2.7-5.3,4.6-10.7,5.8-15.7c0.6-2.4,2.5-4.1,4.8-4.5c-0.7-3.1-1.1-6.3-1.3-9.4
				c-0.1-1.1-0.2-1.6-0.3-1.8c-0.2-0.1-0.6-0.2-1.5-0.2H213.2z"/>
		</g>
		<g>
			<path class="st1" d="M332.6,50.3c0,2.1-1.1,3.3-3.3,3.3H322V75c0,9.6-8.5,13.4-22.5,7.6c-1.8-0.7-2.6-1.8-2.2-3.5
				c0.3-1.7,1.4-2.5,3.4-2.2c7.8,1,8.6,0.1,8.6-4.5V53.6H267c-2.2,0-3.3-1.2-3.3-3.3c0-2,1.1-3.1,3.3-3.1h7.4c-0.7-0.3-1-1-1.1-1.8
				c-0.1-1.4,0.3-2.2,2.1-2.6c6.8-1.8,11-4.5,13.6-7.8h-9c-1.9,0-3-1.1-3-3c0-1.9,1.1-3,3-3h12.2c0.3-0.9,0.6-1.8,0.8-2.6
				c0.2-0.6,0.3-1.1,0.6-1.6h-16.7c-0.6,0-1,0.4-1,1v4.8c0,3.3-2.1,5-5.8,5c-3.8,0-5.8-1.8-5.8-5v-7.1c0-3.4,1.8-5.2,5.2-5.2h22v-3
				c0-3.6,2.4-5.8,6.8-5.8c4.3,0,6.8,2.2,6.8,5.8v3h22c3.4,0,5.2,1.8,5.2,5.2v6.6c0,3.3-2.1,5-5.8,5c-3.8,0-5.8-1.8-5.8-5v-4.3
				c0-0.6-0.4-1-1-1h-15.4c0.5,1,0.6,2.2,0.2,3.8c-0.1,0.2-0.1,0.3-0.2,0.5h12.2c1.9,0,3,1.1,3,3c0,1.9-1.1,3-3,3h-14.7
				c-0.2,0.3-0.4,0.7-0.6,1c6.2,0.9,12.2,2.3,17.6,4.4c3.1,1.2,4.1,3.4,2.9,6c-0.2,0.3-0.2,0.6-0.4,0.8h8.3
				C331.5,47.2,332.6,48.3,332.6,50.3z M299.8,74.6h-22.2c-3.4,0-5.2-1.8-5.2-5.2v-8.1c0-3.4,1.8-5.2,5.2-5.2h22.2
				c3.4,0,5.2,1.8,5.2,5.2v8.1C305,72.8,303.2,74.6,299.8,74.6z M279.1,47.2h33.6c-4.6-2.3-10-4.7-15.7-6.8
				C292.9,44,287,46.4,279.1,47.2z M293.5,63.2c0-0.6-0.4-1-1-1h-7.4c-0.6,0-1,0.4-1,1v4.4c0,0.6,0.4,1,1,1h7.4c0.6,0,1-0.4,1-1
				V63.2z"/>
			<path class="st0" d="M311.3,91.3c-3.7,0-8.4-0.9-14-3.2c-3.5-1.5-5.7-4.2-6-7.5h-13.6c-6.7,0-11.2-4.5-11.2-11.2v-8.1
				c0-0.6,0-1.2,0.1-1.8c-5.3-0.2-8.9-3.9-8.9-9.3c0-5.4,3.8-9.1,9.3-9.1h0.3c-5.5-1-9.1-5.1-9.1-10.8v-7.1
				c0-6.7,4.5-11.2,11.2-11.2h16.3c1.2-5.4,5.9-8.9,12.5-8.9c6.4,0,11.2,3.5,12.5,8.9H327c6.7,0,11.2,4.5,11.2,11.2v6.6
				c0,6.3-4.3,10.6-10.8,11c0,0.1,0.1,0.2,0.1,0.3h1.9c5.5,0,9.3,3.8,9.3,9.1c0,5.5-3.8,9.3-9.3,9.3H328V75c0,5.9-2.4,10.7-6.6,13.5
				C319.2,90,315.9,91.3,311.3,91.3z M315.2,52.6c0,0.3,0.1,0.6,0.1,0.9v18.8c0,1.6,0,4.2-1.4,6.6c0.3-0.1,0.6-0.2,0.8-0.4
				c0.3-0.2,1.3-0.9,1.3-3.6V53.6c0-0.5,0.1-1,0.2-1.5C315.9,52.3,315.6,52.5,315.2,52.6z M288,65.3c0.2,0.4,0.5,0.8,0.8,1.2
				c0.3-0.3,0.6-0.7,0.8-1.2c-0.2-0.4-0.5-0.8-0.8-1.2C288.5,64.5,288.3,64.9,288,65.3z M329.4,53.2L329.4,53.2L329.4,53.2z
				 M294.9,34.2c0,0.2,0,0.4,0,0.6c0,0,0.1,0,0.1,0c0.1-0.2,0.1-0.5,0.2-0.7C295.2,34,295.1,34.1,294.9,34.2z M269.8,30.5
				L269.8,30.5L269.8,30.5z M298.2,29.8c0,0.1-0.1,0.2-0.1,0.2c0,0,0.1,0,0.1-0.1C298.2,29.9,298.2,29.9,298.2,29.8z M269.2,29.3
				C269.2,29.3,269.2,29.3,269.2,29.3S269.2,29.3,269.2,29.3z M270.8,29.3L270.8,29.3z M325.5,28.8L325.5,28.8L325.5,28.8z
				 M327.1,28.8L327.1,28.8z M297.1,19.8c0.6,0.4,1.1,1,1.5,1.7c0.1,0.1,0.1,0.2,0.2,0.3c0.1-0.1,0.1-0.2,0.2-0.3
				c0.2-0.3,0.4-0.5,0.6-0.8c-0.4-0.8-0.6-1.7-0.6-2.6v-2.8c-0.4-0.1-1.2-0.1-1.6,0V18C297.4,18.6,297.3,19.2,297.1,19.8z
				 M297.4,14.8L297.4,14.8L297.4,14.8z"/>
		</g>
		<g>
			<path class="st1" d="M412.2,83.6c-8.2,0.5-15.5,0.2-25.1-0.2c-10.7-0.4-20.4-3.8-23.5-10.1c-0.2-0.5-0.6-0.6-0.9,0
				c-1.2,3-3.4,6.2-6.2,9.3c-2.9,3.2-6.7,4.4-9.6,1.4s-2.2-6.6,1.2-9.1c2.1-1.6,4.9-4.2,6.5-6.1V53.3c0-0.6-0.4-1-1-1h-4.8
				c-2.1,0-3.3-1.4-3.3-3.4s1.2-3.3,3.3-3.3h13.2c3.4,0,5.2,1.8,5.2,5.2V67c1.9,4.4,7.8,5.7,17.8,5.7c8.9,0,17.1-0.2,26.6-1.4
				c4.4-0.6,7.1,1.2,7.3,5.4S417.6,83.2,412.2,83.6z M347.8,28c0.8-1.4,2.4-1.5,4-0.9c3.4,1.1,7.5,3.3,10.8,5.5
				c3.4,2.2,3.9,5.3,1.4,8c-2.4,2.7-5.7,2.6-8.2-0.6c-2.2-2.9-4.9-5.6-7.3-7.8C347.3,30.9,347,29.4,347.8,28z M352.5,15.7
				c-1.3-1.3-1.6-2.7-0.6-4.1c1-1.4,2.2-1.4,3.8-0.9c3.4,1.2,7.4,3.1,10.6,5.6c3,2.4,3.4,5.1,1,7.8c-2.4,2.6-5.1,2.2-7.8-0.8
				C357.3,20.6,354.7,18,352.5,15.7z M384.7,41.4c0.2-2.6,0.2-5.4,0.2-8.6h-10.2c-2.2,0-3.4-1.3-3.4-3.5c0-2.2,1.3-3.4,3.4-3.4h5.7
				c-0.3-0.4-0.6-0.9-0.9-1.4c-1.7-3.1-3.8-6.3-5.4-8.9c-1.1-1.7-1-3.1,0.2-4.3c1.3-1.2,2.7-0.9,4.3,0.1c2.8,1.8,6.4,4.6,8.9,7.8
				c2,2.6,2.2,4.9,0.3,6.7h5.8c1.4-3.4,2.7-7.6,3.7-11.4c1.1-4.3,3.9-5.3,7.6-3.9c3.4,1.3,4.4,4.2,2.1,8.3c-1.4,2.5-3.2,4.9-5.2,7
				h7.4c2.2,0,3.4,1.1,3.4,3.4c0,2.2-1.2,3.5-3.4,3.5h-11.4c0,3-0.2,5.9-0.6,8.6h15.5c2.2,0,3.4,1.1,3.4,3.4c0,2.2-1.3,3.5-3.4,3.5
				h-16.9c-0.2,0.7-0.4,1.4-0.6,2c5.7,1.8,12.1,5.1,17,8.9c3.2,2.5,3.5,5.5,1,8.4c-2.5,2.9-5.5,2.8-8.3-0.4
				c-3.7-4.2-7.8-8.2-12.1-11.5c-3.8,6.5-9.7,11-18.5,14.2c-1.9,0.7-3.2,0.2-3.9-1.3s-0.4-2.8,1.3-4c6.9-5,10.3-9.3,12-16.3h-11.8
				c-2.2,0-3.4-1.3-3.4-3.5c0-2.2,1.3-3.4,3.4-3.4H384.7z"/>
			<path class="st0" d="M350.8,91.7c-3,0-5.9-1.3-8.2-3.6c-2.5-2.6-3.7-5.8-3.4-9c0.3-3.4,2.2-6.6,5.3-9c1.3-1,2.9-2.4,4.1-3.6v-8.1
				c-5.3-0.1-9-4-9-9.4c0-5,3.4-8.7,8.2-9.2c-1-1-2.1-2.1-3.2-3.1c-3.5-3.1-4.2-7.8-1.9-11.7c1.4-2.4,3.7-3.8,6.3-4.1
				c-0.3-0.3-0.6-0.6-0.8-0.8c-3.4-3.4-3.9-8-1.3-11.8c2.4-3.4,6.4-4.6,10.7-3.1c2.3,0.8,6.4,2.4,10.3,5.1c0.5-1.1,1.2-2.2,2.2-3.1
				c1.5-1.4,5.6-4.2,11.5-0.7c0,0,0.1,0,0.1,0.1c1.8,1.1,6,4,9.4,7.9c0.1-0.4,0.2-0.8,0.3-1.2c1.2-4.6,3.8-6.8,5.7-7.8
				c2-1,5.2-1.9,9.8-0.2c3.2,1.2,5.6,3.5,6.7,6.4c0.7,2,1.1,5.2-0.8,9.2c3.4,1.3,5.6,4.5,5.6,8.7c0,2.7-0.9,5-2.4,6.6
				c3.7,1.2,6,4.5,6,8.8c0,4.6-2.8,8.2-6.9,9.2c0.2,0.1,0.4,0.3,0.6,0.4c3.7,2.9,4.7,6.1,5,8.3c0.1,1.2,0.1,2.8-0.5,4.6
				c0.3,0.2,0.6,0.4,0.8,0.6c1.7,1.4,3.7,4.1,3.9,8.6c0.3,7.8-4.2,12.6-12.4,13.1c0,0,0,0,0,0c-7.8,0.5-14.6,0.2-23.2-0.1l-2.4-0.1
				c-9.4-0.4-17.4-2.7-22.7-6.6c-0.9,1.3-2,2.5-3.1,3.8c-2.9,3.2-6.5,5.1-10.1,5.1C350.9,91.7,350.8,91.7,350.8,91.7z M412.2,83.6
				L412.2,83.6L412.2,83.6z M413,77.2c-0.2,0-0.3,0-0.5,0c-1.5,0.2-2.9,0.3-4.4,0.5c1.3,0,2.5-0.1,3.8-0.2c0.5,0,0.8-0.1,1.1-0.1
				C413,77.4,413,77.3,413,77.2z M360.5,51.6c0.1,0.5,0.2,1.1,0.2,1.7v14.1c0.2-0.1,0.4-0.2,0.6-0.2c0-0.1,0-0.1,0-0.2V51.6H360.5z
				 M393.8,64.4c-0.7,0.8-1.4,1.5-2.2,2.3c1.5,0,2.9-0.1,4.4-0.1C395.3,65.8,394.6,65.1,393.8,64.4z M373.3,54.3v1.2
				c0.4-0.4,0.7-0.8,1-1.2H373.3z M362.4,51.7L362.4,51.7L362.4,51.7z M389.2,50.8C389.2,50.8,389.2,50.8,389.2,50.8
				C389.2,50.8,389.2,50.8,389.2,50.8C389.2,50.8,389.2,50.8,389.2,50.8z M361.3,50.5L361.3,50.5L361.3,50.5z M389,45.6
				c0.4,0.7,0.6,1.5,0.6,2.4c0.1-0.4,0.3-0.7,0.3-1c0.3-1.2,0.9-2.3,1.8-3.1c-0.5-1.1-0.7-2.2-0.5-3.4c0.3-2.2,0.5-4.7,0.5-7.7
				c0-0.3,0-0.6,0.1-0.9h-0.9c0,0.3,0.1,0.6,0.1,0.9c0,3.3-0.1,6.2-0.3,8.9C390.6,43.2,390,44.6,389,45.6z M361,36.7L361,36.7
				L361,36.7z M347.8,28L347.8,28L347.8,28z M356.7,11.5l-4.2,4.2L356.7,11.5C356.7,11.5,356.7,11.5,356.7,11.5z"/>
		</g>
		<g>
			<path class="st1" d="M430.8,40.2c-1.6-3.1-0.8-5.5,2.9-7.2c4.4-2,7.9-4,10.9-5.8c1.4-0.9,2.9-1,4,0.2c1,1.1,1,2.5,0,3.9
				c-2.4,3.6-5.6,7-9.9,10.2C435.7,43.8,432.3,43.2,430.8,40.2z M499.6,81.8c-1.4,3.6-4.6,4.3-8.3,2.4c-5.1-2.6-11.6-5.4-17.9-7.8
				c-1.8-0.6-2.6-1.9-2.2-3.6c0.1-0.4,0.2-0.7,0.4-1h-11.8c0.2,0.2,0.3,0.5,0.4,0.7c1.4,3.4,0.5,6-3.6,7.5c-7,2.6-15.1,4.1-22.7,4.5
				c-1.8,0.1-3.2-0.6-3.4-2.3c-0.2-1.8,0.2-3,2.2-3.4c6.2-1.7,12.9-4.1,18.1-7h-5.6c-3.4,0-5.2-1.8-5.2-5.2V45.4
				c0-3.4,1.8-5.2,5.2-5.2h41.9c3.4,0,5.2,1.8,5.2,5.2v21.3c0,3.4-1.8,5.2-5.2,5.2h-3.6c4,0.6,7.9,1.4,11.4,2.4
				C499.1,75.5,501,78.2,499.6,81.8z M433.4,11.2c1-1.4,2.2-1.2,3.8-0.8c3.2,0.9,7,2.4,10.6,4.6c3.3,1.9,3.9,4.4,1.8,7
				c-2.2,2.7-4.7,2.6-7.4,0.2s-5.4-4.8-8-6.8C432.8,14.3,432.5,12.7,433.4,11.2z M451.2,26.4c2.1-3.2,4.2-8.7,5.5-13.3
				c0.9-3.2,3.1-4.2,6.4-3.4c2.6,0.7,3.6,2.5,3.2,4.8H488c2-1.8,5.6-2.1,7.8-0.5c2.6,1.8,3.1,5,1,7.8c-2.6,3.4-5.6,5.7-7.8,7
				c-1.1,0.6-2.3,0.8-3.4-0.2c-1-1-1.1-2-0.3-3.2c0.8-1.2,1.4-2.2,1.8-3.3c0.2-0.6-0.2-1-0.8-1h-6.6c-0.5,1.7-1.1,3.2-1.8,4.6
				c4.2,3.6,8.9,5,17.2,5.9c4,0.5,5.1,2.6,4.3,5.7c-0.8,3-3.1,4.3-6.4,3.6c-8.6-1.8-14.2-5.4-18.2-10.9c-4.7,5.4-12.2,8.7-21.5,9.6
				c-1.8,0.2-3-0.7-3.2-2.2c-0.2-1.5,0.4-2.6,2.2-3.1c10.4-2.9,14.4-6.5,16.4-13.3h-5c-2.2,3.8-5.3,7.3-8.3,9.3
				c-1.3,0.9-2.9,1-4-0.2C450.4,29,450.3,27.9,451.2,26.4z M452.7,48.7h26.7v-1.6c0-0.6-0.4-1-1-1h-24.8c-0.6,0-1,0.4-1,1V48.7z
				 M452.7,56.8h26.7v-2.6h-26.7V56.8z M452.7,65c0,0.6,0.4,1,1,1h24.8c0.6,0,1-0.4,1-1v-2.6h-26.7V65z"/>
			<path class="st0" d="M495,91.2c-2.1,0-4.3-0.6-6.5-1.7c-4.8-2.5-11.1-5.2-17.2-7.4c-2.2-0.8-3.9-2.1-5-3.8
				c-0.1,0.4-0.3,0.8-0.4,1.1c-1.2,2.9-3.7,5-7.3,6.3c-7.4,2.7-16.1,4.4-24.5,4.8c-5.2,0.2-9.1-2.9-9.6-7.6c-0.6-5,2-8.8,6.7-9.9
				c1.3-0.4,2.6-0.7,3.8-1.1c-0.7-1.5-1.1-3.3-1.1-5.3V48.8c-0.4,0-0.9-0.1-1.3-0.2c-3.1-0.7-5.7-2.7-7.2-5.7c0,0,0,0,0,0
				c-1.9-3.8-1.6-6.8-0.9-8.7c1-2.9,3.2-5.1,6.6-6.7c1.8-0.8,3.5-1.7,5.2-2.6c-1.7-1.5-3.7-3.1-5.8-4.8c-3.9-2.9-4.9-8-2.4-12.1
				c0.1-0.1,0.1-0.2,0.2-0.3c2.3-3.2,5.7-4.3,10.2-3.2c0,0,0.1,0,0.1,0c2.8,0.8,7.2,2.3,12.1,5.2c0.2,0.1,0.4,0.2,0.5,0.3
				c2.1-5.2,7.1-7.7,13.1-6.2c0.1,0,0.1,0,0.2,0c2.9,0.8,5.1,2.4,6.4,4.6h15.1c4.1-2.2,9.4-2,13.1,0.6c2.6,1.9,4.3,4.5,4.7,7.5
				c0.4,3-0.4,6.2-2.5,8.8c-0.4,0.5-0.8,1-1.2,1.5c1.9,0.9,3,2.1,3.7,3.2c1.1,1.7,2.3,4.5,1.2,8.7c-1,3.9-3.6,6.6-7,7.7v20
				c0,0.8-0.1,1.6-0.2,2.4c4,1.5,5.9,3.9,6.9,5.8c1,1.9,1.8,5.1,0.3,9.1l0,0c-1.2,3.2-3.4,5.5-6.3,6.6C497.7,91,496.4,91.2,495,91.2
				z M485.4,65.9h0.9V46.2h-0.9c0,0.3,0.1,0.6,0.1,0.9v1.6c0,1-0.2,2-0.7,2.8c0.4,0.8,0.7,1.8,0.7,2.8v2.6c0,1-0.2,2-0.7,2.8
				c0.4,0.8,0.7,1.8,0.7,2.8V65C485.4,65.3,485.4,65.6,485.4,65.9z M445.9,65.9h0.9c0-0.3-0.1-0.6-0.1-0.9v-2.6c0-1,0.2-2,0.7-2.8
				c-0.4-0.8-0.7-1.8-0.7-2.8v-2.6c0-1,0.2-2,0.7-2.8c-0.4-0.8-0.7-1.8-0.7-2.8v-1.6c0-0.3,0-0.6,0.1-0.9h-0.9V65.9z M434.8,36.9
				L434.8,36.9L434.8,36.9z M492.2,18C492.2,18,492.2,18,492.2,18L492.2,18z M437.9,10.6C437.9,10.6,437.9,10.6,437.9,10.6
				C437.9,10.6,437.9,10.6,437.9,10.6z"/>
		</g>
		<g>
			<path class="st1" d="M541.6,58.4l-2.3-3.4v24.6c0,3.9-2.2,5.8-6.1,5.8c-3.9,0-6.1-1.8-6.1-5.8V61.3c-2.3,4.4-5.3,8.6-8,11.8
				c-1.2,1.4-2.8,1.5-4,0.5s-1.3-2.3-0.2-3.8c4.4-6.7,8.8-16.7,11-25.8h-6.4c-2.1,0-3.2-1.1-3.2-3.3c0-2.2,1.1-3.4,3.2-3.4h7.7V34
				c-0.5,0.6-1.3,1.2-2.6,1.5c-3,0.8-5-0.4-5.4-3.8c-0.5-3.6-1.2-8.2-1.8-11.5c-0.3-1.6,0.3-2.7,1.7-3.2c1.4-0.5,2.6,0.1,3.4,1.4
				c1.8,2.6,3.6,6.5,4.7,10.3V16.6c0-3.8,2.2-5.7,6.1-5.7c3.9,0,6.1,1.9,6.1,5.7v13.3c0.6-2.6,1.3-6,1.8-9.4
				c0.6-3.4,2.6-4.5,5.6-3.6c2.9,0.9,3.9,2.6,2.7,6c-1.4,3.8-3.5,8.1-5.6,10.9c-1,1.4-2.3,1.8-3.7,1.2c-0.4-0.2-0.6-0.4-0.9-0.6v2.9
				h6.2c2.2,0,3.2,1.4,3.2,3.4s-1,3.3-3.2,3.3h-6.2v2.4c3.3,1.7,7,4.2,9.1,6.3c2.5,2.6,2.5,4.9,0.2,7
				C546.2,61.7,543.8,61.7,541.6,58.4z M584.6,59.9l-4.9,1.4v18.2c0,4.1-2.1,5.8-6.1,5.8s-6.1-1.8-6.1-5.8V64.7
				c-6.1,1.7-12.2,3.2-18.3,4.6c-2.5,0.6-3.9-0.6-4.4-2.7c-0.5-2,0.4-3.7,3-4.3c6.6-1.6,13.2-3.3,19.8-5V16.6c0-3.9,2.1-5.8,6.1-5.8
				s6.1,1.8,6.1,5.8V54l2.6-0.7c2.3-0.6,3.8,0.1,4.5,2.3C587.4,57.6,586.4,59.3,584.6,59.9z M564.2,53.6c-2.6,2.4-5.6,2.2-7.9-1.6
				c-1.8-3-4.1-6.3-6-9c-1-1.4-0.8-2.7,0.3-3.8c1-1,2.2-1.2,3.7-0.5c3,1.5,6.9,4.2,9.8,7.1C566.8,48.4,566.8,51.2,564.2,53.6z
				 M551.1,22.7c-1-1.4-0.7-2.8,0.4-3.9s2.3-1.1,3.8-0.3c3,1.6,6.7,4.5,9.5,7.5c2.6,2.7,2.6,5.6-0.2,7.8c-2.8,2.2-5.6,1.9-7.8-1.9
				C555,28.8,553,25.5,551.1,22.7z"/>
			<path class="st0" d="M573.6,91.3c-7.5,0-12.1-4.5-12.1-11.8v-7c-3.5,0.9-7.1,1.8-11,2.7c-2.1,0.5-3.9,0.3-5.3-0.1v4.5
				c0,7.1-4.7,11.8-12.1,11.8c-7.3,0-12.1-4.6-12.1-11.8v-0.5c-3.2,1.8-7,1.5-9.9-1c-3.5-3-4-7.7-1.3-11.7c3-4.6,5.9-10.6,8-16.6
				c-4.6-0.7-7.6-4.3-7.6-9.2c0-3,1.2-5.5,3.1-7.2c-0.1-0.3-0.1-0.5-0.1-0.8c-0.5-3.9-1.2-8.3-1.8-11.2c-0.9-4.5,1.3-8.5,5.6-10
				c0,0,0.1,0,0.1,0c1.8-0.6,3.6-0.6,5.2-0.1c1.9-3.9,5.8-6.2,10.9-6.2c4.9,0,8.7,2.1,10.6,5.7c1.3-0.1,2.8,0,4.6,0.5
				c1,0.3,1.9,0.7,2.7,1.1c2.2-0.7,4.7-0.3,7.1,1c1.1,0.6,2.2,1.3,3.4,2.1c0.5-6.4,5.1-10.5,12-10.5c7.3,0,12.1,4.6,12.1,11.8v30.6
				c3.3,0.6,5.8,3,6.9,6.7c1.4,5.2-1.3,10.2-6.3,11.7c0,0,0,0,0,0l-0.6,0.2v13.7C585.7,86.8,581.1,91.3,573.6,91.3z M573.6,80.1
				L573.6,80.1L573.6,80.1z M573.5,79.3c0.1,0,0.1,0,0.2,0v-18c0-1.4,0.5-2.7,1.3-3.7c-0.8-1-1.3-2.3-1.3-3.7V16.8
				c-0.1,0-0.1,0-0.2,0v40.5c0,1.4-0.5,2.7-1.3,3.7c0.8,1,1.3,2.3,1.3,3.7V79.3z M533.1,79.3c0.1,0,0.1,0,0.2,0V54.9
				c0-1.7,0.7-3.2,1.8-4.3c-1.2-1.1-1.8-2.7-1.8-4.3v-2.4c0-1.2,0.4-2.4,1-3.4c-0.6-1-1-2.1-1-3.4v-2.9c0-0.8,0.1-1.5,0.4-2.2
				c-0.3-0.7-0.4-1.4-0.4-2.2v-13c-0.1,0-0.1,0-0.2,0v11.8c0,0.9-0.2,1.8-0.6,2.6c0.4,0.8,0.6,1.7,0.6,2.6v3.2
				c0,1.7-0.7,3.2-1.8,4.3c0.5,1.2,0.7,2.5,0.4,3.8c-0.8,3.3-1.9,6.8-3.1,10.2c0,0,0,0,0,0c2.7,0.7,4.6,3.1,4.6,5.8V79.3z
				 M584.6,59.9L584.6,59.9L584.6,59.9z M547,55.5L547,55.5L547,55.5z M517.4,21.8C517.4,21.8,517.4,21.8,517.4,21.8
				C517.4,21.8,517.4,21.8,517.4,21.8z M533.3,16.2L533.3,16.2z"/>
		</g>
	</g>
	<g>
		<g>
			<path class="st2" d="M40.6,25.7c0,2.2-1.2,3.4-3.4,3.4H14c-2.2,0-3.4-1.2-3.4-3.4c0-2.2,1.2-3.4,3.4-3.4h5.9v-7.2
				c0-3.1,2-5,5.7-5s5.7,1.9,5.7,5v7.2h5.9C39.4,22.3,40.6,23.5,40.6,25.7z M12.8,37.6c0-2.2,1.3-3.3,3.4-3.3H35
				c2.2,0,3.4,1.1,3.4,3.3S37.2,41,35,41H16.2C14.1,41,12.8,39.7,12.8,37.6z M12.8,48.4c0-2.2,1.3-3.3,3.4-3.3H35
				c2.2,0,3.4,1.1,3.4,3.3s-1.3,3.4-3.4,3.4H16.2C14.1,51.9,12.8,50.6,12.8,48.4z M38.7,61.6v18.9c0,3.1-1.9,4.9-5.4,4.9
				S28,83.6,28,80.5v-1.4h-3.9v1.4c0,3.1-1.9,4.9-5.4,4.9c-3.4,0-5.4-1.8-5.4-4.9V61.6c0-3.4,1.8-5.2,5.2-5.2h15
				C36.9,56.4,38.7,58.3,38.7,61.6z M28,64c0-0.6-0.4-1-1-1h-2c-0.6,0-1,0.4-1,1v8.6H28V64z M81.3,39.5c0,2.1-1.2,3.3-3.3,3.3H43.4
				c-2.1,0-3.3-1.2-3.3-3.3c0-2.1,1.2-3.3,3.3-3.3h11.1v-3.3h-8.2c-2.1,0-3.2-1.1-3.2-3.2c0-2.1,1.1-3.2,3.2-3.2h8.2v-3.1H44.5
				c-2.1,0-3.2-1.1-3.2-3.2s1.1-3.2,3.2-3.2h10.1v-2.1c0-3.3,2.1-5,5.8-5s5.8,1.8,5.8,5V17h10.8c2.1,0,3.2,1.1,3.2,3.2
				s-1.1,3.2-3.2,3.2H66.2v3.1h8.2c2.1,0,3.2,1.1,3.2,3.2c0,2.1-1.1,3.2-3.2,3.2h-8.2v3.3H78C80.1,36.2,81.3,37.4,81.3,39.5z
				 M78.6,51.4V77c0,8.1-8.6,10.2-18.4,6.2c-1.8-0.7-2.4-1.9-2.1-3.4c0.3-1.5,1.5-2.2,3.5-2.1c5,0.4,5.8-0.4,5.8-3.4v-2.1H53.3v8.7
				c0,3-2,4.7-5.5,4.7s-5.5-1.7-5.5-4.7V51.4c0-3.4,1.8-5.2,5.2-5.2h25.9C76.7,46.2,78.6,48,78.6,51.4z M53.3,53.7V56h14.2v-2.3
				c0-0.6-0.4-1-1-1H54.2C53.7,52.8,53.3,53.2,53.3,53.7z M67.4,65.8v-3.4H53.3v3.4H67.4z"/>
		</g>
		<g>
			<path class="st2" d="M166.5,33.5c-1.3,3.4-4.4,4.2-7,3c-1.9-0.9-3.6-2-5.2-3.2c-0.1,2-1.3,3.1-3.3,3.1h-15.7
				c-1.8,0-3.1-0.9-3.3-2.5c-2.2,1.6-4.5,2.8-6.6,3.7c-1,0.4-1.9,0.5-2.6,0.2v16.8c0,3.4-1.8,5.2-5.2,5.2H115v4.2h5.5
				c2.1,0,3.3,1.2,3.3,3.3s-1.2,3.3-3.3,3.3H115v10.4c0,2.8-1.8,4.3-5.1,4.3c-3.3,0-5.1-1.5-5.1-4.3V70.4h-7.3
				c-2.1,0-3.3-1.2-3.3-3.3s1.2-3.3,3.3-3.3h7.3v-4.2h-2.6c-3.4,0-5.2-1.8-5.2-5.2V35.9c0-3.4,1.8-5.2,5.2-5.2h2.6v-4.2h-6.8
				c-2.2,0-3.3-1.1-3.3-3.3s1.1-3.3,3.3-3.3h6.8v-5.5c0-2.8,1.8-4.3,5.1-4.3c3.3,0,5.1,1.5,5.1,4.3V20h7c2.2,0,3.3,1.1,3.3,3.3
				s-1.1,3.3-3.3,3.3h-7v4.1h2.6c2.2,0,3.8,0.8,4.6,2.3c0.2-0.2,0.3-0.3,0.6-0.5c6.4-5,11-11.5,14.5-19.7c1.3-3.1,4.6-4.3,7.9-2.6
				c2.9,1.4,3.7,3.7,2.8,6.2c4,4.4,8.2,7.3,15.3,10C166.6,27.7,167.7,30.2,166.5,33.5z M106.1,37.1h-1c-0.6,0-1,0.4-1,1v4h2V37.1z
				 M106.1,48.3h-2v4.1c0,0.6,0.4,1,1,1h1V48.3z M115.8,38c0-0.6-0.4-1-1-1h-1.2v5h2.2V38z M115.8,48.3h-2.2v5h1.2c0.6,0,1-0.4,1-1
				V48.3z M144.7,45.4v33.8c0,4.1-3.9,6.5-9.8,4.6c-1.4-0.5-1.9-1.5-1.8-2.9c0.1-1.1,0.8-2.1,1.8-2.2c0.8-0.1,1.4-0.4,1.4-1.8v-8.4
				h-3.8v13.1c0,2.4-1.5,3.8-4.2,3.8c-2.6,0-4.2-1.4-4.2-3.8V45.4c0-3.3,1.8-5,5-5h10.4C143,40.4,144.7,42.1,144.7,45.4z
				 M132.6,47.9v3.5h3.8v-3.5c0-0.6-0.4-1-1-1h-2C133,46.9,132.6,47.3,132.6,47.9z M136.4,62.3v-4.6h-3.8v4.6H136.4z M137.2,29.8
				h13.3c-2.3-2.5-4.2-5.3-5.7-8.2C142.6,24.5,140,27.3,137.2,29.8z M163.3,43.2v33.4c0,8.2-7.1,10.7-15.8,7c-1.5-0.6-2-1-1.6-3.3
				c0.2-1.4,1.3-2.2,3.2-1.9c4.7,0.6,5.6-0.4,5.6-3.8V43.2c0-2.6,1.5-4,4.3-4C161.8,39.2,163.3,40.6,163.3,43.2z M146.2,70.3V45.8
				c0-2.2,1.3-3.4,3.6-3.4c2.2,0,3.4,1.2,3.4,3.4v24.5c0,2.2-1.2,3.4-3.4,3.4C147.4,73.7,146.2,72.4,146.2,70.3z"/>
		</g>
		<g>
			<path class="st2" d="M179.7,78.1c15.7-12.5,25-30.8,28.1-55.3c0.1-0.6-0.3-1-1-1h-14.4c-2.6,0-4-1.4-4-4s1.4-4,4-4h21.8
				c5.5,0,7.5,2.8,7.8,7.6c1.2,17.8,11,36.4,24.5,48.2c4.5,3.9,5.1,8,2,11.8c-3.4,4.1-8.4,3.9-12.4-0.6c-9-10.2-16.5-29.8-17.8-43.6
				c-3.9,16.5-16.2,38.8-35.3,47c-2.1,0.9-3.8,0.5-4.7-1.2C177.4,81.1,177.9,79.6,179.7,78.1z"/>
		</g>
		<g>
			<path class="st2" d="M332.6,50.3c0,2.1-1.1,3.3-3.3,3.3H322V75c0,9.6-8.5,13.4-22.5,7.6c-1.8-0.7-2.6-1.8-2.2-3.5
				c0.3-1.7,1.4-2.5,3.4-2.2c7.8,1,8.6,0.1,8.6-4.5V53.6H267c-2.2,0-3.3-1.2-3.3-3.3c0-2,1.1-3.1,3.3-3.1h7.4c-0.7-0.3-1-1-1.1-1.8
				c-0.1-1.4,0.3-2.2,2.1-2.6c6.8-1.8,11-4.5,13.6-7.8h-9c-1.9,0-3-1.1-3-3c0-1.9,1.1-3,3-3h12.2c0.3-0.9,0.6-1.8,0.8-2.6
				c0.2-0.6,0.3-1.1,0.6-1.6h-16.7c-0.6,0-1,0.4-1,1v4.8c0,3.3-2.1,5-5.8,5c-3.8,0-5.8-1.8-5.8-5v-7.1c0-3.4,1.8-5.2,5.2-5.2h22v-3
				c0-3.6,2.4-5.8,6.8-5.8c4.3,0,6.8,2.2,6.8,5.8v3h22c3.4,0,5.2,1.8,5.2,5.2v6.6c0,3.3-2.1,5-5.8,5c-3.8,0-5.8-1.8-5.8-5v-4.3
				c0-0.6-0.4-1-1-1h-15.4c0.5,1,0.6,2.2,0.2,3.8c-0.1,0.2-0.1,0.3-0.2,0.5h12.2c1.9,0,3,1.1,3,3c0,1.9-1.1,3-3,3h-14.7
				c-0.2,0.3-0.4,0.7-0.6,1c6.2,0.9,12.2,2.3,17.6,4.4c3.1,1.2,4.1,3.4,2.9,6c-0.2,0.3-0.2,0.6-0.4,0.8h8.3
				C331.5,47.2,332.6,48.3,332.6,50.3z M299.8,74.6h-22.2c-3.4,0-5.2-1.8-5.2-5.2v-8.1c0-3.4,1.8-5.2,5.2-5.2h22.2
				c3.4,0,5.2,1.8,5.2,5.2v8.1C305,72.8,303.2,74.6,299.8,74.6z M279.1,47.2h33.6c-4.6-2.3-10-4.7-15.7-6.8
				C292.9,44,287,46.4,279.1,47.2z M293.5,63.2c0-0.6-0.4-1-1-1h-7.4c-0.6,0-1,0.4-1,1v4.4c0,0.6,0.4,1,1,1h7.4c0.6,0,1-0.4,1-1
				V63.2z"/>
		</g>
		<g>
			<path class="st2" d="M412.2,83.6c-8.2,0.5-15.5,0.2-25.1-0.2c-10.7-0.4-20.4-3.8-23.5-10.1c-0.2-0.5-0.6-0.6-0.9,0
				c-1.2,3-3.4,6.2-6.2,9.3c-2.9,3.2-6.7,4.4-9.6,1.4s-2.2-6.6,1.2-9.1c2.1-1.6,4.9-4.2,6.5-6.1V53.3c0-0.6-0.4-1-1-1h-4.8
				c-2.1,0-3.3-1.4-3.3-3.4s1.2-3.3,3.3-3.3h13.2c3.4,0,5.2,1.8,5.2,5.2V67c1.9,4.4,7.8,5.7,17.8,5.7c8.9,0,17.1-0.2,26.6-1.4
				c4.4-0.6,7.1,1.2,7.3,5.4S417.6,83.2,412.2,83.6z M347.8,28c0.8-1.4,2.4-1.5,4-0.9c3.4,1.1,7.5,3.3,10.8,5.5
				c3.4,2.2,3.9,5.3,1.4,8c-2.4,2.7-5.7,2.6-8.2-0.6c-2.2-2.9-4.9-5.6-7.3-7.8C347.3,30.9,347,29.4,347.8,28z M352.5,15.7
				c-1.3-1.3-1.6-2.7-0.6-4.1c1-1.4,2.2-1.4,3.8-0.9c3.4,1.2,7.4,3.1,10.6,5.6c3,2.4,3.4,5.1,1,7.8c-2.4,2.6-5.1,2.2-7.8-0.8
				C357.3,20.6,354.7,18,352.5,15.7z M384.7,41.4c0.2-2.6,0.2-5.4,0.2-8.6h-10.2c-2.2,0-3.4-1.3-3.4-3.5c0-2.2,1.3-3.4,3.4-3.4h5.7
				c-0.3-0.4-0.6-0.9-0.9-1.4c-1.7-3.1-3.8-6.3-5.4-8.9c-1.1-1.7-1-3.1,0.2-4.3c1.3-1.2,2.7-0.9,4.3,0.1c2.8,1.8,6.4,4.6,8.9,7.8
				c2,2.6,2.2,4.9,0.3,6.7h5.8c1.4-3.4,2.7-7.6,3.7-11.4c1.1-4.3,3.9-5.3,7.6-3.9c3.4,1.3,4.4,4.2,2.1,8.3c-1.4,2.5-3.2,4.9-5.2,7
				h7.4c2.2,0,3.4,1.1,3.4,3.4c0,2.2-1.2,3.5-3.4,3.5h-11.4c0,3-0.2,5.9-0.6,8.6h15.5c2.2,0,3.4,1.1,3.4,3.4c0,2.2-1.3,3.5-3.4,3.5
				h-16.9c-0.2,0.7-0.4,1.4-0.6,2c5.7,1.8,12.1,5.1,17,8.9c3.2,2.5,3.5,5.5,1,8.4c-2.5,2.9-5.5,2.8-8.3-0.4
				c-3.7-4.2-7.8-8.2-12.1-11.5c-3.8,6.5-9.7,11-18.5,14.2c-1.9,0.7-3.2,0.2-3.9-1.3s-0.4-2.8,1.3-4c6.9-5,10.3-9.3,12-16.3h-11.8
				c-2.2,0-3.4-1.3-3.4-3.5c0-2.2,1.3-3.4,3.4-3.4H384.7z"/>
		</g>
		<g>
			<path class="st2" d="M430.8,40.2c-1.6-3.1-0.8-5.5,2.9-7.2c4.4-2,7.9-4,10.9-5.8c1.4-0.9,2.9-1,4,0.2c1,1.1,1,2.5,0,3.9
				c-2.4,3.6-5.6,7-9.9,10.2C435.7,43.8,432.3,43.2,430.8,40.2z M499.6,81.8c-1.4,3.6-4.6,4.3-8.3,2.4c-5.1-2.6-11.6-5.4-17.9-7.8
				c-1.8-0.6-2.6-1.9-2.2-3.6c0.1-0.4,0.2-0.7,0.4-1h-11.8c0.2,0.2,0.3,0.5,0.4,0.7c1.4,3.4,0.5,6-3.6,7.5c-7,2.6-15.1,4.1-22.7,4.5
				c-1.8,0.1-3.2-0.6-3.4-2.3c-0.2-1.8,0.2-3,2.2-3.4c6.2-1.7,12.9-4.1,18.1-7h-5.6c-3.4,0-5.2-1.8-5.2-5.2V45.4
				c0-3.4,1.8-5.2,5.2-5.2h41.9c3.4,0,5.2,1.8,5.2,5.2v21.3c0,3.4-1.8,5.2-5.2,5.2h-3.6c4,0.6,7.9,1.4,11.4,2.4
				C499.1,75.5,501,78.2,499.6,81.8z M433.4,11.2c1-1.4,2.2-1.2,3.8-0.8c3.2,0.9,7,2.4,10.6,4.6c3.3,1.9,3.9,4.4,1.8,7
				c-2.2,2.7-4.7,2.6-7.4,0.2s-5.4-4.8-8-6.8C432.8,14.3,432.5,12.7,433.4,11.2z M451.2,26.4c2.1-3.2,4.2-8.7,5.5-13.3
				c0.9-3.2,3.1-4.2,6.4-3.4c2.6,0.7,3.6,2.5,3.2,4.8H488c2-1.8,5.6-2.1,7.8-0.5c2.6,1.8,3.1,5,1,7.8c-2.6,3.4-5.6,5.7-7.8,7
				c-1.1,0.6-2.3,0.8-3.4-0.2c-1-1-1.1-2-0.3-3.2c0.8-1.2,1.4-2.2,1.8-3.3c0.2-0.6-0.2-1-0.8-1h-6.6c-0.5,1.7-1.1,3.2-1.8,4.6
				c4.2,3.6,8.9,5,17.2,5.9c4,0.5,5.1,2.6,4.3,5.7c-0.8,3-3.1,4.3-6.4,3.6c-8.6-1.8-14.2-5.4-18.2-10.9c-4.7,5.4-12.2,8.7-21.5,9.6
				c-1.8,0.2-3-0.7-3.2-2.2c-0.2-1.5,0.4-2.6,2.2-3.1c10.4-2.9,14.4-6.5,16.4-13.3h-5c-2.2,3.8-5.3,7.3-8.3,9.3
				c-1.3,0.9-2.9,1-4-0.2C450.4,29,450.3,27.9,451.2,26.4z M452.7,48.7h26.7v-1.6c0-0.6-0.4-1-1-1h-24.8c-0.6,0-1,0.4-1,1V48.7z
				 M452.7,56.8h26.7v-2.6h-26.7V56.8z M452.7,65c0,0.6,0.4,1,1,1h24.8c0.6,0,1-0.4,1-1v-2.6h-26.7V65z"/>
		</g>
		<g>
			<path class="st2" d="M541.6,58.4l-2.3-3.4v24.6c0,3.9-2.2,5.8-6.1,5.8c-3.9,0-6.1-1.8-6.1-5.8V61.3c-2.3,4.4-5.3,8.6-8,11.8
				c-1.2,1.4-2.8,1.5-4,0.5s-1.3-2.3-0.2-3.8c4.4-6.7,8.8-16.7,11-25.8h-6.4c-2.1,0-3.2-1.1-3.2-3.3c0-2.2,1.1-3.4,3.2-3.4h7.7V34
				c-0.5,0.6-1.3,1.2-2.6,1.5c-3,0.8-5-0.4-5.4-3.8c-0.5-3.6-1.2-8.2-1.8-11.5c-0.3-1.6,0.3-2.7,1.7-3.2c1.4-0.5,2.6,0.1,3.4,1.4
				c1.8,2.6,3.6,6.5,4.7,10.3V16.6c0-3.8,2.2-5.7,6.1-5.7c3.9,0,6.1,1.9,6.1,5.7v13.3c0.6-2.6,1.3-6,1.8-9.4
				c0.6-3.4,2.6-4.5,5.6-3.6c2.9,0.9,3.9,2.6,2.7,6c-1.4,3.8-3.5,8.1-5.6,10.9c-1,1.4-2.3,1.8-3.7,1.2c-0.4-0.2-0.6-0.4-0.9-0.6v2.9
				h6.2c2.2,0,3.2,1.4,3.2,3.4s-1,3.3-3.2,3.3h-6.2v2.4c3.3,1.7,7,4.2,9.1,6.3c2.5,2.6,2.5,4.9,0.2,7
				C546.2,61.7,543.8,61.7,541.6,58.4z M584.6,59.9l-4.9,1.4v18.2c0,4.1-2.1,5.8-6.1,5.8s-6.1-1.8-6.1-5.8V64.7
				c-6.1,1.7-12.2,3.2-18.3,4.6c-2.5,0.6-3.9-0.6-4.4-2.7c-0.5-2,0.4-3.7,3-4.3c6.6-1.6,13.2-3.3,19.8-5V16.6c0-3.9,2.1-5.8,6.1-5.8
				s6.1,1.8,6.1,5.8V54l2.6-0.7c2.3-0.6,3.8,0.1,4.5,2.3C587.4,57.6,586.4,59.3,584.6,59.9z M564.2,53.6c-2.6,2.4-5.6,2.2-7.9-1.6
				c-1.8-3-4.1-6.3-6-9c-1-1.4-0.8-2.7,0.3-3.8c1-1,2.2-1.2,3.7-0.5c3,1.5,6.9,4.2,9.8,7.1C566.8,48.4,566.8,51.2,564.2,53.6z
				 M551.1,22.7c-1-1.4-0.7-2.8,0.4-3.9s2.3-1.1,3.8-0.3c3,1.6,6.7,4.5,9.5,7.5c2.6,2.7,2.6,5.6-0.2,7.8c-2.8,2.2-5.6,1.9-7.8-1.9
				C555,28.8,553,25.5,551.1,22.7z"/>
		</g>
	</g>
</g>
</svg>
