<?xml version="1.0" encoding="utf-8"?>
<!-- Generator: Adobe Illustrator 25.0.1, SVG Export Plug-In . SVG Version: 6.00 Build 0)  -->
<svg version="1.1" id="_x23_Layer_1" xmlns="http://www.w3.org/2000/svg" xmlns:xlink="http://www.w3.org/1999/xlink" x="0px"
	 y="0px" viewBox="0 0 261.81 69.59" style="enable-background:new 0 0 261.81 69.59;" xml:space="preserve">
<style type="text/css">
	.st0{fill:#44150D;}
</style>
<g>
	<g>
		<path class="st0" d="M81.95,51.37c0.04,2.33-0.9,3.45-3.42,3.58c-2.47,0.13-4.43,0.08-5.97,0.02c-6.94-0.17-12.07-1.54-15.69-4.49
			c-1.08,1.67-2.39,3.16-3.89,4.41c-0.89,0.74-1.96,0.83-2.61,0.08c-0.65-0.75-0.46-1.49,0.2-2.38c1.22-1.77,2.3-3.58,3.19-5.58
			c-1.72-2.52-2.87-5.75-3.55-9.71c-0.18-1.17,0.19-1.91,1.17-2.14c0.98-0.28,1.68,0.19,2.09,1.36c0.65,1.91,1.34,3.59,2.17,5
			c0.62-2.66,1.05-5.59,1.2-9.04c0-0.33-0.23-0.61-0.56-0.61l-0.42,0l-0.09,0.23c-0.71,1.82-1.83,2.18-3.41,1.8
			c-1.54-0.38-2.09-1.41-1.39-3.27c1.23-3.26,2.31-7.03,3.4-10.19c0.14-0.42-0.14-0.84-0.6-0.84l-1.12,0
			c-0.88,0-1.35-0.33-1.53-0.94c-0.38,1.86-0.81,3.63-1.33,5.36l-0.12,29.37c-0.01,1.77-1.22,2.75-3.32,2.74
			c-2.1-0.01-3.31-0.99-3.3-2.76l0.07-17.29c-0.23,0.28-0.47,0.51-0.7,0.74c-0.94,0.93-1.92,1.02-2.57,0.36
			c-0.74-0.75-0.6-1.59-0.08-2.47c2.82-4.98,4.24-11.5,5.3-19.93c0.29-2.38,1.88-3.02,3.93-2.78c2.1,0.24,2.88,1.46,2.6,3.65
			c0,0.19-0.05,0.33-0.05,0.51c0.28-0.28,0.7-0.42,1.26-0.41l4.57,0.02c2.38,0.01,3.4,1.41,2.73,3.69
			c-0.61,2.14-1.61,5.26-2.78,8.52l1.26,0c2.14,0.01,3.45,1.22,3.3,3.41c-0.35,5.59-1.21,10.39-2.67,14.3
			c2.04,1.5,4.65,2.35,8.1,2.74c-0.51-0.42-0.79-1.08-0.78-1.87l0.01-3.31l-4.24-0.02c-1.07,0-1.68-0.61-1.67-1.69
			s0.61-1.67,1.68-1.67l4.24,0.02l0.01-2.24l-2.84-0.01c-1.07,0-1.68-0.61-1.67-1.69s0.61-1.67,1.68-1.67l2.84,0.01l0.01-2.14
			l-2.56-0.01c-1.07,0-1.68-0.61-1.67-1.69c0-1.07,0.61-1.67,1.68-1.67l2.56,0.01l0.01-2.75l-5.22-0.02c-1.07,0-1.68-0.61-1.67-1.69
			c0-1.12,0.61-1.72,1.69-1.72l5.22,0.02l0.01-2.52l-3.59-0.01c-1.07,0-1.68-0.61-1.67-1.68s0.61-1.67,1.68-1.67l3.4,0.01l0.01-1.82
			c0.01-1.68,1.18-2.61,3.23-2.6c2.05,0.01,3.12,0.94,3.11,2.62l-0.01,1.82l3.59,0.01c1.96,0.01,3.03,1.08,3.02,3.04l-0.01,2.7
			l1.12,0c1.07,0,1.72,0.66,1.72,1.78c0,1.17-0.66,1.77-1.73,1.76l-1.12,0l-0.01,3.08c-0.01,1.96-1.08,3.03-3.04,3.02l-3.59-0.01
			l-0.01,2.14l4.94,0.02c1.07,0,1.68,0.61,1.67,1.68s-0.61,1.68-1.68,1.67l-4.94-0.02l-0.01,2.24l6.25,0.03
			c1.07,0,1.68,0.61,1.67,1.68s-0.61,1.68-1.69,1.67l-6.25-0.03l-0.01,3.31c0,0.93-0.38,1.63-1.08,2.05
			c2.33,0.01,4.57-0.07,6.53-0.25C80.56,48.19,81.91,49.27,81.95,51.37z M72.76,28.82l1.17,0c0.33,0,0.56-0.23,0.56-0.56l0.01-2.19
			l-1.72-0.01L72.76,28.82z M72.79,22.66l1.72,0.01l0.01-1.96c0-0.33-0.23-0.56-0.56-0.56l-1.17,0L72.79,22.66z"/>
		<path class="st0" d="M128.28,51.84c-1.13,2.23-3.18,2.5-5.69,1.05c-3.58-2.11-6.65-4.83-8.92-8.05l-0.02,5.22
			c-0.03,6.25-5.3,8.28-12.37,4.71c-0.93-0.47-1.25-1.22-1.02-2.2c0.24-0.88,0.94-1.3,2.1-1.2c3.31,0.29,4.2-0.36,4.21-2.59
			l0.01-1.3c-2.06,1.58-4.96,3.48-8.32,4.77c-1.96,0.74-3.5,0.03-4.19-2.02c-0.69-2.01,0.15-3.54,2.39-4
			c1.35-0.27,2.94-0.69,4.57-1.15c-0.37-0.14-0.74-0.42-1.11-0.75c-1.21-1.17-2.18-2.29-3.02-3.14c-0.79-0.79-0.83-1.63-0.36-2.42
			c0.47-0.79,1.26-0.93,2.29-0.55c1.35,0.47,2.84,0.94,4.33,1.84c1.63,0.99,1.99,2.67,0.87,4.01l-0.09,0.09
			c0.93-0.32,1.82-0.65,2.66-1.01l0.02-5.36l-7.04-0.03c-1.17,0-1.82-0.66-1.81-1.83c0-1.17,0.66-1.81,1.83-1.81l7.04,0.03
			l0.01-1.77l-8.44-0.03c-1.21,0-1.86-0.66-1.86-1.87s0.66-1.86,1.87-1.86l8.44,0.03l0.01-1.91l-6.67-0.03
			c-1.17,0-1.82-0.66-1.81-1.83s0.66-1.82,1.83-1.81l6.67,0.03l0.01-1.4c0-0.28,0-0.51,0.05-0.75L96.61,20.9
			c-0.33,0-0.56,0.23-0.56,0.56l-0.04,9.04c-0.04,9.93-1.94,19.71-6.02,24.5c-0.8,0.93-2.06,1.16-2.99,0.5
			c-0.84-0.56-0.83-1.5-0.41-2.52c1.93-4.75,2.37-9.31,2.43-23.81l0.04-9.18c0.01-1.96,1.08-3.03,3.04-3.02l13.56,0.05l0.01-1.72
			c0.01-2.14,1.36-3.26,3.93-3.25c2.52,0.01,3.91,1.13,3.9,3.28l-0.01,1.72l13.19,0.05c1.26,0.01,1.96,0.71,1.95,1.97
			c0,1.26-0.71,1.96-1.97,1.95l-12.96-0.05c0.04,0.23,0.04,0.47,0.04,0.75l-0.01,1.4l7.09,0.03c2.14,0.01,3.21,1.04,3.21,3.14
			l-0.01,2.42l1.82,0.01c1.21,0,1.86,0.66,1.86,1.87s-0.66,1.86-1.87,1.86l-1.82-0.01l-0.01,2.38c-0.01,1.96-1.08,3.03-3.04,3.02
			l-7.27-0.03l0,0.75c1.25,1.4,2.65,2.67,4.32,3.84c0.89-0.88,1.92-2,2.9-3.02c1.64-1.67,3.08-1.9,4.57-0.31s1.2,3.17-0.53,4.38
			c-0.89,0.65-1.82,1.11-2.8,1.48c1.16,0.61,2.42,1.22,3.77,1.74C128.67,47.74,129.31,49.79,128.28,51.84z M113.71,34.34l2.94,0.01
			c0.33,0,0.56-0.23,0.56-0.56l0.01-1.4l-3.5-0.01L113.71,34.34z M113.73,28.66l3.5,0.01l0-1.35c0-0.33-0.23-0.56-0.56-0.56
			l-2.94-0.01L113.73,28.66z"/>
		<path class="st0" d="M169.79,56.11c-3.73-0.67-6.75-2.96-9.02-6.75c-3.93,3.06-8.41,5.23-13.26,6.38
			c-1.17,0.28-1.91-0.1-2.23-1.03c-0.32-0.98,0.01-1.91,1.08-2.37c4.58-1.99,8.6-4.72,11.92-8.48c-1.61-4.81-2.57-10.96-2.91-18.28
			l-11.09-0.04c-0.33,0-0.56,0.23-0.56,0.56l-0.02,4.33l7.79,0.03c2,0.01,3.12,1.08,3.11,3.28c0.03,4.52-0.12,7.69-0.51,10.95
			c-0.53,4.29-5.25,5.85-10.04,3.22c-0.93-0.52-1.16-1.26-0.97-2.24c0.19-0.93,0.89-1.16,2.06-1.11c1.72,0.05,2.29-0.22,2.48-1.67
			c0.29-2.42,0.3-4.71,0.31-7.97c0-0.37-0.23-0.56-0.56-0.56l-3.68-0.01c-0.13,8.62-1.51,16.87-7.41,21.51
			c-0.89,0.7-1.82,0.92-2.8,0.08c-0.79-0.7-0.74-1.59-0.22-2.56c2.49-4.7,3.11-8.89,3.16-20.22l0.03-8.34
			c0.01-2.19,1.27-3.68,3.51-3.67l15.29,0.06c0.01-1.82-0.03-3.68,0.02-5.27c0.06-2.52,1.37-3.49,3.65-3.48
			c2.33,0.01,3.49,0.95,3.48,3.56c-0.01,1.68-0.01,3.59,0.03,5.22l5.08,0.02c-0.14-0.19-0.28-0.42-0.42-0.65
			c-0.93-1.78-2.27-3.6-3.15-4.96c-0.6-0.93-0.46-1.73,0.29-2.42c0.66-0.6,1.54-0.46,2.42,0.06c1.81,1.03,3.44,2.3,4.97,3.79
			c1.44,1.4,1.62,2.99,0.5,4.2l1.03,0c1.3,0,2.05,0.8,2.04,2.11c0,1.4-0.75,2.28-2.06,2.28l-10.58-0.04
			c0.17,3.78,0.53,7.23,1.08,10.21c0.75-1.58,1.46-3.21,2.07-4.98c0.9-2.56,2.9-3.25,4.95-2.4c2.14,0.89,2.88,2.43,1.7,5.23
			c-1.65,3.96-3.76,7.49-6.29,10.46c1.06,2.15,2.27,3.6,3.71,4.12c1.12,0.42,1.49-0.46,1.7-5.26c0.05-1.26,0.8-1.82,1.73-1.86
			c0.98-0.04,1.77,0.38,2,1.83C176.84,53.38,175.01,57.06,169.79,56.11z"/>
		<path class="st0" d="M187.6,43.08c-1.18,3.26-2.92,6.79-5.58,9.3c-0.7,0.65-1.4,0.69-2.01,0.18c-0.65-0.56-0.83-1.21-0.46-2
			c1.03-2.23,1.98-5.35,2.79-9.13c0.43-2,1.74-2.56,3.6-2.08C187.71,39.77,188.27,41.22,187.6,43.08z M180.1,20.86
			c0-1.26,0.66-1.96,1.83-1.95l6.06,0.02l0.01-3.17c0.01-2,1.37-3.3,3.93-3.29c2.52,0.01,3.91,1.27,3.9,3.33l-0.01,3.17l6.01,0.02
			c1.17,0,1.82,0.71,1.81,1.97s-0.66,1.96-1.83,1.95l-19.9-0.08C180.74,22.82,180.09,22.12,180.1,20.86z M216.6,55.41
			c-6.62-0.03-7.46-0.73-7.44-5.95l0.03-6.25c-2.03,6.38-5.26,10.05-9.61,13.01c-0.84,0.56-1.49,0.41-2.05-0.24
			c-0.56-0.65-0.51-1.35,0.1-2.1c1.08-1.3,2.01-2.55,2.81-3.86c-1.77,0.69-3.08-0.15-3.53-2.3c-0.32-1.63-0.92-3.73-1.56-5.97
			l-0.04,9.42c-0.02,4.94-4.69,6.41-10.83,3.78c-0.98-0.42-1.3-1.12-1.11-2.01c0.19-0.88,0.89-1.25,2.01-1.11
			c2.66,0.34,2.94-0.17,2.95-2.09l0.05-12.07l-3.26-0.01c-1.96-0.01-3.03-1.08-3.02-3.04l0.03-6.67c0.01-1.96,1.08-3.03,3.04-3.02
			l12.96,0.05c1.96,0.01,3.03,1.08,3.02,3.04l-0.03,6.67c-0.01,1.96-1.08,3.03-3.04,3.02l-2.7-0.01l-0.01,2.14
			c0.14-0.23,0.38-0.46,0.7-0.6c0.75-0.37,1.54-0.13,2.14,0.62c1.44,1.73,2.83,3.88,3.8,5.98c0.09,0.19,0.14,0.33,0.18,0.51
			c1.46-3.82,2.13-8.71,2.45-16.77l-1.4-0.01c-1.17,0-1.82-0.75-1.81-2.06c0-1.3,0.66-2.05,1.83-2.04l1.49,0.01
			c0.11-2.8,0.12-5.92,0.13-9.42c0.01-2.38,1.23-3.35,3.42-3.34c2.19,0.01,3.07,0.85,3.16,3.23c0.12,3.5,0.16,6.67,0.1,9.56
			l8.16,0.03c1.17,0,1.96,0.75,1.95,2.06c-0.01,1.31-0.8,2.05-1.97,2.04l-8.3-0.03l-0.15,2.14c0.33-0.09,0.7-0.14,1.12-0.13
			c2,0.01,3.12,1.04,3.11,3.04l-0.05,12.82c-0.01,1.77,0.18,2.05,1.34,2.06c1.26,0.01,1.5-0.69,1.56-5.68
			c0-1.17,0.71-1.77,1.55-1.77c0.84,0,1.54,0.71,1.67,1.78C222.76,52.59,221.82,55.43,216.6,55.41z M189,33.29
			c0,0.33,0.23,0.56,0.56,0.56l4.2,0.02c0.33,0,0.56-0.23,0.56-0.56l0.02-3.96c0-0.33-0.23-0.56-0.56-0.56l-4.2-0.02
			c-0.33,0-0.56,0.23-0.56,0.56L189,33.29z M212.65,16.38c-0.37-0.89-0.18-1.73,0.57-2.14c0.79-0.46,1.45-0.23,2.14,0.43
			c1.49,1.36,3.16,3.56,4.41,5.56c1.16,1.87,0.78,3.5-1.09,4.38c-1.82,0.88-3.22,0.13-3.86-2.07
			C214.27,20.63,213.48,18.48,212.65,16.38z"/>
	</g>
	<g>
		<g>
			<path class="st0" d="M249.16,26.14c-0.33-1.28-4.61-4.34-5.38-4.35c0.61,0.67,1.32,0.76,1.64,2.07c0.21,0.88,0.44,2.06,0.66,2.94
				c0.63,2.55,2.75,1.52,3.25,3.33l0.24,0.01l-0.23-0.91C249.31,28.82,249.7,27.66,249.16,26.14z M244.43,10.1l0.45,0.57l0.11-0.15
				c-0.88-1.16,0.75-1.98-0.52-3.56c-0.44-0.55-1.07-1.24-1.51-1.78c-0.66-0.81-0.38-1.29-0.51-1.98c-0.36,0.48-0.48,4.55,0.16,5.36
				C243.31,9.59,244.21,9.89,244.43,10.1z M239.95,6.66l0.41,0.51l0.1-0.14c-0.79-1.04,0.67-1.77-0.47-3.19
				c-0.39-0.49-0.95-1.11-1.35-1.6c-0.59-0.73-0.34-1.16-0.45-1.78c-0.32,0.43-0.43,4.08,0.14,4.8
				C238.95,6.2,239.75,6.47,239.95,6.66z M251.34,32.58c0-8.79-3.45-16.76-9.04-22.52c-1.46-1.5-3.06-2.86-4.78-4.04
				c-0.32-0.59-0.32-1.4-1.54-1.74c-0.61-0.17-1.43-0.35-2.03-0.51c-0.9-0.25-0.95-0.74-1.4-1.18c-0.01,0.53,2.03,3.56,2.92,3.81
				c1.05,0.4,1.86,0.15,2.14,0.18l0.06,0.02c1.56,1.11,3.02,2.35,4.35,3.73c5.51,5.69,8.92,13.56,8.92,22.24
				c0,8.69-3.41,16.55-8.92,22.24c-4.71,4.86-10.96,8.13-17.93,8.98c0,0.14,0,0.27,0.01,0.41c7.08-0.85,13.43-4.17,18.21-9.11
				C247.89,49.34,251.34,41.37,251.34,32.58z M246.34,47.79l0.24-1.03c0.17-0.41,1.15-1.37,1.39-3.17c0.33-1.44-2.38-6.68-3.14-7.08
				c0.26,0.98,0.93,1.43,0.58,2.9c-0.24,0.98-0.62,2.28-0.85,3.27c-0.67,2.86,1.97,2.92,1.54,4.98L246.34,47.79z M242.79,53.5
				l0.26-1.14c0.19-0.46,1.28-1.53,1.55-3.52c0.37-1.6-2.65-7.44-3.49-7.88c0.29,1.09,1.03,1.6,0.64,3.23
				c-0.26,1.09-0.69,2.53-0.95,3.64c-0.75,3.19,2.19,3.25,1.72,5.54L242.79,53.5z M248.71,38.49l0.25,0.07l0.02-1.02
				c0.08-0.42,0.81-1.52,0.68-3.27c0.02-1.43-3.58-5.84-4.38-6.06c0.44,0.87,1.16,1.17,1.13,2.63c-0.02,0.97-0.13,2.28-0.15,3.26
				C246.2,36.94,248.7,36.46,248.71,38.49z M252.57,35.09l-0.62,0.82l0.24,0.1c1.27-1.61,2.97,0.33,4.68-1.96
				c0.59-0.79,1.32-1.89,1.91-2.68c0.88-1.18,1.63-0.97,2.53-1.38c-0.78-0.32-6.38,0.94-7.26,2.09
				C252.88,33.38,252.77,34.71,252.57,35.09z M247.74,14.1l0.3,0.79l0.17-0.13c-0.56-1.59,1.52-1.92,0.68-4.12
				c-0.29-0.76-0.74-1.75-1.03-2.5c-0.44-1.13,0.04-1.56,0.14-2.37c-0.56,0.4-2.14,4.86-1.72,5.97
				C246.68,13.14,247.56,13.8,247.74,14.1z M253.06,26.39c-0.73,1.45-0.49,2.66-0.58,3.05l-0.34,0.88l0.24,0.02
				c0.73-1.74,2.71-0.44,3.67-2.9c0.33-0.85,0.71-2,1.03-2.85c0.49-1.26,1.21-1.26,1.9-1.85C258.22,22.65,253.55,25.15,253.06,26.39
				z M251.75,24.07L251.6,25l0.24-0.03c0.34-1.86,2.56-1.02,2.96-3.62c0.14-0.9,0.26-2.11,0.39-3.01c0.2-1.34,0.91-1.49,1.46-2.22
				c-0.77,0.08-4.79,3.53-5,4.84C251.26,22.54,251.75,23.67,251.75,24.07z M249.75,19.06l0.08,0.96l0.23-0.09
				c-0.11-1.91,2.27-1.61,2.05-4.28c-0.08-0.92-0.25-2.14-0.33-3.06c-0.12-1.37,0.54-1.69,0.91-2.54c-0.74,0.26-3.88,4.62-3.77,5.96
				C248.9,17.67,249.65,18.67,249.75,19.06z M252.82,38.62c-1.36,1.5-1.48,3.03-1.71,3.47l-0.71,0.94l0.28,0.11
				c1.46-1.84,3.4,0.38,5.38-2.25c0.68-0.91,1.52-2.17,2.19-3.08c1.01-1.36,1.88-1.11,2.9-1.59
				C260.26,35.86,253.82,37.3,252.82,38.62z M244.02,55.94c-2.18,0.7-3.16,2.12-3.64,2.42l-1.22,0.52l0.21,0.27
				c2.47-0.97,3.11,2.29,6.53,0.84c1.18-0.5,2.71-1.26,3.88-1.77c1.75-0.76,2.46-0.02,3.74,0.09
				C252.85,57.44,245.74,55.21,244.02,55.94z M238.02,60.52c-2.27,0.31-3.48,1.55-4,1.76l-1.3,0.3l0.16,0.3
				c2.6-0.53,2.67,2.8,6.29,1.95c1.25-0.29,2.89-0.78,4.13-1.07c1.86-0.44,2.43,0.4,3.67,0.73
				C246.46,63.52,239.84,60.1,238.02,60.52z M248.54,50.7c-1.82,0.89-2.5,2.26-2.88,2.59l-1.01,0.61l0.22,0.21
				c2.04-1.17,3.02,1.61,5.83-0.1c0.97-0.59,2.21-1.45,3.18-2.05c1.44-0.89,2.15-0.34,3.29-0.4
				C256.48,50.89,249.96,49.85,248.54,50.7z M246.79,18.35c-0.65-1.15-5.59-2.99-6.33-2.79c0.76,0.49,1.47,0.39,2.13,1.57
				c0.43,0.79,0.96,1.88,1.4,2.67c1.28,2.29,3.05,0.75,4.01,2.36l0.23-0.06l-0.46-0.82C247.64,20.9,247.71,19.68,246.79,18.35z
				 M230.68,63.62c-2.29-0.1-3.7,0.9-4.25,1.02l-1.33,0.06l0.11,0.32c2.66-0.06,2.13,3.23,5.84,3.04c1.28-0.06,2.98-0.25,4.25-0.32
				c1.91-0.1,2.32,0.83,3.48,1.38C238.45,68.08,232.55,63.53,230.68,63.62z M250.99,44.93c-1.63,1.2-2.05,2.67-2.37,3.06l-0.88,0.78
				l0.25,0.16c1.8-1.52,3.26,1.05,5.72-1.14c0.85-0.76,1.92-1.83,2.76-2.58c1.26-1.13,2.06-0.72,3.16-0.98
				C258.83,43.69,252.23,43.83,250.99,44.93z M237.69,8.23c-0.8-0.46-4.42,0.21-4.79,0.59c0.63,0.02,1.02-0.3,1.84,0.18
				c0.54,0.32,1.25,0.78,1.8,1.1c1.59,0.92,2.09-0.65,3.25-0.02l0.12-0.12l-0.57-0.33C239.11,9.46,238.71,8.7,237.69,8.23z
				 M242.51,12.26c-0.79-0.81-5.26-1.22-5.84-0.9c0.74,0.23,1.3-0.01,2.1,0.82c0.53,0.55,1.21,1.33,1.75,1.89
				c1.56,1.61,2.68-0.06,3.83,1.06l0.18-0.1l-0.56-0.57C243.78,14.17,243.56,13.15,242.51,12.26z M234.81,59.47l0.83-0.83
				c0.4-0.29,1.89-0.62,3.18-2.18c1.16-1.17,1.67-7.72,1.18-8.54c-0.33,1.08,0.04,1.9-1.15,3.08c-0.8,0.79-1.92,1.79-2.72,2.59
				c-2.31,2.31,0.15,3.91-1.46,5.61L234.81,59.47z M226.36,62.51c0.52-0.2,2.26-0.13,4.12-1.47c1.61-0.95,4.07-7.98,3.78-9.03
				c-0.67,1.09-0.51,2.1-2.16,3.05c-1.11,0.64-2.63,1.41-3.74,2.06c-3.21,1.87-0.97,4.34-3.23,5.74l0.09,0.33L226.36,62.51z"/>
		</g>
		<g>
			<path class="st0" d="M12.46,29.22l-0.23,0.91l0.24-0.01c0.5-1.81,2.62-0.78,3.25-3.33c0.22-0.88,0.44-2.07,0.66-2.94
				c0.32-1.31,1.03-1.4,1.64-2.07c-0.77,0.01-5.06,3.07-5.38,4.35C12.11,27.66,12.5,28.82,12.46,29.22z M19.19,8.54
				c0.64-0.8,0.51-4.88,0.16-5.36c-0.13,0.69,0.15,1.17-0.51,1.98c-0.44,0.54-1.06,1.24-1.51,1.78c-1.27,1.58,0.36,2.41-0.52,3.56
				l0.11,0.15l0.45-0.57C17.61,9.89,18.5,9.59,19.19,8.54z M23.48,5.26c0.57-0.72,0.46-4.37,0.14-4.8
				c-0.12,0.62,0.14,1.05-0.45,1.78c-0.39,0.49-0.95,1.11-1.35,1.6c-1.14,1.42,0.32,2.16-0.47,3.19l0.1,0.14l0.41-0.51
				C22.06,6.47,22.86,6.2,23.48,5.26z M19.51,55.1c4.78,4.94,11.13,8.26,18.21,9.11c0-0.14,0-0.27,0.01-0.41
				c-6.97-0.85-13.22-4.12-17.93-8.98c-5.51-5.69-8.92-13.56-8.92-22.24c0-8.69,3.41-16.55,8.92-22.24
				c1.33-1.38,2.79-2.63,4.35-3.73l0.06-0.02c0.27-0.03,1.09,0.22,2.14-0.18c0.88-0.25,2.92-3.28,2.92-3.81
				c-0.45,0.43-0.5,0.93-1.4,1.18c-0.6,0.16-1.42,0.34-2.03,0.51c-1.23,0.34-1.23,1.15-1.54,1.74c-1.72,1.18-3.32,2.53-4.78,4.04
				c-5.58,5.76-9.04,13.73-9.04,22.52C10.47,41.37,13.92,49.34,19.51,55.1z M15.7,47.66c-0.42-2.06,2.21-2.12,1.54-4.98
				c-0.23-0.99-0.61-2.29-0.85-3.27c-0.35-1.47,0.31-1.92,0.58-2.9c-0.76,0.4-3.47,5.64-3.14,7.08c0.25,1.8,1.22,2.76,1.39,3.17
				l0.24,1.03L15.7,47.66z M19.29,53.36C18.82,51.06,21.75,51,21,47.82c-0.26-1.1-0.68-2.54-0.95-3.64
				c-0.39-1.63,0.35-2.14,0.64-3.23c-0.85,0.45-3.86,6.28-3.49,7.88c0.27,2,1.36,3.07,1.55,3.52l0.26,1.14L19.29,53.36z M15.55,34.1
				c-0.02-0.98-0.12-2.28-0.15-3.26c-0.04-1.46,0.68-1.75,1.13-2.63c-0.8,0.23-4.41,4.64-4.38,6.06c-0.13,1.75,0.61,2.85,0.68,3.27
				l0.02,1.02l0.25-0.07C13.11,36.46,15.61,36.94,15.55,34.1z M7.75,32.07c-0.87-1.15-6.48-2.4-7.26-2.09
				c0.9,0.42,1.65,0.2,2.53,1.38c0.59,0.79,1.32,1.89,1.91,2.68c1.72,2.29,3.41,0.36,4.68,1.96l0.24-0.1l-0.62-0.82
				C9.04,34.71,8.93,33.38,7.75,32.07z M15.52,11.74c0.42-1.11-1.16-5.56-1.72-5.97c0.1,0.81,0.58,1.24,0.14,2.37
				c-0.29,0.75-0.74,1.74-1.03,2.5c-0.85,2.2,1.24,2.53,0.68,4.12l0.17,0.13l0.3-0.79C14.25,13.8,15.13,13.14,15.52,11.74z
				 M2.82,22.74c0.69,0.59,1.42,0.59,1.9,1.85c0.33,0.85,0.7,2,1.03,2.85c0.96,2.46,2.94,1.16,3.67,2.9l0.24-0.02l-0.34-0.88
				c-0.08-0.39,0.15-1.6-0.58-3.05C8.26,25.15,3.59,22.65,2.82,22.74z M10.15,20.96c-0.21-1.31-4.23-4.76-5-4.84
				C5.7,16.85,6.41,17,6.61,18.34c0.14,0.9,0.25,2.1,0.39,3.01c0.41,2.61,2.62,1.77,2.96,3.62L10.21,25l-0.15-0.93
				C10.06,23.67,10.55,22.54,10.15,20.96z M12.89,16.02c0.11-1.34-3.03-5.7-3.77-5.96c0.37,0.85,1.03,1.17,0.91,2.54
				c-0.08,0.92-0.25,2.13-0.33,3.06c-0.22,2.67,2.16,2.36,2.05,4.28l0.23,0.09l0.08-0.96C12.16,18.67,12.91,17.67,12.89,16.02z
				 M0.66,36.22c1.03,0.48,1.9,0.23,2.9,1.59c0.67,0.91,1.51,2.17,2.19,3.08c1.97,2.63,3.91,0.41,5.38,2.25l0.28-0.11l-0.71-0.94
				c-0.23-0.44-0.35-1.97-1.71-3.47C7.99,37.3,1.55,35.86,0.66,36.22z M8.29,58.3c1.28-0.11,1.99-0.84,3.74-0.09
				c1.17,0.51,2.7,1.26,3.88,1.77c3.42,1.46,4.06-1.81,6.53-0.84l0.21-0.27l-1.22-0.52c-0.48-0.3-1.46-1.73-3.64-2.42
				C16.07,55.21,8.96,57.44,8.29,58.3z M14.84,64.49c1.24-0.33,1.81-1.17,3.67-0.73c1.24,0.3,2.88,0.78,4.13,1.07
				c3.62,0.85,3.69-2.49,6.29-1.95l0.16-0.3l-1.3-0.3c-0.52-0.21-1.73-1.45-4-1.76C21.97,60.1,15.35,63.52,14.84,64.49z M4.64,51.56
				c1.13,0.06,1.85-0.49,3.29,0.4c0.96,0.59,2.2,1.45,3.18,2.05c2.81,1.71,3.79-1.07,5.83,0.1l0.22-0.21l-1.01-0.61
				c-0.38-0.32-1.05-1.7-2.88-2.59C11.85,49.85,5.33,50.89,4.64,51.56z M14.04,21.28l-0.46,0.82l0.23,0.06
				c0.96-1.62,2.73-0.07,4.01-2.36c0.44-0.79,0.97-1.88,1.4-2.67c0.65-1.18,1.36-1.08,2.13-1.57c-0.74-0.19-5.68,1.64-6.33,2.79
				C14.1,19.68,14.17,20.9,14.04,21.28z M23.03,69.12c1.16-0.55,1.57-1.48,3.48-1.38c1.27,0.07,2.97,0.25,4.25,0.32
				c3.71,0.19,3.18-3.1,5.84-3.04l0.11-0.32l-1.33-0.06c-0.55-0.12-1.96-1.12-4.25-1.02C29.26,63.53,23.36,68.08,23.03,69.12z
				 M2.18,44.23c1.1,0.27,1.9-0.15,3.16,0.98c0.84,0.76,1.91,1.82,2.76,2.58c2.45,2.19,3.92-0.37,5.72,1.14l0.25-0.16l-0.88-0.78
				c-0.31-0.39-0.73-1.86-2.37-3.06C9.58,43.83,2.98,43.69,2.18,44.23z M22.49,9.63l-0.57,0.33l0.12,0.12
				c1.15-0.62,1.66,0.94,3.25,0.02c0.55-0.32,1.25-0.78,1.8-1.1c0.81-0.48,1.2-0.16,1.84-0.18c-0.38-0.38-3.99-1.05-4.79-0.59
				C23.1,8.7,22.7,9.46,22.49,9.63z M17.84,14.45l-0.56,0.57l0.18,0.1c1.15-1.12,2.27,0.55,3.83-1.06c0.54-0.55,1.21-1.33,1.75-1.89
				c0.8-0.83,1.36-0.59,2.1-0.82c-0.57-0.32-5.04,0.09-5.84,0.9C18.25,13.15,18.03,14.17,17.84,14.45z M27.15,59.21
				c-1.61-1.7,0.85-3.3-1.46-5.61c-0.8-0.8-1.92-1.8-2.72-2.59c-1.19-1.18-0.83-2-1.15-3.08c-0.49,0.83,0.03,7.37,1.18,8.54
				c1.29,1.55,2.77,1.89,3.18,2.18L27,59.47L27.15,59.21z M36.6,63.18l0.09-0.33c-2.26-1.4-0.02-3.87-3.23-5.74
				c-1.11-0.65-2.63-1.42-3.74-2.06c-1.65-0.95-1.49-1.96-2.16-3.05c-0.29,1.05,2.17,8.08,3.78,9.03c1.86,1.33,3.59,1.27,4.12,1.47
				L36.6,63.18z"/>
		</g>
	</g>
</g>
</svg>
