<?xml version="1.0" encoding="utf-8"?>
<!-- Generator: Adobe Illustrator 25.1.0, SVG Export Plug-In . SVG Version: 6.00 Build 0)  -->
<svg version="1.1" id="圖層_1" xmlns="http://www.w3.org/2000/svg" xmlns:xlink="http://www.w3.org/1999/xlink" x="0px" y="0px"
	 viewBox="0 0 346.7 97.9" style="enable-background:new 0 0 346.7 97.9;" xml:space="preserve">
<style type="text/css">
	.st0{fill:#44150D;}
	.st1{fill:#FFFFFF;}
	.st2{fill:#FECB00;}
</style>
<g>
	<g>
		<g>
			<path class="st0" d="M21.8,45.1c-2.2-2.8-4.8-6.2-7-8.9c-1.2-1.4-1.4-3-0.2-4.5c1-1.2,2.4-1.4,4.1-0.6c3.4,1.4,7.5,3.8,10.9,6.5
				c3.4,2.6,3.7,6,0.8,8.7C27.5,49,24.5,48.6,21.8,45.1z M34.4,54.7c-1.8,10.2-4.2,19.8-6.7,26.4c-1.8,4.9-5.4,6.3-9.3,4
				c-4-2.3-4.5-5.5-1.8-9.6c3.4-5.1,7.8-13.4,12.2-22.7c0.9-1.8,2.2-2.3,3.8-1.8C34.2,51.4,34.8,52.8,34.4,54.7z M16.4,18.5
				c-1.2-1.5-1.2-3-0.2-4.2c1-1.3,2.4-1.5,4.2-0.8c3.5,1.4,7.4,3.8,10.7,6.5c3.4,2.8,4.1,5.8,1.2,8.7c-3,3-6.2,2.5-8.8-1.1
				C21.4,24.7,18.8,21.5,16.4,18.5z M86.5,40c0,2.4-1.3,3.8-3.5,3.8H66.4v10.1h11.2c3.4,0,5.2,1.8,5.2,5.4v23.7c0,4-2.2,5.5-6.2,5.5
				s-6.2-1.5-6.2-5.5V82H49.6v0.9c0,4-2.2,5.5-6.2,5.5s-6.2-1.5-6.2-5.5V59.2c0-3.4,1.8-5.4,5.2-5.4h11.1V43.8H37.6
				c-2.2,0-3.5-1.5-3.5-3.8s1.3-3.8,3.5-3.8h16.1v-8.7C49,27.9,44.4,28,40.1,28c-2,0-3.1-1-3.3-2.6c-0.2-1.6,0.6-2.9,2.6-3.1
				c10.7-1,23.8-4.8,33-8.8c3.9-1.7,7.4-0.7,8.7,3c1.4,3.8-0.5,7-4.2,7.9c-3.1,0.7-6.7,1.4-10.6,1.9v9.9H83
				C85.2,36.3,86.5,37.6,86.5,40z M50.6,60.9c-0.6,0-1,0.4-1,1v13.3h20.9V61.9c0-0.6-0.4-1-1-1H50.6z"/>
			<path class="st0" d="M76.7,94.4c-4.5,0-9.2-1.8-11.2-6.4H54.7c-2,4.6-6.7,6.4-11.2,6.4c-5,0-10.2-2.2-11.7-8
				c-1.9,3-4.3,4.5-6.2,5.1c-3.2,1.1-6.8,0.7-10.2-1.3c-4.1-2.4-5.6-5.5-6.1-7.7c-0.8-3.3,0-6.8,2.3-10.4c3-4.5,6.8-11.5,10.5-19.2
				c-1.6-0.8-3.3-2.1-5-4.3c0,0,0,0,0,0c-1.5-1.9-4.4-5.6-6.9-8.7C7,36.3,7,31.5,10,27.9c0,0,0.1-0.1,0.1-0.1c1.1-1.3,2.5-2.2,4-2.7
				c-0.8-1-1.6-1.9-2.3-2.8c0,0,0,0,0-0.1c-2.9-3.7-2.9-8.3-0.1-11.7c2.7-3.3,6.9-4.3,11.1-2.6c4.2,1.7,8.7,4.4,12.3,7.4
				c0.6,0.5,1.1,1,1.6,1.5c0.7-0.2,1.4-0.4,2.2-0.5c0,0,0.1,0,0.1,0C48.2,15.4,60.7,12,70.1,8c3.7-1.6,7.4-1.7,10.5-0.4
				c2.9,1.2,5.1,3.7,6.2,6.9c1.2,3.4,1,7-0.6,9.9c-1.6,3-4.4,5-7.9,5.9H83c5.6,0,9.5,4,9.5,9.8c0,5.3-3.4,9.2-8.3,9.7
				c2.9,1.9,4.6,5.3,4.6,9.5v23.7C88.8,91.4,82.6,94.4,76.7,94.4z M76.5,82.4c0.1,0,0.2,0,0.3,0V59.9h-0.6c0.2,0.6,0.3,1.3,0.3,2
				v13.3c0,1.3-0.4,2.5-1.1,3.4c0.7,1,1.1,2.2,1.1,3.4V82.4z M43.3,82.4c0.1,0,0.2,0,0.3,0V82c0-1.3,0.4-2.5,1.1-3.4
				c-0.7-1-1.1-2.2-1.1-3.4V61.9c0-0.7,0.1-1.4,0.3-2h-0.6V82.4z M21.1,79.7c0.1,0.1,0.2,0.1,0.3,0.2c0.1,0,0.1,0.1,0.2,0.1
				c0.1-0.2,0.3-0.5,0.5-1c0.3-0.7,0.5-1.4,0.8-2.2c-0.4,0.7-0.8,1.3-1.3,2C21.4,79.1,21.2,79.4,21.1,79.7z M55.6,69.2h8.9v-2.2
				h-8.9V69.2z M69.6,66.9L69.6,66.9L69.6,66.9z M77.9,59.9L77.9,59.9L77.9,59.9z M42.3,59.9L42.3,59.9L42.3,59.9z M59.6,54.9h1
				c-0.1-0.3-0.1-0.7-0.1-1V43.8c0-1.4,0.5-2.7,1.3-3.8c-0.8-1-1.3-2.3-1.3-3.8v-9.9c0-0.8,0.2-1.6,0.5-2.4
				c-0.7,0.2-1.4,0.4-2.1,0.6c0.5,0.9,0.8,1.9,0.8,3v8.7c0,1.4-0.5,2.7-1.3,3.8c0.8,1,1.3,2.3,1.3,3.8v10.1
				C59.6,54.2,59.6,54.6,59.6,54.9z M19.4,32.4C19.4,32.4,19.4,32.4,19.4,32.4C19.4,32.4,19.4,32.4,19.4,32.4z M29.1,24.8L29.1,24.8
				L29.1,24.8z"/>
		</g>
		<g>
			<path class="st0" d="M167.2,36.1c-0.2,21.3-0.4,31.4-1.4,42.2c-0.8,9.1-7.6,12-20.1,6.6c-1.8-0.8-2.3-2.2-1.8-3.7
				c0.5-1.6,1.6-2.2,3.7-1.8c6.4,1,7.1-0.1,7.4-4c0.8-9.7,1.1-21.2,1.3-37c0-0.6-0.4-1-1-1h-2.2c-1.5,29-7,41.5-16.3,49.6
				c-1.4,1.1-2.6,1-3.8-0.2c-1.1-1.1-1.2-2.4-0.1-3.9c1-1.5,1.9-3.1,2.8-4.8c-0.2,0.2-0.6,0.3-0.9,0.5c-9.1,4-19.9,6.5-30.1,7.7
				c-3.8,0.5-6.2-1-6.4-4.6c-0.2-3.4,1.2-5.5,4.9-5.6l10.3-0.5v-5.4H104c-2,0-3.1-1.1-3.1-3.1S102,64,104,64h9.6v-2.8h-7.4
				c-3.4,0-5.2-1.8-5.2-5.2V41.1c0-3.4,1.8-5.2,5.2-5.2h7.4v-2.7h-12c-1.8,0-3-1.1-3-3.1c0-2,1.1-3.1,3-3.1h12v-2.4
				c-3.5,0.2-7.1,0.2-10.7,0.1c-1.9-0.1-3-1-3-2.6c-0.1-1.7,0.6-2.6,2.7-2.8c8.7-0.6,19-2.2,27.9-5.4c3.3-1.2,5.8-0.3,6.7,2.5
				c1,2.9,0.1,4.9-2.9,5.7c-2.6,0.7-5.7,1.3-9,1.7v3.3h11c1.8,0,3,1.1,3,3.1c0,0.4,0,0.7-0.1,1c0.5-0.2,1-0.4,1.8-0.4h1.4
				c0.1-3.8,0.1-7.9,0.1-12.4c0-3.3,2-5.3,5.6-5.3c3.6,0,5.7,2.1,5.7,5.7c0,4.2-0.1,8.2-0.2,12h8.6
				C165.5,30.7,167.3,32.6,167.2,36.1z M110.4,45.5h3.9v-3.5h-3c-0.6,0-1,0.4-1,1V45.5z M114.4,55.1v-3.5h-3.9v2.6c0,0.6,0.4,1,1,1
				H114.4z M128.4,45.5v-2.6c0-0.6-0.4-1-1-1h-3.1v3.5H128.4z M124.3,51.6v3.5h3.1c0.6,0,1-0.4,1-1v-2.6H124.3z M142.1,37.4h-1.3
				c-2.2,0-3.4-1.2-3.4-3.4c0-0.4,0.1-0.8,0.2-1.2c-0.4,0.2-0.9,0.3-1.4,0.3h-11v2.7h7.4c3.4,0,5.2,1.8,5.2,5.2V56
				c0,3.4-1.8,5.2-5.2,5.2h-7.4V64h9.4c2,0,3.1,1.1,3.1,3.1s-1.1,3.1-3.1,3.1h-9.4v4.2c2.8-0.4,5.5-0.8,8.2-1.3
				c1.8-0.3,3,0.2,3.4,1.8c0,0.2,0.1,0.2,0.1,0.4C140,67.6,141.6,56.7,142.1,37.4z"/>
			<path class="st0" d="M135,93.8c-2.2,0-4.4-0.9-6.2-2.7c-0.9-1-1.6-2-2.1-3.1c-7.9,2.4-15.5,3.6-21.2,4.3
				c-4.7,0.6-7.6-0.9-9.3-2.3c-1.6-1.3-3.5-3.7-3.8-7.9c-0.3-4.4,1.3-7.1,2.6-8.6c0.3-0.4,0.8-0.8,1.3-1.2c-0.9-1.4-1.5-3.2-1.5-5.2
				c0-2,0.6-3.8,1.5-5.3C95.5,60.1,95,58.2,95,56V41.1c0-1.5,0.2-2.8,0.6-4c-1.9-1.6-3-4.1-3-7c0-2.1,0.6-3.9,1.6-5.4
				c-0.2-0.7-0.4-1.5-0.4-2.4c-0.2-5,3.1-8.7,8.3-9.1c7.1-0.5,17.4-1.8,26.4-5c4.2-1.5,7.3-0.8,9.2,0.1c0.9,0.4,1.7,0.9,2.3,1.6
				c2-1.8,4.8-2.8,8-2.8c6.9,0,11.7,4.8,11.7,11.7c0,2,0,4,0,6h2.5c4.1,0,6.7,1.7,8.1,3.2c1.4,1.5,3.1,4.1,3,8.4
				c-0.2,20.9-0.4,31.5-1.4,42.6c-0.6,7.4-4.2,11-7.1,12.7c-5.2,3.1-12.4,2.8-21.3-1.1c0,0-0.1,0-0.1-0.1c-0.3-0.1-0.6-0.3-0.8-0.4
				c-0.6,0.5-1.1,1.1-1.7,1.6c0,0-0.1,0.1-0.1,0.1C138.9,93.1,136.9,93.8,135,93.8z M103,82.1L103,82.1L103,82.1z M119.5,76.2
				c-0.1,0.4-0.2,0.9-0.3,1.3c0.3-0.1,0.5-0.1,0.8-0.2C119.8,77,119.6,76.6,119.5,76.2z M118.7,67.1c0.3,0.5,0.6,1.1,0.7,1.7
				c0.1-0.6,0.4-1.2,0.7-1.7c-0.3-0.5-0.6-1.1-0.7-1.7C119.3,66,119,66.5,118.7,67.1z M119.1,58.8c0.1,0.3,0.2,0.6,0.3,1
				c0.1-0.3,0.2-0.6,0.3-0.9c-0.1-0.1-0.2-0.3-0.4-0.5C119.2,58.6,119.2,58.7,119.1,58.8z M123.1,51.6h1.2v-0.1
				c-0.4,0-0.7,0-1.1-0.1C123.2,51.4,123.1,51.5,123.1,51.6z M114.4,51.6h1.4c0-0.1-0.1-0.1-0.1-0.2
				C115.2,51.4,114.8,51.5,114.4,51.6L114.4,51.6z M114.4,45.6c0.4,0,0.8,0,1.2,0.1c0-0.1,0.1-0.1,0.1-0.2L114.4,45.6L114.4,45.6z
				 M123.1,45.5c0,0.1,0.1,0.1,0.1,0.2c0.4-0.1,0.7-0.1,1.1-0.1v-0.1H123.1z M119.1,38.2c0.1,0.1,0.2,0.2,0.2,0.3
				c0.1-0.2,0.2-0.3,0.4-0.5c-0.1-0.3-0.2-0.6-0.3-0.9C119.3,37.6,119.2,37.9,119.1,38.2z M147.2,34.1c0.2,0.3,0.3,0.6,0.5,0.9
				c0.2-0.4,0.4-0.9,0.7-1.2c-0.2-0.3-0.3-0.6-0.5-1C147.7,33.3,147.5,33.7,147.2,34.1z M118.7,30c0.3,0.5,0.6,1.1,0.7,1.7
				c0.1-0.6,0.4-1.2,0.7-1.7c-0.3-0.5-0.6-1.1-0.7-1.7C119.3,28.9,119,29.5,118.7,30z M125.2,23.6L125.2,23.6L125.2,23.6z"/>
		</g>
		<g>
			<path class="st0" d="M200.1,64.4c-1.8,10.2-5.6,17.4-12.3,23c-1.5,1.3-3.2,1.2-4.2,0.1c-1.2-1.3-1.1-2.6,0-4.2
				c2.9-4.2,4.6-8.4,5.4-14.6l-0.9,0.2c-3.5,0.9-5.8-0.2-6.4-3.4c-0.6-3.3,0.3-5.6,4-6l3.9-0.5c0.1-2,0.1-4.1,0.1-6.4H185
				c-2.1,0-3.2-1.2-3.2-3.2s1.1-3.2,3.2-3.2h10.3c0.9-3.5,1.7-7.6,2.2-11.5c0.4-3.1,2.2-4.3,5-3.7c2.7,0.6,3.9,2.6,2.9,5.4
				c-1.4,3.8-2.9,7.1-4.5,9.8h3.8c2,0,3.2,1.2,3.2,3.2s-1.2,3.2-3.2,3.2h-3.5c0,1.5-0.1,3-0.2,4.3c1-0.2,1.9-0.5,2.9-0.8
				c1.6-0.4,2.6,0.1,3.2,1.4c0.6,1.3,0.2,2.6-1.3,3.8C204.4,62.1,202.4,63.2,200.1,64.4z M182,27.1c0-2,1.2-3.2,3.2-3.2h4.5V18
				c0-3.1,2-5.1,5.8-5.1c3.7,0,5.8,2,5.8,5.1v5.9h3.8c2,0,3.2,1.2,3.2,3.2s-1.2,3.2-3.2,3.2h-19.8C183.2,30.3,182,29.1,182,27.1z
				 M189.8,32.2c1.4,2.2,3.2,5.7,3.9,8c0.9,2.8,0.3,4.4-2.4,5.3c-2.7,0.9-4.6,0-5.1-3c-0.4-2.2-1-5.5-1.7-8.2
				c-0.4-1.8,0.2-3,1.7-3.4S188.8,30.7,189.8,32.2z M253.9,49.6c0,2.2-1.1,3.4-3.3,3.4h-4.2v7h3c2.1,0,3.3,1.1,3.3,3.3
				c0,2.2-1.2,3.3-3.3,3.3h-3v16.2c0,3.2-2.1,5-5.8,5c-3.7,0-5.8-1.8-5.8-5V66.6h-3c-2.1,0-3.3-1.1-3.3-3.3c0-2.2,1.2-3.3,3.3-3.3h3
				v-7h-3.8c-1.4,0-2.4-0.6-2.9-1.5c-0.2,11.2-0.6,21-1,26.8c-0.8,9-8.5,11.6-16.4,6.7c-1.4-0.9-1.8-2.2-1.3-3.6
				c0.6-1.4,1.7-2,3.5-1.7c4.3,0.7,4.9,0.2,5.2-3c0.9-9.8,1.7-22.9,1.7-38.2c0-0.6-0.4-1-1-1h-0.5c-1,28.2-6,39.8-16.6,49.4
				c-1.6,1.4-3.2,1.3-4.3,0.1c-1.2-1.4-1-2.8,0.2-4.4c7.8-10.4,10.8-21.4,11.4-45c-2-0.1-3.1-1.3-3.1-3.3c0-2.1,1.1-3.2,3.3-3.3
				v-6.2v-7.5c0-2.7,1.7-4.2,4.6-4.2s4.6,1.5,4.6,4.2v7.2c0,2.2,0,4.5-0.1,6.6h4.5c3.4,0,5.2,1.8,5.2,5.3v11.5
				c0.5-0.9,1.4-1.4,2.8-1.4h10.1c1-3.5,1.8-7.8,2.2-11.7c0.4-3.1,2.2-4.3,5-3.7c2.7,0.6,3.9,2.6,2.9,5.4c-1.4,3.8-2.9,7.3-4.6,9.9
				h3.8C252.8,46.4,253.9,47.6,253.9,49.6z M226.4,27.1c0-2.1,1.2-3.3,3.3-3.3h5.1v-5.8c0-3.1,2-5.1,5.8-5.1c3.7,0,5.8,1.9,5.8,5.1
				v5.8h4.6c2.1,0,3.3,1.2,3.3,3.3s-1.2,3.3-3.3,3.3h-21.3C227.6,30.4,226.4,29.2,226.4,27.1z M235.4,32.3c1.4,2.2,3.2,5.7,3.9,8
				c0.9,2.8,0.3,4.4-2.4,5.3c-2.7,0.9-4.6,0-5.1-3c-0.4-2.2-1-5.5-1.7-8.2c-0.4-1.8,0.2-3,1.7-3.4C233.2,30.5,234.4,30.8,235.4,32.3
				z"/>
			<path class="st0" d="M185.5,94.3c-2.3,0-4.6-0.9-6.3-2.8c-2.4-2.6-3.8-7-0.5-11.8c1.3-1.8,2.2-3.6,2.9-5.6
				c-0.5-0.2-0.9-0.5-1.3-0.7c-1.6-1.1-3.7-3.1-4.4-7c-0.6-3.7,0-6.7,1.7-9.1c0.3-0.4,0.7-0.8,1.1-1.2c-1.8-1.6-2.9-4-2.9-6.8
				c0-3.4,1.6-6.2,4.1-7.8c-0.3-1.6-0.8-3.8-1.2-5.7c-0.2-0.7-0.3-1.5-0.3-2.2c-1.6-1.6-2.5-3.9-2.5-6.5c0-4.8,3.1-8.4,7.7-9.1v0
				c0-6.5,4.8-11.1,11.8-11.1c4.2,0,7.7,1.7,9.7,4.5c1.8-2.8,5-4.5,9-4.5c6.3,0,10.6,4.2,10.6,10.2v1.9c1.2-0.7,2.6-1.1,4.1-1.3
				c0.1-6.4,4.9-10.9,11.8-10.9c6.9,0,11.7,4.5,11.8,11c4.7,0.6,7.9,4.3,7.9,9.2c0,2.6-0.9,4.9-2.5,6.6c0.1,1.4,0,3-0.7,4.8
				c-0.4,1.2-0.8,2.3-1.3,3.3c2.5,1.6,4.1,4.4,4.1,7.8c0,3.1-1.2,5.7-3.3,7.4c1.4,1.6,2.2,3.8,2.2,6.3c0,4.4-2.5,7.7-6.3,8.9v10.6
				c0,6.6-4.7,11-11.8,11c-5.1,0-8.9-2.3-10.7-6c-1.3,1.7-2.9,3.1-4.9,4.1c-5.1,2.5-11.4,1.9-17.4-1.8c-0.1,0-0.1-0.1-0.2-0.1
				c-0.5,0.5-1,0.9-1.5,1.4c-3.9,3.5-9.3,3.4-12.7-0.3c0,0-0.1-0.1-0.1-0.1c-0.1-0.1-0.1-0.1-0.2-0.2c-0.4,0.4-0.9,0.8-1.3,1.2
				C189.8,93.5,187.6,94.3,185.5,94.3z M183.9,82.7C183.9,82.7,183.9,82.7,183.9,82.7C183.9,82.7,183.9,82.7,183.9,82.7z
				 M186.1,65.4L186.1,65.4L186.1,65.4z M192.9,63.9C192.9,64,192.9,64,192.9,63.9c0.4,0.4,0.7,0.7,1,1.1c0.1-0.6,0.2-1.1,0.3-1.7
				c0-0.3,0.1-0.5,0.2-0.7C194,63.1,193.5,63.6,192.9,63.9z M239.9,63.3c0.3,0.5,0.6,1,0.7,1.6c0.2-0.6,0.4-1.1,0.7-1.6
				c-0.3-0.5-0.6-1-0.7-1.6C240.5,62.3,240.3,62.8,239.9,63.3z M195.6,59.5c0,0.4-0.1,0.8-0.2,1.2c0.2-0.2,0.4-0.4,0.6-0.6
				C195.8,59.9,195.7,59.7,195.6,59.5z"/>
		</g>
		<g>
			<path class="st0" d="M267.1,34.6c-1.1-1.3-1.1-3-0.1-4.3c1-1.1,2.4-1.3,3.9-0.6c3,1,7.4,3.5,11,6.1c3.8,2.6,4.4,5.8,1.6,8.9
				s-6.1,2.9-9-0.7C272.3,40.9,269.3,37.3,267.1,34.6z M283.9,54.6c-0.7,7.6-2.2,17.4-4.1,25.4c-1.2,5.1-4.6,7.2-9,5.3
				c-4.5-1.9-5.5-5.6-2.9-10.1c3.6-6.1,7.3-14.2,10.2-21.9c0.7-1.8,2.2-2.5,3.8-2C283.5,51.8,284,53,283.9,54.6z M270.7,18.2
				c-1-1.4-1.1-2.6-0.2-4c1-1.4,2.2-1.6,3.8-1c3.2,1,7.3,3.4,10.7,5.9c3.6,2.6,4.1,5.8,1.3,8.7c-2.9,3-6.2,2.6-8.8-0.9
				C275.2,23.8,272.3,20.3,270.7,18.2z M334.4,85.8c-3.9,2.2-7.8,0.6-9.3-4.4l-1.2-3.7c-8.8,4-21.4,7.1-31.1,8
				c-5,0.5-7.8-1.3-8.2-6.1c-0.4-4.6,1.7-7.4,7.1-7.4h3.1c2.6-6.2,4.6-12.9,6-18.7h-11.2c-2.4,0-3.8-1.4-3.8-3.8s1.4-3.8,3.8-3.8
				h14.9V34.7h-12.6c-2.2,0-3.4-1.5-3.4-3.8c0-2.2,1.2-3.8,3.4-3.8h12.6v-9c0-4.2,2.3-5.8,6.6-5.8s6.6,1.5,6.6,5.8v9h13.2
				c2.2,0,3.4,1.3,3.4,3.8c0,2.5-1.2,3.8-3.4,3.8h-13.2V46h16.1c2.4,0,3.8,1.4,3.8,3.8s-1.4,3.8-3.8,3.8h-18.9
				c-2.5,5.7-6.6,12.8-11,18.6c5.7-0.2,11.6-0.6,17.7-1.4c-1-2.6-2-5-3-7.4c-0.8-1.9-0.3-3.3,1.2-4.2c1.5-1,3-0.6,4.3,0.7
				c4.3,4.3,8.2,9.7,12.2,15.8C339,79.9,338.4,83.6,334.4,85.8z"/>
			<path class="st0" d="M331,92.7c-1.5,0-2.9-0.3-4.2-0.8c-2.8-1.1-5-3.3-6.4-6.3c-8.3,3-18.5,5.3-27,6.1c-4.3,0.4-7.9-0.5-10.5-2.6
				c-0.2-0.2-0.5-0.4-0.7-0.6c-1.1,1.2-2.2,1.9-3.3,2.5c-3.1,1.6-6.9,1.6-10.5,0c-4.7-2-6.6-5.2-7.4-7.5c-0.8-2.4-1.1-6.3,1.7-11.1
				c3.1-5.2,6.7-12.9,9.8-21c0.1-0.2,0.2-0.5,0.3-0.7c-1-0.7-1.9-1.6-2.9-2.8c-2.2-2.8-5-6.2-7.4-9.2c-2.9-3.4-3-8.5-0.1-12
				c0,0,0.1-0.1,0.1-0.1c1.3-1.5,2.9-2.5,4.7-2.9c-0.5-0.6-0.9-1.2-1.3-1.7c-2.6-3.5-2.7-7.6-0.3-11.1c2.5-3.5,6.4-4.7,10.6-3.3
				c4.7,1.5,9.8,4.9,12.3,6.7c3.2,2.4,4.6,4.9,5.2,7h4.7v-3c0-7.4,4.7-11.8,12.6-11.8c7.9,0,12.6,4.4,12.6,11.8v3h7.2
				c5.5,0,9.4,4,9.4,9.8c0,4.3-2.2,7.7-5.6,9.1c5.3,0.4,8.9,4.3,8.9,9.7c0,5.7-4,9.8-9.8,9.8h-1.9c2.9,3.4,6,7.6,9.5,12.9
				c3,4.6,2.9,8.4,2.3,10.8c-0.6,2.3-2.1,5.5-6.4,7.8C335.2,92.2,333.1,92.7,331,92.7z M330,77.1l0.8,2.4c0,0,0,0.1,0,0.1
				c0.1,0.5,0.3,0.8,0.4,1c0.1,0,0.1-0.1,0.2-0.1c0,0,0,0,0,0c0.2-0.1,0.3-0.2,0.4-0.3c-0.1-0.3-0.3-0.7-0.6-1.3
				C330.8,78.3,330.4,77.7,330,77.1z M272.5,79.5c0.1,0.1,0.3,0.2,0.6,0.3c0.2,0.1,0.3,0.1,0.4,0.1c0.1-0.2,0.3-0.7,0.5-1.3
				c0.2-1.1,0.5-2.1,0.7-3.3c-0.6,1-1.1,2-1.7,2.9C272.7,78.8,272.6,79.2,272.5,79.5z M290.7,79.8c0.3,0,0.8,0.1,1.5,0
				c3.3-0.3,6.9-0.9,10.5-1.6c-1.3-0.2-2.5-0.9-3.4-1.9c-1.1,1.3-2.8,2-4.5,2h-3.1c-0.5,0-0.9,0-1.2,0.1c0,0.2,0,0.4,0,0.8
				C290.6,79.4,290.6,79.6,290.7,79.8z M289.4,59.5c-0.3,2.3-0.6,4.7-0.9,7c0.7-0.1,1.5-0.2,2.3-0.2c0.8-2.2,1.6-4.4,2.3-6.7h-3.4
				C289.6,59.6,289.5,59.5,289.4,59.5z M306.5,51.7c0.3,1,0.4,2.1,0.1,3.2c-0.2,1-0.5,2-0.8,3.1c1.3-2.3,2.5-4.6,3.4-6.8
				c0.6-1.3,1.5-2.3,2.7-2.9c-0.3-0.7-0.4-1.4-0.4-2.2V34.7c0-1.4,0.5-2.7,1.3-3.8c-0.8-1-1.3-2.3-1.3-3.8v-8.8c-0.3,0-0.8,0-1.1,0
				v8.8c0,1.4-0.5,2.7-1.3,3.8c0.8,1,1.3,2.3,1.3,3.8V46C310.5,48.6,308.9,50.9,306.5,51.7z M280.1,40.9L280.1,40.9L280.1,40.9z
				 M282.3,24.6C282.3,24.6,282.3,24.6,282.3,24.6L282.3,24.6z M283,24L283,24L283,24z M311.6,17.6L311.6,17.6L311.6,17.6z"/>
		</g>
	</g>
	<g>
		<g>
			<path class="st1" d="M16.8,42.1c-2.2-2.8-4.8-6.2-7-8.9c-1.2-1.4-1.4-3-0.2-4.5c1-1.2,2.4-1.4,4.1-0.6c3.4,1.4,7.5,3.8,10.9,6.5
				c3.4,2.6,3.7,6,0.8,8.7C22.5,46,19.5,45.6,16.8,42.1z M29.4,51.7c-1.8,10.2-4.2,19.8-6.7,26.4c-1.8,4.9-5.4,6.3-9.3,4
				c-4-2.3-4.5-5.5-1.8-9.6c3.4-5.1,7.8-13.4,12.2-22.7c0.9-1.8,2.2-2.3,3.8-1.8C29.2,48.4,29.8,49.8,29.4,51.7z M11.4,15.5
				c-1.2-1.5-1.2-3-0.2-4.2c1-1.3,2.4-1.5,4.2-0.8c3.5,1.4,7.4,3.8,10.7,6.5c3.4,2.8,4.1,5.8,1.2,8.7c-3,3-6.2,2.5-8.8-1.1
				C16.4,21.7,13.8,18.5,11.4,15.5z M81.5,37c0,2.4-1.3,3.8-3.5,3.8H61.4v10.1h11.2c3.4,0,5.2,1.8,5.2,5.4v23.7c0,4-2.2,5.5-6.2,5.5
				s-6.2-1.5-6.2-5.5V79H44.6v0.9c0,4-2.2,5.5-6.2,5.5s-6.2-1.5-6.2-5.5V56.2c0-3.4,1.8-5.4,5.2-5.4h11.1V40.8H32.6
				c-2.2,0-3.5-1.5-3.5-3.8s1.3-3.8,3.5-3.8h16.1v-8.7C44,24.9,39.4,25,35.1,25c-2,0-3.1-1-3.3-2.6c-0.2-1.6,0.6-2.9,2.6-3.1
				c10.7-1,23.8-4.8,33-8.8c3.9-1.7,7.4-0.7,8.7,3c1.4,3.8-0.5,7-4.2,7.9c-3.1,0.7-6.7,1.4-10.6,1.9v9.9H78
				C80.2,33.3,81.5,34.6,81.5,37z M45.6,57.9c-0.6,0-1,0.4-1,1v13.3h20.9V58.9c0-0.6-0.4-1-1-1H45.6z"/>
			<path class="st0" d="M71.7,91.4c-4.5,0-9.2-1.8-11.2-6.4H49.7c-2,4.6-6.7,6.4-11.2,6.4c-5,0-10.2-2.2-11.7-8
				c-1.9,3-4.3,4.5-6.2,5.1c-3.2,1.1-6.8,0.7-10.2-1.3c-4.1-2.4-5.6-5.5-6.1-7.7c-0.8-3.3,0-6.8,2.3-10.4c3-4.5,6.8-11.5,10.5-19.2
				c-1.6-0.8-3.3-2.1-5-4.3c0,0,0,0,0,0c-1.5-1.9-4.4-5.6-6.9-8.7C2,33.3,2,28.5,5,24.9c0,0,0.1-0.1,0.1-0.1c1.1-1.3,2.5-2.2,4-2.7
				c-0.8-1-1.6-1.9-2.3-2.8c0,0,0,0,0-0.1C3.8,15.6,3.8,11,6.6,7.5c2.7-3.3,6.9-4.3,11.1-2.6c4.2,1.7,8.7,4.4,12.3,7.4
				c0.6,0.5,1.1,1,1.6,1.5c0.7-0.2,1.4-0.4,2.2-0.5c0,0,0.1,0,0.1,0C43.2,12.4,55.7,9,65.1,5c3.7-1.6,7.4-1.7,10.5-0.4
				c2.9,1.2,5.1,3.7,6.2,6.9c1.2,3.4,1,7-0.6,9.9c-1.6,3-4.4,5-7.9,5.9H78c5.6,0,9.5,4,9.5,9.8c0,5.3-3.4,9.2-8.3,9.7
				c2.9,1.9,4.6,5.3,4.6,9.5v23.7C83.8,88.4,77.6,91.4,71.7,91.4z M71.5,79.4c0.1,0,0.2,0,0.3,0V56.9h-0.6c0.2,0.6,0.3,1.3,0.3,2
				v13.3c0,1.3-0.4,2.5-1.1,3.4c0.7,1,1.1,2.2,1.1,3.4V79.4z M38.3,79.4c0.1,0,0.2,0,0.3,0V79c0-1.3,0.4-2.5,1.1-3.4
				c-0.7-1-1.1-2.2-1.1-3.4V58.9c0-0.7,0.1-1.4,0.3-2h-0.6V79.4z M16.1,76.7c0.1,0.1,0.2,0.1,0.3,0.2c0.1,0,0.1,0.1,0.2,0.1
				c0.1-0.2,0.3-0.5,0.5-1c0.3-0.7,0.5-1.4,0.8-2.2c-0.4,0.7-0.8,1.3-1.3,2C16.4,76.1,16.2,76.4,16.1,76.7z M50.6,66.2h8.9v-2.2
				h-8.9V66.2z M64.6,63.9L64.6,63.9L64.6,63.9z M72.9,56.9L72.9,56.9L72.9,56.9z M37.3,56.9L37.3,56.9L37.3,56.9z M54.6,51.9h1
				c-0.1-0.3-0.1-0.7-0.1-1V40.8c0-1.4,0.5-2.7,1.3-3.8c-0.8-1-1.3-2.3-1.3-3.8v-9.9c0-0.8,0.2-1.6,0.5-2.4
				c-0.7,0.2-1.4,0.4-2.1,0.6c0.5,0.9,0.8,1.9,0.8,3v8.7c0,1.4-0.5,2.7-1.3,3.8c0.8,1,1.3,2.3,1.3,3.8v10.1
				C54.6,51.2,54.6,51.6,54.6,51.9z M14.4,29.4C14.4,29.4,14.4,29.4,14.4,29.4C14.4,29.4,14.4,29.4,14.4,29.4z M24.1,21.8L24.1,21.8
				L24.1,21.8z"/>
		</g>
		<g>
			<path class="st1" d="M162.2,33.1c-0.2,21.3-0.4,31.4-1.4,42.2c-0.8,9.1-7.6,12-20.1,6.6c-1.8-0.8-2.3-2.2-1.8-3.7
				c0.5-1.6,1.6-2.2,3.7-1.8c6.4,1,7.1-0.1,7.4-4c0.8-9.7,1.1-21.2,1.3-37c0-0.6-0.4-1-1-1h-2.2c-1.5,29-7,41.5-16.3,49.6
				c-1.4,1.1-2.6,1-3.8-0.2c-1.1-1.1-1.2-2.4-0.1-3.9c1-1.5,1.9-3.1,2.8-4.8c-0.2,0.2-0.6,0.3-0.9,0.5c-9.1,4-19.9,6.5-30.1,7.7
				c-3.8,0.5-6.2-1-6.4-4.6c-0.2-3.4,1.2-5.5,4.9-5.6l10.3-0.5v-5.4H99c-2,0-3.1-1.1-3.1-3.1S97,61,99,61h9.6v-2.8h-7.4
				c-3.4,0-5.2-1.8-5.2-5.2V38.1c0-3.4,1.8-5.2,5.2-5.2h7.4v-2.7h-12c-1.8,0-3-1.1-3-3.1c0-2,1.1-3.1,3-3.1h12v-2.4
				c-3.5,0.2-7.1,0.2-10.7,0.1c-1.9-0.1-3-1-3-2.6c-0.1-1.7,0.6-2.6,2.7-2.8c8.7-0.6,19-2.2,27.9-5.4c3.3-1.2,5.8-0.3,6.7,2.5
				c1,2.9,0.1,4.9-2.9,5.7c-2.6,0.7-5.7,1.3-9,1.7v3.3h11c1.8,0,3,1.1,3,3.1c0,0.4,0,0.7-0.1,1c0.5-0.2,1-0.4,1.8-0.4h1.4
				c0.1-3.8,0.1-7.9,0.1-12.4c0-3.3,2-5.3,5.6-5.3c3.6,0,5.7,2.1,5.7,5.7c0,4.2-0.1,8.2-0.2,12h8.6
				C160.5,27.7,162.3,29.6,162.2,33.1z M105.4,42.5h3.9v-3.5h-3c-0.6,0-1,0.4-1,1V42.5z M109.4,52.1v-3.5h-3.9v2.6c0,0.6,0.4,1,1,1
				H109.4z M123.4,42.5v-2.6c0-0.6-0.4-1-1-1h-3.1v3.5H123.4z M119.3,48.6v3.5h3.1c0.6,0,1-0.4,1-1v-2.6H119.3z M137.1,34.4h-1.3
				c-2.2,0-3.4-1.2-3.4-3.4c0-0.4,0.1-0.8,0.2-1.2c-0.4,0.2-0.9,0.3-1.4,0.3h-11v2.7h7.4c3.4,0,5.2,1.8,5.2,5.2V53
				c0,3.4-1.8,5.2-5.2,5.2h-7.4V61h9.4c2,0,3.1,1.1,3.1,3.1s-1.1,3.1-3.1,3.1h-9.4v4.2c2.8-0.4,5.5-0.8,8.2-1.3
				c1.8-0.3,3,0.2,3.4,1.8c0,0.2,0.1,0.2,0.1,0.4C135,64.6,136.6,53.7,137.1,34.4z"/>
			<path class="st0" d="M130,90.8c-2.2,0-4.4-0.9-6.2-2.7c-0.9-1-1.6-2-2.1-3.1c-7.9,2.4-15.5,3.6-21.2,4.3
				c-4.7,0.6-7.6-0.9-9.3-2.3c-1.6-1.3-3.5-3.7-3.8-7.9c-0.3-4.4,1.3-7.1,2.6-8.6c0.3-0.4,0.8-0.8,1.3-1.2c-0.9-1.4-1.5-3.2-1.5-5.2
				c0-2,0.6-3.8,1.5-5.3C90.5,57.1,90,55.2,90,53V38.1c0-1.5,0.2-2.8,0.6-4c-1.9-1.6-3-4.1-3-7c0-2.1,0.6-3.9,1.6-5.4
				c-0.2-0.7-0.4-1.5-0.4-2.4c-0.2-5,3.1-8.7,8.3-9.1c7.1-0.5,17.4-1.8,26.4-5c4.2-1.5,7.3-0.8,9.2,0.1c0.9,0.4,1.7,0.9,2.3,1.6
				c2-1.8,4.8-2.8,8-2.8c6.9,0,11.7,4.8,11.7,11.7c0,2,0,4,0,6h2.5c4.1,0,6.7,1.7,8.1,3.2c1.4,1.5,3.1,4.1,3,8.4
				c-0.2,20.9-0.4,31.5-1.4,42.6c-0.6,7.4-4.2,11-7.1,12.7c-5.2,3.1-12.4,2.8-21.3-1.1c0,0-0.1,0-0.1-0.1c-0.3-0.1-0.6-0.3-0.8-0.4
				c-0.6,0.5-1.1,1.1-1.7,1.6c0,0-0.1,0.1-0.1,0.1C133.9,90.1,131.9,90.8,130,90.8z M98,79.1L98,79.1L98,79.1z M114.5,73.2
				c-0.1,0.4-0.2,0.9-0.3,1.3c0.3-0.1,0.5-0.1,0.8-0.2C114.8,74,114.6,73.6,114.5,73.2z M113.7,64.1c0.3,0.5,0.6,1.1,0.7,1.7
				c0.1-0.6,0.4-1.2,0.7-1.7c-0.3-0.5-0.6-1.1-0.7-1.7C114.3,63,114,63.5,113.7,64.1z M114.1,55.8c0.1,0.3,0.2,0.6,0.3,1
				c0.1-0.3,0.2-0.6,0.3-0.9c-0.1-0.1-0.2-0.3-0.4-0.5C114.2,55.6,114.2,55.7,114.1,55.8z M118.1,48.6h1.2v-0.1
				c-0.4,0-0.7,0-1.1-0.1C118.2,48.4,118.1,48.5,118.1,48.6z M109.4,48.6h1.4c0-0.1-0.1-0.1-0.1-0.2
				C110.2,48.4,109.8,48.5,109.4,48.6L109.4,48.6z M109.4,42.6c0.4,0,0.8,0,1.2,0.1c0-0.1,0.1-0.1,0.1-0.2L109.4,42.6L109.4,42.6z
				 M118.1,42.5c0,0.1,0.1,0.1,0.1,0.2c0.4-0.1,0.7-0.1,1.1-0.1v-0.1H118.1z M114.1,35.2c0.1,0.1,0.2,0.2,0.2,0.3
				c0.1-0.2,0.2-0.3,0.4-0.5c-0.1-0.3-0.2-0.6-0.3-0.9C114.3,34.6,114.2,34.9,114.1,35.2z M142.2,31.1c0.2,0.3,0.3,0.6,0.5,0.9
				c0.2-0.4,0.4-0.9,0.7-1.2c-0.2-0.3-0.3-0.6-0.5-1C142.7,30.3,142.5,30.7,142.2,31.1z M113.7,27c0.3,0.5,0.6,1.1,0.7,1.7
				c0.1-0.6,0.4-1.2,0.7-1.7c-0.3-0.5-0.6-1.1-0.7-1.7C114.3,25.9,114,26.5,113.7,27z M120.2,20.6L120.2,20.6L120.2,20.6z"/>
		</g>
		<g>
			<path class="st1" d="M195.1,61.4c-1.8,10.2-5.6,17.4-12.3,23c-1.5,1.3-3.2,1.2-4.2,0.1c-1.2-1.3-1.1-2.6,0-4.2
				c2.9-4.2,4.6-8.4,5.4-14.6l-0.9,0.2c-3.5,0.9-5.8-0.2-6.4-3.4c-0.6-3.3,0.3-5.6,4-6l3.9-0.5c0.1-2,0.1-4.1,0.1-6.4H180
				c-2.1,0-3.2-1.2-3.2-3.2s1.1-3.2,3.2-3.2h10.3c0.9-3.5,1.7-7.6,2.2-11.5c0.4-3.1,2.2-4.3,5-3.7c2.7,0.6,3.9,2.6,2.9,5.4
				c-1.4,3.8-2.9,7.1-4.5,9.8h3.8c2,0,3.2,1.2,3.2,3.2s-1.2,3.2-3.2,3.2h-3.5c0,1.5-0.1,3-0.2,4.3c1-0.2,1.9-0.5,2.9-0.8
				c1.6-0.4,2.6,0.1,3.2,1.4c0.6,1.3,0.2,2.6-1.3,3.8C199.4,59.1,197.4,60.2,195.1,61.4z M177,24.1c0-2,1.2-3.2,3.2-3.2h4.5V15
				c0-3.1,2-5.1,5.8-5.1c3.7,0,5.8,2,5.8,5.1v5.9h3.8c2,0,3.2,1.2,3.2,3.2s-1.2,3.2-3.2,3.2h-19.8C178.2,27.3,177,26.1,177,24.1z
				 M184.8,29.2c1.4,2.2,3.2,5.7,3.9,8c0.9,2.8,0.3,4.4-2.4,5.3c-2.7,0.9-4.6,0-5.1-3c-0.4-2.2-1-5.5-1.7-8.2
				c-0.4-1.8,0.2-3,1.7-3.4S183.8,27.7,184.8,29.2z M248.9,46.6c0,2.2-1.1,3.4-3.3,3.4h-4.2v7h3c2.1,0,3.3,1.1,3.3,3.3
				c0,2.2-1.2,3.3-3.3,3.3h-3v16.2c0,3.2-2.1,5-5.8,5c-3.7,0-5.8-1.8-5.8-5V63.6h-3c-2.1,0-3.3-1.1-3.3-3.3c0-2.2,1.2-3.3,3.3-3.3h3
				v-7h-3.8c-1.4,0-2.4-0.6-2.9-1.5c-0.2,11.2-0.6,21-1,26.8c-0.8,9-8.5,11.6-16.4,6.7c-1.4-0.9-1.8-2.2-1.3-3.6
				c0.6-1.4,1.7-2,3.5-1.7c4.3,0.7,4.9,0.2,5.2-3c0.9-9.8,1.7-22.9,1.7-38.2c0-0.6-0.4-1-1-1h-0.5c-1,28.2-6,39.8-16.6,49.4
				c-1.6,1.4-3.2,1.3-4.3,0.1c-1.2-1.4-1-2.8,0.2-4.4c7.8-10.4,10.8-21.4,11.4-45c-2-0.1-3.1-1.3-3.1-3.3c0-2.1,1.1-3.2,3.3-3.3
				v-6.2v-7.5c0-2.7,1.7-4.2,4.6-4.2s4.6,1.5,4.6,4.2v7.2c0,2.2,0,4.5-0.1,6.6h4.5c3.4,0,5.2,1.8,5.2,5.3v11.5
				c0.5-0.9,1.4-1.4,2.8-1.4h10.1c1-3.5,1.8-7.8,2.2-11.7c0.4-3.1,2.2-4.3,5-3.7c2.7,0.6,3.9,2.6,2.9,5.4c-1.4,3.8-2.9,7.3-4.6,9.9
				h3.8C247.8,43.4,248.9,44.6,248.9,46.6z M221.4,24.1c0-2.1,1.2-3.3,3.3-3.3h5.1v-5.8c0-3.1,2-5.1,5.8-5.1c3.7,0,5.8,1.9,5.8,5.1
				v5.8h4.6c2.1,0,3.3,1.2,3.3,3.3s-1.2,3.3-3.3,3.3h-21.3C222.6,27.4,221.4,26.2,221.4,24.1z M230.4,29.3c1.4,2.2,3.2,5.7,3.9,8
				c0.9,2.8,0.3,4.4-2.4,5.3c-2.7,0.9-4.6,0-5.1-3c-0.4-2.2-1-5.5-1.7-8.2c-0.4-1.8,0.2-3,1.7-3.4C228.2,27.5,229.4,27.8,230.4,29.3
				z"/>
			<path class="st0" d="M180.5,91.3c-2.3,0-4.6-0.9-6.3-2.8c-2.4-2.6-3.8-7-0.5-11.8c1.3-1.8,2.2-3.6,2.9-5.6
				c-0.5-0.2-0.9-0.5-1.3-0.7c-1.6-1.1-3.7-3.1-4.4-7c-0.6-3.7,0-6.7,1.7-9.1c0.3-0.4,0.7-0.8,1.1-1.2c-1.8-1.6-2.9-4-2.9-6.8
				c0-3.4,1.6-6.2,4.1-7.8c-0.3-1.6-0.8-3.8-1.2-5.7c-0.2-0.7-0.3-1.5-0.3-2.2c-1.6-1.6-2.5-3.9-2.5-6.5c0-4.8,3.1-8.4,7.7-9.1v0
				c0-6.5,4.8-11.1,11.8-11.1c4.2,0,7.7,1.7,9.7,4.5c1.8-2.8,5-4.5,9-4.5c6.3,0,10.6,4.2,10.6,10.2v1.9c1.2-0.7,2.6-1.1,4.1-1.3
				C223.9,8.5,228.8,4,235.6,4c6.9,0,11.7,4.5,11.8,11c4.7,0.6,7.9,4.3,7.9,9.2c0,2.6-0.9,4.9-2.5,6.6c0.1,1.4,0,3-0.7,4.8
				c-0.4,1.2-0.8,2.3-1.3,3.3c2.5,1.6,4.1,4.4,4.1,7.8c0,3.1-1.2,5.7-3.3,7.4c1.4,1.6,2.2,3.8,2.2,6.3c0,4.4-2.5,7.7-6.3,8.9v10.6
				c0,6.6-4.7,11-11.8,11c-5.1,0-8.9-2.3-10.7-6c-1.3,1.7-2.9,3.1-4.9,4.1c-5.1,2.5-11.4,1.9-17.4-1.8c-0.1,0-0.1-0.1-0.2-0.1
				c-0.5,0.5-1,0.9-1.5,1.4c-3.9,3.5-9.3,3.4-12.7-0.3c0,0-0.1-0.1-0.1-0.1c-0.1-0.1-0.1-0.1-0.2-0.2c-0.4,0.4-0.9,0.8-1.3,1.2
				C184.8,90.5,182.6,91.3,180.5,91.3z M178.9,79.7C178.9,79.7,178.9,79.7,178.9,79.7C178.9,79.7,178.9,79.7,178.9,79.7z
				 M181.1,62.4L181.1,62.4L181.1,62.4z M187.9,60.9C187.9,61,187.9,61,187.9,60.9c0.4,0.4,0.7,0.7,1,1.1c0.1-0.6,0.2-1.1,0.3-1.7
				c0-0.3,0.1-0.5,0.2-0.7C189,60.1,188.5,60.6,187.9,60.9z M234.9,60.3c0.3,0.5,0.6,1,0.7,1.6c0.2-0.6,0.4-1.1,0.7-1.6
				c-0.3-0.5-0.6-1-0.7-1.6C235.5,59.3,235.3,59.8,234.9,60.3z M190.6,56.5c0,0.4-0.1,0.8-0.2,1.2c0.2-0.2,0.4-0.4,0.6-0.6
				C190.8,56.9,190.7,56.7,190.6,56.5z"/>
		</g>
		<g>
			<path class="st1" d="M262.1,31.6c-1.1-1.3-1.1-3-0.1-4.3c1-1.1,2.4-1.3,3.9-0.6c3,1,7.4,3.5,11,6.1c3.8,2.6,4.4,5.8,1.6,8.9
				s-6.1,2.9-9-0.7C267.3,37.9,264.3,34.3,262.1,31.6z M278.9,51.6c-0.7,7.6-2.2,17.4-4.1,25.4c-1.2,5.1-4.6,7.2-9,5.3
				c-4.5-1.9-5.5-5.6-2.9-10.1c3.6-6.1,7.3-14.2,10.2-21.9c0.7-1.8,2.2-2.5,3.8-2C278.5,48.8,279,50,278.9,51.6z M265.7,15.2
				c-1-1.4-1.1-2.6-0.2-4c1-1.4,2.2-1.6,3.8-1c3.2,1,7.3,3.4,10.7,5.9c3.6,2.6,4.1,5.8,1.3,8.7c-2.9,3-6.2,2.6-8.8-0.9
				C270.2,20.8,267.3,17.3,265.7,15.2z M329.4,82.8c-3.9,2.2-7.8,0.6-9.3-4.4l-1.2-3.7c-8.8,4-21.4,7.1-31.1,8
				c-5,0.5-7.8-1.3-8.2-6.1c-0.4-4.6,1.7-7.4,7.1-7.4h3.1c2.6-6.2,4.6-12.9,6-18.7h-11.2c-2.4,0-3.8-1.4-3.8-3.8s1.4-3.8,3.8-3.8
				h14.9V31.7h-12.6c-2.2,0-3.4-1.5-3.4-3.8c0-2.2,1.2-3.8,3.4-3.8h12.6v-9c0-4.2,2.3-5.8,6.6-5.8s6.6,1.5,6.6,5.8v9h13.2
				c2.2,0,3.4,1.3,3.4,3.8c0,2.5-1.2,3.8-3.4,3.8h-13.2V43h16.1c2.4,0,3.8,1.4,3.8,3.8s-1.4,3.8-3.8,3.8h-18.9
				c-2.5,5.7-6.6,12.8-11,18.6c5.7-0.2,11.6-0.6,17.7-1.4c-1-2.6-2-5-3-7.4c-0.8-1.9-0.3-3.3,1.2-4.2c1.5-1,3-0.6,4.3,0.7
				c4.3,4.3,8.2,9.7,12.2,15.8C334,76.9,333.4,80.6,329.4,82.8z"/>
			<path class="st0" d="M326,89.7c-1.5,0-2.9-0.3-4.2-0.8c-2.8-1.1-5-3.3-6.4-6.3c-8.3,3-18.5,5.3-27,6.1c-4.3,0.4-7.9-0.5-10.5-2.6
				c-0.2-0.2-0.5-0.4-0.7-0.6c-1.1,1.2-2.2,1.9-3.3,2.5c-3.1,1.6-6.9,1.6-10.5,0c-4.7-2-6.6-5.2-7.4-7.5c-0.8-2.4-1.1-6.3,1.7-11.1
				c3.1-5.2,6.7-12.9,9.8-21c0.1-0.2,0.2-0.5,0.3-0.7c-1-0.7-1.9-1.6-2.9-2.8c-2.2-2.8-5-6.2-7.4-9.2c-2.9-3.4-3-8.5-0.1-12
				c0,0,0.1-0.1,0.1-0.1c1.3-1.5,2.9-2.5,4.7-2.9c-0.5-0.6-0.9-1.2-1.3-1.7c-2.6-3.5-2.7-7.6-0.3-11.1c2.5-3.5,6.4-4.7,10.6-3.3
				c4.7,1.5,9.8,4.9,12.3,6.7c3.2,2.4,4.6,4.9,5.2,7h4.7v-3c0-7.4,4.7-11.8,12.6-11.8c7.9,0,12.6,4.4,12.6,11.8v3h7.2
				c5.5,0,9.4,4,9.4,9.8c0,4.3-2.2,7.7-5.6,9.1c5.3,0.4,8.9,4.3,8.9,9.7c0,5.7-4,9.8-9.8,9.8h-1.9c2.9,3.4,6,7.6,9.5,12.9
				c3,4.6,2.9,8.4,2.3,10.8c-0.6,2.3-2.1,5.5-6.4,7.8C330.2,89.2,328.1,89.7,326,89.7z M325,74.1l0.8,2.4c0,0,0,0.1,0,0.1
				c0.1,0.5,0.3,0.8,0.4,1c0.1,0,0.1-0.1,0.2-0.1c0,0,0,0,0,0c0.2-0.1,0.3-0.2,0.4-0.3c-0.1-0.3-0.3-0.7-0.6-1.3
				C325.8,75.3,325.4,74.7,325,74.1z M267.5,76.5c0.1,0.1,0.3,0.2,0.6,0.3c0.2,0.1,0.3,0.1,0.4,0.1c0.1-0.2,0.3-0.7,0.5-1.3
				c0.2-1.1,0.5-2.1,0.7-3.3c-0.6,1-1.1,2-1.7,2.9C267.7,75.8,267.6,76.2,267.5,76.5z M285.7,76.8c0.3,0,0.8,0.1,1.5,0
				c3.3-0.3,6.9-0.9,10.5-1.6c-1.3-0.2-2.5-0.9-3.4-1.9c-1.1,1.3-2.8,2-4.5,2h-3.1c-0.5,0-0.9,0-1.2,0.1c0,0.2,0,0.4,0,0.8
				C285.6,76.4,285.6,76.6,285.7,76.8z M284.4,56.5c-0.3,2.3-0.6,4.7-0.9,7c0.7-0.1,1.5-0.2,2.3-0.2c0.8-2.2,1.6-4.4,2.3-6.7h-3.4
				C284.6,56.6,284.5,56.5,284.4,56.5z M301.5,48.7c0.3,1,0.4,2.1,0.1,3.2c-0.2,1-0.5,2-0.8,3.1c1.3-2.3,2.5-4.6,3.4-6.8
				c0.6-1.3,1.5-2.3,2.7-2.9c-0.3-0.7-0.4-1.4-0.4-2.2V31.7c0-1.4,0.5-2.7,1.3-3.8c-0.8-1-1.3-2.3-1.3-3.8v-8.8c-0.3,0-0.8,0-1.1,0
				v8.8c0,1.4-0.5,2.7-1.3,3.8c0.8,1,1.3,2.3,1.3,3.8V43C305.5,45.6,303.9,47.9,301.5,48.7z M275.1,37.9L275.1,37.9L275.1,37.9z
				 M277.3,21.6C277.3,21.6,277.3,21.6,277.3,21.6L277.3,21.6z M278,21L278,21L278,21z M306.6,14.6L306.6,14.6L306.6,14.6z"/>
		</g>
	</g>
	<g>
		<g>
			<path class="st2" d="M16.8,42.1c-2.2-2.8-4.8-6.2-7-8.9c-1.2-1.4-1.4-3-0.2-4.5c1-1.2,2.4-1.4,4.1-0.6c3.4,1.4,7.5,3.8,10.9,6.5
				c3.4,2.6,3.7,6,0.8,8.7C22.5,46,19.5,45.6,16.8,42.1z M29.4,51.7c-1.8,10.2-4.2,19.8-6.7,26.4c-1.8,4.9-5.4,6.3-9.3,4
				c-4-2.3-4.5-5.5-1.8-9.6c3.4-5.1,7.8-13.4,12.2-22.7c0.9-1.8,2.2-2.3,3.8-1.8C29.2,48.4,29.8,49.8,29.4,51.7z M11.4,15.5
				c-1.2-1.5-1.2-3-0.2-4.2c1-1.3,2.4-1.5,4.2-0.8c3.5,1.4,7.4,3.8,10.7,6.5c3.4,2.8,4.1,5.8,1.2,8.7c-3,3-6.2,2.5-8.8-1.1
				C16.4,21.7,13.8,18.5,11.4,15.5z M81.5,37c0,2.4-1.3,3.8-3.5,3.8H61.4v10.1h11.2c3.4,0,5.2,1.8,5.2,5.4v23.7c0,4-2.2,5.5-6.2,5.5
				s-6.2-1.5-6.2-5.5V79H44.6v0.9c0,4-2.2,5.5-6.2,5.5s-6.2-1.5-6.2-5.5V56.2c0-3.4,1.8-5.4,5.2-5.4h11.1V40.8H32.6
				c-2.2,0-3.5-1.5-3.5-3.8s1.3-3.8,3.5-3.8h16.1v-8.7C44,24.9,39.4,25,35.1,25c-2,0-3.1-1-3.3-2.6c-0.2-1.6,0.6-2.9,2.6-3.1
				c10.7-1,23.8-4.8,33-8.8c3.9-1.7,7.4-0.7,8.7,3c1.4,3.8-0.5,7-4.2,7.9c-3.1,0.7-6.7,1.4-10.6,1.9v9.9H78
				C80.2,33.3,81.5,34.6,81.5,37z M45.6,57.9c-0.6,0-1,0.4-1,1v13.3h20.9V58.9c0-0.6-0.4-1-1-1H45.6z"/>
		</g>
		<g>
			<path class="st2" d="M162.2,33.1c-0.2,21.3-0.4,31.4-1.4,42.2c-0.8,9.1-7.6,12-20.1,6.6c-1.8-0.8-2.3-2.2-1.8-3.7
				c0.5-1.6,1.6-2.2,3.7-1.8c6.4,1,7.1-0.1,7.4-4c0.8-9.7,1.1-21.2,1.3-37c0-0.6-0.4-1-1-1h-2.2c-1.5,29-7,41.5-16.3,49.6
				c-1.4,1.1-2.6,1-3.8-0.2c-1.1-1.1-1.2-2.4-0.1-3.9c1-1.5,1.9-3.1,2.8-4.8c-0.2,0.2-0.6,0.3-0.9,0.5c-9.1,4-19.9,6.5-30.1,7.7
				c-3.8,0.5-6.2-1-6.4-4.6c-0.2-3.4,1.2-5.5,4.9-5.6l10.3-0.5v-5.4H99c-2,0-3.1-1.1-3.1-3.1S97,61,99,61h9.6v-2.8h-7.4
				c-3.4,0-5.2-1.8-5.2-5.2V38.1c0-3.4,1.8-5.2,5.2-5.2h7.4v-2.7h-12c-1.8,0-3-1.1-3-3.1c0-2,1.1-3.1,3-3.1h12v-2.4
				c-3.5,0.2-7.1,0.2-10.7,0.1c-1.9-0.1-3-1-3-2.6c-0.1-1.7,0.6-2.6,2.7-2.8c8.7-0.6,19-2.2,27.9-5.4c3.3-1.2,5.8-0.3,6.7,2.5
				c1,2.9,0.1,4.9-2.9,5.7c-2.6,0.7-5.7,1.3-9,1.7v3.3h11c1.8,0,3,1.1,3,3.1c0,0.4,0,0.7-0.1,1c0.5-0.2,1-0.4,1.8-0.4h1.4
				c0.1-3.8,0.1-7.9,0.1-12.4c0-3.3,2-5.3,5.6-5.3c3.6,0,5.7,2.1,5.7,5.7c0,4.2-0.1,8.2-0.2,12h8.6
				C160.5,27.7,162.3,29.6,162.2,33.1z M105.4,42.5h3.9v-3.5h-3c-0.6,0-1,0.4-1,1V42.5z M109.4,52.1v-3.5h-3.9v2.6c0,0.6,0.4,1,1,1
				H109.4z M123.4,42.5v-2.6c0-0.6-0.4-1-1-1h-3.1v3.5H123.4z M119.3,48.6v3.5h3.1c0.6,0,1-0.4,1-1v-2.6H119.3z M137.1,34.4h-1.3
				c-2.2,0-3.4-1.2-3.4-3.4c0-0.4,0.1-0.8,0.2-1.2c-0.4,0.2-0.9,0.3-1.4,0.3h-11v2.7h7.4c3.4,0,5.2,1.8,5.2,5.2V53
				c0,3.4-1.8,5.2-5.2,5.2h-7.4V61h9.4c2,0,3.1,1.1,3.1,3.1s-1.1,3.1-3.1,3.1h-9.4v4.2c2.8-0.4,5.5-0.8,8.2-1.3
				c1.8-0.3,3,0.2,3.4,1.8c0,0.2,0.1,0.2,0.1,0.4C135,64.6,136.6,53.7,137.1,34.4z"/>
		</g>
		<g>
			<path class="st2" d="M195.1,61.4c-1.8,10.2-5.6,17.4-12.3,23c-1.5,1.3-3.2,1.2-4.2,0.1c-1.2-1.3-1.1-2.6,0-4.2
				c2.9-4.2,4.6-8.4,5.4-14.6l-0.9,0.2c-3.5,0.9-5.8-0.2-6.4-3.4c-0.6-3.3,0.3-5.6,4-6l3.9-0.5c0.1-2,0.1-4.1,0.1-6.4H180
				c-2.1,0-3.2-1.2-3.2-3.2s1.1-3.2,3.2-3.2h10.3c0.9-3.5,1.7-7.6,2.2-11.5c0.4-3.1,2.2-4.3,5-3.7c2.7,0.6,3.9,2.6,2.9,5.4
				c-1.4,3.8-2.9,7.1-4.5,9.8h3.8c2,0,3.2,1.2,3.2,3.2s-1.2,3.2-3.2,3.2h-3.5c0,1.5-0.1,3-0.2,4.3c1-0.2,1.9-0.5,2.9-0.8
				c1.6-0.4,2.6,0.1,3.2,1.4c0.6,1.3,0.2,2.6-1.3,3.8C199.4,59.1,197.4,60.2,195.1,61.4z M177,24.1c0-2,1.2-3.2,3.2-3.2h4.5V15
				c0-3.1,2-5.1,5.8-5.1c3.7,0,5.8,2,5.8,5.1v5.9h3.8c2,0,3.2,1.2,3.2,3.2s-1.2,3.2-3.2,3.2h-19.8C178.2,27.3,177,26.1,177,24.1z
				 M184.8,29.2c1.4,2.2,3.2,5.7,3.9,8c0.9,2.8,0.3,4.4-2.4,5.3c-2.7,0.9-4.6,0-5.1-3c-0.4-2.2-1-5.5-1.7-8.2
				c-0.4-1.8,0.2-3,1.7-3.4S183.8,27.7,184.8,29.2z M248.9,46.6c0,2.2-1.1,3.4-3.3,3.4h-4.2v7h3c2.1,0,3.3,1.1,3.3,3.3
				c0,2.2-1.2,3.3-3.3,3.3h-3v16.2c0,3.2-2.1,5-5.8,5c-3.7,0-5.8-1.8-5.8-5V63.6h-3c-2.1,0-3.3-1.1-3.3-3.3c0-2.2,1.2-3.3,3.3-3.3h3
				v-7h-3.8c-1.4,0-2.4-0.6-2.9-1.5c-0.2,11.2-0.6,21-1,26.8c-0.8,9-8.5,11.6-16.4,6.7c-1.4-0.9-1.8-2.2-1.3-3.6
				c0.6-1.4,1.7-2,3.5-1.7c4.3,0.7,4.9,0.2,5.2-3c0.9-9.8,1.7-22.9,1.7-38.2c0-0.6-0.4-1-1-1h-0.5c-1,28.2-6,39.8-16.6,49.4
				c-1.6,1.4-3.2,1.3-4.3,0.1c-1.2-1.4-1-2.8,0.2-4.4c7.8-10.4,10.8-21.4,11.4-45c-2-0.1-3.1-1.3-3.1-3.3c0-2.1,1.1-3.2,3.3-3.3
				v-6.2v-7.5c0-2.7,1.7-4.2,4.6-4.2s4.6,1.5,4.6,4.2v7.2c0,2.2,0,4.5-0.1,6.6h4.5c3.4,0,5.2,1.8,5.2,5.3v11.5
				c0.5-0.9,1.4-1.4,2.8-1.4h10.1c1-3.5,1.8-7.8,2.2-11.7c0.4-3.1,2.2-4.3,5-3.7c2.7,0.6,3.9,2.6,2.9,5.4c-1.4,3.8-2.9,7.3-4.6,9.9
				h3.8C247.8,43.4,248.9,44.6,248.9,46.6z M221.4,24.1c0-2.1,1.2-3.3,3.3-3.3h5.1v-5.8c0-3.1,2-5.1,5.8-5.1c3.7,0,5.8,1.9,5.8,5.1
				v5.8h4.6c2.1,0,3.3,1.2,3.3,3.3s-1.2,3.3-3.3,3.3h-21.3C222.6,27.4,221.4,26.2,221.4,24.1z M230.4,29.3c1.4,2.2,3.2,5.7,3.9,8
				c0.9,2.8,0.3,4.4-2.4,5.3c-2.7,0.9-4.6,0-5.1-3c-0.4-2.2-1-5.5-1.7-8.2c-0.4-1.8,0.2-3,1.7-3.4C228.2,27.5,229.4,27.8,230.4,29.3
				z"/>
		</g>
		<g>
			<path class="st2" d="M262.1,31.6c-1.1-1.3-1.1-3-0.1-4.3c1-1.1,2.4-1.3,3.9-0.6c3,1,7.4,3.5,11,6.1c3.8,2.6,4.4,5.8,1.6,8.9
				s-6.1,2.9-9-0.7C267.3,37.9,264.3,34.3,262.1,31.6z M278.9,51.6c-0.7,7.6-2.2,17.4-4.1,25.4c-1.2,5.1-4.6,7.2-9,5.3
				c-4.5-1.9-5.5-5.6-2.9-10.1c3.6-6.1,7.3-14.2,10.2-21.9c0.7-1.8,2.2-2.5,3.8-2C278.5,48.8,279,50,278.9,51.6z M265.7,15.2
				c-1-1.4-1.1-2.6-0.2-4c1-1.4,2.2-1.6,3.8-1c3.2,1,7.3,3.4,10.7,5.9c3.6,2.6,4.1,5.8,1.3,8.7c-2.9,3-6.2,2.6-8.8-0.9
				C270.2,20.8,267.3,17.3,265.7,15.2z M329.4,82.8c-3.9,2.2-7.8,0.6-9.3-4.4l-1.2-3.7c-8.8,4-21.4,7.1-31.1,8
				c-5,0.5-7.8-1.3-8.2-6.1c-0.4-4.6,1.7-7.4,7.1-7.4h3.1c2.6-6.2,4.6-12.9,6-18.7h-11.2c-2.4,0-3.8-1.4-3.8-3.8s1.4-3.8,3.8-3.8
				h14.9V31.7h-12.6c-2.2,0-3.4-1.5-3.4-3.8c0-2.2,1.2-3.8,3.4-3.8h12.6v-9c0-4.2,2.3-5.8,6.6-5.8s6.6,1.5,6.6,5.8v9h13.2
				c2.2,0,3.4,1.3,3.4,3.8c0,2.5-1.2,3.8-3.4,3.8h-13.2V43h16.1c2.4,0,3.8,1.4,3.8,3.8s-1.4,3.8-3.8,3.8h-18.9
				c-2.5,5.7-6.6,12.8-11,18.6c5.7-0.2,11.6-0.6,17.7-1.4c-1-2.6-2-5-3-7.4c-0.8-1.9-0.3-3.3,1.2-4.2c1.5-1,3-0.6,4.3,0.7
				c4.3,4.3,8.2,9.7,12.2,15.8C334,76.9,333.4,80.6,329.4,82.8z"/>
		</g>
	</g>
</g>
</svg>
