<?xml version="1.0" encoding="utf-8"?>
<!-- Generator: Adobe Illustrator 25.1.0, SVG Export Plug-In . SVG Version: 6.00 Build 0)  -->
<svg version="1.1" xmlns="http://www.w3.org/2000/svg" xmlns:xlink="http://www.w3.org/1999/xlink" x="0px" y="0px"
	 viewBox="0 0 418 146" style="enable-background:new 0 0 418 146;" xml:space="preserve">
<style type="text/css">
	.st0{fill:#44150D;}
	.st1{fill:#FFFFFF;}
	.st2{fill:#FFEC9E;}
	.st3{fill:none;stroke:#FFFFFF;stroke-width:0.7223;stroke-linecap:round;stroke-linejoin:round;stroke-miterlimit:10;}
</style>
<g id="圖層_1">
	<g>
		<g>
			<g>
				<path class="st0" d="M103.2,66.9c-1.9,3.4-5.2,4.1-8.5,2.4c-8.3-4.2-15-13.9-18-23.8c-4.4,13-14.3,22.3-28.1,25.7
					c-1.6,0.4-2.7-0.4-3.2-1.9c-0.5-1.4,0.1-2.8,1.6-3.6c11.9-5.9,18.2-13.6,20.5-25.9h-18c-2,0-3.1-1.2-3.1-3.4s1.1-3.4,3.1-3.4
					h18.7c0.1-1.1,0.1-2.3,0.1-3.5c0.1-2.7,0.1-6.2,0.1-9.6H53.2c-2,0-3.1-1.2-3.1-3.3s1.1-3.3,3.1-3.3h42.6c2,0,3.1,1.2,3.1,3.3
					S97.8,20,95.8,20H79.6c-0.1,3.6-0.3,7.9-0.5,12.2c0,0.3-0.1,0.6-0.1,0.9h20.4c2,0,3.1,1.2,3.1,3.4s-1.1,3.4-3.1,3.4H79.7
					c4,7.6,10.7,14.1,20.4,18.6C103.5,60,105.1,63.5,103.2,66.9z"/>
				<path class="st0" d="M47.7,76.8c-3.5,0-6.5-2.2-7.6-5.9c-1.3-4,0.4-8.1,4.3-10.1c8.2-4.1,13.1-8.8,15.8-15.5H49.5
					c-5.1,0-8.6-3.7-8.6-8.9s3.5-8.9,8.6-8.9h13.4c0-0.7,0-1.4,0-2.1h-9.7c-5,0-8.6-3.7-8.6-8.8s3.6-8.8,8.6-8.8h42.6
					c5,0,8.6,3.7,8.6,8.8s-3.6,8.8-8.6,8.8H85c0,0.7-0.1,1.4-0.1,2.1h14.6c5.1,0,8.6,3.7,8.6,8.9s-3.5,8.9-8.6,8.9h-8.9
					c3.2,3.2,7.2,5.9,11.9,8.1c3.2,1.5,5.5,4,6.5,7.1c1,2.9,0.6,6.1-1,9l0,0c-3.2,5.8-9.8,7.7-15.8,4.6c-6.1-3.1-11.7-8.7-15.8-15.7
					c-6.1,9-15.4,15.4-26.5,18.1C49.1,76.7,48.4,76.8,47.7,76.8z M91.1,59.8c1.9,2,4,3.5,6,4.6c0.5,0.3,0.8,0.3,0.9,0.3
					c0,0,0.1-0.1,0.3-0.5l0,0c0.1-0.2,0.1-0.3,0.1-0.3s-0.2-0.2-0.7-0.4C95.4,62.3,93.2,61.1,91.1,59.8z M72.1,36.9
					c0.7,1.2,1,2.5,0.7,3.9c-0.1,0.3-0.1,0.6-0.2,0.9c0.4-0.5,1-0.9,1.6-1.2c-0.2-1.2,0.1-2.5,0.7-3.6c0-0.1,0.1-0.1,0.1-0.2
					c-0.7-0.8-1.3-1.8-1.4-2.9C73.5,35.1,72.9,36.1,72.1,36.9z M73.8,18.8c0.1,0.4,0.1,0.8,0.1,1.1c0,2.3,0,4.7,0,6.8
					c0.1-2.4,0.2-4.8,0.2-6.9c0-0.4,0-0.7,0.1-1C74.2,18.8,73.8,18.8,73.8,18.8z"/>
			</g>
			<g>
				<path class="st0" d="M171.6,66.9c-1.9,3.4-5.2,4.1-8.5,2.4c-8.3-4.2-15-13.9-18-23.8c-4.4,13-14.3,22.3-28.1,25.7
					c-1.6,0.4-2.7-0.4-3.2-1.9c-0.5-1.4,0.1-2.8,1.6-3.6c11.9-5.9,18.2-13.6,20.5-25.9H118c-2,0-3.1-1.2-3.1-3.4S116,33,118,33h18.7
					c0.1-1.1,0.1-2.3,0.1-3.5c0.1-2.7,0.1-6.2,0.1-9.6h-15.2c-2,0-3.1-1.2-3.1-3.3s1.1-3.3,3.1-3.3h42.6c2,0,3.1,1.2,3.1,3.3
					s-1.1,3.3-3.1,3.3H148c-0.1,3.6-0.3,7.9-0.5,12.2c0,0.3-0.1,0.6-0.1,0.9h20.4c2,0,3.1,1.2,3.1,3.4s-1.1,3.4-3.1,3.4H148
					c4,7.6,10.7,14.1,20.4,18.6C171.9,60,173.5,63.5,171.6,66.9z"/>
				<path class="st0" d="M116.1,76.8c-3.5,0-6.5-2.2-7.6-5.9c-1.3-4,0.4-8.1,4.3-10.1c8.2-4.1,13.1-8.8,15.8-15.5h-10.7
					c-5.1,0-8.6-3.7-8.6-8.9s3.5-8.9,8.6-8.9h13.4c0-0.7,0-1.4,0-2.1h-9.7c-5,0-8.6-3.7-8.6-8.8s3.6-8.8,8.6-8.8h42.6
					c5,0,8.6,3.7,8.6,8.8s-3.6,8.8-8.6,8.8h-10.9c0,0.7-0.1,1.4-0.1,2.1h14.6c5.1,0,8.6,3.7,8.6,8.9s-3.5,8.9-8.6,8.9h-8.9
					c3.2,3.2,7.2,5.9,11.9,8.1c3.2,1.5,5.5,4,6.5,7.1c1,2.9,0.6,6.1-1,9c-3.2,5.8-9.8,7.7-15.8,4.6c-6.1-3.1-11.7-8.7-15.8-15.7
					c-6.1,9-15.4,15.4-26.5,18.1C117.5,76.7,116.8,76.8,116.1,76.8z M159.5,59.8c1.9,2,4,3.5,6,4.6c0.5,0.3,0.8,0.3,0.9,0.3
					c0,0,0.1-0.1,0.3-0.5c0.1-0.2,0.1-0.3,0.1-0.3s-0.2-0.2-0.7-0.4C163.8,62.3,161.6,61.1,159.5,59.8z M140.5,36.9
					c0.7,1.2,1,2.5,0.7,3.9c-0.1,0.3-0.1,0.6-0.2,0.9c0.4-0.5,1-0.9,1.6-1.2c-0.2-1.2,0.1-2.5,0.7-3.6c0-0.1,0.1-0.1,0.1-0.2
					c-0.7-0.8-1.3-1.8-1.4-2.9C141.9,35.1,141.3,36.1,140.5,36.9z M142.2,18.8c0.1,0.4,0.1,0.8,0.1,1.1c0,2.3,0,4.7,0,6.8
					c0.1-2.4,0.2-4.8,0.2-6.9c0-0.4,0-0.7,0.1-1C142.6,18.8,142.2,18.8,142.2,18.8z"/>
			</g>
			<g>
				<path class="st0" d="M238.2,63.2c-0.7,7.7-6.8,9.8-16.3,5.9c-1.4-0.6-1.8-1.6-1.6-2.9c0.3-1.4,1.2-1.9,2.9-1.7
					c5.1,0.6,5.9-0.2,6.2-3.5c0.2-1.7,0.3-3.6,0.4-5.7c-0.2,0.4-0.5,0.8-0.8,1.2c-1.7,1.8-4,1.4-5.4-0.8c-0.7-1.2-1.7-2.5-2.7-3.8
					c-1.5,2.1-3.3,4.1-5.3,5.6c-1.2,0.9-2.3,0.8-3.2-0.1l-0.1-0.1v1.2H225c1.8,0,2.7,0.9,2.7,2.6s-0.9,2.6-2.7,2.6h-12.8v1.6
					c0,2.5-1.4,3.5-3.9,3.5s-3.9-1-3.9-3.5V50.1c0-0.3,0-0.6,0.1-0.8c-0.9,0.1-1.6-0.2-2.1-1v10.5c0,2.4-1.4,3.5-3.8,3.5
					c-2.4,0-3.8-1-3.8-3.5v-1.6h-2.1V60c0,2.7-1.4,3.8-4.1,3.8c-2.7,0-4.1-1.1-4.1-3.8V19.3c0-2.7,1.5-4.2,4.2-4.2h9.4
					c2.7,0,4.2,1.5,4.2,4.2v26c0.1-0.3,0.3-0.5,0.6-0.7c3.3-3.3,5.5-6.4,7.6-10.7h-1.4c-2.7,0-4.2-1.5-4.2-4.2V17
					c0-2.7,1.5-4.2,4.2-4.2h22.8c2.7,0,4.2,1.5,4.2,4.2v12.7c0,2.7-1.5,4.2-4.2,4.2h-12.2c-0.5,1-1.1,2-1.8,2.9h16.6
					c2.7,0,4.2,1.5,4.2,4.3C239,50.6,238.7,58.5,238.2,63.2z M194.8,51.8V21.1c0-0.5-0.3-0.8-0.8-0.8h-0.6c-0.5,0-0.8,0.3-0.8,0.8
					v30.7C192.6,51.8,194.8,51.8,194.8,51.8z M216.6,44.2c0.3-0.9,0.7-1.6,1-2h-3.9c-1.4,1.6-3,3-4.7,4.3c1.9,0.2,3.2,1.3,3.2,3.6v4
					C214.2,51.2,215.5,47.6,216.6,44.2z M213.7,20.6h13.4v-1.7c0-0.5-0.3-0.8-0.8-0.8h-11.9c-0.5,0-0.8,0.3-0.8,0.8v1.7H213.7z
					 M213.7,27.8c0,0.5,0.3,0.8,0.8,0.8h11.9c0.5,0,0.8-0.3,0.8-0.8v-2h-13.4v2H213.7z M229.9,52.7c0.1-3.1,0.1-6.3,0.1-9.7
					c0-0.5-0.3-0.8-0.8-0.8h-6.1c1.4,0.8,1.8,2.2,0.7,4.5c-0.1,0.3-0.3,0.7-0.5,1c1.8,1,3.5,2.1,5.1,3.3
					C229.1,51.5,229.6,52,229.9,52.7z"/>
				<path class="st0" d="M230,76.5c-2.8,0-6.1-0.6-10.2-2.3c-1.7-0.7-3-1.8-3.8-3.1c-1.6,2.1-4.3,3.4-7.7,3.4
					c-4.9,0-8.3-2.6-9.2-6.9c-1.4,0.1-2.9-0.1-4.1-0.5c-1.6,1.4-3.9,2.1-6.5,2.1c-5.8,0-9.6-3.6-9.6-9.3V19.3c0-5.7,4-9.7,9.7-9.7
					h9.4c1.4,0,2.6,0.2,3.8,0.7c1.7-1.8,4.2-2.9,7.2-2.9h22.8c5.7,0,9.7,4,9.7,9.7v12.7c0,1.4-0.2,2.7-0.7,3.8
					c2,1.7,3.3,4.3,3.3,7.5c0.2,8.5-0.1,17-0.6,22.7c-0.6,6.2-3.7,9.4-6.2,10.9C235.8,75.6,233.3,76.5,230,76.5z"/>
			</g>
			<g>
				<path class="st0" d="M302.9,69.5c-4.8,0.3-8.1,0.3-11,0.1c-8.7-0.5-10.2-1.9-10.2-9.7V48.4h-3.9c-1.5,12.1-10,21.7-23.5,23.4
					c-1.6,0.2-2.5-0.4-2.9-1.7c-0.4-1.3,0.1-2.3,1.6-3c9.1-4,12.7-8.9,13.9-18.8h-5.1c-2.7,0-4.2-1.5-4.2-4.2V33.4
					c0-2.7,1.5-4.2,4.2-4.2h12.6v-4.9H255c-1.9,0-2.9-1.2-2.9-3.3s1.1-3.3,2.9-3.3h19.4v-4.1c0-3.1,1.9-4.7,5.3-4.7
					c3.5,0,5.3,1.6,5.3,4.7v4.1h19.2c1.9,0,2.9,1.2,2.9,3.3s-1.1,3.3-2.9,3.3H285v4.9h12.6c2.7,0,4.2,1.5,4.2,4.2v10.8
					c0,2.7-1.5,4.2-4.2,4.2h-5.3v8.3c0,2.5,0.6,3.3,2.7,3.4c2.3,0.1,4.1,0.2,6.3-0.1c1.6-0.2,2.1-1.4,2.2-6.8
					c0.1-1.8,0.8-2.7,2.1-2.7c1.5,0,2.5,0.7,2.9,2.3C310.6,64.1,308.6,69.1,302.9,69.5z M268,42.4c0,0.5,0.3,0.8,0.8,0.8h21.7
					c0.5,0,0.8-0.3,0.8-0.8v-7.3c0-0.5-0.3-0.8-0.8-0.8h-21.7c-0.5,0-0.8,0.3-0.8,0.8V42.4z"/>
				<path class="st0" d="M253.8,77.4c-3.7,0-6.6-2.1-7.7-5.6c-1.2-3.9,0.6-7.7,4.5-9.5c0.1,0,0.1-0.1,0.2-0.1
					c5.1-2.2,7.8-4.5,9.3-8.3c-4.8-0.7-8-4.5-8-9.6V33.4c0-1.4,0.2-2.8,0.7-3.9c-3.8-0.9-6.2-4.1-6.2-8.5c0-5.1,3.5-8.8,8.4-8.8h14
					c0.6-5.3,4.8-8.8,10.8-8.8s10.1,3.5,10.8,8.8h13.8c5,0,8.4,3.6,8.4,8.8c0,4.2-2.4,7.5-6.1,8.5c0.5,1.2,0.7,2.5,0.7,4v10.8
					c0,0.4,0,0.7-0.1,1.1c3.3,0.6,5.8,3,6.5,6.5c1.8,8.9,1.2,14.9-1.8,18.8c-1.4,1.8-4.1,4.1-8.7,4.4h-0.1
					c-5.4,0.3-8.7,0.3-11.7,0.1c-10.2-0.6-13.8-3.8-14.9-9.7c-5.1,6.4-12.6,10.8-21.6,11.9C254.6,77.4,254.2,77.4,253.8,77.4z
					 M302.9,69.5L302.9,69.5L302.9,69.5z M287.4,63.6c0.3,0.1,1,0.3,2.3,0.4c-1.1-0.8-2-2-2.5-3.8C287.2,62.2,287.3,63.1,287.4,63.6
					z M297.8,54.8h0.1c0-0.3,0-0.5,0-0.8c-0.1,0-0.1,0-0.2,0v0.8H297.8z M278.8,20.9c0.4,0.6,0.7,1.2,0.9,1.9
					c0.2-0.7,0.5-1.4,0.9-1.9c-0.4-0.6-0.7-1.2-0.9-1.9C279.5,19.7,279.2,20.4,278.8,20.9z M279.5,13.4L279.5,13.4L279.5,13.4z"/>
			</g>
			<g>
				<path class="st0" d="M376.5,48.9c0,1.6-1,2.6-2.6,2.6h-51.7c-1.6,0-2.6-1-2.6-2.6s1-2.6,2.6-2.6h5.1v-4.9c0-2.7,1.5-4.2,4.2-4.2
					h33.1c2.7,0,4.2,1.5,4.2,4.2v4.9h5C375.6,46.3,376.5,47.3,376.5,48.9z M321,24.9v-5.3c0-2.7,1.5-4.2,4.2-4.2h17.4v-1.7
					c0-2.8,2-4.2,5.5-4.2s5.5,1.4,5.5,4.2v1.7h17.3c2.7,0,4.2,1.5,4.2,4.2v4.9c0,3-1.6,4.2-4.6,4.2H370c0.1,0.1,0.2,0.3,0.3,0.4
					c1.7,2,1.2,3.9-0.8,5.2s-4,0.8-5-1.6c-1-2.6-2.3-5-3.7-7.3c-0.6-1.1-0.4-2.1,0.4-2.7c0.8-0.7,1.8-0.6,2.7,0.2
					c0.7,0.5,1.3,1,2,1.6v-3c0-0.5-0.3-0.8-0.8-0.8H331c-0.5,0-0.8,0.3-0.8,0.8v3.6v0.7c0.5-0.7,0.9-1.3,1.3-2
					c0.7-1.2,1.7-1.2,2.7-0.8c1,0.5,1.2,1.4,0.8,2.8c-0.8,2.9-2.6,6.5-4.6,8.7c-1.6,1.9-3.8,1.6-5.1-0.1c-1.4-1.7-1.1-3.6,1-5
					c0.1-0.1,0.3-0.2,0.5-0.3c-0.3,0.1-0.7,0.1-1.1,0.1C322.7,29,321,27.8,321,24.9z M372,55.7c0,1.7-1,2.7-2.7,2.7h-15.4V63
					c0,8.3-7.9,10.5-17.8,5.9c-1.4-0.7-1.8-1.5-1.5-2.8s1.1-1.8,2.7-1.6c5.2,0.5,6.3,0.3,6.3-2.7v-3.4h-16.7c-1.7,0-2.7-1-2.7-2.7
					s1-2.7,2.7-2.7h42.5C371,53,372,54,372,55.7z M344.2,25.1v2.3c0,1.7,1,2.1,6.6,2c4.6-0.1,5.2-0.3,5.2-2.1c0-1.6,0.8-2.4,2-2.3
					s2,0.7,2.3,2c1.8,7.4-0.3,9.1-9.1,9.1c-13.7,0-15.3-0.7-15.3-7.1v-3.9c0-2.2,1.4-3.5,4.1-3.5S344.2,22.9,344.2,25.1z
					 M339.3,42.1h-2.4c-0.5,0-0.8,0.3-0.8,0.8v3.4h3.2L339.3,42.1L339.3,42.1z M345.7,24.8c-1-0.8-1.2-1.6-0.7-2.5s1.2-1.4,2.4-1
					c1.7,0.5,3.6,1.2,5.3,2c2,0.9,2.5,2.5,1.4,4.2c-1.2,1.8-2.9,2.2-4.5,0.7C348.3,26.8,346.8,25.6,345.7,24.8z M349.5,42.1h-2.9
					v4.2h2.9V42.1z M360.1,42.9c0-0.5-0.3-0.8-0.8-0.8h-2.5v4.2h3.3V42.9z"/>
				<path class="st0" d="M345.4,76.8c-3.5,0-7.5-1-11.7-2.9c-3.6-1.7-5.3-5-4.6-8.9c0.1-0.4,0.2-0.8,0.3-1.2h-2.7
					c-4.5,0-7.9-3.1-8.2-7.6c-2.8-1.2-4.6-4-4.6-7.4c0-4.6,3.2-7.9,7.7-8.1c0-0.7,0.1-1.3,0.3-1.9c-0.4-0.4-0.8-0.8-1.1-1.2
					c-1.3-1.6-2-3.4-2.1-5.3c-2.1-1.7-3.3-4.3-3.3-7.5v-5.3c0-5.7,4-9.7,9.7-9.7h12.6c1.3-3.2,4.4-5.9,10.2-5.9
					c4.3,0,8.6,1.8,10.3,5.9h12.5c5.7,0,9.7,4,9.7,9.7v4.9c0,3.5-1.4,6.2-3.8,7.9c0,0.1,0,0.1,0,0.2c-0.3,2-1.3,3.8-2.9,5.3
					c0.3,0.9,0.5,1.9,0.6,3c4.5,0.2,7.6,3.6,7.6,8.1c0,3.4-1.8,6.1-4.6,7.4c-0.3,4.4-3.6,7.6-8.2,7.6h-10c-0.2,4.7-2.3,8.5-5.8,10.8
					C351.2,76.1,348.5,76.8,345.4,76.8z M369.3,58.5L369.3,58.5L369.3,58.5z"/>
			</g>
			<g>
				<path class="st0" d="M29.4,104.5v30.3c0,3.3-1.8,4.8-5,4.8s-5.1-1.5-5.1-4.8v-19.5c-1.4,1.1-3,2.1-4.6,2.9
					c-1.3,0.7-2.5,0.8-3.2-0.3c-0.8-1.2-0.6-2.1,0.6-3.1c6.9-6.3,11.3-14.9,14.1-22.5H15.4c-1.8,0-2.9-1-2.9-2.9
					c0-1.8,1-2.9,2.9-2.9H28c0.5-2,1-3.8,1.3-5.5c0.7-3.3,3-3.9,5.8-3.5c3.2,0.5,4.3,2.3,3.7,5.1c-0.3,1.2-0.6,2.5-0.9,3.8h27.5
					c1.8,0,2.9,1,2.9,2.9c0,1.8-1,2.9-2.9,2.9H35.9C34.3,96.6,32.1,100.7,29.4,104.5z M69.7,117.1c0,1.8-1,2.8-2.8,2.8H55.1v11
					c0,8.4-8.2,10.7-18.8,5.4c-1.3-0.7-1.9-1.6-1.6-2.9c0.3-1.2,1.2-1.8,2.9-1.7c6.2,0.6,7.3,0.3,7.3-2.5V120H33.2
					c-1.8,0-2.8-1-2.8-2.8s1-2.8,2.8-2.8h11.6v-2.7c0-3.1,1.8-4.6,5.1-4.6c0.6,0,1.1,0.1,1.6,0.1c1.2-1.5,2.2-3,2.8-4.1
					c0.3-0.5,0-0.9-0.6-0.9h-16c-1.7,0-2.7-1-2.7-2.7s1-2.6,2.7-2.6h21c5.1,0,7.4,4.6,3.3,8.6c-2.1,2.1-4.5,4-7,5.7v0.5v2.7h11.7
					C68.7,114.3,69.7,115.3,69.7,117.1z"/>
				<path class="st0" d="M24.4,145c-6.4,0-10.6-4-10.6-10.3v-10.5c-3,0.3-5.4-1.1-6.8-3.1c-2.4-3.5-1.8-7.5,1.5-10.4
					c4.1-3.7,7.1-8.4,9.4-12.9h-2.5c-4.8,0-8.4-3.5-8.4-8.4c0-4.8,3.5-8.4,8.4-8.4h8.3c0.1-0.4,0.2-0.7,0.2-1
					c1.2-5.7,5.9-8.8,12.1-7.8c3.9,0.6,5.9,2.5,6.9,4c0.7,1.1,1.5,2.6,1.5,4.8h20.9c4.8,0,8.4,3.5,8.4,8.4c0,3.6-2,6.5-5,7.7
					c0.1,0.1,0.1,0.3,0.2,0.5c1.5,3.6,0.5,7.9-2.5,11.1h0.3c4.9,0,8.3,3.4,8.3,8.3s-3.4,8.3-8.3,8.3h-6.2v5.5c0,5.1-2.1,9.2-6,11.6
					c-5.2,3.2-12.6,2.8-20.8-1.3c-0.2-0.1-0.5-0.2-0.7-0.4C31.4,143.5,28.3,145,24.4,145z M24.8,135.1L24.8,135.1L24.8,135.1z
					 M34.9,125.4v1c0.9-0.2,1.9-0.3,3.1-0.2c0.5,0,1,0.1,1.4,0.1v-0.9H34.9z M66.8,119.8L66.8,119.8L66.8,119.8z M49.6,117.1
					c0.2,0.3,0.3,0.6,0.4,0.9c0.1-0.3,0.3-0.6,0.4-0.9c-0.2-0.3-0.3-0.6-0.4-0.9C49.9,116.6,49.7,116.9,49.6,117.1z M49.3,112.6
					L49.3,112.6L49.3,112.6z M22.8,111.1c0.4,0.4,0.8,0.8,1.1,1.2v-2.9C23.5,110,23.2,110.5,22.8,111.1z M34.9,108.8h4.8
					c0.1-0.4,0.2-0.8,0.4-1.2h-2.2c-1,0-2-0.2-2.9-0.5L34.9,108.8L34.9,108.8z M33.5,81.5L33.5,81.5z"/>
			</g>
			<g>
				<path class="st0" d="M138.1,132.4c0.1,3.3-1.2,4.8-4.8,5c-3.5,0.2-6.2,0.1-8.3,0.1c-9.7-0.2-16.9-2.1-21.9-6.2
					c-1.5,2.3-3.3,4.4-5.4,6.2c-1.2,1-2.7,1.2-3.6,0.1c-0.9-1-0.7-2.1,0.3-3.3c1.7-2.5,3.2-5,4.4-7.8c-2.4-3.5-4-8-5-13.5
					c-0.3-1.6,0.3-2.7,1.6-3c1.4-0.4,2.3,0.3,2.9,1.9c0.9,2.7,1.9,5,3.1,7c0.8-3.7,1.4-7.8,1.6-12.6c0-0.5-0.3-0.8-0.8-0.8h-0.6
					l-0.1,0.3c-1,2.5-2.5,3.1-4.8,2.5c-2.1-0.5-2.9-2-2-4.6c1.7-4.6,3.2-9.8,4.7-14.3c0.2-0.6-0.2-1.2-0.8-1.2H97
					c-1.2,0-1.9-0.5-2.1-1.3c-0.5,2.6-1.1,5.1-1.8,7.5v41c0,2.5-1.7,3.8-4.6,3.8s-4.6-1.4-4.6-3.8v-24.2c-0.3,0.4-0.7,0.7-1,1
					c-1.3,1.3-2.7,1.4-3.6,0.5c-1-1-0.8-2.2-0.1-3.5c3.9-7,5.9-16.1,7.3-27.9c0.4-3.3,2.6-4.2,5.5-3.9c2.9,0.3,4,2,3.6,5.1
					c0,0.3-0.1,0.5-0.1,0.7c0.4-0.4,1-0.6,1.8-0.6h6.4c3.3,0,4.8,2,3.8,5.1c-0.8,3-2.2,7.4-3.8,11.9h1.8c3,0,4.8,1.7,4.6,4.8
					c-0.5,7.8-1.6,14.5-3.6,20c2.9,2.1,6.5,3.3,11.3,3.8c-0.7-0.6-1.1-1.5-1.1-2.6V121h-5.9c-1.5,0-2.3-0.8-2.3-2.3s0.8-2.3,2.3-2.3
					h5.9v-3.1h-4c-1.5,0-2.3-0.8-2.3-2.3s0.8-2.3,2.3-2.3h4v-3H113c-1.5,0-2.3-0.8-2.3-2.3s0.8-2.3,2.3-2.3h3.6v-3.8h-7.3
					c-1.5,0-2.3-0.8-2.3-2.3c0-1.6,0.8-2.4,2.3-2.4h7.3v-3.5h-5c-1.5,0-2.3-0.8-2.3-2.3s0.8-2.3,2.3-2.3h4.8V82
					c0-2.3,1.6-3.6,4.5-3.6s4.4,1.3,4.4,3.6v2.5h5c2.7,0,4.2,1.5,4.2,4.2v3.8h1.6c1.5,0,2.4,0.9,2.4,2.5s-0.9,2.5-2.4,2.5h-1.6v4.3
					c0,2.7-1.5,4.2-4.2,4.2h-5v3h6.9c1.5,0,2.3,0.8,2.3,2.3s-0.8,2.3-2.3,2.3h-6.9v3.1h8.7c1.5,0,2.3,0.8,2.3,2.3s-0.8,2.3-2.3,2.3
					h-8.7v4.6c0,1.3-0.5,2.3-1.5,2.9c3.3,0,6.4-0.1,9.1-0.4C136.1,128,138,129.5,138.1,132.4z M125.1,92.4h2.4v-2.7
					c0-0.5-0.3-0.8-0.8-0.8h-1.6V92.4z M125.1,101h1.6c0.5,0,0.8-0.3,0.8-0.8v-3.1h-2.4V101z"/>
				<path class="st0" d="M88.4,144.8c-6,0-10.1-3.8-10.1-9.3v-16.9c-1.1-0.4-2.1-1-2.9-1.8c-2.7-2.7-3.1-6.5-1-10.1
					c3.1-5.5,5.1-13.2,6.6-25.8c0.7-6,5.2-9.4,11.6-8.7c3.6,0.4,5.6,2.1,6.7,3.4c0.4,0.5,0.8,1.1,1.1,1.7h3.4c2.6,0,4.5,0.7,5.8,1.6
					c0.6-0.1,1.2-0.2,1.8-0.2c1.2-3.8,4.8-6.2,9.5-6.2c5.3,0,8.3,2.8,9.4,6.2c5.4,0,9.3,3.7,9.7,9c2.4,1.3,4,3.9,4,7s-1.5,5.7-4,7
					c0,1.8-0.5,3.5-1.3,4.9c0.8,1.2,1.3,2.8,1.3,4.5c0,0.8-0.1,1.6-0.3,2.3c1.3,1.4,2.1,3.3,2.1,5.5c0,2.3-0.8,4.2-2.2,5.6
					c0.4,0.3,0.7,0.5,1,0.8c1.3,1.2,3,3.4,3,7.1l0,0c0.1,6.3-3.6,10.3-9.9,10.6c-3.6,0.2-6.4,0.1-8.8,0.1
					c-8.5-0.2-15.2-1.6-20.5-4.3c-1,1.1-2,2.1-3.1,3c-2.3,1.9-5.1,2.6-7.6,1.9C92.1,144.4,90.4,144.8,88.4,144.8z M86.5,106.5
					c0.4,0.2,0.7,0.5,1,0.7v-3.6C87.2,104.7,86.9,105.6,86.5,106.5z"/>
			</g>
			<g>
				<path class="st0" d="M206.1,132.8c-1.6,3.1-4.4,3.5-7.9,1.5c-5-2.9-9.3-6.7-12.5-11.2v7.3c0,8.7-7.4,11.6-17.3,6.6
					c-1.3-0.7-1.8-1.7-1.4-3.1c0.3-1.2,1.3-1.8,2.9-1.7c4.6,0.4,5.9-0.5,5.9-3.6v-1.8c-2.9,2.2-6.9,4.9-11.6,6.7
					c-2.7,1-4.9,0.1-5.9-2.8c-1-2.8,0.2-5,3.3-5.6c1.9-0.4,4.1-1,6.4-1.6c-0.5-0.2-1-0.6-1.6-1c-1.7-1.6-3.1-3.2-4.2-4.4
					c-1.1-1.1-1.2-2.3-0.5-3.4s1.8-1.3,3.2-0.8c1.9,0.7,4,1.3,6.1,2.5c2.3,1.4,2.8,3.7,1.2,5.6l-0.1,0.1c1.3-0.5,2.5-0.9,3.7-1.4
					v-7.5H166c-1.6,0-2.5-0.9-2.5-2.5s0.9-2.5,2.5-2.5h9.8v-2.5H164c-1.7,0-2.6-0.9-2.6-2.6s0.9-2.6,2.6-2.6h11.8v-2.7h-9.3
					c-1.6,0-2.5-0.9-2.5-2.5s0.9-2.5,2.5-2.5h9.3v-2c0-0.4,0-0.7,0.1-1h-14.1c-0.5,0-0.8,0.3-0.8,0.8v12.6c0,13.9-2.6,27.5-8.3,34.3
					c-1.1,1.3-2.9,1.6-4.2,0.7c-1.2-0.8-1.2-2.1-0.6-3.5c2.7-6.6,3.3-13,3.3-33.3V88.6c0-2.7,1.5-4.2,4.2-4.2h19V82
					c0-3,1.9-4.6,5.5-4.6c3.5,0,5.5,1.6,5.5,4.6v2.4h18.4c1.8,0,2.7,1,2.7,2.7c0,1.8-1,2.7-2.7,2.7h-18.1c0.1,0.3,0.1,0.7,0.1,1v2
					h9.9c3,0,4.5,1.4,4.5,4.4v3.4h2.5c1.7,0,2.6,0.9,2.6,2.6s-0.9,2.6-2.6,2.6H200v3.3c0,2.7-1.5,4.2-4.2,4.2h-10.2v1
					c1.8,2,3.7,3.7,6.1,5.3c1.2-1.2,2.7-2.8,4-4.2c2.3-2.3,4.3-2.7,6.4-0.5c2.1,2.2,1.7,4.4-0.7,6.1c-1.2,0.9-2.5,1.6-3.9,2.1
					c1.6,0.8,3.4,1.7,5.3,2.4C206.6,127.1,207.5,130,206.1,132.8z M185.6,100.5h4.9v-1.9c0-0.5-0.3-0.8-0.8-0.8h-4.1L185.6,100.5
					L185.6,100.5z M185.6,108.5h4.1c0.5,0,0.8-0.3,0.8-0.8v-2h-4.9L185.6,108.5L185.6,108.5z"/>
				<path class="st0" d="M177.2,145c-3.5,0-7.3-1-11.3-3c-1.3-0.6-2.3-1.5-3.1-2.6c-1.8,0.1-3.2-0.2-4.3-0.7
					c-0.5,0.8-1.1,1.6-1.7,2.3c-3,3.5-7.9,4.2-11.5,1.7c-2.6-1.7-4.6-5.3-2.6-10.1c2.3-5.8,2.8-11.6,2.8-31.2V88.6
					c0-5.7,4-9.7,9.7-9.7h13.9c1.2-4.3,5.1-7,10.6-7c4.6,0,9.2,2.2,10.6,7h13.3c4.8,0,8.2,3.5,8.2,8.2c0,4.2-2.7,7.4-6.5,8.1
					c0,0.1,0,0.2,0.1,0.4c3.2,1.1,5.3,4,5.3,7.6s-2,6.4-5.1,7.6c0.2,0.2,0.3,0.3,0.5,0.5c2.7,2.8,3,5.6,2.8,7.5
					c-0.1,1-0.4,2.2-1.1,3.4c2.1,1.5,3.2,3.3,3.8,4.7c1,2.7,0.8,5.7-0.6,8.5c-1.7,3.4-4.3,4.8-6.1,5.4c-2,0.6-5.3,0.8-9.5-1.6
					c-1.8-1-3.5-2.2-5-3.4c-1,3.1-2.8,5.6-5.5,7.2C182.6,144.3,180.1,145,177.2,145z M181.2,117.6v2.2c0.3-0.4,0.6-0.7,1-1
					c-0.2-0.3-0.5-0.5-0.7-0.8C181.4,117.9,181.3,117.8,181.2,117.6z M180.6,110.8c0,0,0,0.1,0.1,0.1l0,0
					C180.7,110.8,180.7,110.8,180.6,110.8L180.6,110.8z M180.6,103.1c0,0.1,0.1,0.1,0.1,0.2c0-0.1,0.1-0.1,0.1-0.2s-0.1-0.1-0.1-0.2
					C180.7,103,180.6,103.1,180.6,103.1z M180.6,95.3c0,0,0,0.1,0.1,0.1c0,0,0-0.1,0.1-0.1c0,0,0-0.1-0.1-0.1
					C180.7,95.2,180.6,95.3,180.6,95.3z M179.6,85.8c0.2,0.2,0.3,0.3,0.5,0.5l0.1,0.1c-0.2-0.5-0.3-1-0.4-1.6
					C179.7,85.2,179.7,85.5,179.6,85.8z"/>
			</g>
			<g>
				<path class="st0" d="M238.3,106c0.6,1.2,0,2.3-1.3,3.3s-2.6,2-3.9,2.9V132c0,7.2-6.8,9.2-15,5.3c-1.4-0.7-2-1.6-1.8-2.8
					s1.2-1.8,2.9-1.7c3.3,0.3,4.1-0.5,4.1-2.8v-13c-0.6,0.3-1.1,0.4-1.7,0.6c-2.9,0.9-4.8-0.2-5.5-3c-0.7-2.7,0.3-4.8,3.5-5.3
					c1.2-0.2,2.5-0.5,3.8-0.8V96.8h-4.5c-1.7,0-2.7-1-2.7-2.7s1-2.7,2.7-2.7h4.5v-8.7c0-3.3,1.5-4.8,4.9-4.8s4.9,1.5,4.9,4.8v8.7
					h2.5c1.7,0,2.8,0.9,2.8,2.7c0,1.8-1.1,2.8-2.8,2.8h-2.5v9l2.1-0.8C236.6,104.4,237.7,104.8,238.3,106z M273.1,96.5v38
					c0,3.1-1.8,4.5-4.9,4.5s-4.9-1.4-4.9-4.5v-1.1h-14.2v1.4c0,3.1-1.8,4.5-4.9,4.5s-4.9-1.4-4.9-4.5V96.5c0-2.7,1.5-4.4,4.2-4.4
					h7.4v-9.8c0-3.3,1.8-4.7,5.2-4.7c3.4,0,5.2,1.4,5.2,4.7v9.8h7.4C271.6,92.1,273.1,93.6,273.1,96.5z M251.9,97.6h-2
					c-0.5,0-0.8,0.3-0.8,0.8v11.1h2.8V97.6z M251.9,114.8h-2.8V128h2.8V114.8z M263.3,98.4c0-0.5-0.3-0.8-0.8-0.8h-2v11.9h2.8V98.4z
					 M263.3,114.8h-2.8V128h2.8V114.8z"/>
				<path class="st0" d="M244.3,144.8c-3.9,0-7-1.5-8.7-4.1c-0.7,0.8-1.5,1.5-2.5,2.1c-4.4,2.8-10.8,2.7-17.3-0.5
					c-3.6-1.7-5.4-5-4.8-8.6c0.6-3.5,3.3-5.9,6.9-6.3v-4.1c-1-0.2-1.8-0.6-2.5-0.9c-1.6-0.9-3.6-2.7-4.6-6.3c-1-3.7,0-6.3,1-7.9
					c0.9-1.4,2.7-3.3,6-4v-1.9c-4.2-0.5-7.2-3.8-7.2-8.2s3-7.7,7.2-8.2v-3.2c0-6.4,4-10.3,10.4-10.3s10.4,4,10.4,10.3v3.6
					c0.6,0.2,1.2,0.5,1.8,0.9c1-0.3,2.1-0.5,3.3-0.5h1.9v-4.3c0-6.2,4.2-10.2,10.7-10.2c6.5,0,10.7,4,10.7,10.2v4.3h1.9
					c5.8,0,9.7,4,9.7,9.9v38c0,6.1-4.1,10-10.4,10c-4.6,0-8-2.1-9.5-5.6h-4.8C252.5,142.6,249,144.8,244.3,144.8z M243.6,135
					L243.6,135L243.6,135z M267.6,134.7L267.6,134.7L267.6,134.7z M268.8,134.7L268.8,134.7L268.8,134.7z M226.8,112.8
					c0.3,0.2,0.5,0.5,0.8,0.8v-1.4v-0.1C227.3,112.4,227.1,112.6,226.8,112.8z M228.1,94c0,0.1,0.1,0.1,0.1,0.2
					c0-0.1,0.1-0.1,0.1-0.2s-0.1-0.1-0.1-0.2C228.1,93.9,228.1,94,228.1,94z M256.2,94.1L256.2,94.1c0.1,0.1,0.1,0,0.1,0
					c0-0.1,0-0.1-0.1-0.2C256.2,94,256.2,94,256.2,94.1z M227.5,82.1L227.5,82.1z M256.5,82L256.5,82L256.5,82z M255.9,82L255.9,82
					L255.9,82L255.9,82z"/>
			</g>
			<g>
				<path class="st0" d="M343.1,108.2c0,1.9-1,2.9-2.9,2.9h-9v19.5c0,8.4-8.3,10.9-19.2,6c-1.4-0.7-1.9-1.6-1.6-3.1
					c0.3-1.4,1.4-2,3.1-1.7c6,0.7,7.3-0.1,7.3-3.7v-17h-8.9c-1.8,0-2.9-1-2.9-2.9v-0.3c-0.8,4-1.9,7.7-3.3,11c2,1.1,3.8,2.3,5.5,3.6
					c2.8,2.1,3.3,4.6,1.2,7c-2.1,2.4-5,2.4-7.2-0.2c-1-1.2-2.1-2.3-3.1-3.4c-3.5,5.3-8.1,9.6-13.6,12.8c-1.4,0.8-2.6,0.6-3.3-0.6
					c-0.7-1.2-0.3-2.4,0.8-3.4c4.6-3.8,8.1-8.3,10.5-13.7c-0.8-0.7-1.6-1.3-2.5-2c-0.8,2.7-2.9,4-5.6,3.3s-3.6-2.6-2.9-5.5
					c1.3-5.5,2.5-12.5,3.7-19.8h-2.1c-1.8,0-2.8-1-2.8-2.8s1-2.8,2.8-2.8h3.1l1.4-9.5c0.4-2.6,2-4,5.1-3.8c3,0.3,4.6,1.6,4.1,4.8
					c-0.4,2.8-0.8,5.7-1.2,8.5h6.2c3.6,0,5,1.8,4.8,5.7c-0.2,3.5-0.6,6.8-1.2,9.9c0.4-1.1,1.3-1.7,2.7-1.7h8.9V99
					c0-3.2,1.8-4.9,5.2-4.9c0.8,0,1.4,0.1,2.1,0.3c1.7-2.6,3-5.1,3.7-7c0.2-0.5,0-0.9-0.6-0.9h-17.7c-1.8,0-2.7-1-2.7-2.8
					s1-2.8,2.7-2.8h19c2.4-1.8,5.5-1.8,8.1,0c2.3,1.7,2.7,4.8,0.8,7.5c-2.5,3.6-6.5,7.6-10.2,10.5V99v6.2h9
					C342.1,105.2,343.1,106.3,343.1,108.2z M298.8,115.4c1.6-5.1,2.5-10.8,3.1-17.6c0.1-0.6-0.2-0.8-0.7-0.8h-2.5
					c-1,6.2-2.1,12.1-3.3,17.1C296.4,114.4,297.6,114.9,298.8,115.4z"/>
				<path class="st0" d="M322.1,144.6c-3.7,0-7.9-1-12.3-3c-2.6-1.2-4.3-3.3-4.8-5.8c-0.9-0.4-1.7-0.9-2.5-1.6
					c-3.2,3.6-7,6.6-11.3,9.1c-4,2.3-8.5,1.2-10.8-2.5c-2.1-3.5-1.3-7.7,2-10.5c1.2-1,2.4-2.1,3.4-3.2c-4.8-1.8-7-6.3-5.7-11.7
					c0.8-3.5,1.7-8,2.7-13.9c-2.5-1.3-4.1-4-4.1-7.3c0-4.3,2.6-7.4,6.6-8.1l0.7-4.9c0.8-5.7,5.2-9,11-8.5c3.2,0.3,5.7,1.5,7.3,3.5
					c0.7,0.8,1.4,2.1,1.7,3.8c1.3-2.8,4-4.5,7.4-4.5H331c4.1-2.1,8.9-1.8,12.8,1c4.8,3.5,5.8,10,2.1,15.1c-1.9,2.7-4.5,5.6-7.3,8.2
					h1.6c4.8,0,8.4,3.5,8.4,8.4s-3.5,8.4-8.4,8.4h-3.5v14c0,5-2.1,9.2-5.9,11.6C328.4,143.8,325.4,144.6,322.1,144.6z M308.5,127.3
					L308.5,127.3L308.5,127.3z M312.5,116.6c0.7,0.5,1.3,0.9,2,1.4c0.3,0.2,0.6,0.4,0.8,0.7v-2.1H312.5z M340.3,110.7L340.3,110.7
					L340.3,110.7z M325.5,108.2c0.2,0.4,0.4,0.8,0.6,1.2c0.1-0.4,0.3-0.8,0.6-1.2c-0.2-0.4-0.4-0.8-0.6-1.2
					C325.9,107.4,325.7,107.8,325.5,108.2z M296.4,97.2L296.4,97.2L296.4,97.2z M315.3,92c0.4,1,0.6,2.1,0.6,3.3
					c0.4-1.3,1.1-2.4,1.9-3.3H315.3z"/>
			</g>
			<g>
				<path class="st0" d="M411,135.1c0,1.6-1,2.6-2.6,2.6h-33c-1.6,0-2.6-1-2.6-2.6s1-2.6,2.6-2.6h7.2c-0.3-0.4-0.4-0.8-0.6-1.3
					c-0.5-1.6-1.1-2.9-1.7-4.4c-0.3-0.6-0.3-1.2-0.2-1.7c-2.3-0.2-3.6-1.7-3.6-4.2v-4.7v-0.5l-0.1,0.1c-1.7,1.4-3.6,1.4-5.1-0.7
					l-1.6-2.4v22.5c0,2.7-1.7,4.1-4.8,4.1c-3.1,0-4.8-1.4-4.8-4.1v-19c-1.4,1-2.8,2-4.2,2.7c-1.4,0.7-2.5,0.6-3.3-0.6
					c-0.8-1.1-0.6-2.3,0.5-3.3c5.9-5.3,10.3-12,12.6-18.4c0.2-0.7-0.2-1.1-0.8-1.1h-9.7c-1.6,0-2.5-1-2.5-2.7c0-1.6,0.9-2.5,2.5-2.5
					h3.8v-7.9c0-2.7,1.6-4.3,4.8-4.3c3.1,0,4.8,1.6,4.8,4.3v7.9h1.9c3.6,0,5.4,2.3,4.2,5.7c-1.1,3.3-2.7,6.5-4.7,9.6
					c1.9,1.1,3.6,2.3,5.2,3.6c-0.2-0.4-0.3-0.8-0.3-1.4c0-1.6,0.8-2.5,2.5-2.5h29.7c1.7,0,2.5,0.9,2.5,2.5s-0.8,2.5-2.5,2.5h-29.7
					c-0.5,0-0.8-0.1-1.2-0.2l0.6,0.6c0.7,0.7,1,1.4,1,2c0.7-0.5,1.6-0.8,2.8-0.8h23.1c2.7,0,4.2,1.5,4.2,4.2v4.7
					c0,2.5-1.3,4-3.7,4.2c1,1,1,2.6,0.4,3.7c-0.8,1.4-1.6,2.6-2.5,3.6h6.1C410,132.5,411,133.5,411,135.1z M375.7,99.5V88
					c0-2.7,1.5-4.2,4.2-4.2h2.8v-2.5c0-2.2,1.4-3.5,4.2-3.5s4.2,1.2,4.2,3.5v2.5h2v-2.5c0-2.2,1.4-3.5,4.2-3.5s4.2,1.2,4.2,3.5v2.5
					h2.8c2.7,0,4.2,1.5,4.2,4.2v11.5c0,2.7-1.5,4.2-4.2,4.2H380C377.2,103.7,375.7,102.2,375.7,99.5z M385.5,88.8h-1.7
					c-0.4,0-0.7,0.3-0.7,0.7v1.7h2.3v-2.4H385.5z M385.5,96h-2.3v2c0,0.4,0.3,0.7,0.7,0.7h1.7V96H385.5z M389.4,132.5h6.2
					c0.5-1.8,1.1-4,1.6-6.3c0.1-0.4,0.3-0.7,0.4-1H386c0.9,0.9,1.8,2,2.7,3.1C390.1,130,390.3,131.3,389.4,132.5z M386.2,119.6
					c0,0.4,0.3,0.7,0.7,0.7h11c0.4,0,0.7-0.3,0.7-0.7v-2c0-0.4-0.3-0.7-0.7-0.7h-11c-0.4,0-0.7,0.3-0.7,0.7V119.6z M393.1,88.8h-2
					v2.3h2V88.8z M393.1,96h-2v2.7h2V96z M401,89.5c0-0.4-0.3-0.7-0.7-0.7h-1.7v2.3h2.3v-1.6H401z M401,96h-2.3v2.7h1.7
					c0.4,0,0.7-0.3,0.7-0.7v-2H401z"/>
				<path class="st0" d="M365,144.8c-6.1,0-10.3-3.9-10.3-9.6v-10.4c-2.6,0.1-5-1.1-6.6-3.4c-2.3-3.3-1.8-7.5,1.3-10.4l0.1-0.1
					c3.2-2.9,6-6.3,8.1-9.9h-2.3c-4.7,0-8-3.4-8-8.2c0-4.1,2.6-7.2,6.3-7.9v-2.6c0-5.8,4.2-9.8,10.3-9.8c5.2,0,9.1,3,10,7.6
					c1.1-0.8,2.3-1.4,3.8-1.7c1.2-3.7,4.6-6.2,9.3-6.2c1.9,0,3.7,0.4,5.1,1.2c1.5-0.8,3.2-1.2,5.1-1.2c4.6,0,8.1,2.4,9.3,6.2
					c4.5,0.9,7.4,4.6,7.4,9.5v11.5c0,1.1-0.1,2.1-0.4,3.1c1.1,1.4,1.7,3.2,1.7,5.2c0,2.2-0.7,4.1-2,5.5c0.2,0.9,0.4,1.9,0.4,2.9v4.7
					c0,2.6-0.8,4.9-2.3,6.6c3.1,1.1,5.2,4,5.2,7.6c0,4.7-3.4,8.1-8.1,8.1h-33c-1.3,0-2.4-0.2-3.4-0.7
					C370.2,144,367.8,144.8,365,144.8z M408.4,138L408.4,138L408.4,138z M363.6,111.8c0.2,0.2,0.5,0.4,0.7,0.6
					c0-0.9,0.3-1.7,0.7-2.4C364.5,110.6,364.1,111.2,363.6,111.8z M365.7,108.9c0,0.1-0.1,0.1-0.1,0.2
					C365.6,109,365.7,109,365.7,108.9L365.7,108.9z M398.1,93.7c0.2,0.1,0.4,0.2,0.6,0.3v-0.5C398.5,93.5,398.3,93.6,398.1,93.7z
					 M385.5,93.5V94c0.2-0.1,0.4-0.2,0.6-0.3C385.9,93.6,385.7,93.5,385.5,93.5z"/>
			</g>
		</g>
		<g>
			<g>
				<path class="st1" d="M99.1,64.4c-1.9,3.4-5.2,4.1-8.5,2.4c-8.3-4.2-15-13.9-18-23.8c-4.4,13-14.3,22.3-28.1,25.7
					c-1.6,0.4-2.7-0.4-3.2-1.9c-0.5-1.4,0.1-2.8,1.6-3.6c11.9-5.9,18.2-13.6,20.5-25.9H45.5c-2,0-3.1-1.2-3.1-3.4s1.1-3.4,3.1-3.4
					h18.7c0.1-1.1,0.1-2.3,0.1-3.5c0.1-2.7,0.1-6.2,0.1-9.6H49.2c-2,0-3.1-1.2-3.1-3.3s1.1-3.3,3.1-3.3h42.6c2,0,3.1,1.2,3.1,3.3
					s-1.1,3.3-3.1,3.3H75.5c-0.1,3.6-0.3,7.9-0.5,12.2c0,0.3-0.1,0.6-0.1,0.9h20.4c2,0,3.1,1.2,3.1,3.4s-1.1,3.4-3.1,3.4H75.6
					c4,7.6,10.7,14.1,20.4,18.6C99.4,57.6,101,61,99.1,64.4z"/>
				<path class="st0" d="M43.7,74.4c-3.5,0-6.5-2.2-7.6-5.9c-1.3-4,0.4-8.1,4.3-10.1c8.2-4.1,13.1-8.8,15.8-15.5H45.5
					c-5.1,0-8.6-3.7-8.6-8.9s3.5-8.9,8.6-8.9h13.4c0-0.7,0-1.4,0-2.1h-9.7c-5,0-8.6-3.7-8.6-8.8s3.6-8.8,8.6-8.8h42.6
					c5,0,8.6,3.7,8.6,8.8S96.7,23,91.8,23H80.9c0,0.7-0.1,1.4-0.1,2.1h14.6c5.1,0,8.6,3.7,8.6,8.9s-3.5,8.9-8.6,8.9h-8.9
					c3.2,3.2,7.2,5.9,11.9,8.1c3.2,1.5,5.5,4,6.5,7.1c1,2.9,0.6,6.1-1,9l0,0c-3.2,5.8-9.8,7.7-15.8,4.6C82,68.7,76.4,63,72.3,56
					C66.2,65,57,71.4,45.8,74.1C45.1,74.3,44.4,74.4,43.7,74.4z M87,57.3c1.9,2,4,3.5,6,4.6c0.5,0.3,0.8,0.3,0.9,0.3
					c0,0,0.1-0.1,0.3-0.5l0,0c0.1-0.2,0.1-0.3,0.1-0.3s-0.2-0.2-0.7-0.4C91.4,59.9,89.1,58.7,87,57.3z M68,34.5
					c0.7,1.2,1,2.5,0.7,3.9c-0.1,0.3-0.1,0.6-0.2,0.9c0.4-0.5,1-0.9,1.6-1.2c-0.2-1.2,0.1-2.5,0.7-3.6c0-0.1,0.1-0.1,0.1-0.2
					c-0.7-0.8-1.3-1.8-1.4-2.9C69.4,32.6,68.8,33.7,68,34.5z M69.7,16.4c0.1,0.4,0.1,0.8,0.1,1.1c0,2.3,0,4.7,0,6.8
					c0.1-2.4,0.2-4.8,0.2-6.9c0-0.4,0-0.7,0.1-1H69.7z"/>
			</g>
			<g>
				<path class="st1" d="M167.5,64.4c-1.9,3.4-5.2,4.1-8.5,2.4c-8.3-4.2-15-13.9-18-23.8c-4.4,13-14.3,22.3-28.1,25.7
					c-1.6,0.4-2.7-0.4-3.2-1.9c-0.5-1.4,0.1-2.8,1.6-3.6c11.9-5.9,18.2-13.6,20.5-25.9h-17.9c-2,0-3.1-1.2-3.1-3.4s1.1-3.4,3.1-3.4
					h18.7c0.1-1.1,0.1-2.3,0.1-3.5c0.1-2.7,0.1-6.2,0.1-9.6h-15.2c-2,0-3.1-1.2-3.1-3.3s1.1-3.3,3.1-3.3h42.6c2,0,3.1,1.2,3.1,3.3
					s-1.1,3.3-3.1,3.3H144c-0.1,3.6-0.3,7.9-0.5,12.2c0,0.3-0.1,0.6-0.1,0.9h20.4c2,0,3.1,1.2,3.1,3.4s-1.1,3.4-3.1,3.4H144
					c4,7.6,10.7,14.1,20.4,18.6C167.8,57.6,169.4,61,167.5,64.4z"/>
				<path class="st0" d="M112.1,74.4c-3.5,0-6.5-2.2-7.6-5.9c-1.3-4,0.4-8.1,4.3-10.1c8.2-4.1,13.1-8.8,15.8-15.5h-10.7
					c-5.1,0-8.6-3.7-8.6-8.9s3.5-8.9,8.6-8.9h13.4c0-0.7,0-1.4,0-2.1h-9.7c-5,0-8.6-3.7-8.6-8.8s3.6-8.8,8.6-8.8h42.6
					c5,0,8.6,3.7,8.6,8.8s-3.6,8.8-8.6,8.8h-10.9c0,0.7-0.1,1.4-0.1,2.1h14.6c5.1,0,8.6,3.7,8.6,8.9s-3.5,8.9-8.6,8.9h-8.9
					c3.2,3.2,7.2,5.9,11.9,8.1c3.2,1.5,5.5,4,6.5,7.1c1,2.9,0.6,6.1-1,9c-3.2,5.8-9.8,7.7-15.8,4.6c-6.1-3.1-11.7-8.7-15.8-15.7
					c-6.1,9-15.4,15.4-26.5,18.1C113.5,74.3,112.7,74.4,112.1,74.4z M155.4,57.3c1.9,2,4,3.5,6,4.6c0.5,0.3,0.8,0.3,0.9,0.3
					c0,0,0.1-0.1,0.3-0.5c0.1-0.2,0.1-0.3,0.1-0.3s-0.2-0.2-0.7-0.4C159.8,59.9,157.5,58.7,155.4,57.3z M136.4,34.5
					c0.7,1.2,1,2.5,0.7,3.9c-0.1,0.3-0.1,0.6-0.2,0.9c0.4-0.5,1-0.9,1.6-1.2c-0.2-1.2,0.1-2.5,0.7-3.6c0-0.1,0.1-0.1,0.1-0.2
					c-0.7-0.8-1.3-1.8-1.4-2.9C137.8,32.6,137.2,33.7,136.4,34.5z M138.1,16.4c0.1,0.4,0.1,0.8,0.1,1.1c0,2.3,0,4.7,0,6.8
					c0.1-2.4,0.2-4.8,0.2-6.9c0-0.4,0-0.7,0.1-1H138.1z"/>
			</g>
			<g>
				<path class="st1" d="M234.1,60.8c-0.7,7.7-6.8,9.8-16.3,5.9c-1.4-0.6-1.8-1.6-1.6-2.9c0.3-1.4,1.2-1.9,2.9-1.7
					c5.1,0.6,5.9-0.2,6.2-3.5c0.2-1.7,0.3-3.6,0.4-5.7c-0.2,0.4-0.5,0.8-0.8,1.2c-1.7,1.8-4,1.4-5.4-0.8c-0.7-1.2-1.7-2.5-2.7-3.8
					c-1.5,2.1-3.3,4.1-5.3,5.6c-1.2,0.9-2.3,0.8-3.2-0.1l-0.1-0.1v1.2H221c1.8,0,2.7,0.9,2.7,2.6s-0.9,2.6-2.7,2.6h-12.8V63
					c0,2.5-1.4,3.5-3.9,3.5s-3.9-1-3.9-3.5V47.6c0-0.3,0-0.6,0.1-0.8c-0.9,0.1-1.6-0.2-2.1-1v10.5c0,2.4-1.4,3.5-3.8,3.5
					c-2.4,0-3.8-1-3.8-3.5v-1.6h-2.1v2.8c0,2.7-1.4,3.8-4.1,3.8c-2.7,0-4.1-1.1-4.1-3.8V16.8c0-2.7,1.5-4.2,4.2-4.2h9.4
					c2.7,0,4.2,1.5,4.2,4.2v26c0.1-0.3,0.3-0.5,0.6-0.7c3.3-3.3,5.5-6.4,7.6-10.7H205c-2.7,0-4.2-1.5-4.2-4.2V14.5
					c0-2.7,1.5-4.2,4.2-4.2h22.8c2.7,0,4.2,1.5,4.2,4.2v12.7c0,2.7-1.5,4.2-4.2,4.2h-12.2c-0.5,1-1.1,2-1.8,2.9h16.6
					c2.7,0,4.2,1.5,4.2,4.3C234.9,48.1,234.6,56.1,234.1,60.8z M190.7,49.4V18.7c0-0.5-0.3-0.8-0.8-0.8h-0.6c-0.5,0-0.8,0.3-0.8,0.8
					v30.7H190.7z M212.5,41.8c0.3-0.9,0.7-1.6,1-2h-3.9c-1.4,1.6-3,3-4.7,4.3c1.9,0.2,3.2,1.3,3.2,3.6v4
					C210.1,48.7,211.5,45.2,212.5,41.8z M209.6,18.1H223v-1.7c0-0.5-0.3-0.8-0.8-0.8h-11.9c-0.5,0-0.8,0.3-0.8,0.8v1.7H209.6z
					 M209.6,25.3c0,0.5,0.3,0.8,0.8,0.8h11.9c0.5,0,0.8-0.3,0.8-0.8v-2h-13.4v2H209.6z M225.8,50.2c0.1-3.1,0.1-6.3,0.1-9.7
					c0-0.5-0.3-0.8-0.8-0.8H219c1.4,0.8,1.8,2.2,0.7,4.5c-0.1,0.3-0.3,0.7-0.5,1c1.8,1,3.5,2.1,5.1,3.3
					C225.1,49,225.5,49.6,225.8,50.2z"/>
				<path class="st0" d="M226,74.1c-2.8,0-6.1-0.6-10.2-2.3c-1.7-0.7-3-1.8-3.8-3.1c-1.6,2.1-4.3,3.4-7.7,3.4
					c-4.9,0-8.3-2.6-9.2-6.9c-1.4,0.1-2.9-0.1-4.1-0.5c-1.6,1.4-3.9,2.1-6.5,2.1c-5.8,0-9.6-3.6-9.6-9.3V16.8c0-5.7,4-9.7,9.7-9.7
					h9.4c1.4,0,2.6,0.2,3.8,0.7c1.7-1.8,4.2-2.9,7.2-2.9h22.8c5.7,0,9.7,4,9.7,9.7v12.7c0,1.4-0.2,2.7-0.7,3.8
					c2,1.7,3.3,4.3,3.3,7.5c0.2,8.5-0.1,17-0.6,22.7c-0.6,6.2-3.7,9.4-6.2,10.9C231.7,73.2,229.3,74.1,226,74.1z"/>
			</g>
			<g>
				<path class="st1" d="M298.8,67.1c-4.8,0.3-8.1,0.3-11,0.1c-8.7-0.5-10.2-1.9-10.2-9.7V46h-3.9c-1.5,12.1-10,21.7-23.5,23.4
					c-1.6,0.2-2.5-0.4-2.9-1.7c-0.4-1.3,0.1-2.3,1.6-3c9.1-4,12.7-8.9,13.9-18.8h-5.1c-2.7,0-4.2-1.5-4.2-4.2V30.9
					c0-2.7,1.5-4.2,4.2-4.2h12.6v-4.9h-19.4c-1.9,0-2.9-1.2-2.9-3.3s1.1-3.3,2.9-3.3h19.4v-4.1c0-3.1,1.9-4.7,5.3-4.7
					c3.5,0,5.3,1.6,5.3,4.7v4.1h19.2c1.9,0,2.9,1.2,2.9,3.3s-1.1,3.3-2.9,3.3H281v4.9h12.6c2.7,0,4.2,1.5,4.2,4.2v10.8
					c0,2.7-1.5,4.2-4.2,4.2h-5.3v8.3c0,2.5,0.6,3.3,2.7,3.4c2.3,0.1,4.1,0.2,6.3-0.1c1.6-0.2,2.1-1.4,2.2-6.8
					c0.1-1.8,0.8-2.7,2.1-2.7c1.5,0,2.5,0.7,2.9,2.3C306.5,61.7,304.5,66.7,298.8,67.1z M264,40c0,0.5,0.3,0.8,0.8,0.8h21.7
					c0.5,0,0.8-0.3,0.8-0.8v-7.3c0-0.5-0.3-0.8-0.8-0.8h-21.7c-0.5,0-0.8,0.3-0.8,0.8V40z"/>
				<path class="st0" d="M249.7,75c-3.7,0-6.6-2.1-7.7-5.6c-1.2-3.9,0.6-7.7,4.5-9.5c0.1,0,0.1-0.1,0.2-0.1c5.1-2.2,7.8-4.5,9.3-8.3
					c-4.8-0.7-8-4.5-8-9.6v-11c0-1.4,0.2-2.8,0.7-3.9c-3.8-0.9-6.2-4.1-6.2-8.5c0-5.1,3.5-8.8,8.4-8.8h14c0.6-5.3,4.8-8.8,10.8-8.8
					s10.1,3.5,10.8,8.8h13.8c5,0,8.4,3.6,8.4,8.8c0,4.2-2.4,7.5-6.1,8.5c0.5,1.2,0.7,2.5,0.7,4v10.8c0,0.4,0,0.7-0.1,1.1
					c3.3,0.6,5.8,3,6.5,6.5c1.8,8.9,1.2,14.9-1.8,18.8c-1.4,1.8-4.1,4.1-8.7,4.4h-0.1c-5.4,0.3-8.7,0.3-11.7,0.1
					c-10.2-0.6-13.8-3.8-14.9-9.7c-5.1,6.4-12.6,10.8-21.6,11.9C250.5,74.9,250.1,75,249.7,75z M298.8,67.1L298.8,67.1L298.8,67.1z
					 M283.4,61.1c0.3,0.1,1,0.3,2.3,0.4c-1.1-0.8-2-2-2.5-3.8C283.1,59.8,283.3,60.7,283.4,61.1z M293.7,52.3h0.1c0-0.3,0-0.5,0-0.8
					c-0.1,0-0.1,0-0.2,0v0.8H293.7z M274.7,18.5c0.4,0.6,0.7,1.2,0.9,1.9c0.2-0.7,0.5-1.4,0.9-1.9c-0.4-0.6-0.7-1.2-0.9-1.9
					C275.4,17.3,275.1,17.9,274.7,18.5z M275.4,11L275.4,11L275.4,11z"/>
			</g>
			<g>
				<path class="st1" d="M372.5,46.4c0,1.6-1,2.6-2.6,2.6h-51.7c-1.6,0-2.6-1-2.6-2.6s1-2.6,2.6-2.6h5.1V39c0-2.7,1.5-4.2,4.2-4.2
					h33.1c2.7,0,4.2,1.5,4.2,4.2v4.9h5C371.5,43.8,372.5,44.8,372.5,46.4z M317,22.5v-5.3c0-2.7,1.5-4.2,4.2-4.2h17.4v-1.7
					c0-2.8,2-4.2,5.5-4.2s5.5,1.4,5.5,4.2V13h17.3c2.7,0,4.2,1.5,4.2,4.2V22c0,3-1.6,4.2-4.6,4.2H366c0.1,0.1,0.2,0.3,0.3,0.4
					c1.7,2,1.2,3.9-0.8,5.2s-4,0.8-5-1.6c-1-2.6-2.3-5-3.7-7.3c-0.6-1.1-0.4-2.1,0.4-2.7c0.8-0.7,1.8-0.6,2.7,0.2
					c0.7,0.5,1.3,1,2,1.6v-3c0-0.5-0.3-0.8-0.8-0.8H327c-0.5,0-0.8,0.3-0.8,0.8v3.6v0.7c0.5-0.7,0.9-1.3,1.3-2
					c0.7-1.2,1.7-1.2,2.7-0.8c1,0.5,1.2,1.4,0.8,2.8c-0.8,2.9-2.6,6.5-4.6,8.7c-1.6,1.9-3.8,1.6-5.1-0.1c-1.4-1.7-1.1-3.6,1-5
					c0.1-0.1,0.3-0.2,0.5-0.3c-0.3,0.1-0.7,0.1-1.1,0.1C318.6,26.6,317,25.4,317,22.5z M367.9,53.2c0,1.7-1,2.7-2.7,2.7h-15.4v4.7
					c0,8.3-7.9,10.5-17.8,5.9c-1.4-0.7-1.8-1.5-1.5-2.8s1.1-1.8,2.7-1.6c5.2,0.5,6.3,0.3,6.3-2.7V56h-16.7c-1.7,0-2.7-1-2.7-2.7
					s1-2.7,2.7-2.7h42.5C366.9,50.5,367.9,51.5,367.9,53.2z M340.1,22.7V25c0,1.7,1,2.1,6.6,2c4.6-0.1,5.2-0.3,5.2-2.1
					c0-1.6,0.8-2.4,2-2.3s2,0.7,2.3,2c1.8,7.4-0.3,9.1-9.1,9.1c-13.7,0-15.3-0.7-15.3-7.1v-3.9c0-2.2,1.4-3.5,4.1-3.5
					S340.1,20.5,340.1,22.7z M335.3,39.7h-2.4c-0.5,0-0.8,0.3-0.8,0.8v3.4h3.2L335.3,39.7L335.3,39.7z M341.6,22.3
					c-1-0.8-1.2-1.6-0.7-2.5s1.2-1.4,2.4-1c1.7,0.5,3.6,1.2,5.3,2c2,0.9,2.5,2.5,1.4,4.2c-1.2,1.8-2.9,2.2-4.5,0.7
					C344.2,24.4,342.7,23.2,341.6,22.3z M345.4,39.7h-2.9v4.2h2.9V39.7z M356,40.4c0-0.5-0.3-0.8-0.8-0.8h-2.5v4.2h3.3V40.4z"/>
				<path class="st0" d="M341.3,74.3c-3.5,0-7.5-1-11.7-2.9c-3.6-1.7-5.3-5-4.6-8.9c0.1-0.4,0.2-0.8,0.3-1.2h-2.7
					c-4.5,0-7.9-3.1-8.2-7.6c-2.8-1.2-4.6-4-4.6-7.4c0-4.6,3.2-7.9,7.7-8.1c0-0.7,0.1-1.3,0.3-1.9c-0.4-0.4-0.8-0.8-1.1-1.2
					c-1.3-1.6-2-3.4-2.1-5.3c-2.1-1.7-3.3-4.3-3.3-7.5V17c0-5.7,4-9.7,9.7-9.7h12.6c1.3-3.2,4.4-5.9,10.2-5.9
					c4.3,0,8.6,1.8,10.3,5.9h12.5c5.7,0,9.7,4,9.7,9.7v5c0,3.5-1.4,6.2-3.8,7.9c0,0.1,0,0.1,0,0.2c-0.3,2-1.3,3.8-2.9,5.3
					c0.3,0.9,0.5,1.9,0.6,3c4.5,0.2,7.6,3.6,7.6,8.1c0,3.4-1.8,6.1-4.6,7.4c-0.3,4.4-3.6,7.6-8.2,7.6h-10c-0.2,4.7-2.3,8.5-5.8,10.8
					C347.1,73.6,344.4,74.3,341.3,74.3z M365.2,56L365.2,56L365.2,56z"/>
			</g>
			<g>
				<path class="st2" d="M25.3,102.1v30.3c0,3.3-1.8,4.8-5,4.8s-5.1-1.5-5.1-4.8v-19.5c-1.4,1.1-3,2.1-4.6,2.9
					c-1.3,0.7-2.5,0.8-3.2-0.3c-0.8-1.2-0.6-2.1,0.6-3.1c7-6.3,11.4-14.9,14.1-22.4H11.3c-1.8,0-2.9-1-2.9-2.9c0-1.8,1-2.9,2.9-2.9
					H24c0.5-2,1-3.8,1.3-5.5c0.7-3.3,3-3.9,5.8-3.5c3.2,0.5,4.3,2.3,3.7,5.1c-0.3,1.2-0.6,2.5-0.9,3.8h27.5c1.8,0,2.9,1,2.9,2.9
					c0,1.8-1,2.9-2.9,2.9H31.8C30.2,94.1,28,98.3,25.3,102.1z M65.6,114.7c0,1.8-1,2.8-2.8,2.8H51.1v11c0,8.4-8.2,10.7-18.8,5.4
					c-1.3-0.7-1.9-1.6-1.6-2.9c0.3-1.2,1.2-1.8,2.9-1.7c6.2,0.6,7.3,0.3,7.3-2.5v-9.2H29.2c-1.8,0-2.8-1-2.8-2.8s1-2.8,2.8-2.8h11.6
					v-2.7c0-3.1,1.8-4.6,5.1-4.6c0.6,0,1.1,0.1,1.6,0.1c1.2-1.5,2.2-3,2.8-4.1c0.3-0.5,0-0.9-0.6-0.9h-16c-1.7,0-2.7-1-2.7-2.7
					s1-2.6,2.7-2.6h21c5.1,0,7.4,4.6,3.3,8.6c-2.1,2.1-4.5,4-7,5.7v0.5v2.7h11.7C64.6,111.9,65.6,112.9,65.6,114.7z"/>
				<path class="st0" d="M20.3,142.6c-6.4,0-10.6-4-10.6-10.3v-10.5c-3,0.3-5.4-1.1-6.8-3.1c-2.4-3.5-1.8-7.5,1.5-10.4
					c4.1-3.7,7.1-8.4,9.4-12.9h-2.5c-4.8,0-8.4-3.5-8.4-8.4c0-4.8,3.5-8.4,8.4-8.4h8.3c0.1-0.4,0.2-0.7,0.2-1
					c1.1-5.7,5.9-8.8,12.1-7.8c3.9,0.6,5.9,2.5,6.9,4c0.7,1.1,1.5,2.6,1.5,4.8h20.9c4.8,0,8.4,3.5,8.4,8.4c0,3.6-2,6.5-5,7.7
					c0.1,0.1,0.1,0.3,0.2,0.5c1.5,3.6,0.5,7.9-2.5,11.1h0.3c4.9,0,8.3,3.4,8.3,8.3s-3.4,8.3-8.3,8.3h-6.2v5.5c0,5.1-2.1,9.2-6,11.6
					c-5.2,3.2-12.6,2.8-20.8-1.3c-0.2-0.1-0.5-0.2-0.7-0.4C27.3,141.1,24.2,142.6,20.3,142.6z M20.8,132.6L20.8,132.6L20.8,132.6z
					 M30.8,123v1c0.9-0.2,1.9-0.3,3.1-0.2c0.5,0,1,0.1,1.4,0.1V123H30.8z M62.8,117.4L62.8,117.4L62.8,117.4z M45.5,114.7
					c0.2,0.3,0.3,0.6,0.4,0.9c0.1-0.3,0.3-0.6,0.4-0.9c-0.2-0.3-0.3-0.6-0.4-0.9C45.8,114.1,45.7,114.4,45.5,114.7z M45.3,110.2
					L45.3,110.2L45.3,110.2z M18.7,108.6c0.4,0.4,0.8,0.8,1.1,1.2V107C19.5,107.5,19.1,108.1,18.7,108.6z M30.8,106.4h4.8
					c0.1-0.4,0.2-0.8,0.4-1.2h-2.2c-1,0-2-0.2-2.9-0.5v1.7H30.8z M29.4,79.1L29.4,79.1z"/>
			</g>
			<g>
				<path class="st2" d="M134,130c0.1,3.3-1.2,4.8-4.8,5c-3.5,0.2-6.2,0.1-8.3,0.1c-9.7-0.2-16.9-2.1-21.9-6.2
					c-1.5,2.3-3.3,4.4-5.4,6.2c-1.2,1-2.7,1.2-3.6,0.1c-0.9-1-0.7-2.1,0.3-3.3c1.7-2.5,3.2-5,4.4-7.8c-2.4-3.5-4-8-5-13.5
					c-0.3-1.6,0.3-2.7,1.6-3c1.4-0.4,2.3,0.3,2.9,1.9c0.9,2.7,1.9,5,3.1,7c0.8-3.7,1.4-7.8,1.6-12.6c0-0.5-0.3-0.8-0.8-0.8h-0.6
					l-0.1,0.3c-1,2.5-2.5,3.1-4.8,2.5c-2.1-0.5-2.9-2-2-4.6c1.7-4.6,3.2-9.8,4.7-14.3c0.2-0.6-0.2-1.2-0.8-1.2h-1.6
					c-1.2,0-1.9-0.5-2.1-1.3c-0.5,2.6-1.1,5.1-1.8,7.5v41c0,2.5-1.7,3.8-4.6,3.8s-4.6-1.4-4.6-3.8v-24.2c-0.3,0.4-0.7,0.7-1,1
					c-1.3,1.3-2.7,1.4-3.6,0.5c-1-1-0.8-2.2-0.1-3.5c3.9-7,5.9-16.1,7.3-27.9c0.4-3.3,2.6-4.2,5.5-3.9c2.9,0.3,4,2,3.6,5.1
					c0,0.3-0.1,0.5-0.1,0.7c0.4-0.4,1-0.6,1.8-0.6h6.4c3.3,0,4.8,2,3.8,5.1c-0.8,3-2.2,7.4-3.8,11.9h1.8c3,0,4.8,1.7,4.6,4.8
					c-0.5,7.8-1.6,14.5-3.6,20c2.9,2.1,6.5,3.3,11.3,3.8c-0.7-0.6-1.1-1.5-1.1-2.6v-4.6h-5.9c-1.5,0-2.3-0.8-2.3-2.3
					s0.8-2.3,2.3-2.3h5.9v-3.1h-4c-1.5,0-2.3-0.8-2.3-2.3s0.8-2.3,2.3-2.3h4v-3H109c-1.5,0-2.3-0.8-2.3-2.3s0.8-2.3,2.3-2.3h3.6
					v-3.8h-7.3c-1.5,0-2.3-0.8-2.3-2.3c0-1.6,0.8-2.4,2.3-2.4h7.3v-3.5h-5c-1.5,0-2.3-0.8-2.3-2.3s0.8-2.3,2.3-2.3h4.8v-2.5
					c0-2.3,1.6-3.6,4.5-3.6s4.4,1.3,4.4,3.6v2.5h5c2.7,0,4.2,1.5,4.2,4.2v3.8h1.6c1.5,0,2.4,0.9,2.4,2.5s-0.9,2.5-2.4,2.5h-1.6V99
					c0,2.7-1.5,4.2-4.2,4.2h-5v3h6.9c1.5,0,2.3,0.8,2.3,2.3s-0.8,2.3-2.3,2.3h-6.9v3.1h8.7c1.5,0,2.3,0.8,2.3,2.3s-0.8,2.3-2.3,2.3
					h-8.7v4.6c0,1.3-0.5,2.3-1.5,2.9c3.3,0,6.4-0.1,9.1-0.4C132.1,125.6,134,127.1,134,130z M121.1,90h2.4v-2.7
					c0-0.5-0.3-0.8-0.8-0.8h-1.6V90z M121.1,98.6h1.6c0.5,0,0.8-0.3,0.8-0.8v-3.1h-2.4V98.6z"/>
				<path class="st0" d="M84.3,142.3c-6,0-10.1-3.8-10.1-9.3v-16.9c-1.1-0.4-2.1-1-2.9-1.8c-2.7-2.7-3.1-6.5-1-10.1
					c3.1-5.5,5.1-13.2,6.6-25.8c0.7-6,5.2-9.4,11.6-8.7c3.6,0.4,5.6,2.1,6.7,3.4c0.4,0.5,0.8,1.1,1.1,1.7h3.4c2.6,0,4.5,0.7,5.8,1.6
					c0.6-0.1,1.2-0.2,1.8-0.2c1.2-3.8,4.8-6.2,9.5-6.2c5.3,0,8.3,2.8,9.4,6.2c5.4,0,9.3,3.7,9.7,9c2.4,1.3,4,3.9,4,7s-1.5,5.7-4,7
					c0,1.8-0.5,3.5-1.3,4.9c0.8,1.2,1.3,2.8,1.3,4.5c0,0.8-0.1,1.6-0.3,2.3c1.3,1.4,2.1,3.3,2.1,5.5c0,2.3-0.8,4.2-2.2,5.6
					c0.4,0.3,0.7,0.5,1,0.8c1.3,1.2,3,3.4,3,7.1l0,0c0.1,6.3-3.6,10.3-9.9,10.6c-3.6,0.2-6.4,0.1-8.8,0.1
					c-8.5-0.2-15.2-1.6-20.5-4.3c-1,1.1-2,2.1-3.1,3c-2.3,1.9-5.1,2.6-7.6,1.9C88.1,141.9,86.3,142.3,84.3,142.3z M82.4,104.1
					c0.4,0.2,0.7,0.5,1,0.7v-3.6C83.1,102.2,82.8,103.2,82.4,104.1z"/>
			</g>
			<g>
				<path class="st2" d="M202,130.4c-1.6,3.1-4.4,3.5-7.9,1.5c-5-2.9-9.3-6.7-12.5-11.2v7.3c0,8.7-7.4,11.6-17.3,6.6
					c-1.3-0.7-1.8-1.7-1.4-3.1c0.3-1.2,1.3-1.8,2.9-1.7c4.6,0.4,5.9-0.5,5.9-3.6v-1.8c-2.9,2.2-6.9,4.9-11.6,6.7
					c-2.7,1-4.9,0.1-5.9-2.8c-1-2.8,0.2-5,3.3-5.6c1.9-0.4,4.1-1,6.4-1.6c-0.5-0.2-1-0.6-1.6-1c-1.7-1.6-3.1-3.2-4.2-4.4
					c-1.1-1.1-1.2-2.3-0.5-3.4s1.8-1.3,3.2-0.8c1.9,0.7,4,1.3,6.1,2.5c2.3,1.4,2.8,3.7,1.2,5.6l-0.1,0.1c1.3-0.5,2.5-0.9,3.7-1.4
					v-7.5h-9.8c-1.6,0-2.5-0.9-2.5-2.5s0.9-2.5,2.5-2.5h9.8v-2.5h-11.8c-1.7,0-2.6-0.9-2.6-2.6s0.9-2.6,2.6-2.6h11.8v-2.7h-9.3
					c-1.6,0-2.5-0.9-2.5-2.5s0.9-2.5,2.5-2.5h9.3v-2c0-0.4,0-0.7,0.1-1h-14.1c-0.5,0-0.8,0.3-0.8,0.8v12.6c0,13.9-2.6,27.5-8.3,34.3
					c-1.1,1.3-2.9,1.6-4.2,0.7c-1.2-0.8-1.2-2.1-0.6-3.5c2.7-6.6,3.3-13,3.3-33.3V86.1c0-2.7,1.5-4.2,4.2-4.2h19v-2.4
					c0-3,1.9-4.6,5.5-4.6c3.5,0,5.5,1.6,5.5,4.6v2.4h18.4c1.8,0,2.7,1,2.7,2.7c0,1.8-1,2.7-2.7,2.7h-18.1c0.1,0.3,0.1,0.7,0.1,1v2
					h9.9c3,0,4.5,1.4,4.5,4.4v3.4h2.5c1.7,0,2.6,0.9,2.6,2.6s-0.9,2.6-2.6,2.6H196v3.3c0,2.7-1.5,4.2-4.2,4.2h-10.2v1
					c1.8,2,3.7,3.7,6.1,5.3c1.2-1.2,2.7-2.8,4-4.2c2.3-2.3,4.3-2.7,6.4-0.5c2.1,2.2,1.7,4.4-0.7,6.1c-1.2,0.9-2.5,1.6-3.9,2.1
					c1.6,0.8,3.4,1.7,5.3,2.4C202.5,124.7,203.5,127.5,202,130.4z M181.6,98.1h4.9v-1.9c0-0.5-0.3-0.8-0.8-0.8h-4.1L181.6,98.1
					L181.6,98.1z M181.6,106h4.1c0.5,0,0.8-0.3,0.8-0.8v-2h-4.9L181.6,106L181.6,106z"/>
				<path class="st0" d="M173.1,142.6c-3.5,0-7.3-1-11.3-3c-1.3-0.6-2.3-1.5-3.1-2.6c-1.8,0.1-3.2-0.2-4.3-0.7
					c-0.5,0.8-1.1,1.6-1.7,2.3c-3,3.5-7.9,4.2-11.5,1.7c-2.6-1.7-4.6-5.3-2.6-10.1c2.3-5.8,2.8-11.6,2.8-31.2V86.1
					c0-5.7,4-9.7,9.7-9.7H165c1.2-4.3,5.1-7,10.6-7c4.6,0,9.2,2.2,10.6,7h13.3c4.8,0,8.2,3.5,8.2,8.2c0,4.2-2.7,7.4-6.5,8.1
					c0,0.1,0,0.2,0.1,0.4c3.2,1.1,5.3,4,5.3,7.6s-2,6.4-5.1,7.6c0.2,0.2,0.3,0.3,0.5,0.5c2.7,2.8,3,5.6,2.8,7.5
					c-0.1,1-0.4,2.2-1.1,3.4c2.1,1.5,3.2,3.3,3.8,4.7c1,2.7,0.8,5.7-0.6,8.5c-1.7,3.4-4.3,4.8-6.1,5.4c-2,0.6-5.3,0.8-9.5-1.6
					c-1.8-1-3.5-2.2-5-3.4c-1,3.1-2.8,5.6-5.5,7.2C178.6,141.9,176,142.6,173.1,142.6z M177.2,115.2v2.2c0.3-0.4,0.6-0.7,1-1
					c-0.2-0.3-0.5-0.5-0.7-0.8C177.4,115.5,177.3,115.3,177.2,115.2z M176.6,108.3c0,0,0,0.1,0.1,0.1l0,0
					C176.6,108.4,176.6,108.4,176.6,108.3L176.6,108.3z M176.5,100.7c0,0.1,0.1,0.1,0.1,0.2c0-0.1,0.1-0.1,0.1-0.2s-0.1-0.1-0.1-0.2
					C176.6,100.6,176.6,100.6,176.5,100.7z M176.6,92.9c0,0,0,0.1,0.1,0.1c0,0,0-0.1,0.1-0.1c0,0,0-0.1-0.1-0.1
					S176.6,92.8,176.6,92.9z M175.5,83.4c0.2,0.2,0.3,0.3,0.5,0.5l0.1,0.1c-0.2-0.5-0.3-1-0.4-1.6C175.7,82.8,175.6,83.1,175.5,83.4
					z"/>
			</g>
			<g>
				<path class="st2" d="M234.2,103.6c0.6,1.2,0,2.3-1.3,3.3s-2.6,2-3.9,2.9v19.8c0,7.2-6.8,9.2-15,5.3c-1.4-0.7-2-1.6-1.8-2.8
					s1.2-1.8,2.9-1.7c3.3,0.3,4.1-0.5,4.1-2.8v-13c-0.6,0.3-1.1,0.4-1.7,0.6c-2.9,0.9-4.8-0.2-5.5-3c-0.7-2.7,0.3-4.8,3.5-5.3
					c1.2-0.2,2.5-0.5,3.8-0.8V94.3h-4.5c-1.7,0-2.7-1-2.7-2.7s1-2.7,2.7-2.7h4.5v-8.7c0-3.3,1.5-4.8,4.9-4.8s4.9,1.5,4.9,4.8v8.7
					h2.5c1.7,0,2.8,0.9,2.8,2.7c0,1.8-1.1,2.8-2.8,2.8H229v9l2.1-0.8C232.5,102,233.6,102.3,234.2,103.6z M269,94.1v38
					c0,3.1-1.8,4.5-4.9,4.5s-4.9-1.4-4.9-4.5V131H245v1.4c0,3.1-1.8,4.5-4.9,4.5s-4.9-1.4-4.9-4.5V94.1c0-2.7,1.5-4.4,4.2-4.4h7.4
					v-9.8c0-3.3,1.8-4.7,5.2-4.7s5.2,1.4,5.2,4.7v9.8h7.4C267.5,89.7,269,91.2,269,94.1z M247.9,95.2h-2c-0.5,0-0.8,0.3-0.8,0.8v11
					h2.8V95.2z M247.9,112.4h-2.8v13.2h2.8V112.4z M259.3,95.9c0-0.5-0.3-0.8-0.8-0.8h-2V107h2.8V95.9z M259.3,112.4h-2.8v13.2h2.8
					V112.4z"/>
				<path class="st0" d="M240.2,142.3c-3.9,0-7-1.5-8.7-4.1c-0.7,0.8-1.5,1.5-2.5,2.1c-4.4,2.8-10.8,2.7-17.3-0.5
					c-3.6-1.7-5.4-5-4.8-8.6c0.6-3.5,3.3-5.9,6.9-6.3v-4.1c-1-0.2-1.8-0.6-2.5-0.9c-1.6-0.9-3.6-2.7-4.6-6.3c-1-3.7,0-6.3,1-7.9
					c0.9-1.4,2.7-3.3,6-4v-1.9c-4.2-0.5-7.2-3.8-7.2-8.2s3-7.7,7.2-8.2v-3.2c0-6.4,4-10.3,10.4-10.3s10.4,4,10.4,10.3v3.6
					c0.6,0.2,1.2,0.5,1.8,0.9c1-0.3,2.1-0.5,3.3-0.5h1.9v-4.3c0-6.2,4.2-10.2,10.7-10.2c6.5,0,10.7,4,10.7,10.2v4.3h1.9
					c5.8,0,9.7,4,9.7,9.9v38c0,6.1-4.1,10-10.4,10c-4.6,0-8-2.1-9.5-5.6h-4.8C248.4,140.1,244.9,142.3,240.2,142.3z M239.6,132.6
					L239.6,132.6L239.6,132.6z M263.5,132.3L263.5,132.3L263.5,132.3z M264.8,132.3L264.8,132.3L264.8,132.3z M222.7,110.4
					c0.3,0.2,0.5,0.5,0.8,0.8v-1.4v-0.1C223.3,109.9,223,110.2,222.7,110.4z M224,91.6c0,0.1,0.1,0.1,0.1,0.2c0-0.1,0.1-0.1,0.1-0.2
					s-0.1-0.1-0.1-0.2C224.1,91.4,224,91.5,224,91.6z M252.1,91.6C252.1,91.7,252.1,91.7,252.1,91.6c0.1,0.1,0.1,0,0.1,0
					c0-0.1,0-0.1-0.1-0.2C252.1,91.5,252.1,91.6,252.1,91.6z M223.4,79.7L223.4,79.7z M251.9,79.6L251.9,79.6L251.9,79.6L251.9,79.6
					z"/>
			</g>
			<g>
				<path class="st2" d="M339,105.7c0,1.9-1,2.9-2.9,2.9h-9v19.5c0,8.4-8.3,10.9-19.2,6c-1.4-0.7-1.9-1.6-1.6-3.1
					c0.3-1.4,1.4-2,3.1-1.7c6,0.7,7.3-0.1,7.3-3.7v-17h-8.9c-1.8,0-2.9-1-2.9-2.9v-0.3c-0.8,4-1.9,7.7-3.3,11c2,1.1,3.8,2.3,5.5,3.6
					c2.8,2.1,3.3,4.6,1.2,7c-2.1,2.4-5,2.4-7.2-0.2c-1-1.2-2.1-2.3-3.1-3.4c-3.5,5.3-8.1,9.6-13.6,12.8c-1.4,0.8-2.6,0.6-3.3-0.6
					c-0.7-1.2-0.3-2.4,0.8-3.4c4.6-3.8,8.1-8.3,10.5-13.7c-0.8-0.7-1.6-1.3-2.5-2c-0.8,2.7-2.9,4-5.6,3.3s-3.6-2.6-2.9-5.5
					c1.3-5.5,2.5-12.5,3.7-19.8H283c-1.8,0-2.8-1-2.8-2.8s1-2.8,2.8-2.8h3.1l1.4-9.5c0.4-2.6,2-4,5.1-3.8c3,0.3,4.6,1.6,4.1,4.8
					c-0.4,2.8-0.8,5.7-1.2,8.5h6.2c3.6,0,5,1.8,4.8,5.7c-0.2,3.5-0.6,6.8-1.2,9.9c0.4-1.1,1.3-1.7,2.7-1.7h8.9v-6.2
					c0-3.2,1.8-4.9,5.2-4.9c0.8,0,1.4,0.1,2.1,0.3c1.7-2.6,3-5.1,3.7-7c0.2-0.5,0-0.9-0.6-0.9h-17.7c-1.8,0-2.7-1-2.7-2.8
					s1-2.8,2.7-2.8h19c2.4-1.8,5.5-1.8,8.1,0c2.3,1.7,2.7,4.8,0.8,7.5c-2.5,3.6-6.5,7.6-10.2,10.5v0.2v6.2h9
					C338,102.8,339,103.8,339,105.7z M294.7,112.9c1.6-5.1,2.5-10.8,3.1-17.6c0.1-0.6-0.2-0.8-0.7-0.8h-2.5
					c-1,6.2-2.1,12.1-3.3,17.1C292.4,112,293.5,112.4,294.7,112.9z"/>
				<path class="st0" d="M318.1,142.1c-3.7,0-7.9-1-12.3-3c-2.6-1.2-4.3-3.3-4.8-5.8c-0.9-0.4-1.7-0.9-2.5-1.6
					c-3.2,3.6-7,6.6-11.3,9.1c-4,2.3-8.5,1.2-10.8-2.5c-2.1-3.5-1.3-7.7,2-10.5c1.2-1,2.4-2.1,3.4-3.2c-4.8-1.8-7-6.3-5.7-11.7
					c0.8-3.5,1.7-8,2.7-13.9c-2.5-1.3-4.1-4-4.1-7.3c0-4.3,2.6-7.4,6.6-8.1l0.7-4.9c0.8-5.7,5.2-9,11-8.5c3.2,0.3,5.7,1.5,7.3,3.5
					c0.7,0.8,1.4,2.1,1.7,3.8c1.3-2.8,4-4.5,7.4-4.5h17.4c4.1-2.1,8.9-1.8,12.8,1c4.8,3.5,5.8,10,2.1,15.1c-1.9,2.7-4.5,5.6-7.3,8.2
					h1.6c4.8,0,8.4,3.5,8.4,8.4s-3.5,8.4-8.4,8.4h-3.5v14c0,5-2.1,9.2-5.9,11.6C324.3,141.3,321.4,142.1,318.1,142.1z M304.4,124.8
					L304.4,124.8L304.4,124.8z M308.5,114.1c0.7,0.5,1.3,0.9,2,1.4c0.3,0.2,0.6,0.4,0.8,0.7v-2.1H308.5z M336.2,108.3L336.2,108.3
					L336.2,108.3z M321.4,105.7c0.2,0.4,0.4,0.8,0.6,1.2c0.1-0.4,0.3-0.8,0.6-1.2c-0.2-0.4-0.4-0.8-0.6-1.2
					C321.8,105,321.7,105.4,321.4,105.7z M292.3,94.8L292.3,94.8L292.3,94.8z M311.2,89.5c0.4,1,0.6,2.1,0.6,3.3
					c0.4-1.3,1.1-2.4,1.9-3.3H311.2z"/>
			</g>
			<g>
				<path class="st2" d="M406.9,132.7c0,1.6-1,2.6-2.6,2.6h-33c-1.6,0-2.6-1-2.6-2.6s1-2.6,2.6-2.6h7.2c-0.3-0.4-0.4-0.8-0.6-1.3
					c-0.5-1.6-1.1-2.9-1.7-4.4c-0.3-0.6-0.3-1.2-0.2-1.7c-2.3-0.2-3.6-1.7-3.6-4.2v-4.7v-0.5l-0.1,0.1c-1.7,1.4-3.6,1.4-5.1-0.7
					l-1.6-2.4v22.5c0,2.7-1.7,4.1-4.8,4.1c-3.1,0-4.8-1.4-4.8-4.1v-19c-1.4,1-2.8,2-4.2,2.7c-1.4,0.7-2.5,0.6-3.3-0.6
					c-0.8-1.1-0.6-2.3,0.5-3.3c5.9-5.3,10.3-12,12.6-18.4c0.2-0.7-0.2-1.1-0.8-1.1h-9.7c-1.6,0-2.5-1-2.5-2.7c0-1.6,0.9-2.5,2.5-2.5
					h3.8V80c0-2.7,1.6-4.3,4.8-4.3c3.1,0,4.8,1.6,4.8,4.3v7.9h1.9c3.6,0,5.4,2.3,4.2,5.7c-1.1,3.3-2.7,6.5-4.7,9.6
					c1.9,1.1,3.6,2.3,5.2,3.6c-0.2-0.4-0.3-0.8-0.3-1.4c0-1.6,0.8-2.5,2.5-2.5H403c1.7,0,2.5,0.9,2.5,2.5s-0.8,2.5-2.5,2.5h-29.7
					c-0.5,0-0.8-0.1-1.2-0.2l0.6,0.6c0.7,0.7,1,1.4,1,2c0.7-0.5,1.6-0.8,2.8-0.8h23.1c2.7,0,4.2,1.5,4.2,4.2v4.7
					c0,2.5-1.3,4-3.7,4.2c1,1,1,2.6,0.4,3.7c-0.8,1.4-1.6,2.6-2.5,3.6h6.1C405.9,130.1,406.9,131,406.9,132.7z M371.7,97.1V85.5
					c0-2.7,1.5-4.2,4.2-4.2h2.8v-2.5c0-2.2,1.4-3.5,4.2-3.5s4.2,1.2,4.2,3.5v2.5h2v-2.5c0-2.2,1.4-3.5,4.2-3.5s4.2,1.2,4.2,3.5v2.5
					h2.8c2.7,0,4.2,1.5,4.2,4.2V97c0,2.7-1.5,4.2-4.2,4.2h-24.2C373.2,101.3,371.7,99.8,371.7,97.1z M381.4,86.4h-1.7
					c-0.4,0-0.7,0.3-0.7,0.7v1.7h2.3v-2.4H381.4z M381.4,93.5h-2.3v2c0,0.4,0.3,0.7,0.7,0.7h1.7v-2.7H381.4z M385.4,130.1h6.2
					c0.5-1.8,1.1-4,1.6-6.3c0.1-0.4,0.3-0.7,0.4-1H382c0.9,0.9,1.8,2,2.7,3.1C386,127.5,386.3,128.9,385.4,130.1z M382.1,117.1
					c0,0.4,0.3,0.7,0.7,0.7h11c0.4,0,0.7-0.3,0.7-0.7v-2c0-0.4-0.3-0.7-0.7-0.7h-11c-0.4,0-0.7,0.3-0.7,0.7V117.1z M389,86.4h-2v2.3
					h2V86.4z M389,93.5h-2v2.7h2V93.5z M396.9,87c0-0.4-0.3-0.7-0.7-0.7h-1.7v2.3h2.3V87H396.9z M396.9,93.5h-2.3v2.7h1.7
					c0.4,0,0.7-0.3,0.7-0.7v-2H396.9z"/>
				<path class="st0" d="M360.9,142.3c-6.1,0-10.3-3.9-10.3-9.6v-10.4c-2.6,0.1-5-1.1-6.6-3.4c-2.3-3.3-1.8-7.5,1.3-10.4l0.1-0.1
					c3.2-2.9,6-6.3,8.1-9.9h-2.3c-4.7,0-8-3.4-8-8.2c0-4.1,2.6-7.2,6.3-7.9v-2.6c0-5.8,4.2-9.8,10.3-9.8c5.2,0,9.1,3,10,7.6
					c1.1-0.8,2.3-1.4,3.8-1.7c1.2-3.7,4.6-6.2,9.3-6.2c1.9,0,3.7,0.4,5.1,1.2c1.5-0.8,3.2-1.2,5.1-1.2c4.6,0,8.1,2.4,9.3,6.2
					c4.5,0.9,7.4,4.6,7.4,9.5v11.5c0,1.1-0.1,2.1-0.4,3.1c1.1,1.4,1.7,3.2,1.7,5.2c0,2.2-0.7,4.1-2,5.5c0.2,0.9,0.4,1.9,0.4,2.9v4.7
					c0,2.6-0.8,4.9-2.3,6.6c3.1,1.1,5.2,4,5.2,7.6c0,4.7-3.4,8.1-8.1,8.1h-33c-1.3,0-2.4-0.2-3.4-0.7
					C366.1,141.5,363.7,142.3,360.9,142.3z M404.3,135.6L404.3,135.6L404.3,135.6z M359.5,109.4c0.2,0.2,0.5,0.4,0.7,0.6
					c0-0.9,0.3-1.7,0.7-2.4C360.4,108.2,360,108.8,359.5,109.4z M361.6,106.5c0,0.1-0.1,0.1-0.1,0.2
					C361.5,106.6,361.6,106.5,361.6,106.5L361.6,106.5z M394,91.3c0.2,0.1,0.4,0.2,0.6,0.3V91C394.4,91.1,394.2,91.2,394,91.3z
					 M381.4,91v0.5c0.2-0.1,0.4-0.2,0.6-0.3C381.8,91.2,381.6,91.1,381.4,91z"/>
			</g>
		</g>
		<g>
			<g>
				<path class="st1" d="M98.1,63.4c-1.9,3.4-5.2,4.1-8.5,2.4c-8.3-4.2-15-13.9-18-23.8c-4.4,13-14.3,22.3-28.1,25.7
					c-1.6,0.4-2.7-0.4-3.2-1.9c-0.5-1.4,0.1-2.8,1.6-3.6c11.9-5.9,18.2-13.6,20.5-25.9H44.5c-2,0-3.1-1.2-3.1-3.4s1.1-3.4,3.1-3.4
					h18.7c0.1-1.1,0.1-2.3,0.1-3.5c0.1-2.7,0.1-6.2,0.1-9.6H48.2c-2,0-3.1-1.2-3.1-3.3s1.1-3.3,3.1-3.3h42.6c2,0,3.1,1.2,3.1,3.3
					s-1.1,3.3-3.1,3.3H74.5c-0.1,3.6-0.3,7.9-0.5,12.2c0,0.3-0.1,0.6-0.1,0.9h20.4c2,0,3.1,1.2,3.1,3.4s-1.1,3.4-3.1,3.4H74.6
					c4,7.6,10.7,14.1,20.4,18.6C98.4,56.6,100,60,98.1,63.4z"/>
			</g>
			<g>
				<path class="st1" d="M166.5,63.4c-1.9,3.4-5.2,4.1-8.5,2.4c-8.3-4.2-15-13.9-18-23.8c-4.4,13-14.3,22.3-28.1,25.7
					c-1.6,0.4-2.7-0.4-3.2-1.9c-0.5-1.4,0.1-2.8,1.6-3.6c11.9-5.9,18.2-13.6,20.5-25.9h-17.9c-2,0-3.1-1.2-3.1-3.4s1.1-3.4,3.1-3.4
					h18.7c0.1-1.1,0.1-2.3,0.1-3.5c0.1-2.7,0.1-6.2,0.1-9.6h-15.2c-2,0-3.1-1.2-3.1-3.3s1.1-3.3,3.1-3.3h42.6c2,0,3.1,1.2,3.1,3.3
					s-1.1,3.3-3.1,3.3H143c-0.1,3.6-0.3,7.9-0.5,12.2c0,0.3-0.1,0.6-0.1,0.9h20.4c2,0,3.1,1.2,3.1,3.4s-1.1,3.4-3.1,3.4H143
					c4,7.6,10.7,14.1,20.4,18.6C166.8,56.6,168.4,60,166.5,63.4z"/>
			</g>
			<g>
				<path class="st1" d="M233.1,59.8c-0.7,7.7-6.8,9.8-16.3,5.9c-1.4-0.6-1.8-1.6-1.6-2.9c0.3-1.4,1.2-1.9,2.9-1.7
					c5.1,0.6,5.9-0.2,6.2-3.5c0.2-1.7,0.3-3.6,0.4-5.7c-0.2,0.4-0.5,0.8-0.8,1.2c-1.7,1.8-4,1.4-5.4-0.8c-0.7-1.2-1.7-2.5-2.7-3.8
					c-1.5,2.1-3.3,4.1-5.3,5.6c-1.2,0.9-2.3,0.8-3.2-0.1l-0.1-0.1v1.2H220c1.8,0,2.7,0.9,2.7,2.6s-0.9,2.6-2.7,2.6h-12.8V62
					c0,2.5-1.4,3.5-3.9,3.5s-3.9-1-3.9-3.5V46.6c0-0.3,0-0.6,0.1-0.8c-0.9,0.1-1.6-0.2-2.1-1v10.5c0,2.4-1.4,3.5-3.8,3.5
					c-2.4,0-3.8-1-3.8-3.5v-1.6h-2.1v2.8c0,2.7-1.4,3.8-4.1,3.8c-2.7,0-4.1-1.1-4.1-3.8V15.8c0-2.7,1.5-4.2,4.2-4.2h9.4
					c2.7,0,4.2,1.5,4.2,4.2v26c0.1-0.3,0.3-0.5,0.6-0.7c3.3-3.3,5.5-6.4,7.6-10.7H204c-2.7,0-4.2-1.5-4.2-4.2V13.5
					c0-2.7,1.5-4.2,4.2-4.2h22.8c2.7,0,4.2,1.5,4.2,4.2v12.7c0,2.7-1.5,4.2-4.2,4.2h-12.2c-0.5,1-1.1,2-1.8,2.9h16.6
					c2.7,0,4.2,1.5,4.2,4.3C233.9,47.1,233.6,55.1,233.1,59.8z M189.7,48.4V17.7c0-0.5-0.3-0.8-0.8-0.8h-0.6c-0.5,0-0.8,0.3-0.8,0.8
					v30.7H189.7z M211.5,40.8c0.3-0.9,0.7-1.6,1-2h-3.9c-1.4,1.6-3,3-4.7,4.3c1.9,0.2,3.2,1.3,3.2,3.6v4
					C209.1,47.7,210.5,44.2,211.5,40.8z M208.6,17.1H222v-1.7c0-0.5-0.3-0.8-0.8-0.8h-11.9c-0.5,0-0.8,0.3-0.8,0.8v1.7H208.6z
					 M208.6,24.3c0,0.5,0.3,0.8,0.8,0.8h11.9c0.5,0,0.8-0.3,0.8-0.8v-2h-13.4v2H208.6z M224.8,49.2c0.1-3.1,0.1-6.3,0.1-9.7
					c0-0.5-0.3-0.8-0.8-0.8H218c1.4,0.8,1.8,2.2,0.7,4.5c-0.1,0.3-0.3,0.7-0.5,1c1.8,1,3.5,2.1,5.1,3.3
					C224.1,48,224.5,48.6,224.8,49.2z"/>
			</g>
			<g>
				<path class="st1" d="M297.8,66.1c-4.8,0.3-8.1,0.3-11,0.1c-8.7-0.5-10.2-1.9-10.2-9.7V45h-3.9c-1.5,12.1-10,21.7-23.5,23.4
					c-1.6,0.2-2.5-0.4-2.9-1.7c-0.4-1.3,0.1-2.3,1.6-3c9.1-4,12.7-8.9,13.9-18.8h-5.1c-2.7,0-4.2-1.5-4.2-4.2V29.9
					c0-2.7,1.5-4.2,4.2-4.2h12.6v-4.9h-19.4c-1.9,0-2.9-1.2-2.9-3.3s1.1-3.3,2.9-3.3h19.4v-4.1c0-3.1,1.9-4.7,5.3-4.7
					c3.5,0,5.3,1.6,5.3,4.7v4.1h19.2c1.9,0,2.9,1.2,2.9,3.3s-1.1,3.3-2.9,3.3H280v4.9h12.6c2.7,0,4.2,1.5,4.2,4.2v10.8
					c0,2.7-1.5,4.2-4.2,4.2h-5.3v8.3c0,2.5,0.6,3.3,2.7,3.4c2.3,0.1,4.1,0.2,6.3-0.1c1.6-0.2,2.1-1.4,2.2-6.8
					c0.1-1.8,0.8-2.7,2.1-2.7c1.5,0,2.5,0.7,2.9,2.3C305.5,60.7,303.5,65.7,297.8,66.1z M263,39c0,0.5,0.3,0.8,0.8,0.8h21.7
					c0.5,0,0.8-0.3,0.8-0.8v-7.3c0-0.5-0.3-0.8-0.8-0.8h-21.7c-0.5,0-0.8,0.3-0.8,0.8V39z"/>
			</g>
			<g>
				<path class="st1" d="M371.5,45.4c0,1.6-1,2.6-2.6,2.6h-51.7c-1.6,0-2.6-1-2.6-2.6s1-2.6,2.6-2.6h5.1V38c0-2.7,1.5-4.2,4.2-4.2
					h33.1c2.7,0,4.2,1.5,4.2,4.2v4.9h5C370.5,42.8,371.5,43.8,371.5,45.4z M316,21.5v-5.3c0-2.7,1.5-4.2,4.2-4.2h17.4v-1.7
					c0-2.8,2-4.2,5.5-4.2s5.5,1.4,5.5,4.2V12h17.3c2.7,0,4.2,1.5,4.2,4.2V21c0,3-1.6,4.2-4.6,4.2H365c0.1,0.1,0.2,0.3,0.3,0.4
					c1.7,2,1.2,3.9-0.8,5.2s-4,0.8-5-1.6c-1-2.6-2.3-5-3.7-7.3c-0.6-1.1-0.4-2.1,0.4-2.7c0.8-0.7,1.8-0.6,2.7,0.2
					c0.7,0.5,1.3,1,2,1.6v-3c0-0.5-0.3-0.8-0.8-0.8H326c-0.5,0-0.8,0.3-0.8,0.8v3.6v0.7c0.5-0.7,0.9-1.3,1.3-2
					c0.7-1.2,1.7-1.2,2.7-0.8c1,0.5,1.2,1.4,0.8,2.8c-0.8,2.9-2.6,6.5-4.6,8.7c-1.6,1.9-3.8,1.6-5.1-0.1c-1.4-1.7-1.1-3.6,1-5
					c0.1-0.1,0.3-0.2,0.5-0.3c-0.3,0.1-0.7,0.1-1.1,0.1C317.6,25.6,316,24.4,316,21.5z M366.9,52.2c0,1.7-1,2.7-2.7,2.7h-15.4v4.7
					c0,8.3-7.9,10.5-17.8,5.9c-1.4-0.7-1.8-1.5-1.5-2.8s1.1-1.8,2.7-1.6c5.2,0.5,6.3,0.3,6.3-2.7V55h-16.7c-1.7,0-2.7-1-2.7-2.7
					s1-2.7,2.7-2.7h42.5C365.9,49.5,366.9,50.5,366.9,52.2z M339.1,21.7V24c0,1.7,1,2.1,6.6,2c4.6-0.1,5.2-0.3,5.2-2.1
					c0-1.6,0.8-2.4,2-2.3s2,0.7,2.3,2c1.8,7.4-0.3,9.1-9.1,9.1c-13.7,0-15.3-0.7-15.3-7.1v-3.9c0-2.2,1.4-3.5,4.1-3.5
					S339.1,19.5,339.1,21.7z M334.3,38.7h-2.4c-0.5,0-0.8,0.3-0.8,0.8v3.4h3.2L334.3,38.7L334.3,38.7z M340.6,21.3
					c-1-0.8-1.2-1.6-0.7-2.5s1.2-1.4,2.4-1c1.7,0.5,3.6,1.2,5.3,2c2,0.9,2.5,2.5,1.4,4.2c-1.2,1.8-2.9,2.2-4.5,0.7
					C343.2,23.4,341.7,22.2,340.6,21.3z M344.4,38.7h-2.9v4.2h2.9V38.7z M355,39.4c0-0.5-0.3-0.8-0.8-0.8h-2.5v4.2h3.3V39.4z"/>
			</g>
			<g>
				<path class="st2" d="M24.3,101.1v30.3c0,3.3-1.8,4.8-5,4.8s-5.1-1.5-5.1-4.8v-19.5c-1.4,1.1-3,2.1-4.6,2.9
					c-1.3,0.7-2.5,0.8-3.2-0.3c-0.8-1.2-0.6-2.1,0.6-3.1c7-6.3,11.4-14.9,14.1-22.4H10.3c-1.8,0-2.9-1-2.9-2.9c0-1.8,1-2.9,2.9-2.9
					H23c0.5-2,1-3.8,1.3-5.5c0.7-3.3,3-3.9,5.8-3.5c3.2,0.5,4.3,2.3,3.7,5.1c-0.3,1.2-0.6,2.5-0.9,3.8h27.5c1.8,0,2.9,1,2.9,2.9
					c0,1.8-1,2.9-2.9,2.9H30.8C29.2,93.1,27,97.3,24.3,101.1z M64.6,113.7c0,1.8-1,2.8-2.8,2.8H50.1v11c0,8.4-8.2,10.7-18.8,5.4
					c-1.3-0.7-1.9-1.6-1.6-2.9c0.3-1.2,1.2-1.8,2.9-1.7c6.2,0.6,7.3,0.3,7.3-2.5v-9.2H28.2c-1.8,0-2.8-1-2.8-2.8s1-2.8,2.8-2.8h11.6
					v-2.7c0-3.1,1.8-4.6,5.1-4.6c0.6,0,1.1,0.1,1.6,0.1c1.2-1.5,2.2-3,2.8-4.1c0.3-0.5,0-0.9-0.6-0.9h-16c-1.7,0-2.7-1-2.7-2.7
					s1-2.6,2.7-2.6h21c5.1,0,7.4,4.6,3.3,8.6c-2.1,2.1-4.5,4-7,5.7v0.5v2.7h11.7C63.6,110.9,64.6,111.9,64.6,113.7z"/>
			</g>
			<g>
				<path class="st2" d="M133,129c0.1,3.3-1.2,4.8-4.8,5c-3.5,0.2-6.2,0.1-8.3,0.1c-9.7-0.2-16.9-2.1-21.9-6.2
					c-1.5,2.3-3.3,4.4-5.4,6.2c-1.2,1-2.7,1.2-3.6,0.1c-0.9-1-0.7-2.1,0.3-3.3c1.7-2.5,3.2-5,4.4-7.8c-2.4-3.5-4-8-5-13.5
					c-0.3-1.6,0.3-2.7,1.6-3c1.4-0.4,2.3,0.3,2.9,1.9c0.9,2.7,1.9,5,3.1,7c0.8-3.7,1.4-7.8,1.6-12.6c0-0.5-0.3-0.8-0.8-0.8h-0.6
					l-0.1,0.3c-1,2.5-2.5,3.1-4.8,2.5c-2.1-0.5-2.9-2-2-4.6c1.7-4.6,3.2-9.8,4.7-14.3c0.2-0.6-0.2-1.2-0.8-1.2h-1.6
					c-1.2,0-1.9-0.5-2.1-1.3c-0.5,2.6-1.1,5.1-1.8,7.5v41c0,2.5-1.7,3.8-4.6,3.8s-4.6-1.4-4.6-3.8v-24.2c-0.3,0.4-0.7,0.7-1,1
					c-1.3,1.3-2.7,1.4-3.6,0.5c-1-1-0.8-2.2-0.1-3.5c3.9-7,5.9-16.1,7.3-27.9c0.4-3.3,2.6-4.2,5.5-3.9c2.9,0.3,4,2,3.6,5.1
					c0,0.3-0.1,0.5-0.1,0.7c0.4-0.4,1-0.6,1.8-0.6h6.4c3.3,0,4.8,2,3.8,5.1c-0.8,3-2.2,7.4-3.8,11.9h1.8c3,0,4.8,1.7,4.6,4.8
					c-0.5,7.8-1.6,14.5-3.6,20c2.9,2.1,6.5,3.3,11.3,3.8c-0.7-0.6-1.1-1.5-1.1-2.6v-4.6h-5.9c-1.5,0-2.3-0.8-2.3-2.3
					s0.8-2.3,2.3-2.3h5.9v-3.1h-4c-1.5,0-2.3-0.8-2.3-2.3s0.8-2.3,2.3-2.3h4v-3H108c-1.5,0-2.3-0.8-2.3-2.3s0.8-2.3,2.3-2.3h3.6
					v-3.8h-7.3c-1.5,0-2.3-0.8-2.3-2.3c0-1.6,0.8-2.4,2.3-2.4h7.3v-3.5h-5c-1.5,0-2.3-0.8-2.3-2.3s0.8-2.3,2.3-2.3h4.8v-2.5
					c0-2.3,1.6-3.6,4.5-3.6s4.4,1.3,4.4,3.6v2.5h5c2.7,0,4.2,1.5,4.2,4.2v3.8h1.6c1.5,0,2.4,0.9,2.4,2.5s-0.9,2.5-2.4,2.5h-1.6V98
					c0,2.7-1.5,4.2-4.2,4.2h-5v3h6.9c1.5,0,2.3,0.8,2.3,2.3s-0.8,2.3-2.3,2.3h-6.9v3.1h8.7c1.5,0,2.3,0.8,2.3,2.3s-0.8,2.3-2.3,2.3
					h-8.7v4.6c0,1.3-0.5,2.3-1.5,2.9c3.3,0,6.4-0.1,9.1-0.4C131.1,124.6,133,126.1,133,129z M120.1,89h2.4v-2.7
					c0-0.5-0.3-0.8-0.8-0.8h-1.6V89z M120.1,97.6h1.6c0.5,0,0.8-0.3,0.8-0.8v-3.1h-2.4V97.6z"/>
			</g>
			<g>
				<path class="st2" d="M201,129.4c-1.6,3.1-4.4,3.5-7.9,1.5c-5-2.9-9.3-6.7-12.5-11.2v7.3c0,8.7-7.4,11.6-17.3,6.6
					c-1.3-0.7-1.8-1.7-1.4-3.1c0.3-1.2,1.3-1.8,2.9-1.7c4.6,0.4,5.9-0.5,5.9-3.6v-1.8c-2.9,2.2-6.9,4.9-11.6,6.7
					c-2.7,1-4.9,0.1-5.9-2.8c-1-2.8,0.2-5,3.3-5.6c1.9-0.4,4.1-1,6.4-1.6c-0.5-0.2-1-0.6-1.6-1c-1.7-1.6-3.1-3.2-4.2-4.4
					c-1.1-1.1-1.2-2.3-0.5-3.4s1.8-1.3,3.2-0.8c1.9,0.7,4,1.3,6.1,2.5c2.3,1.4,2.8,3.7,1.2,5.6l-0.1,0.1c1.3-0.5,2.5-0.9,3.7-1.4
					v-7.5h-9.8c-1.6,0-2.5-0.9-2.5-2.5s0.9-2.5,2.5-2.5h9.8v-2.5h-11.8c-1.7,0-2.6-0.9-2.6-2.6s0.9-2.6,2.6-2.6h11.8v-2.7h-9.3
					c-1.6,0-2.5-0.9-2.5-2.5s0.9-2.5,2.5-2.5h9.3v-2c0-0.4,0-0.7,0.1-1h-14.1c-0.5,0-0.8,0.3-0.8,0.8v12.6c0,13.9-2.6,27.5-8.3,34.3
					c-1.1,1.3-2.9,1.6-4.2,0.7c-1.2-0.8-1.2-2.1-0.6-3.5c2.7-6.6,3.3-13,3.3-33.3V85.1c0-2.7,1.5-4.2,4.2-4.2h19v-2.4
					c0-3,1.9-4.6,5.5-4.6c3.5,0,5.5,1.6,5.5,4.6v2.4h18.4c1.8,0,2.7,1,2.7,2.7c0,1.8-1,2.7-2.7,2.7h-18.1c0.1,0.3,0.1,0.7,0.1,1v2
					h9.9c3,0,4.5,1.4,4.5,4.4v3.4h2.5c1.7,0,2.6,0.9,2.6,2.6s-0.9,2.6-2.6,2.6H195v3.3c0,2.7-1.5,4.2-4.2,4.2h-10.2v1
					c1.8,2,3.7,3.7,6.1,5.3c1.2-1.2,2.7-2.8,4-4.2c2.3-2.3,4.3-2.7,6.4-0.5c2.1,2.2,1.7,4.4-0.7,6.1c-1.2,0.9-2.5,1.6-3.9,2.1
					c1.6,0.8,3.4,1.7,5.3,2.4C201.5,123.7,202.5,126.5,201,129.4z M180.6,97.1h4.9v-1.9c0-0.5-0.3-0.8-0.8-0.8h-4.1L180.6,97.1
					L180.6,97.1z M180.6,105h4.1c0.5,0,0.8-0.3,0.8-0.8v-2h-4.9L180.6,105L180.6,105z"/>
			</g>
			<g>
				<path class="st2" d="M233.2,102.6c0.6,1.2,0,2.3-1.3,3.3s-2.6,2-3.9,2.9v19.8c0,7.2-6.8,9.2-15,5.3c-1.4-0.7-2-1.6-1.8-2.8
					s1.2-1.8,2.9-1.7c3.3,0.3,4.1-0.5,4.1-2.8v-13c-0.6,0.3-1.1,0.4-1.7,0.6c-2.9,0.9-4.8-0.2-5.5-3c-0.7-2.7,0.3-4.8,3.5-5.3
					c1.2-0.2,2.5-0.5,3.8-0.8V93.3h-4.5c-1.7,0-2.7-1-2.7-2.7s1-2.7,2.7-2.7h4.5v-8.7c0-3.3,1.5-4.8,4.9-4.8s4.9,1.5,4.9,4.8v8.7
					h2.5c1.7,0,2.8,0.9,2.8,2.7c0,1.8-1.1,2.8-2.8,2.8H228v9l2.1-0.8C231.5,101,232.6,101.3,233.2,102.6z M268,93.1v38
					c0,3.1-1.8,4.5-4.9,4.5s-4.9-1.4-4.9-4.5V130H244v1.4c0,3.1-1.8,4.5-4.9,4.5s-4.9-1.4-4.9-4.5V93.1c0-2.7,1.5-4.4,4.2-4.4h7.4
					v-9.8c0-3.3,1.8-4.7,5.2-4.7s5.2,1.4,5.2,4.7v9.8h7.4C266.5,88.7,268,90.2,268,93.1z M246.9,94.2h-2c-0.5,0-0.8,0.3-0.8,0.8v11
					h2.8V94.2z M246.9,111.4h-2.8v13.2h2.8V111.4z M258.3,94.9c0-0.5-0.3-0.8-0.8-0.8h-2V106h2.8V94.9z M258.3,111.4h-2.8v13.2h2.8
					V111.4z"/>
			</g>
			<g>
				<path class="st2" d="M338,104.7c0,1.9-1,2.9-2.9,2.9h-9v19.5c0,8.4-8.3,10.9-19.2,6c-1.4-0.7-1.9-1.6-1.6-3.1
					c0.3-1.4,1.4-2,3.1-1.7c6,0.7,7.3-0.1,7.3-3.7v-17h-8.9c-1.8,0-2.9-1-2.9-2.9v-0.3c-0.8,4-1.9,7.7-3.3,11c2,1.1,3.8,2.3,5.5,3.6
					c2.8,2.1,3.3,4.6,1.2,7c-2.1,2.4-5,2.4-7.2-0.2c-1-1.2-2.1-2.3-3.1-3.4c-3.5,5.3-8.1,9.6-13.6,12.8c-1.4,0.8-2.6,0.6-3.3-0.6
					c-0.7-1.2-0.3-2.4,0.8-3.4c4.6-3.8,8.1-8.3,10.5-13.7c-0.8-0.7-1.6-1.3-2.5-2c-0.8,2.7-2.9,4-5.6,3.3s-3.6-2.6-2.9-5.5
					c1.3-5.5,2.5-12.5,3.7-19.8H282c-1.8,0-2.8-1-2.8-2.8s1-2.8,2.8-2.8h3.1l1.4-9.5c0.4-2.6,2-4,5.1-3.8c3,0.3,4.6,1.6,4.1,4.8
					c-0.4,2.8-0.8,5.7-1.2,8.5h6.2c3.6,0,5,1.8,4.8,5.7c-0.2,3.5-0.6,6.8-1.2,9.9c0.4-1.1,1.3-1.7,2.7-1.7h8.9v-6.2
					c0-3.2,1.8-4.9,5.2-4.9c0.8,0,1.4,0.1,2.1,0.3c1.7-2.6,3-5.1,3.7-7c0.2-0.5,0-0.9-0.6-0.9h-17.7c-1.8,0-2.7-1-2.7-2.8
					s1-2.8,2.7-2.8h19c2.4-1.8,5.5-1.8,8.1,0c2.3,1.7,2.7,4.8,0.8,7.5c-2.5,3.6-6.5,7.6-10.2,10.5v0.2v6.2h9
					C337,101.8,338,102.8,338,104.7z M293.7,111.9c1.6-5.1,2.5-10.8,3.1-17.6c0.1-0.6-0.2-0.8-0.7-0.8h-2.5
					c-1,6.2-2.1,12.1-3.3,17.1C291.4,111,292.5,111.4,293.7,111.9z"/>
			</g>
			<g>
				<path class="st2" d="M405.9,131.7c0,1.6-1,2.6-2.6,2.6h-33c-1.6,0-2.6-1-2.6-2.6s1-2.6,2.6-2.6h7.2c-0.3-0.4-0.4-0.8-0.6-1.3
					c-0.5-1.6-1.1-2.9-1.7-4.4c-0.3-0.6-0.3-1.2-0.2-1.7c-2.3-0.2-3.6-1.7-3.6-4.2v-4.7v-0.5l-0.1,0.1c-1.7,1.4-3.6,1.4-5.1-0.7
					l-1.6-2.4v22.5c0,2.7-1.7,4.1-4.8,4.1c-3.1,0-4.8-1.4-4.8-4.1v-19c-1.4,1-2.8,2-4.2,2.7c-1.4,0.7-2.5,0.6-3.3-0.6
					c-0.8-1.1-0.6-2.3,0.5-3.3c5.9-5.3,10.3-12,12.6-18.4c0.2-0.7-0.2-1.1-0.8-1.1h-9.7c-1.6,0-2.5-1-2.5-2.7c0-1.6,0.9-2.5,2.5-2.5
					h3.8V79c0-2.7,1.6-4.3,4.8-4.3c3.1,0,4.8,1.6,4.8,4.3v7.9h1.9c3.6,0,5.4,2.3,4.2,5.7c-1.1,3.3-2.7,6.5-4.7,9.6
					c1.9,1.1,3.6,2.3,5.2,3.6c-0.2-0.4-0.3-0.8-0.3-1.4c0-1.6,0.8-2.5,2.5-2.5H402c1.7,0,2.5,0.9,2.5,2.5s-0.8,2.5-2.5,2.5h-29.7
					c-0.5,0-0.8-0.1-1.2-0.2l0.6,0.6c0.7,0.7,1,1.4,1,2c0.7-0.5,1.6-0.8,2.8-0.8h23.1c2.7,0,4.2,1.5,4.2,4.2v4.7
					c0,2.5-1.3,4-3.7,4.2c1,1,1,2.6,0.4,3.7c-0.8,1.4-1.6,2.6-2.5,3.6h6.1C404.9,129.1,405.9,130,405.9,131.7z M370.7,96.1V84.5
					c0-2.7,1.5-4.2,4.2-4.2h2.8v-2.5c0-2.2,1.4-3.5,4.2-3.5s4.2,1.2,4.2,3.5v2.5h2v-2.5c0-2.2,1.4-3.5,4.2-3.5s4.2,1.2,4.2,3.5v2.5
					h2.8c2.7,0,4.2,1.5,4.2,4.2V96c0,2.7-1.5,4.2-4.2,4.2h-24.2C372.2,100.3,370.7,98.8,370.7,96.1z M380.4,85.4h-1.7
					c-0.4,0-0.7,0.3-0.7,0.7v1.7h2.3v-2.4H380.4z M380.4,92.5h-2.3v2c0,0.4,0.3,0.7,0.7,0.7h1.7v-2.7H380.4z M384.4,129.1h6.2
					c0.5-1.8,1.1-4,1.6-6.3c0.1-0.4,0.3-0.7,0.4-1H381c0.9,0.9,1.8,2,2.7,3.1C385,126.5,385.3,127.9,384.4,129.1z M381.1,116.1
					c0,0.4,0.3,0.7,0.7,0.7h11c0.4,0,0.7-0.3,0.7-0.7v-2c0-0.4-0.3-0.7-0.7-0.7h-11c-0.4,0-0.7,0.3-0.7,0.7V116.1z M388,85.4h-2v2.3
					h2V85.4z M388,92.5h-2v2.7h2V92.5z M395.9,86c0-0.4-0.3-0.7-0.7-0.7h-1.7v2.3h2.3V86H395.9z M395.9,92.5h-2.3v2.7h1.7
					c0.4,0,0.7-0.3,0.7-0.7v-2H395.9z"/>
			</g>
		</g>
	</g>
</g>
<g id="圖層_2">
	<g>
		<circle class="st0" cx="356.9" cy="66" r="5.3"/>
		<g>
			<circle class="st0" cx="356.9" cy="66" r="3.4"/>
			<circle class="st3" cx="356.9" cy="66" r="3.4"/>
		</g>
		<g>
			<path class="st1" d="M358,67.8c-0.2,0.1-0.5,0.1-0.6-0.2c-0.2-0.4-0.5-0.9-0.7-1.3h-0.1c-0.1,0-0.3,0-0.4,0v1.1
				c0,0.3-0.2,0.5-0.4,0.5c-0.3,0-0.5-0.2-0.5-0.5v-3c0-0.3,0.1-0.4,0.4-0.5c0.2,0,0.6,0,0.8,0c1.1,0,1.6,0.4,1.6,1.2
				c0,0.6-0.3,0.9-0.7,1.1c0.3,0.5,0.5,0.8,0.7,1.1C358.3,67.5,358.3,67.7,358,67.8z M357.3,65.1c0-0.4-0.2-0.7-0.7-0.7
				c-0.1,0-0.2,0-0.3,0c0,0,0,0,0,0.1v1.2c0.1,0,0.2,0,0.3,0C357.1,65.7,357.3,65.5,357.3,65.1z"/>
		</g>
	</g>
</g>
</svg>
