<?xml version="1.0" encoding="utf-8"?>
<!-- Generator: Adobe Illustrator 25.0.1, SVG Export Plug-In . SVG Version: 6.00 Build 0)  -->
<svg version="1.1" id="圖層_1" xmlns="http://www.w3.org/2000/svg" xmlns:xlink="http://www.w3.org/1999/xlink" x="0px" y="0px"
	 viewBox="0 0 510.24 97.86" style="enable-background:new 0 0 510.24 97.86;" xml:space="preserve">
<style type="text/css">
	.st0{fill:#44150D;}
	.st1{fill:#FFFFFF;}
	.st2{fill:#FECB00;}
</style>
<g>
	<g>
		<g>
			<path class="st0" d="M75.56,56.78c-0.32,4.4-0.64,8.48-0.96,12.24H79c2.16,0,3.36,1.12,3.36,3.28s-1.2,3.36-3.36,3.36h-5.04
				l-0.24,2.16c-1.28,10.8-11.92,13.12-25.44,6.88c-1.76-0.8-2.24-2.24-1.84-3.84c0.4-1.68,1.6-2.4,3.68-2.08
				c8.4,1.28,10.4,0.88,11.04-3.12H31.8l-0.24,1.52c-0.64,3.52-3.2,4.88-7.36,4.32c-4-0.56-5.76-2.8-5.04-6.24
				c1.28-6,2.32-11.92,3.36-18.48h-5.36c-2.24,0-3.44-1.2-3.44-3.52c0-2.32,1.2-3.52,3.44-3.52h6.48l1.76-12.72
				c-2.88,2.8-5.92,5.12-8.8,6.56c-1.68,0.8-2.88,0.64-3.92-0.64c-1.04-1.28-0.96-2.72,0.32-4.08c5.52-5.92,9.44-13.84,12.16-22.32
				c1.52-4.64,4.72-5.76,8.72-4.48c3.68,1.2,4.72,3.92,3.2,8h41.2c2.32,0,3.52,1.2,3.52,3.52c0,2.32-1.2,3.52-3.52,3.52H33.32
				c-1.04,1.6-2.16,3.2-3.36,4.8c0.32-0.08,0.64-0.08,0.96-0.08h40.64c3.44,0,5.28,1.92,5.12,5.44c-0.24,4.32-0.4,8.48-0.64,12.48
				h4.8c2.24,0,3.44,1.2,3.44,3.52c0,2.32-1.2,3.52-3.44,3.52H75.56z M33,69.02h18.64c-0.72-0.24-1.52-0.64-2.32-1.28
				c-2.72-2.16-5.84-4.24-8.24-5.84c-1.44-0.96-1.76-2.16-1.2-3.6c0.32-0.72,0.72-1.28,1.36-1.52h-6.16
				C34.44,60.7,33.72,64.78,33,69.02z M36.12,49.74h15.76c-0.64-0.24-1.2-0.56-1.76-1.04c-2.56-2-5.12-3.76-7.6-5.36
				c-1.44-0.96-1.76-2.16-1.04-3.6c0.32-0.72,0.72-1.2,1.28-1.44h-4c-0.56,0-0.96,0.32-1.04,0.88
				C37.24,42.62,36.68,46.06,36.12,49.74z M62.92,56.78h-18.8c3.28,0.64,6.8,1.76,9.92,3.12c3.36,1.44,4.32,3.92,2.56,6.8
				c-0.72,1.2-1.6,2-2.64,2.32h7.92C62.28,65.34,62.6,61.1,62.92,56.78z M62.92,38.3H45.56c3.12,0.64,6.48,1.68,9.12,2.8
				c3.2,1.36,4.4,4,2.72,6.8c-0.48,0.88-1.12,1.44-1.84,1.84h7.84c0.24-3.76,0.4-7.28,0.48-10.48C63.88,38.62,63.48,38.3,62.92,38.3
				z"/>
			<path class="st0" d="M61.63,94.11c-4.77,0-10.16-1.33-15.87-3.96c-3.55-1.61-5.55-4.81-5.46-8.49h-3.97
				c-1.92,3.8-5.99,6.72-12.93,5.79c-4.79-0.67-7.29-2.95-8.55-4.74c-1.19-1.69-2.42-4.57-1.56-8.68c0.76-3.55,1.46-7.2,2.18-11.38
				c-4.64-0.71-7.75-4.38-7.75-9.39c0-2.04,0.52-3.86,1.44-5.35c-0.4-0.35-0.78-0.75-1.14-1.19c-2.96-3.64-2.71-8.45,0.61-11.98
				c4.43-4.75,8.08-11.5,10.82-20.04c2.45-7.47,8.83-10.74,16.26-8.36c4.15,1.35,6.1,3.87,7,5.75c0.3,0.63,0.54,1.29,0.72,1.97
				h34.85c5.61,0,9.52,3.91,9.52,9.52c0,4.28-2.29,7.58-5.87,8.9c0.51,1.35,0.83,3.02,0.74,5.06c-0.11,1.99-0.2,3.89-0.29,5.75
				c-0.01,0.19-0.02,0.37-0.03,0.55c4.74,0.65,7.92,4.34,7.92,9.42c0,5.51-3.75,9.38-9.15,9.52c-0.01,0.15-0.02,0.29-0.03,0.44
				c4.37,0.84,7.27,4.34,7.27,9.08c0,5.49-3.82,9.33-9.3,9.36c-1.24,4.46-3.91,7.99-7.73,10.12C68.55,93.33,65.27,94.11,61.63,94.11
				z M66.48,72.88c0.59,1.13,0.81,2.44,0.61,3.73c-0.32,1.99-0.92,3.55-1.73,4.77c0.04-0.02,0.08-0.04,0.12-0.07
				c0.82-0.46,1.95-1.4,2.29-4.19L68,75c0.13-1.19,0.61-2.27,1.32-3.14c-0.55-1.02-0.79-2.18-0.69-3.35
				c0.32-3.71,0.64-7.8,0.95-12.17c0.09-1.3,0.6-2.48,1.38-3.42c-0.66-1.05-0.98-2.29-0.91-3.55c0.13-2.17,0.24-4.4,0.35-6.67
				c0.08-1.61,0.16-3.24,0.24-4.89h-0.9c0.09,0.46,0.14,0.95,0.14,1.44c0,0.05,0,0.1,0,0.15c-0.08,3.31-0.25,6.92-0.49,10.71
				c-0.08,1.32-0.59,2.52-1.39,3.47c0.68,1.08,1,2.35,0.9,3.63c-0.34,4.64-0.66,8.78-1.06,12.45
				C67.71,70.89,67.22,71.99,66.48,72.88z M25.61,76.3L25.61,76.3L25.61,76.3z M25.22,75.58c0.2,0.02,0.36,0.03,0.51,0.04l0.14-0.9
				c0.2-1.27,0.79-2.4,1.64-3.27c-0.48-1.07-0.63-2.27-0.43-3.44l0.74-4.31c0.46-2.7,0.92-5.33,1.34-7.89
				c0.21-1.27,0.81-2.4,1.66-3.26c-0.6-1.13-0.83-2.43-0.63-3.72c0.18-1.17,0.36-2.32,0.53-3.46c0.37-2.39,0.73-4.71,1.06-7.03
				c0.03-0.18,0.06-0.36,0.1-0.53h-0.53c0,0.01,0,0.02,0,0.02l-1.76,12.72c-0.19,1.36-0.82,2.56-1.74,3.46
				c0.58,1.13,0.8,2.42,0.6,3.7C27.33,64.76,26.33,70.32,25.22,75.58z M79,75.02h0.01H79z M17.39,42.94
				C17.39,42.94,17.39,42.95,17.39,42.94C17.39,42.95,17.39,42.94,17.39,42.94z M71.87,37.84C71.87,37.84,71.87,37.84,71.87,37.84
				C71.87,37.84,71.87,37.84,71.87,37.84z M31.41,37.72C31.41,37.72,31.41,37.72,31.41,37.72C31.41,37.72,31.41,37.72,31.41,37.72z
				 M31.21,17.58c-0.09,0.16-0.22,0.42-0.35,0.83c-0.45,1.41-0.93,2.79-1.43,4.12c0.54-0.46,1.15-0.82,1.82-1.06
				c-0.28-1.15-0.21-2.37,0.21-3.5c0.04-0.12,0.08-0.23,0.11-0.32C31.42,17.6,31.3,17.59,31.21,17.58z M31.75,16.8L31.75,16.8
				L31.75,16.8z"/>
		</g>
		<g>
			<path class="st0" d="M105.4,81.42V21.98c0-3.84,2.16-6,6-6H153c3.84,0,6,2.16,6,6V81.5c0,4.16-2.32,6-6.48,6s-6.64-1.84-6.64-6
				v-2.88h-27.36v2.8c0,4.16-2.48,6-6.64,6C107.72,87.42,105.4,85.58,105.4,81.42z M145.88,43.34v-19.2c0-0.56-0.4-0.96-0.96-0.96
				h-25.44c-0.56,0-0.96,0.4-0.96,0.96v19.2H145.88z M145.88,71.42V50.38h-27.36v21.04H145.88z"/>
			<path class="st0" d="M152.52,93.5c-6.52,0-11.08-3.39-12.31-8.88h-16.04c-1.26,5.44-5.8,8.8-12.29,8.8
				c-7.58,0-12.48-4.71-12.48-12V21.98c0-7.18,4.82-12,12-12H153c7.18,0,12,4.82,12,12V81.5C165,88.79,160.1,93.5,152.52,93.5z
				 M111.45,82.03h0.01H111.45z M151.88,81.47c0.29,0.03,0.8,0.04,1.12,0.01V21.98v0h-1.45c0.21,0.68,0.33,1.4,0.33,2.16v19.2
				c0,1.31-0.42,2.53-1.14,3.52c0.72,0.99,1.14,2.21,1.14,3.52v21.04c0,1.35-0.45,2.6-1.2,3.6c0.75,1,1.2,2.25,1.2,3.6V81.47z
				 M111.4,81.4c0.32,0.02,0.83,0.02,1.12-0.01v-2.77c0-1.35,0.45-2.6,1.2-3.6c-0.75-1-1.2-2.25-1.2-3.6V50.38
				c0-1.31,0.42-2.53,1.14-3.52c-0.72-0.99-1.14-2.21-1.14-3.52v-19.2c0-0.76,0.12-1.48,0.33-2.16h-1.45v0V81.4z M124.52,65.42
				h15.36v-9.04h-15.36V65.42z M124.52,37.34h15.36v-8.16h-15.36V37.34z"/>
		</g>
		<g>
			<path class="st0" d="M242.12,51.42c-1.28-0.72-2.56-1.44-3.84-2.24c0.4,0.8,0.64,1.76,0.64,2.88v9.92c0,3.36-1.84,5.2-5.2,5.2
				h-0.24c2.32,2,2.32,4.4-0.16,7.36c-1.12,1.44-2.4,2.88-3.76,4.32h17.68c2.24,0,3.44,1.2,3.44,3.44c0,2.24-1.2,3.44-3.44,3.44
				h-62.32c-2.24,0-3.44-1.2-3.44-3.44c0-2.24,1.2-3.44,3.44-3.44h17.6c-1.36-2.56-2.96-5.2-4.8-7.76c-1.12-1.44-1.12-2.8-0.24-4
				c-2.72-0.32-4.24-2.08-4.24-5.12v-9.92V51.5c-2.96,1.68-6.16,3.04-9.52,4.16c-1.84,0.64-3.12-0.08-3.68-1.6
				c-0.56-1.6,0.08-2.64,1.76-3.6c6.56-3.6,11.12-7.36,14.56-11.68c-1.92-2.96-4.56-6.4-7.6-9.6c-1.12-1.12-1.12-2.4-0.24-3.52
				c0.88-1.12,2.08-1.28,3.52-0.72c3.28,1.36,6.56,3.2,9.52,5.52c0.88-2,1.76-4,2.48-6.24c0.24-0.72-0.16-1.12-0.8-1.12H189.4
				c-2.08,0-3.28-1.2-3.28-3.28s1.2-3.2,3.28-3.2h15.28c1.84-2,5.04-2.72,8.32-1.52c1.44,0.48,2.56,1.44,3.2,2.8
				c-0.24-0.88-0.48-1.76-0.64-2.64c-0.4-1.84,0.56-2.96,2-3.28c1.52-0.32,2.8,0.16,3.52,1.76c0.88,2.08,1.84,4,2.96,5.84
				c0.72-1.12,1.44-2.4,2.16-3.76c2.08-3.36,4.72-3.92,7.76-1.68c3.2,2.24,3.52,5.28,0.48,7.92c-1.84,1.6-3.76,3.04-5.68,4.24
				c1.12,1.36,2.4,2.56,3.68,3.76c1.2-1.6,2.48-3.44,3.76-5.52c2-3.28,4.64-3.84,7.68-1.68c3.12,2.32,3.44,5.28,0.4,7.84
				c-1.84,1.52-3.84,2.88-5.68,4.08c2.8,1.76,6,3.36,9.44,4.72c4.4,1.76,5.92,5.12,3.84,9.36
				C249.88,52.94,246.44,53.66,242.12,51.42z M235.32,47.02c-2.24-1.68-4.24-3.6-6.16-5.68h-22.64c-1.84,2-3.84,3.84-6,5.52h33.2
				C234.28,46.86,234.84,46.94,235.32,47.02z M225.16,67.18H204.2c2.4,1.68,4.8,3.68,6.8,5.52c2.32,2.16,3.04,4.24,2,6.16h7.04
				c1.68-3.36,2.96-6.72,4.24-10C224.52,68.22,224.84,67.66,225.16,67.18z M226.12,54.38c0-0.56-0.4-0.96-0.96-0.96H207
				c-0.56,0-0.96,0.4-0.96,0.96v5.28c0,0.56,0.4,0.96,0.96,0.96h18.16c0.56,0,0.96-0.4,0.96-0.96V54.38z M211.48,34.78h12.48
				c-3.04-4.48-5.44-9.36-7.12-14.64c0.16,1.12,0,2.4-0.4,3.76C215.16,27.9,213.56,31.5,211.48,34.78z"/>
			<path class="st0" d="M247.24,91.74h-62.32c-5.56,0-9.44-3.88-9.44-9.44c0-5.56,3.88-9.44,9.44-9.44h6.86
				c-0.34-0.7-0.59-1.42-0.74-2.15c-2.4-1.98-3.8-5.04-3.8-8.73v-1.19c-0.53,0.19-1.07,0.38-1.62,0.56
				c-4.74,1.65-9.48-0.53-11.21-5.22c-0.6-1.71-1.95-7.25,4.41-10.88c0.03-0.02,0.06-0.03,0.09-0.05c3.98-2.18,7.16-4.43,9.76-6.9
				c-1.32-1.72-2.76-3.4-4.22-4.95c-2.11-2.15-2.93-4.97-2.39-7.66c-1.23-1.57-1.93-3.59-1.93-5.88c0-5.33,3.9-9.2,9.28-9.2h13.16
				c2.62-1.71,5.88-2.41,9.19-1.97c1.15-1.22,2.69-2.12,4.51-2.53c3.34-0.7,6.43,0.26,8.54,2.51c1.4-0.98,2.76-1.44,3.86-1.66
				c2.05-0.39,5.23-0.31,8.8,2.29c2.46,1.74,4.1,3.99,4.76,6.46c1.53,0.27,3.28,0.92,5.13,2.24c0.04,0.02,0.07,0.05,0.1,0.08
				c3.08,2.29,4.83,5.34,4.93,8.59c0.08,2.53-0.85,4.98-2.66,7.08c0.17,0.07,0.34,0.14,0.51,0.2c4.88,1.95,6.93,5.06,7.81,7.33
				c0.85,2.21,1.41,5.79-0.78,10.25c-2.05,4.18-5.02,5.9-7.15,6.6c-1.66,0.55-3.39,0.7-5.2,0.47v3.4c0,3.71-1.38,6.75-3.76,8.72
				c-0.03,0.73-0.15,1.45-0.33,2.16h6.4c5.56,0,9.44,3.88,9.44,9.44C256.68,87.86,252.8,91.74,247.24,91.74z M199.24,61.37
				c0.4,0.13,0.78,0.29,1.15,0.5c-0.22-0.69-0.34-1.43-0.34-2.21v-5.28c0-0.53,0.06-1.04,0.16-1.53c-0.33-0.02-0.65-0.06-0.96-0.13
				V61.37z M231.96,52.86c0.1,0.49,0.16,1,0.16,1.52v5.28c0,0.6-0.07,1.18-0.21,1.73c0.33-0.09,0.66-0.15,1.01-0.19v-8.35H231.96z
				 M181.79,49.98c-0.01,0-0.03,0.01-0.04,0.01C181.76,49.99,181.77,49.98,181.79,49.98z M244.96,46.13c0.63,0.32,1.05,0.45,1.3,0.5
				c0.06-0.1,0.14-0.23,0.23-0.42c0.14-0.29,0.22-0.51,0.26-0.66c-0.18-0.13-0.48-0.31-0.94-0.49c-2.92-1.15-5.68-2.47-8.22-3.91
				c0.44,0.37,0.89,0.73,1.33,1.06c0.49,0.36,0.9,0.79,1.25,1.26c0.45,0.15,0.88,0.35,1.29,0.61
				C242.59,44.8,243.74,45.45,244.96,46.13z M201.89,36.45c0.11,0.25,0.19,0.51,0.27,0.77c0.42-0.45,0.9-0.82,1.43-1.12
				c-0.18,0.07-0.37,0.12-0.56,0.17C202.64,36.37,202.27,36.43,201.89,36.45z M231.98,36.04c0.32,0.17,0.63,0.37,0.92,0.6
				c-0.06-0.19-0.12-0.39-0.16-0.59C232.48,36.06,232.23,36.06,231.98,36.04z M205.48,35c-0.3,0.26-0.63,0.5-0.99,0.69
				c0.33-0.12,0.67-0.21,1.02-0.27C205.5,35.28,205.49,35.14,205.48,35z M240.67,25.86L240.67,25.86L240.67,25.86z M209.29,20.58
				c0.56,1.01,0.84,2.14,0.83,3.29c0.2-0.56,0.4-1.14,0.59-1.73c0.23-0.81,0.2-1.16,0.2-1.16c-0.01-0.09-0.02-0.18-0.03-0.27
				C210.11,20.45,209.57,20.49,209.29,20.58z M231.71,18.43L231.71,18.43L231.71,18.43z"/>
		</g>
		<g>
			<path class="st0" d="M265.64,80.62c15.68-12.48,25.04-30.8,28.08-55.28c0.08-0.64-0.32-1.04-0.96-1.04h-14.4c-2.56,0-4-1.44-4-4
				s1.44-4,4-4h21.76c5.52,0,7.52,2.8,7.84,7.6c1.2,17.76,10.96,36.4,24.48,48.16c4.48,3.92,5.12,8,2,11.76
				c-3.36,4.08-8.4,3.92-12.4-0.64c-9.04-10.24-16.48-29.84-17.76-43.6c-3.92,16.48-16.16,38.8-35.28,46.96
				c-2.08,0.88-3.84,0.48-4.72-1.2C263.4,83.58,263.88,82.06,265.64,80.62z"/>
			<path class="st0" d="M267.01,92.97c-3.39,0-6.41-1.73-8.05-4.85c-0.02-0.03-0.03-0.07-0.05-0.1c-2.14-4.29-1.05-8.79,2.93-12.05
				c0.02-0.02,0.04-0.03,0.06-0.05c13.32-10.6,21.54-25.56,25.02-45.63h-8.56c-5.89,0-10-4.11-10-10s4.11-10,10-10h21.76
				c8.23,0,13.27,4.81,13.83,13.2c1.07,15.83,9.88,33.11,22.43,44.03c8.28,7.24,6.81,15.14,2.68,20.12
				c-2.65,3.22-6.24,5.03-10.08,5.09c-0.07,0-0.13,0-0.2,0c-4.09,0-8.07-1.99-11.25-5.61c-6.06-6.86-11.15-17-14.6-27.01
				c-6.93,13.44-17.71,26.01-31.57,31.93C269.89,92.68,268.42,92.97,267.01,92.97z M317.79,65.07c2.6,5.61,5.64,10.62,8.74,14.14
				c1.08,1.23,1.92,1.54,2.25,1.54c0.26,0,0.64-0.28,1.02-0.74c0.67-0.8,1.09-1.32-1.32-3.43
				C324.57,73.17,320.98,69.28,317.79,65.07z M299.11,22.3c0.53,1.16,0.73,2.47,0.57,3.78c-1.26,10.19-3.61,19.45-7.03,27.77
				c2.66-5.29,4.62-10.7,5.8-15.66c0.57-2.39,2.51-4.14,4.84-4.53c-0.66-3.12-1.1-6.25-1.31-9.36c-0.07-1.11-0.25-1.63-0.33-1.83
				c-0.18-0.06-0.64-0.17-1.52-0.17H299.11z"/>
		</g>
		<g>
			<path class="st0" d="M419,43.66c-0.96,3.2-3.28,3.84-6.08,2.96c-4.32-1.36-8.16-3.36-11.44-5.92c-4,2.48-8.48,4.16-13.28,4.96
				c-1.44,0.24-2.4-0.32-2.72-1.6c-0.32-1.2,0.16-2.16,1.52-2.72c3.92-1.6,7.12-3.28,9.68-5.44c-1.36-1.68-2.48-3.6-3.44-5.6
				c-1.12,1.2-2.24,2.24-3.28,3.12c-1.2,1.12-2.64,1.12-3.6,0.16c-0.32-0.32-0.56-0.64-0.72-0.96c-0.08,2.72-0.24,4.88-0.48,6.88
				c-0.8,5.92-5.44,6.72-11.04,4.8c-1.04-0.32-1.52-0.8-1.76-1.36c-0.4,0.08-0.8,0.16-1.28,0.16h-11.92c-2.56,0-4-1.44-4-4v-2
				c-1.2,1.04-2.4,1.92-3.52,2.72c-1.2,0.8-2.32,0.64-3.12-0.32c-0.8-0.96-0.72-2.08,0.16-3.2c2.48-3.12,4.48-6.88,5.76-10.4
				c0.64-1.76,1.76-2.64,3.12-2.72c-0.24-0.4-0.4-0.88-0.48-1.44h-4.8c-1.92,0-2.96-1.04-2.96-2.96s1.04-2.96,2.96-2.96h4.8v-0.16
				c0-2,1.76-3.36,4.4-3.36c2.64,0,4.4,1.28,4.4,3.36v0.16h5.76v-0.24c0-2.16,1.76-3.36,4.4-3.36c2.64,0,4.4,1.2,4.4,3.36v0.24h5.44
				c1.92,0,2.96,1.04,2.96,2.96s-1.04,2.96-2.96,2.96h-5.44c-0.16,2.56-1.68,3.36-4.4,3.36c-2.72,0-4.24-0.8-4.4-3.36h-5.76
				c-0.32,2.16-1.76,2.88-4.16,2.96c0.32,0.4,0.56,0.8,0.64,1.28h18.4c3.28,0,5.04,1.84,4.96,4.88c0.08-0.24,0.24-0.56,0.4-0.88
				c2.64-4.16,4.16-8.72,5.2-13.76c0.64-3.28,2.48-4.24,5.44-3.76c2.8,0.48,4,2.16,3.28,5.36c-0.08,0.48-0.24,1.04-0.4,1.52h16.8
				c1.84,0,2.88,1.04,2.88,2.88s-1.04,2.88-2.88,2.88h-2.56c-1.2,3.84-3.2,7.2-5.84,10c2.24,0.96,4.72,1.76,7.52,2.48
				C418.92,38.54,419.96,40.54,419,43.66z M360.76,76.62c-0.72,3.28-2.08,6.32-3.52,8.8c-1.6,3.04-4.24,3.44-6.8,1.28
				c-2.48-2.08-2.4-4.48,0.08-6.88c2-1.76,3.92-3.92,5.36-6.08c1.04-1.44,2.32-1.84,3.68-1.12
				C360.92,73.34,361.4,74.62,360.76,76.62z M418.2,72.54c-0.08,2.64-0.32,4.96-0.8,8.08c-1.04,7.12-8.32,9.2-16.48,5.28
				c-1.44-0.72-1.84-1.76-1.6-3.12c-1.68,0.4-3.2-0.48-4-2.72c-0.56-1.52-1.28-3.12-2.24-4.64c-0.56-1.04-0.64-1.92-0.24-2.64h-8.8
				c0.24,0.16,0.56,0.4,0.8,0.64c1.76,1.76,3.36,3.68,4.8,6c1.84,2.88,0.96,5.28-1.92,6.48c-2.96,1.2-5.36-0.08-6.08-3.2
				c-0.48-2.16-1.04-4.24-1.84-6.56c-0.56-1.52-0.16-2.72,0.88-3.36h-10.72c0.4,0.24,0.72,0.56,1.04,1.04c1.52,2,3.04,4.64,4,7.36
				c1.12,3.2,0.24,5.2-2.88,6c-3.12,0.8-5.2-0.4-5.52-3.84c-0.24-2.56-0.56-5.04-1.04-7.36c-0.24-1.52,0.16-2.64,1.2-3.2h-3.44
				c-3.36,0-5.2-1.84-5.2-5.2v-16.4c0-3.36,1.84-5.2,5.2-5.2h46.32c1.84,0,2.8,0.96,2.8,2.8c0,1.84-0.96,2.8-2.8,2.8h-18.32v1.92
				h15.92c1.68,0,2.56,0.96,2.56,2.48c0,1.6-0.88,2.48-2.56,2.48h-15.92v1.76h15.92c1.68,0,2.56,0.96,2.56,2.48
				c0,1.6-0.88,2.48-2.56,2.48h-15.92v2h21.84C416.52,67.18,418.28,69.1,418.2,72.54z M377.56,32.06c0-0.56-0.4-0.96-0.96-0.96h-16
				l-0.96,1.36h11.44c2.56,0,4,1.44,4,4v2.64v0.56c1.36,0.08,2-0.24,2.16-1.68C377.4,36.14,377.56,33.98,377.56,32.06z
				 M367.56,37.42c0-0.56-0.4-0.96-0.96-0.96h-2.96c-0.56,0-0.96,0.4-0.96,0.96v0.8c0,0.56,0.4,0.96,0.96,0.96h2.96
				c0.56,0,0.96-0.4,0.96-0.96V37.42z M369.8,52.54v0.96h10.32v-1.92h-9.36C370.2,51.58,369.8,51.98,369.8,52.54z M380.12,58.46
				H369.8v1.76h10.32V58.46z M370.76,67.18h9.36v-2H369.8v1.04C369.8,66.78,370.2,67.18,370.76,67.18z M396.44,25.98
				c1.28,2,2.8,3.68,4.56,5.12c1.2-1.76,2.16-3.76,2.96-6H397C396.84,25.42,396.6,25.74,396.44,25.98z M407.16,73.82
				c0-0.56-0.4-1.04-0.96-1.04h-7.52c1.04,0.8,2.08,1.76,3.04,2.88c1.6,1.76,1.76,3.52,0.56,5.12h0.4c2.8,0.16,3.76-0.56,4.08-2.56
				C406.92,77.26,407.16,75.58,407.16,73.82z"/>
			<path class="st0" d="M353.62,94.06c-2.44,0-4.89-0.95-7.05-2.78c-3.13-2.63-3.87-5.54-3.95-7.52c-0.07-2.05,0.51-5.15,3.72-8.26
				c0.07-0.07,0.14-0.13,0.21-0.19c1.63-1.44,3.21-3.23,4.33-4.9c0.04-0.06,0.08-0.12,0.13-0.19c0.36-0.5,0.75-0.95,1.16-1.36
				c-0.04-0.42-0.06-0.85-0.06-1.29v-16.4c0-1.5,0.23-2.89,0.65-4.15c-0.34-0.27-0.67-0.56-0.97-0.88c-2.9,0.61-5.86-0.38-7.89-2.81
				c-2.63-3.15-2.61-7.37,0.05-10.75c1.38-1.73,2.65-3.82,3.68-5.99c-2.67-1.48-4.32-4.3-4.32-7.83c0-5.28,3.68-8.96,8.96-8.96h0.95
				c1.87-2.17,4.82-3.52,8.25-3.52c2.89,0,5.4,0.91,7.23,2.45c1.84-1.59,4.39-2.53,7.33-2.53c3.55,0,6.53,1.37,8.38,3.6h1.46
				c0.61,0,1.19,0.05,1.76,0.14c2.22-2.84,5.78-4.12,10.08-3.43c3.88,0.66,5.92,2.64,6.95,4.19c0.44,0.66,0.89,1.53,1.2,2.62h10.58
				c5.15,0,8.88,3.73,8.88,8.88c0,4.6-2.99,8.08-7.3,8.76c-0.15,0.32-0.3,0.63-0.46,0.94c3.1,0.96,5.33,2.66,6.63,5.06
				c0.91,1.68,1.75,4.51,0.55,8.43c-1.12,3.72-3.35,5.56-5.02,6.45c-0.56,0.3-1.25,0.59-2.05,0.8c-0.45,1.03-1.09,1.93-1.89,2.68
				c0.01,0.22,0.02,0.44,0.02,0.66c0,1.21-0.22,2.34-0.62,3.36c0.26,0.65,0.44,1.34,0.54,2.08c2.65,0.52,4.41,1.79,5.49,2.9
				c1.42,1.46,3.09,4.09,3,8.37c0,0.01,0,0.03,0,0.04c-0.08,2.81-0.34,5.37-0.87,8.81c-0.68,4.68-3.24,8.45-7.2,10.55
				c-4.88,2.6-11.37,2.32-17.81-0.77c-1.62-0.81-2.88-1.92-3.73-3.23c-1.12,1.42-2.67,2.57-4.56,3.36
				c-3.13,1.27-6.28,1.19-8.94-0.18c-0.73-0.38-1.4-0.85-2-1.39c-1.13,1.24-2.85,2.46-5.48,3.13c-4.24,1.09-7.14-0.1-8.83-1.28
				c-0.86-0.6-1.82-1.51-2.61-2.82c-1.62,2.7-4,4.46-6.77,5C354.81,94,354.21,94.06,353.62,94.06z M369.47,83.63L369.47,83.63
				L369.47,83.63z M413.4,73.19L413.4,73.19L413.4,73.19z M418.2,72.54L418.2,72.54L418.2,72.54z M364.12,62.15v1.09
				c0.06-0.19,0.13-0.37,0.22-0.54C364.25,62.52,364.18,62.34,364.12,62.15z M385.58,62.7c0.05,0.11,0.09,0.21,0.14,0.32
				c0.04-0.11,0.09-0.22,0.13-0.32c-0.05-0.11-0.09-0.21-0.13-0.32C385.68,62.49,385.63,62.59,385.58,62.7z M364.12,55.43v1.09
				c0.06-0.19,0.13-0.37,0.22-0.54C364.25,55.8,364.18,55.62,364.12,55.43z M385.58,55.98c0.05,0.11,0.09,0.21,0.14,0.32
				c0.04-0.11,0.09-0.22,0.13-0.32c-0.05-0.11-0.09-0.21-0.13-0.32C385.68,55.77,385.63,55.87,385.58,55.98z M415.07,40.98
				L415.07,40.98L415.07,40.98z"/>
		</g>
		<g>
			<path class="st0" d="M503.72,61.5c0,1.92-1.12,3.04-3.04,3.04h-65.12c-1.92,0-3.04-1.12-3.04-3.04c0-1.92,1.12-3.04,3.04-3.04
				h15.52c-1.04-1.68-2-3.28-2.96-4.72c-0.32-0.48-0.48-0.96-0.56-1.44h-0.64c-3.36,0-5.2-1.84-5.2-5.2v-5.52
				c0-3.36,1.84-5.2,5.2-5.2h42.48c3.36,0,5.2,1.84,5.2,5.2v5.52c0,3.36-1.84,5.2-5.2,5.2h-1.2c1.2,1.6,0.96,3.6-0.72,5.12
				c-0.4,0.32-0.8,0.72-1.28,1.04h14.48C502.6,58.46,503.72,59.58,503.72,61.5z M433.48,21.5c0-2.08,1.2-3.2,3.28-3.2h24.64v-1.52
				c0-3.04,2.48-4.72,6.64-4.72c4,0,6.48,1.68,6.48,4.72v1.52h25.12c2.08,0,3.28,1.12,3.28,3.2c0,2.08-1.2,3.28-3.28,3.28h-25.12
				v2.96h20.8c2,0,3.2,1.12,3.2,3.2s-1.2,3.2-3.2,3.2h-54.48c-2,0-3.2-1.12-3.2-3.2s1.2-3.2,3.2-3.2h20.56v-2.96h-24.64
				C434.68,24.78,433.48,23.58,433.48,21.5z M495.08,72.3v10c0,3.68-2.24,5.6-6.4,5.6c-3.6,0-5.76-1.44-6.32-4.24h-28.48
				c-0.48,2.88-2.64,4.32-6.32,4.32c-4.16,0-6.4-1.92-6.4-5.6V72.3c0-3.36,1.84-5.2,5.2-5.2h43.52
				C493.24,67.1,495.08,68.94,495.08,72.3z M453.96,73.98v3.76h28.32v-3.76c0-0.56-0.4-0.96-0.96-0.96h-26.4
				C454.36,73.02,453.96,73.42,453.96,73.98z M454.36,45.26c0,0.56,0.4,0.96,0.96,0.96H481c0.56,0,0.96-0.4,0.96-0.96v-1.84
				c0-0.56-0.4-0.96-0.96-0.96h-25.68c-0.56,0-0.96,0.4-0.96,0.96V45.26z M460.44,58.46h16.08c1.04-1.84,2.08-3.6,3.28-5.84
				c0.08-0.08,0.16-0.24,0.16-0.32h-23.12c0.72,0.56,1.44,1.2,2.08,1.84C460.52,55.58,460.92,57.1,460.44,58.46z"/>
			<path class="st0" d="M447.56,93.98c-7.53,0-12.4-4.55-12.4-11.6V72.3c0-0.61,0.04-1.2,0.11-1.76c-5.09-0.14-8.75-3.9-8.75-9.04
				c0-5.24,3.8-9.04,9.04-9.04h1.31c-0.74-1.55-1.15-3.36-1.15-5.36v-5.52c0-0.95,0.09-1.85,0.26-2.7
				c-2.67-1.56-4.34-4.43-4.34-7.94c0-0.51,0.04-1.01,0.11-1.5c-2.62-1.58-4.27-4.45-4.27-7.94c0-5.33,3.9-9.2,9.28-9.2h19.63
				c1.65-3.5,5.43-6.24,11.65-6.24c6.15,0,9.87,2.74,11.5,6.24h20.1c5.38,0,9.28,3.87,9.28,9.2c0,3.59-1.74,6.52-4.49,8.07
				c0.06,0.44,0.09,0.9,0.09,1.37c0,3.45-1.62,6.28-4.2,7.86c0.18,0.88,0.28,1.81,0.28,2.78v5.52c0,2-0.4,3.81-1.15,5.36h1.23
				c5.24,0,9.04,3.8,9.04,9.04c0,5.14-3.66,8.9-8.75,9.04c0.07,0.57,0.11,1.16,0.11,1.76v10c0,7.05-4.87,11.6-12.4,11.6
				c-4.36,0-7.85-1.52-10.02-4.24h-20.98C455.54,92.43,452.02,93.98,447.56,93.98z M447.16,81.97c0.29,0.02,0.71,0.01,0.97-0.01
				c0.14-0.47,0.33-0.91,0.58-1.32c-0.47-0.86-0.74-1.85-0.74-2.9v-3.76c0-0.3,0.02-0.59,0.05-0.88h-0.85V81.97z M488.09,81.87
				c0.25,0.03,0.69,0.03,0.99,0.02V73.1h-0.85c0.04,0.29,0.05,0.58,0.05,0.88v3.76c0,1.05-0.27,2.03-0.74,2.89
				C487.77,81.02,487.95,81.43,488.09,81.87z M446.05,73.12L446.05,73.12L446.05,73.12z M490.18,73.12L490.18,73.12L490.18,73.12z
				 M500.68,64.46L500.68,64.46L500.68,64.46z M447.72,46.3c0.24,0.01,0.49,0.03,0.72,0.06c-0.06-0.36-0.08-0.73-0.08-1.1v-1.84
				c0-0.35,0.03-0.7,0.07-1.04h-0.71V46.3z M487.88,42.38c0.05,0.34,0.07,0.69,0.07,1.04v1.84c0,0.36-0.03,0.71-0.08,1.05
				c0.1-0.01,0.21-0.01,0.32-0.01h0.4v-3.92H487.88z M489.7,46.28L489.7,46.28z M446.61,46.28L446.61,46.28L446.61,46.28z
				 M467.39,28.14h1.15c-0.01-0.13-0.01-0.27-0.01-0.4v-2.96c0-1.19,0.35-2.31,0.95-3.24c-0.6-0.93-0.95-2.05-0.95-3.24v-0.23
				c-0.33-0.02-0.81-0.02-1.12,0.01v0.22c0,1.19-0.35,2.31-0.95,3.24c0.6,0.93,0.95,2.05,0.95,3.24v2.96
				C467.4,27.87,467.39,28.01,467.39,28.14z"/>
		</g>
	</g>
	<g>
		<g>
			<path class="st1" d="M70.56,53.78c-0.32,4.4-0.64,8.48-0.96,12.24H74c2.16,0,3.36,1.12,3.36,3.28s-1.2,3.36-3.36,3.36h-5.04
				l-0.24,2.16c-1.28,10.8-11.92,13.12-25.44,6.88c-1.76-0.8-2.24-2.24-1.84-3.84c0.4-1.68,1.6-2.4,3.68-2.08
				c8.4,1.28,10.4,0.88,11.04-3.12H26.8l-0.24,1.52c-0.64,3.52-3.2,4.88-7.36,4.32c-4-0.56-5.76-2.8-5.04-6.24
				c1.28-6,2.32-11.92,3.36-18.48h-5.36c-2.24,0-3.44-1.2-3.44-3.52c0-2.32,1.2-3.52,3.44-3.52h6.48l1.76-12.72
				c-2.88,2.8-5.92,5.12-8.8,6.56c-1.68,0.8-2.88,0.64-3.92-0.64C6.64,38.66,6.72,37.22,8,35.86c5.52-5.92,9.44-13.84,12.16-22.32
				c1.52-4.64,4.72-5.76,8.72-4.48c3.68,1.2,4.72,3.92,3.2,8h41.2c2.32,0,3.52,1.2,3.52,3.52c0,2.32-1.2,3.52-3.52,3.52H28.32
				c-1.04,1.6-2.16,3.2-3.36,4.8c0.32-0.08,0.64-0.08,0.96-0.08h40.64c3.44,0,5.28,1.92,5.12,5.44c-0.24,4.32-0.4,8.48-0.64,12.48
				h4.8c2.24,0,3.44,1.2,3.44,3.52c0,2.32-1.2,3.52-3.44,3.52H70.56z M28,66.02h18.64c-0.72-0.24-1.52-0.64-2.32-1.28
				c-2.72-2.16-5.84-4.24-8.24-5.84c-1.44-0.96-1.76-2.16-1.2-3.6c0.32-0.72,0.72-1.28,1.36-1.52h-6.16
				C29.44,57.7,28.72,61.78,28,66.02z M31.12,46.74h15.76c-0.64-0.24-1.2-0.56-1.76-1.04c-2.56-2-5.12-3.76-7.6-5.36
				c-1.44-0.96-1.76-2.16-1.04-3.6c0.32-0.72,0.72-1.2,1.28-1.44h-4c-0.56,0-0.96,0.32-1.04,0.88
				C32.24,39.62,31.68,43.06,31.12,46.74z M57.92,53.78h-18.8c3.28,0.64,6.8,1.76,9.92,3.12c3.36,1.44,4.32,3.92,2.56,6.8
				c-0.72,1.2-1.6,2-2.64,2.32h7.92C57.28,62.34,57.6,58.1,57.92,53.78z M57.92,35.3H40.56c3.12,0.64,6.48,1.68,9.12,2.8
				c3.2,1.36,4.4,4,2.72,6.8c-0.48,0.88-1.12,1.44-1.84,1.84h7.84c0.24-3.76,0.4-7.28,0.48-10.48C58.88,35.62,58.48,35.3,57.92,35.3
				z"/>
			<path class="st0" d="M56.63,91.11c-4.77,0-10.16-1.33-15.87-3.96c-3.55-1.61-5.55-4.81-5.46-8.49h-3.97
				c-1.92,3.8-5.99,6.72-12.93,5.79c-4.79-0.67-7.29-2.95-8.55-4.74c-1.19-1.69-2.42-4.57-1.56-8.68c0.76-3.55,1.46-7.2,2.18-11.38
				c-4.64-0.71-7.75-4.38-7.75-9.39c0-2.04,0.52-3.86,1.44-5.35c-0.4-0.35-0.78-0.75-1.14-1.19c-2.96-3.64-2.71-8.45,0.61-11.98
				c4.43-4.75,8.08-11.5,10.82-20.04c2.45-7.47,8.82-10.74,16.26-8.36c4.15,1.35,6.1,3.87,7,5.75c0.3,0.63,0.54,1.29,0.72,1.97
				h34.85c5.61,0,9.52,3.91,9.52,9.52c0,4.28-2.29,7.58-5.87,8.9c0.51,1.35,0.83,3.02,0.74,5.06c-0.11,1.99-0.2,3.89-0.29,5.75
				c-0.01,0.19-0.02,0.37-0.03,0.55c4.74,0.65,7.92,4.34,7.92,9.42c0,5.51-3.75,9.38-9.15,9.52c-0.01,0.15-0.02,0.29-0.03,0.44
				c4.37,0.84,7.27,4.34,7.27,9.08c0,5.49-3.82,9.33-9.3,9.36c-1.24,4.46-3.91,7.99-7.73,10.12C63.55,90.33,60.27,91.11,56.63,91.11
				z M61.48,69.88c0.59,1.13,0.81,2.44,0.61,3.73c-0.32,1.99-0.92,3.55-1.73,4.77c0.04-0.02,0.08-0.04,0.12-0.07
				c0.82-0.46,1.95-1.4,2.29-4.19L63,72c0.13-1.19,0.61-2.27,1.32-3.14c-0.55-1.02-0.79-2.18-0.69-3.35
				c0.32-3.71,0.64-7.8,0.95-12.17c0.09-1.3,0.6-2.48,1.38-3.42c-0.66-1.05-0.98-2.29-0.91-3.55c0.13-2.17,0.24-4.4,0.35-6.67
				c0.08-1.61,0.16-3.24,0.24-4.89h-0.9c0.09,0.46,0.14,0.95,0.14,1.44c0,0.05,0,0.1,0,0.15c-0.08,3.31-0.25,6.92-0.49,10.71
				c-0.08,1.32-0.59,2.52-1.39,3.47c0.68,1.08,1,2.35,0.9,3.63c-0.34,4.64-0.66,8.78-1.06,12.45
				C62.71,67.89,62.22,68.99,61.48,69.88z M20.61,73.3L20.61,73.3L20.61,73.3z M20.22,72.58c0.2,0.02,0.36,0.03,0.51,0.04l0.14-0.9
				c0.2-1.27,0.79-2.4,1.64-3.27c-0.48-1.07-0.63-2.27-0.43-3.44l0.74-4.31c0.46-2.7,0.92-5.33,1.34-7.89
				c0.21-1.27,0.81-2.4,1.66-3.26c-0.6-1.13-0.83-2.43-0.63-3.72c0.18-1.17,0.36-2.32,0.53-3.46c0.37-2.39,0.73-4.71,1.06-7.03
				c0.03-0.18,0.06-0.36,0.1-0.53h-0.53c0,0.01,0,0.02,0,0.02l-1.76,12.72c-0.19,1.36-0.82,2.56-1.74,3.46
				c0.58,1.13,0.8,2.42,0.6,3.7C22.33,61.76,21.33,67.32,20.22,72.58z M74,72.02h0.01H74z M12.39,39.94
				C12.39,39.94,12.39,39.95,12.39,39.94C12.39,39.95,12.39,39.94,12.39,39.94z M66.87,34.84C66.87,34.84,66.87,34.84,66.87,34.84
				C66.87,34.84,66.87,34.84,66.87,34.84z M26.41,34.72C26.41,34.72,26.41,34.72,26.41,34.72C26.41,34.72,26.41,34.72,26.41,34.72z
				 M26.21,14.58c-0.09,0.16-0.22,0.42-0.35,0.83c-0.45,1.41-0.93,2.79-1.43,4.12c0.54-0.46,1.15-0.82,1.82-1.06
				c-0.28-1.15-0.21-2.37,0.21-3.5c0.04-0.12,0.08-0.23,0.11-0.32C26.42,14.6,26.3,14.59,26.21,14.58z M26.75,13.8L26.75,13.8
				L26.75,13.8z"/>
		</g>
		<g>
			<path class="st1" d="M100.4,78.42V18.98c0-3.84,2.16-6,6-6H148c3.84,0,6,2.16,6,6V78.5c0,4.16-2.32,6-6.48,6s-6.64-1.84-6.64-6
				v-2.88h-27.36v2.8c0,4.16-2.48,6-6.64,6C102.72,84.42,100.4,82.58,100.4,78.42z M140.88,40.34v-19.2c0-0.56-0.4-0.96-0.96-0.96
				h-25.44c-0.56,0-0.96,0.4-0.96,0.96v19.2H140.88z M140.88,68.42V47.38h-27.36v21.04H140.88z"/>
			<path class="st0" d="M147.52,90.5c-6.52,0-11.08-3.39-12.31-8.88h-16.04c-1.26,5.44-5.8,8.8-12.29,8.8
				c-7.58,0-12.48-4.71-12.48-12V18.98c0-7.18,4.82-12,12-12H148c7.18,0,12,4.82,12,12V78.5C160,85.79,155.1,90.5,147.52,90.5z
				 M106.45,79.03h0.01H106.45z M146.88,78.47c0.29,0.03,0.8,0.04,1.12,0.01V18.98v0h-1.45c0.21,0.68,0.33,1.4,0.33,2.16v19.2
				c0,1.31-0.42,2.53-1.14,3.52c0.72,0.99,1.14,2.21,1.14,3.52v21.04c0,1.35-0.45,2.6-1.2,3.6c0.75,1,1.2,2.25,1.2,3.6V78.47z
				 M106.4,78.4c0.32,0.02,0.83,0.02,1.12-0.01v-2.77c0-1.35,0.45-2.6,1.2-3.6c-0.75-1-1.2-2.25-1.2-3.6V47.38
				c0-1.31,0.42-2.53,1.14-3.52c-0.72-0.99-1.14-2.21-1.14-3.52v-19.2c0-0.76,0.12-1.48,0.33-2.16h-1.45v0V78.4z M119.52,62.42
				h15.36v-9.04h-15.36V62.42z M119.52,34.34h15.36v-8.16h-15.36V34.34z"/>
		</g>
		<g>
			<path class="st1" d="M237.12,48.42c-1.28-0.72-2.56-1.44-3.84-2.24c0.4,0.8,0.64,1.76,0.64,2.88v9.92c0,3.36-1.84,5.2-5.2,5.2
				h-0.24c2.32,2,2.32,4.4-0.16,7.36c-1.12,1.44-2.4,2.88-3.76,4.32h17.68c2.24,0,3.44,1.2,3.44,3.44c0,2.24-1.2,3.44-3.44,3.44
				h-62.32c-2.24,0-3.44-1.2-3.44-3.44c0-2.24,1.2-3.44,3.44-3.44h17.6c-1.36-2.56-2.96-5.2-4.8-7.76c-1.12-1.44-1.12-2.8-0.24-4
				c-2.72-0.32-4.24-2.08-4.24-5.12v-9.92V48.5c-2.96,1.68-6.16,3.04-9.52,4.16c-1.84,0.64-3.12-0.08-3.68-1.6
				c-0.56-1.6,0.08-2.64,1.76-3.6c6.56-3.6,11.12-7.36,14.56-11.68c-1.92-2.96-4.56-6.4-7.6-9.6c-1.12-1.12-1.12-2.4-0.24-3.52
				c0.88-1.12,2.08-1.28,3.52-0.72c3.28,1.36,6.56,3.2,9.52,5.52c0.88-2,1.76-4,2.48-6.24c0.24-0.72-0.16-1.12-0.8-1.12H184.4
				c-2.08,0-3.28-1.2-3.28-3.28s1.2-3.2,3.28-3.2h15.28c1.84-2,5.04-2.72,8.32-1.52c1.44,0.48,2.56,1.44,3.2,2.8
				c-0.24-0.88-0.48-1.76-0.64-2.64c-0.4-1.84,0.56-2.96,2-3.28c1.52-0.32,2.8,0.16,3.52,1.76c0.88,2.08,1.84,4,2.96,5.84
				c0.72-1.12,1.44-2.4,2.16-3.76c2.08-3.36,4.72-3.92,7.76-1.68c3.2,2.24,3.52,5.28,0.48,7.92c-1.84,1.6-3.76,3.04-5.68,4.24
				c1.12,1.36,2.4,2.56,3.68,3.76c1.2-1.6,2.48-3.44,3.76-5.52c2-3.28,4.64-3.84,7.68-1.68c3.12,2.32,3.44,5.28,0.4,7.84
				c-1.84,1.52-3.84,2.88-5.68,4.08c2.8,1.76,6,3.36,9.44,4.72c4.4,1.76,5.92,5.12,3.84,9.36
				C244.88,49.94,241.44,50.66,237.12,48.42z M230.32,44.02c-2.24-1.68-4.24-3.6-6.16-5.68h-22.64c-1.84,2-3.84,3.84-6,5.52h33.2
				C229.28,43.86,229.84,43.94,230.32,44.02z M220.16,64.18H199.2c2.4,1.68,4.8,3.68,6.8,5.52c2.32,2.16,3.04,4.24,2,6.16h7.04
				c1.68-3.36,2.96-6.72,4.24-10C219.52,65.22,219.84,64.66,220.16,64.18z M221.12,51.38c0-0.56-0.4-0.96-0.96-0.96H202
				c-0.56,0-0.96,0.4-0.96,0.96v5.28c0,0.56,0.4,0.96,0.96,0.96h18.16c0.56,0,0.96-0.4,0.96-0.96V51.38z M206.48,31.78h12.48
				c-3.04-4.48-5.44-9.36-7.12-14.64c0.16,1.12,0,2.4-0.4,3.76C210.16,24.9,208.56,28.5,206.48,31.78z"/>
			<path class="st0" d="M242.24,88.74h-62.32c-5.56,0-9.44-3.88-9.44-9.44c0-5.56,3.88-9.44,9.44-9.44h6.86
				c-0.34-0.7-0.59-1.42-0.74-2.15c-2.4-1.98-3.8-5.04-3.8-8.73v-1.19c-0.53,0.19-1.07,0.38-1.62,0.56
				c-4.74,1.65-9.48-0.53-11.21-5.22c-0.6-1.71-1.95-7.25,4.41-10.88c0.03-0.02,0.06-0.03,0.09-0.05c3.98-2.18,7.16-4.43,9.76-6.9
				c-1.32-1.72-2.76-3.4-4.22-4.95c-2.11-2.15-2.93-4.97-2.39-7.66c-1.23-1.57-1.93-3.59-1.93-5.88c0-5.33,3.9-9.2,9.28-9.2h13.16
				c2.62-1.71,5.88-2.41,9.19-1.97c1.15-1.22,2.69-2.12,4.51-2.53c3.34-0.7,6.43,0.26,8.54,2.51c1.4-0.98,2.76-1.44,3.86-1.66
				c2.05-0.39,5.23-0.31,8.8,2.29c2.46,1.74,4.1,3.99,4.76,6.46c1.53,0.27,3.28,0.92,5.13,2.24c0.04,0.02,0.07,0.05,0.1,0.08
				c3.08,2.29,4.83,5.34,4.93,8.59c0.08,2.53-0.85,4.98-2.66,7.08c0.17,0.07,0.34,0.14,0.51,0.2c4.88,1.95,6.93,5.06,7.81,7.33
				c0.85,2.21,1.41,5.79-0.78,10.25c-2.05,4.18-5.02,5.9-7.15,6.6c-1.66,0.55-3.39,0.7-5.2,0.47v3.4c0,3.71-1.38,6.75-3.76,8.72
				c-0.03,0.73-0.15,1.45-0.33,2.16h6.4c5.56,0,9.44,3.88,9.44,9.44C251.68,84.86,247.8,88.74,242.24,88.74z M194.24,58.37
				c0.4,0.13,0.78,0.29,1.15,0.5c-0.22-0.69-0.34-1.43-0.34-2.21v-5.28c0-0.53,0.06-1.04,0.16-1.53c-0.33-0.02-0.65-0.06-0.96-0.13
				V58.37z M226.96,49.86c0.1,0.49,0.16,1,0.16,1.52v5.28c0,0.6-0.07,1.18-0.21,1.73c0.33-0.09,0.66-0.15,1.01-0.19v-8.35H226.96z
				 M176.79,46.98c-0.01,0-0.03,0.01-0.04,0.01C176.76,46.99,176.77,46.98,176.79,46.98z M239.96,43.13c0.63,0.32,1.05,0.45,1.3,0.5
				c0.06-0.1,0.14-0.23,0.23-0.42c0.14-0.29,0.22-0.51,0.26-0.66c-0.18-0.13-0.48-0.31-0.94-0.49c-2.92-1.15-5.68-2.47-8.22-3.91
				c0.44,0.37,0.89,0.73,1.33,1.06c0.49,0.36,0.9,0.79,1.25,1.26c0.45,0.15,0.88,0.35,1.29,0.61
				C237.59,41.8,238.74,42.45,239.96,43.13z M196.89,33.45c0.11,0.25,0.19,0.51,0.27,0.77c0.42-0.45,0.9-0.82,1.43-1.12
				c-0.18,0.07-0.37,0.12-0.56,0.17C197.64,33.37,197.27,33.43,196.89,33.45z M226.98,33.04c0.32,0.17,0.63,0.37,0.92,0.6
				c-0.06-0.19-0.12-0.39-0.16-0.59C227.48,33.06,227.23,33.06,226.98,33.04z M200.48,32c-0.3,0.26-0.63,0.5-0.99,0.69
				c0.33-0.12,0.67-0.21,1.02-0.27C200.5,32.28,200.49,32.14,200.48,32z M235.67,22.86L235.67,22.86L235.67,22.86z M204.29,17.58
				c0.56,1.01,0.84,2.14,0.83,3.29c0.2-0.56,0.4-1.14,0.59-1.73c0.23-0.81,0.2-1.16,0.2-1.16c-0.01-0.09-0.02-0.18-0.03-0.27
				C205.11,17.45,204.57,17.49,204.29,17.58z M226.71,15.43L226.71,15.43L226.71,15.43z"/>
		</g>
		<g>
			<path class="st1" d="M260.64,77.62c15.68-12.48,25.04-30.8,28.08-55.28c0.08-0.64-0.32-1.04-0.96-1.04h-14.4c-2.56,0-4-1.44-4-4
				s1.44-4,4-4h21.76c5.52,0,7.52,2.8,7.84,7.6c1.2,17.76,10.96,36.4,24.48,48.16c4.48,3.92,5.12,8,2,11.76
				c-3.36,4.08-8.4,3.92-12.4-0.64c-9.04-10.24-16.48-29.84-17.76-43.6c-3.92,16.48-16.16,38.8-35.28,46.96
				c-2.08,0.88-3.84,0.48-4.72-1.2C258.4,80.58,258.88,79.06,260.64,77.62z"/>
			<path class="st0" d="M262.01,89.97c-3.39,0-6.41-1.73-8.05-4.85c-0.02-0.03-0.03-0.07-0.05-0.1c-2.14-4.29-1.05-8.79,2.93-12.05
				c0.02-0.02,0.04-0.03,0.06-0.05c13.32-10.6,21.54-25.56,25.02-45.63h-8.56c-5.89,0-10-4.11-10-10s4.11-10,10-10h21.76
				c8.23,0,13.27,4.81,13.83,13.2c1.07,15.83,9.88,33.11,22.43,44.03c8.28,7.24,6.81,15.14,2.68,20.12
				c-2.65,3.22-6.24,5.03-10.08,5.09c-0.07,0-0.13,0-0.2,0c-4.09,0-8.07-1.99-11.25-5.61c-6.06-6.86-11.15-17-14.6-27.01
				c-6.93,13.44-17.71,26.01-31.57,31.93C264.89,89.68,263.42,89.97,262.01,89.97z M312.79,62.07c2.6,5.61,5.64,10.62,8.74,14.14
				c1.08,1.23,1.94,1.54,2.25,1.54c0.26,0,0.64-0.28,1.02-0.74c0.67-0.8,1.09-1.32-1.32-3.43
				C319.57,70.17,315.98,66.28,312.79,62.07z M294.11,19.3c0.53,1.16,0.73,2.47,0.57,3.78c-1.26,10.19-3.61,19.45-7.03,27.77
				c2.66-5.29,4.62-10.7,5.8-15.66c0.57-2.39,2.51-4.14,4.84-4.53c-0.66-3.12-1.1-6.25-1.31-9.36c-0.07-1.11-0.25-1.63-0.33-1.83
				c-0.18-0.06-0.64-0.17-1.52-0.17H294.11z"/>
		</g>
		<g>
			<path class="st1" d="M414,40.66c-0.96,3.2-3.28,3.84-6.08,2.96c-4.32-1.36-8.16-3.36-11.44-5.92c-4,2.48-8.48,4.16-13.28,4.96
				c-1.44,0.24-2.4-0.32-2.72-1.6c-0.32-1.2,0.16-2.16,1.52-2.72c3.92-1.6,7.12-3.28,9.68-5.44c-1.36-1.68-2.48-3.6-3.44-5.6
				c-1.12,1.2-2.24,2.24-3.28,3.12c-1.2,1.12-2.64,1.12-3.6,0.16c-0.32-0.32-0.56-0.64-0.72-0.96c-0.08,2.72-0.24,4.88-0.48,6.88
				c-0.8,5.92-5.44,6.72-11.04,4.8c-1.04-0.32-1.52-0.8-1.76-1.36c-0.4,0.08-0.8,0.16-1.28,0.16h-11.92c-2.56,0-4-1.44-4-4v-2
				c-1.2,1.04-2.4,1.92-3.52,2.72c-1.2,0.8-2.32,0.64-3.12-0.32c-0.8-0.96-0.72-2.08,0.16-3.2c2.48-3.12,4.48-6.88,5.76-10.4
				c0.64-1.76,1.76-2.64,3.12-2.72c-0.24-0.4-0.4-0.88-0.48-1.44h-4.8c-1.92,0-2.96-1.04-2.96-2.96s1.04-2.96,2.96-2.96h4.8v-0.16
				c0-2,1.76-3.36,4.4-3.36c2.64,0,4.4,1.28,4.4,3.36v0.16h5.76v-0.24c0-2.16,1.76-3.36,4.4-3.36c2.64,0,4.4,1.2,4.4,3.36v0.24h5.44
				c1.92,0,2.96,1.04,2.96,2.96s-1.04,2.96-2.96,2.96h-5.44c-0.16,2.56-1.68,3.36-4.4,3.36c-2.72,0-4.24-0.8-4.4-3.36h-5.76
				c-0.32,2.16-1.76,2.88-4.16,2.96c0.32,0.4,0.56,0.8,0.64,1.28h18.4c3.28,0,5.04,1.84,4.96,4.88c0.08-0.24,0.24-0.56,0.4-0.88
				c2.64-4.16,4.16-8.72,5.2-13.76c0.64-3.28,2.48-4.24,5.44-3.76c2.8,0.48,4,2.16,3.28,5.36c-0.08,0.48-0.24,1.04-0.4,1.52h16.8
				c1.84,0,2.88,1.04,2.88,2.88s-1.04,2.88-2.88,2.88h-2.56c-1.2,3.84-3.2,7.2-5.84,10c2.24,0.96,4.72,1.76,7.52,2.48
				C413.92,35.54,414.96,37.54,414,40.66z M355.76,73.62c-0.72,3.28-2.08,6.32-3.52,8.8c-1.6,3.04-4.24,3.44-6.8,1.28
				c-2.48-2.08-2.4-4.48,0.08-6.88c2-1.76,3.92-3.92,5.36-6.08c1.04-1.44,2.32-1.84,3.68-1.12
				C355.92,70.34,356.4,71.62,355.76,73.62z M413.2,69.54c-0.08,2.64-0.32,4.96-0.8,8.08c-1.04,7.12-8.32,9.2-16.48,5.28
				c-1.44-0.72-1.84-1.76-1.6-3.12c-1.68,0.4-3.2-0.48-4-2.72c-0.56-1.52-1.28-3.12-2.24-4.64c-0.56-1.04-0.64-1.92-0.24-2.64h-8.8
				c0.24,0.16,0.56,0.4,0.8,0.64c1.76,1.76,3.36,3.68,4.8,6c1.84,2.88,0.96,5.28-1.92,6.48c-2.96,1.2-5.36-0.08-6.08-3.2
				c-0.48-2.16-1.04-4.24-1.84-6.56c-0.56-1.52-0.16-2.72,0.88-3.36h-10.72c0.4,0.24,0.72,0.56,1.04,1.04c1.52,2,3.04,4.64,4,7.36
				c1.12,3.2,0.24,5.2-2.88,6c-3.12,0.8-5.2-0.4-5.52-3.84c-0.24-2.56-0.56-5.04-1.04-7.36c-0.24-1.52,0.16-2.64,1.2-3.2h-3.44
				c-3.36,0-5.2-1.84-5.2-5.2v-16.4c0-3.36,1.84-5.2,5.2-5.2h46.32c1.84,0,2.8,0.96,2.8,2.8c0,1.84-0.96,2.8-2.8,2.8h-18.32v1.92
				h15.92c1.68,0,2.56,0.96,2.56,2.48c0,1.6-0.88,2.48-2.56,2.48h-15.92v1.76h15.92c1.68,0,2.56,0.96,2.56,2.48
				c0,1.6-0.88,2.48-2.56,2.48h-15.92v2h21.84C411.52,64.18,413.28,66.1,413.2,69.54z M372.56,29.06c0-0.56-0.4-0.96-0.96-0.96h-16
				l-0.96,1.36h11.44c2.56,0,4,1.44,4,4v2.64v0.56c1.36,0.08,2-0.24,2.16-1.68C372.4,33.14,372.56,30.98,372.56,29.06z
				 M362.56,34.42c0-0.56-0.4-0.96-0.96-0.96h-2.96c-0.56,0-0.96,0.4-0.96,0.96v0.8c0,0.56,0.4,0.96,0.96,0.96h2.96
				c0.56,0,0.96-0.4,0.96-0.96V34.42z M364.8,49.54v0.96h10.32v-1.92h-9.36C365.2,48.58,364.8,48.98,364.8,49.54z M375.12,55.46
				H364.8v1.76h10.32V55.46z M365.76,64.18h9.36v-2H364.8v1.04C364.8,63.78,365.2,64.18,365.76,64.18z M391.44,22.98
				c1.28,2,2.8,3.68,4.56,5.12c1.2-1.76,2.16-3.76,2.96-6H392C391.84,22.42,391.6,22.74,391.44,22.98z M402.16,70.82
				c0-0.56-0.4-1.04-0.96-1.04h-7.52c1.04,0.8,2.08,1.76,3.04,2.88c1.6,1.76,1.76,3.52,0.56,5.12h0.4c2.8,0.16,3.76-0.56,4.08-2.56
				C401.92,74.26,402.16,72.58,402.16,70.82z"/>
			<path class="st0" d="M348.62,91.06c-2.44,0-4.89-0.95-7.05-2.78c-3.13-2.63-3.87-5.54-3.95-7.52c-0.07-2.05,0.51-5.15,3.72-8.26
				c0.07-0.07,0.14-0.13,0.21-0.19c1.63-1.44,3.21-3.23,4.33-4.9c0.04-0.06,0.08-0.12,0.13-0.19c0.36-0.5,0.75-0.95,1.16-1.36
				c-0.04-0.42-0.06-0.85-0.06-1.29v-16.4c0-1.5,0.23-2.89,0.65-4.15c-0.34-0.27-0.67-0.56-0.97-0.88c-2.9,0.61-5.86-0.38-7.89-2.81
				c-2.63-3.15-2.61-7.37,0.05-10.75c1.38-1.73,2.65-3.82,3.68-5.99c-2.67-1.48-4.32-4.3-4.32-7.83c0-5.28,3.68-8.96,8.96-8.96h0.95
				c1.87-2.17,4.82-3.52,8.25-3.52c2.89,0,5.4,0.91,7.23,2.45c1.84-1.59,4.39-2.53,7.33-2.53c3.55,0,6.53,1.37,8.38,3.6h1.46
				c0.61,0,1.19,0.05,1.76,0.14c2.22-2.84,5.78-4.12,10.08-3.43c3.88,0.66,5.92,2.64,6.95,4.19c0.44,0.66,0.89,1.53,1.2,2.62h10.58
				c5.15,0,8.88,3.73,8.88,8.88c0,4.6-2.99,8.08-7.3,8.76c-0.15,0.32-0.3,0.63-0.46,0.94c3.1,0.96,5.33,2.66,6.63,5.06
				c0.91,1.68,1.75,4.51,0.55,8.43c-1.12,3.72-3.35,5.56-5.02,6.45c-0.56,0.3-1.25,0.59-2.05,0.8c-0.45,1.03-1.09,1.93-1.89,2.68
				c0.01,0.22,0.02,0.44,0.02,0.66c0,1.21-0.22,2.34-0.62,3.36c0.26,0.65,0.44,1.34,0.54,2.08c2.65,0.52,4.41,1.79,5.49,2.9
				c1.42,1.46,3.09,4.09,3,8.37c0,0.01,0,0.03,0,0.04c-0.08,2.81-0.34,5.37-0.87,8.81c-0.68,4.68-3.24,8.45-7.2,10.55
				c-4.88,2.6-11.37,2.32-17.81-0.77c-1.62-0.81-2.88-1.92-3.73-3.23c-1.12,1.42-2.67,2.57-4.56,3.36
				c-3.13,1.27-6.28,1.19-8.94-0.18c-0.73-0.38-1.4-0.85-2-1.39c-1.13,1.24-2.85,2.46-5.48,3.13c-4.24,1.09-7.14-0.1-8.83-1.28
				c-0.86-0.6-1.82-1.51-2.61-2.82c-1.62,2.7-4,4.46-6.77,5C349.81,91,349.21,91.06,348.62,91.06z M364.47,80.63L364.47,80.63
				L364.47,80.63z M408.4,70.19L408.4,70.19L408.4,70.19z M413.2,69.54L413.2,69.54L413.2,69.54z M359.12,59.15v1.09
				c0.06-0.19,0.13-0.37,0.22-0.54C359.25,59.52,359.18,59.34,359.12,59.15z M380.58,59.7c0.05,0.11,0.09,0.21,0.14,0.32
				c0.04-0.11,0.09-0.22,0.13-0.32c-0.05-0.11-0.09-0.21-0.13-0.32C380.68,59.49,380.63,59.59,380.58,59.7z M359.12,52.43v1.09
				c0.06-0.19,0.13-0.37,0.22-0.54C359.25,52.8,359.18,52.62,359.12,52.43z M380.58,52.98c0.05,0.11,0.09,0.21,0.14,0.32
				c0.04-0.11,0.09-0.22,0.13-0.32c-0.05-0.11-0.09-0.21-0.13-0.32C380.68,52.77,380.63,52.87,380.58,52.98z M410.07,37.98
				L410.07,37.98L410.07,37.98z"/>
		</g>
		<g>
			<path class="st1" d="M498.72,58.5c0,1.92-1.12,3.04-3.04,3.04h-65.12c-1.92,0-3.04-1.12-3.04-3.04c0-1.92,1.12-3.04,3.04-3.04
				h15.52c-1.04-1.68-2-3.28-2.96-4.72c-0.32-0.48-0.48-0.96-0.56-1.44h-0.64c-3.36,0-5.2-1.84-5.2-5.2v-5.52
				c0-3.36,1.84-5.2,5.2-5.2h42.48c3.36,0,5.2,1.84,5.2,5.2v5.52c0,3.36-1.84,5.2-5.2,5.2h-1.2c1.2,1.6,0.96,3.6-0.72,5.12
				c-0.4,0.32-0.8,0.72-1.28,1.04h14.48C497.6,55.46,498.72,56.58,498.72,58.5z M428.48,18.5c0-2.08,1.2-3.2,3.28-3.2h24.64v-1.52
				c0-3.04,2.48-4.72,6.64-4.72c4,0,6.48,1.68,6.48,4.72v1.52h25.12c2.08,0,3.28,1.12,3.28,3.2c0,2.08-1.2,3.28-3.28,3.28h-25.12
				v2.96h20.8c2,0,3.2,1.12,3.2,3.2s-1.2,3.2-3.2,3.2h-54.48c-2,0-3.2-1.12-3.2-3.2s1.2-3.2,3.2-3.2h20.56v-2.96h-24.64
				C429.68,21.78,428.48,20.58,428.48,18.5z M490.08,69.3v10c0,3.68-2.24,5.6-6.4,5.6c-3.6,0-5.76-1.44-6.32-4.24h-28.48
				c-0.48,2.88-2.64,4.32-6.32,4.32c-4.16,0-6.4-1.92-6.4-5.6V69.3c0-3.36,1.84-5.2,5.2-5.2h43.52
				C488.24,64.1,490.08,65.94,490.08,69.3z M448.96,70.98v3.76h28.32v-3.76c0-0.56-0.4-0.96-0.96-0.96h-26.4
				C449.36,70.02,448.96,70.42,448.96,70.98z M449.36,42.26c0,0.56,0.4,0.96,0.96,0.96H476c0.56,0,0.96-0.4,0.96-0.96v-1.84
				c0-0.56-0.4-0.96-0.96-0.96h-25.68c-0.56,0-0.96,0.4-0.96,0.96V42.26z M455.44,55.46h16.08c1.04-1.84,2.08-3.6,3.28-5.84
				c0.08-0.08,0.16-0.24,0.16-0.32h-23.12c0.72,0.56,1.44,1.2,2.08,1.84C455.52,52.58,455.92,54.1,455.44,55.46z"/>
			<path class="st0" d="M442.56,90.98c-7.53,0-12.4-4.55-12.4-11.6V69.3c0-0.61,0.04-1.2,0.11-1.76c-5.09-0.14-8.75-3.9-8.75-9.04
				c0-5.24,3.8-9.04,9.04-9.04h1.31c-0.74-1.55-1.15-3.36-1.15-5.36v-5.52c0-0.95,0.09-1.85,0.26-2.7
				c-2.67-1.56-4.34-4.43-4.34-7.94c0-0.51,0.04-1.01,0.11-1.5c-2.62-1.58-4.27-4.45-4.27-7.94c0-5.33,3.9-9.2,9.28-9.2h19.63
				c1.65-3.5,5.43-6.24,11.65-6.24c6.15,0,9.87,2.74,11.5,6.24h20.1c5.38,0,9.28,3.87,9.28,9.2c0,3.59-1.74,6.52-4.49,8.07
				c0.06,0.44,0.09,0.9,0.09,1.37c0,3.45-1.62,6.28-4.2,7.86c0.18,0.88,0.28,1.81,0.28,2.78v5.52c0,2-0.4,3.81-1.15,5.36h1.23
				c5.24,0,9.04,3.8,9.04,9.04c0,5.14-3.66,8.9-8.75,9.04c0.07,0.57,0.11,1.16,0.11,1.76v10c0,7.05-4.87,11.6-12.4,11.6
				c-4.36,0-7.85-1.52-10.02-4.24h-20.98C450.54,89.43,447.02,90.98,442.56,90.98z M442.16,78.97c0.29,0.02,0.71,0.01,0.97-0.01
				c0.14-0.47,0.33-0.91,0.58-1.32c-0.47-0.86-0.74-1.85-0.74-2.9v-3.76c0-0.3,0.02-0.59,0.05-0.88h-0.85V78.97z M483.09,78.87
				c0.25,0.03,0.69,0.03,0.99,0.02V70.1h-0.85c0.04,0.29,0.05,0.58,0.05,0.88v3.76c0,1.05-0.27,2.03-0.74,2.89
				C482.77,78.02,482.95,78.43,483.09,78.87z M441.05,70.12L441.05,70.12L441.05,70.12z M485.18,70.12L485.18,70.12L485.18,70.12z
				 M495.68,61.46L495.68,61.46L495.68,61.46z M442.72,43.3c0.24,0.01,0.49,0.03,0.72,0.06c-0.06-0.36-0.08-0.73-0.08-1.1v-1.84
				c0-0.35,0.03-0.7,0.07-1.04h-0.71V43.3z M482.88,39.38c0.05,0.34,0.07,0.69,0.07,1.04v1.84c0,0.36-0.03,0.71-0.08,1.05
				c0.1-0.01,0.21-0.01,0.32-0.01h0.4v-3.92H482.88z M484.7,43.28L484.7,43.28z M441.61,43.28L441.61,43.28L441.61,43.28z
				 M462.39,25.14h1.15c-0.01-0.13-0.01-0.27-0.01-0.4v-2.96c0-1.19,0.35-2.31,0.95-3.24c-0.6-0.93-0.95-2.05-0.95-3.24v-0.23
				c-0.33-0.02-0.81-0.02-1.12,0.01v0.22c0,1.19-0.35,2.31-0.95,3.24c0.6,0.93,0.95,2.05,0.95,3.24v2.96
				C462.4,24.87,462.39,25.01,462.39,25.14z"/>
		</g>
	</g>
	<g>
		<g>
			<path class="st2" d="M70.56,53.78c-0.32,4.4-0.64,8.48-0.96,12.24H74c2.16,0,3.36,1.12,3.36,3.28s-1.2,3.36-3.36,3.36h-5.04
				l-0.24,2.16c-1.28,10.8-11.92,13.12-25.44,6.88c-1.76-0.8-2.24-2.24-1.84-3.84c0.4-1.68,1.6-2.4,3.68-2.08
				c8.4,1.28,10.4,0.88,11.04-3.12H26.8l-0.24,1.52c-0.64,3.52-3.2,4.88-7.36,4.32c-4-0.56-5.76-2.8-5.04-6.24
				c1.28-6,2.32-11.92,3.36-18.48h-5.36c-2.24,0-3.44-1.2-3.44-3.52c0-2.32,1.2-3.52,3.44-3.52h6.48l1.76-12.72
				c-2.88,2.8-5.92,5.12-8.8,6.56c-1.68,0.8-2.88,0.64-3.92-0.64C6.64,38.66,6.72,37.22,8,35.86c5.52-5.92,9.44-13.84,12.16-22.32
				c1.52-4.64,4.72-5.76,8.72-4.48c3.68,1.2,4.72,3.92,3.2,8h41.2c2.32,0,3.52,1.2,3.52,3.52c0,2.32-1.2,3.52-3.52,3.52H28.32
				c-1.04,1.6-2.16,3.2-3.36,4.8c0.32-0.08,0.64-0.08,0.96-0.08h40.64c3.44,0,5.28,1.92,5.12,5.44c-0.24,4.32-0.4,8.48-0.64,12.48
				h4.8c2.24,0,3.44,1.2,3.44,3.52c0,2.32-1.2,3.52-3.44,3.52H70.56z M28,66.02h18.64c-0.72-0.24-1.52-0.64-2.32-1.28
				c-2.72-2.16-5.84-4.24-8.24-5.84c-1.44-0.96-1.76-2.16-1.2-3.6c0.32-0.72,0.72-1.28,1.36-1.52h-6.16
				C29.44,57.7,28.72,61.78,28,66.02z M31.12,46.74h15.76c-0.64-0.24-1.2-0.56-1.76-1.04c-2.56-2-5.12-3.76-7.6-5.36
				c-1.44-0.96-1.76-2.16-1.04-3.6c0.32-0.72,0.72-1.2,1.28-1.44h-4c-0.56,0-0.96,0.32-1.04,0.88
				C32.24,39.62,31.68,43.06,31.12,46.74z M57.92,53.78h-18.8c3.28,0.64,6.8,1.76,9.92,3.12c3.36,1.44,4.32,3.92,2.56,6.8
				c-0.72,1.2-1.6,2-2.64,2.32h7.92C57.28,62.34,57.6,58.1,57.92,53.78z M57.92,35.3H40.56c3.12,0.64,6.48,1.68,9.12,2.8
				c3.2,1.36,4.4,4,2.72,6.8c-0.48,0.88-1.12,1.44-1.84,1.84h7.84c0.24-3.76,0.4-7.28,0.48-10.48C58.88,35.62,58.48,35.3,57.92,35.3
				z"/>
		</g>
		<g>
			<path class="st2" d="M100.4,78.42V18.98c0-3.84,2.16-6,6-6H148c3.84,0,6,2.16,6,6V78.5c0,4.16-2.32,6-6.48,6s-6.64-1.84-6.64-6
				v-2.88h-27.36v2.8c0,4.16-2.48,6-6.64,6C102.72,84.42,100.4,82.58,100.4,78.42z M140.88,40.34v-19.2c0-0.56-0.4-0.96-0.96-0.96
				h-25.44c-0.56,0-0.96,0.4-0.96,0.96v19.2H140.88z M140.88,68.42V47.38h-27.36v21.04H140.88z"/>
		</g>
		<g>
			<path class="st2" d="M237.12,48.42c-1.28-0.72-2.56-1.44-3.84-2.24c0.4,0.8,0.64,1.76,0.64,2.88v9.92c0,3.36-1.84,5.2-5.2,5.2
				h-0.24c2.32,2,2.32,4.4-0.16,7.36c-1.12,1.44-2.4,2.88-3.76,4.32h17.68c2.24,0,3.44,1.2,3.44,3.44c0,2.24-1.2,3.44-3.44,3.44
				h-62.32c-2.24,0-3.44-1.2-3.44-3.44c0-2.24,1.2-3.44,3.44-3.44h17.6c-1.36-2.56-2.96-5.2-4.8-7.76c-1.12-1.44-1.12-2.8-0.24-4
				c-2.72-0.32-4.24-2.08-4.24-5.12v-9.92V48.5c-2.96,1.68-6.16,3.04-9.52,4.16c-1.84,0.64-3.12-0.08-3.68-1.6
				c-0.56-1.6,0.08-2.64,1.76-3.6c6.56-3.6,11.12-7.36,14.56-11.68c-1.92-2.96-4.56-6.4-7.6-9.6c-1.12-1.12-1.12-2.4-0.24-3.52
				c0.88-1.12,2.08-1.28,3.52-0.72c3.28,1.36,6.56,3.2,9.52,5.52c0.88-2,1.76-4,2.48-6.24c0.24-0.72-0.16-1.12-0.8-1.12H184.4
				c-2.08,0-3.28-1.2-3.28-3.28s1.2-3.2,3.28-3.2h15.28c1.84-2,5.04-2.72,8.32-1.52c1.44,0.48,2.56,1.44,3.2,2.8
				c-0.24-0.88-0.48-1.76-0.64-2.64c-0.4-1.84,0.56-2.96,2-3.28c1.52-0.32,2.8,0.16,3.52,1.76c0.88,2.08,1.84,4,2.96,5.84
				c0.72-1.12,1.44-2.4,2.16-3.76c2.08-3.36,4.72-3.92,7.76-1.68c3.2,2.24,3.52,5.28,0.48,7.92c-1.84,1.6-3.76,3.04-5.68,4.24
				c1.12,1.36,2.4,2.56,3.68,3.76c1.2-1.6,2.48-3.44,3.76-5.52c2-3.28,4.64-3.84,7.68-1.68c3.12,2.32,3.44,5.28,0.4,7.84
				c-1.84,1.52-3.84,2.88-5.68,4.08c2.8,1.76,6,3.36,9.44,4.72c4.4,1.76,5.92,5.12,3.84,9.36
				C244.88,49.94,241.44,50.66,237.12,48.42z M230.32,44.02c-2.24-1.68-4.24-3.6-6.16-5.68h-22.64c-1.84,2-3.84,3.84-6,5.52h33.2
				C229.28,43.86,229.84,43.94,230.32,44.02z M220.16,64.18H199.2c2.4,1.68,4.8,3.68,6.8,5.52c2.32,2.16,3.04,4.24,2,6.16h7.04
				c1.68-3.36,2.96-6.72,4.24-10C219.52,65.22,219.84,64.66,220.16,64.18z M221.12,51.38c0-0.56-0.4-0.96-0.96-0.96H202
				c-0.56,0-0.96,0.4-0.96,0.96v5.28c0,0.56,0.4,0.96,0.96,0.96h18.16c0.56,0,0.96-0.4,0.96-0.96V51.38z M206.48,31.78h12.48
				c-3.04-4.48-5.44-9.36-7.12-14.64c0.16,1.12,0,2.4-0.4,3.76C210.16,24.9,208.56,28.5,206.48,31.78z"/>
		</g>
		<g>
			<path class="st2" d="M260.64,77.62c15.68-12.48,25.04-30.8,28.08-55.28c0.08-0.64-0.32-1.04-0.96-1.04h-14.4c-2.56,0-4-1.44-4-4
				s1.44-4,4-4h21.76c5.52,0,7.52,2.8,7.84,7.6c1.2,17.76,10.96,36.4,24.48,48.16c4.48,3.92,5.12,8,2,11.76
				c-3.36,4.08-8.4,3.92-12.4-0.64c-9.04-10.24-16.48-29.84-17.76-43.6c-3.92,16.48-16.16,38.8-35.28,46.96
				c-2.08,0.88-3.84,0.48-4.72-1.2C258.4,80.58,258.88,79.06,260.64,77.62z"/>
		</g>
		<g>
			<path class="st2" d="M414,40.66c-0.96,3.2-3.28,3.84-6.08,2.96c-4.32-1.36-8.16-3.36-11.44-5.92c-4,2.48-8.48,4.16-13.28,4.96
				c-1.44,0.24-2.4-0.32-2.72-1.6c-0.32-1.2,0.16-2.16,1.52-2.72c3.92-1.6,7.12-3.28,9.68-5.44c-1.36-1.68-2.48-3.6-3.44-5.6
				c-1.12,1.2-2.24,2.24-3.28,3.12c-1.2,1.12-2.64,1.12-3.6,0.16c-0.32-0.32-0.56-0.64-0.72-0.96c-0.08,2.72-0.24,4.88-0.48,6.88
				c-0.8,5.92-5.44,6.72-11.04,4.8c-1.04-0.32-1.52-0.8-1.76-1.36c-0.4,0.08-0.8,0.16-1.28,0.16h-11.92c-2.56,0-4-1.44-4-4v-2
				c-1.2,1.04-2.4,1.92-3.52,2.72c-1.2,0.8-2.32,0.64-3.12-0.32c-0.8-0.96-0.72-2.08,0.16-3.2c2.48-3.12,4.48-6.88,5.76-10.4
				c0.64-1.76,1.76-2.64,3.12-2.72c-0.24-0.4-0.4-0.88-0.48-1.44h-4.8c-1.92,0-2.96-1.04-2.96-2.96s1.04-2.96,2.96-2.96h4.8v-0.16
				c0-2,1.76-3.36,4.4-3.36c2.64,0,4.4,1.28,4.4,3.36v0.16h5.76v-0.24c0-2.16,1.76-3.36,4.4-3.36c2.64,0,4.4,1.2,4.4,3.36v0.24h5.44
				c1.92,0,2.96,1.04,2.96,2.96s-1.04,2.96-2.96,2.96h-5.44c-0.16,2.56-1.68,3.36-4.4,3.36c-2.72,0-4.24-0.8-4.4-3.36h-5.76
				c-0.32,2.16-1.76,2.88-4.16,2.96c0.32,0.4,0.56,0.8,0.64,1.28h18.4c3.28,0,5.04,1.84,4.96,4.88c0.08-0.24,0.24-0.56,0.4-0.88
				c2.64-4.16,4.16-8.72,5.2-13.76c0.64-3.28,2.48-4.24,5.44-3.76c2.8,0.48,4,2.16,3.28,5.36c-0.08,0.48-0.24,1.04-0.4,1.52h16.8
				c1.84,0,2.88,1.04,2.88,2.88s-1.04,2.88-2.88,2.88h-2.56c-1.2,3.84-3.2,7.2-5.84,10c2.24,0.96,4.72,1.76,7.52,2.48
				C413.92,35.54,414.96,37.54,414,40.66z M355.76,73.62c-0.72,3.28-2.08,6.32-3.52,8.8c-1.6,3.04-4.24,3.44-6.8,1.28
				c-2.48-2.08-2.4-4.48,0.08-6.88c2-1.76,3.92-3.92,5.36-6.08c1.04-1.44,2.32-1.84,3.68-1.12
				C355.92,70.34,356.4,71.62,355.76,73.62z M413.2,69.54c-0.08,2.64-0.32,4.96-0.8,8.08c-1.04,7.12-8.32,9.2-16.48,5.28
				c-1.44-0.72-1.84-1.76-1.6-3.12c-1.68,0.4-3.2-0.48-4-2.72c-0.56-1.52-1.28-3.12-2.24-4.64c-0.56-1.04-0.64-1.92-0.24-2.64h-8.8
				c0.24,0.16,0.56,0.4,0.8,0.64c1.76,1.76,3.36,3.68,4.8,6c1.84,2.88,0.96,5.28-1.92,6.48c-2.96,1.2-5.36-0.08-6.08-3.2
				c-0.48-2.16-1.04-4.24-1.84-6.56c-0.56-1.52-0.16-2.72,0.88-3.36h-10.72c0.4,0.24,0.72,0.56,1.04,1.04c1.52,2,3.04,4.64,4,7.36
				c1.12,3.2,0.24,5.2-2.88,6c-3.12,0.8-5.2-0.4-5.52-3.84c-0.24-2.56-0.56-5.04-1.04-7.36c-0.24-1.52,0.16-2.64,1.2-3.2h-3.44
				c-3.36,0-5.2-1.84-5.2-5.2v-16.4c0-3.36,1.84-5.2,5.2-5.2h46.32c1.84,0,2.8,0.96,2.8,2.8c0,1.84-0.96,2.8-2.8,2.8h-18.32v1.92
				h15.92c1.68,0,2.56,0.96,2.56,2.48c0,1.6-0.88,2.48-2.56,2.48h-15.92v1.76h15.92c1.68,0,2.56,0.96,2.56,2.48
				c0,1.6-0.88,2.48-2.56,2.48h-15.92v2h21.84C411.52,64.18,413.28,66.1,413.2,69.54z M372.56,29.06c0-0.56-0.4-0.96-0.96-0.96h-16
				l-0.96,1.36h11.44c2.56,0,4,1.44,4,4v2.64v0.56c1.36,0.08,2-0.24,2.16-1.68C372.4,33.14,372.56,30.98,372.56,29.06z
				 M362.56,34.42c0-0.56-0.4-0.96-0.96-0.96h-2.96c-0.56,0-0.96,0.4-0.96,0.96v0.8c0,0.56,0.4,0.96,0.96,0.96h2.96
				c0.56,0,0.96-0.4,0.96-0.96V34.42z M364.8,49.54v0.96h10.32v-1.92h-9.36C365.2,48.58,364.8,48.98,364.8,49.54z M375.12,55.46
				H364.8v1.76h10.32V55.46z M365.76,64.18h9.36v-2H364.8v1.04C364.8,63.78,365.2,64.18,365.76,64.18z M391.44,22.98
				c1.28,2,2.8,3.68,4.56,5.12c1.2-1.76,2.16-3.76,2.96-6H392C391.84,22.42,391.6,22.74,391.44,22.98z M402.16,70.82
				c0-0.56-0.4-1.04-0.96-1.04h-7.52c1.04,0.8,2.08,1.76,3.04,2.88c1.6,1.76,1.76,3.52,0.56,5.12h0.4c2.8,0.16,3.76-0.56,4.08-2.56
				C401.92,74.26,402.16,72.58,402.16,70.82z"/>
		</g>
		<g>
			<path class="st2" d="M498.72,58.5c0,1.92-1.12,3.04-3.04,3.04h-65.12c-1.92,0-3.04-1.12-3.04-3.04c0-1.92,1.12-3.04,3.04-3.04
				h15.52c-1.04-1.68-2-3.28-2.96-4.72c-0.32-0.48-0.48-0.96-0.56-1.44h-0.64c-3.36,0-5.2-1.84-5.2-5.2v-5.52
				c0-3.36,1.84-5.2,5.2-5.2h42.48c3.36,0,5.2,1.84,5.2,5.2v5.52c0,3.36-1.84,5.2-5.2,5.2h-1.2c1.2,1.6,0.96,3.6-0.72,5.12
				c-0.4,0.32-0.8,0.72-1.28,1.04h14.48C497.6,55.46,498.72,56.58,498.72,58.5z M428.48,18.5c0-2.08,1.2-3.2,3.28-3.2h24.64v-1.52
				c0-3.04,2.48-4.72,6.64-4.72c4,0,6.48,1.68,6.48,4.72v1.52h25.12c2.08,0,3.28,1.12,3.28,3.2c0,2.08-1.2,3.28-3.28,3.28h-25.12
				v2.96h20.8c2,0,3.2,1.12,3.2,3.2s-1.2,3.2-3.2,3.2h-54.48c-2,0-3.2-1.12-3.2-3.2s1.2-3.2,3.2-3.2h20.56v-2.96h-24.64
				C429.68,21.78,428.48,20.58,428.48,18.5z M490.08,69.3v10c0,3.68-2.24,5.6-6.4,5.6c-3.6,0-5.76-1.44-6.32-4.24h-28.48
				c-0.48,2.88-2.64,4.32-6.32,4.32c-4.16,0-6.4-1.92-6.4-5.6V69.3c0-3.36,1.84-5.2,5.2-5.2h43.52
				C488.24,64.1,490.08,65.94,490.08,69.3z M448.96,70.98v3.76h28.32v-3.76c0-0.56-0.4-0.96-0.96-0.96h-26.4
				C449.36,70.02,448.96,70.42,448.96,70.98z M449.36,42.26c0,0.56,0.4,0.96,0.96,0.96H476c0.56,0,0.96-0.4,0.96-0.96v-1.84
				c0-0.56-0.4-0.96-0.96-0.96h-25.68c-0.56,0-0.96,0.4-0.96,0.96V42.26z M455.44,55.46h16.08c1.04-1.84,2.08-3.6,3.28-5.84
				c0.08-0.08,0.16-0.24,0.16-0.32h-23.12c0.72,0.56,1.44,1.2,2.08,1.84C455.52,52.58,455.92,54.1,455.44,55.46z"/>
		</g>
	</g>
</g>
</svg>
