<?xml version="1.0" encoding="utf-8"?>
<!-- Generator: Adobe Illustrator 25.0.1, SVG Export Plug-In . SVG Version: 6.00 Build 0)  -->
<svg version="1.1" id="圖層_1" xmlns="http://www.w3.org/2000/svg" xmlns:xlink="http://www.w3.org/1999/xlink" x="0px" y="0px"
	 viewBox="0 0 42.64 38.2" style="enable-background:new 0 0 42.64 38.2;" xml:space="preserve">
<style type="text/css">
	.st0{fill:#44150D;}
</style>
<g>
	<path class="st0" d="M39.7,21.72c-1.45,0-2.62,1.17-2.62,2.62c0,0,0,0,0,0v7.88H5.57v-7.88c0-1.45-1.18-2.62-2.62-2.62
		s-2.62,1.18-2.62,2.62v10.5c0,1.45,1.17,2.62,2.62,2.62c0,0,0,0,0,0H39.7c1.45,0,2.62-1.17,2.62-2.62c0,0,0,0,0,0v-10.5
		C42.32,22.9,41.15,21.72,39.7,21.72C39.7,21.72,39.7,21.72,39.7,21.72z"/>
	<path class="st0" d="M15.3,13.08l3.39-3.39v14.66c0,1.45,1.18,2.62,2.62,2.62c1.45,0,2.62-1.18,2.62-2.62V9.68l3.39,3.39
		c1.03,1.02,2.69,1.02,3.71-0.01c1.02-1.02,1.02-2.68,0-3.7l-7.88-7.88c-1.02-1.03-2.69-1.03-3.71,0c0,0,0,0,0,0l-7.88,7.88
		c-1.02,1.03-1.02,2.69,0.01,3.71C12.62,14.1,14.28,14.1,15.3,13.08z"/>
</g>
</svg>
